<?xml version="1.0" encoding="utf-8"?>
<!-- Generator: Adobe Illustrator 27.5.0, SVG Export Plug-In . SVG Version: 6.00 Build 0)  -->
<svg version="1.1" xmlns="http://www.w3.org/2000/svg" xmlns:xlink="http://www.w3.org/1999/xlink" x="0px" y="0px"
	 viewBox="0 0 750 500" style="enable-background:new 0 0 750 500;" xml:space="preserve">
<g id="Background_Complete">
	<g>
		<g>
			<g>
				<path style="fill:#E0E0E0;" d="M465.605,449.841c1.42-6.323,6.121-11.814,12.15-14.191c1.561,6.003-1.375,12.881-6.791,15.906
					c4.997,2.703,8.185,8.44,7.841,14.111c-6.329-0.28-12.213-4.999-13.861-11.116"/>
			</g>
			<g>
				<path style="fill:#E0E0E0;" d="M441.585,467.236c0.987,2.394,3.03,4.329,5.474,5.185c0.613,0.215,1.307,0.361,1.899,0.093
					c0.592-0.268,0.942-1.107,0.515-1.597c0.982,0.636,2.146,1.143,3.297,0.931s2.165-1.404,1.812-2.52
					c1.343,0.372,3.057,0.628,3.888-0.49c0.563-0.757,0.411-1.866-0.107-2.655c-0.518-0.789-1.328-1.331-2.115-1.85"/>
			</g>
			<g>
				<path style="fill:#E0E0E0;" d="M436.357,439.968c3.802-5.992,9.568-10.716,16.19-13.266c0.817-0.315,1.819-0.572,2.502-0.024
					c0.525,0.421,0.646,1.199,0.469,1.848c-0.176,0.649-0.593,1.202-1.001,1.738c1.151-0.523,2.562-0.773,3.641-0.114
					c1.08,0.659,1.371,2.502,0.28,3.142c0.812-0.792,2.339-0.322,2.829,0.701c0.49,1.023,0.125,2.291-0.598,3.165
					c-0.723,0.874-1.743,1.439-2.738,1.983"/>
			</g>
			<g>
				<path style="fill:#F5F5F5;" d="M423.798,453.033c0,0,9.41-16.431,24.497-16.431c15.087,0,18.671,15.385,18.671,15.385
					s-5.377,13.294-18.671,15.535C435.001,469.762,423.798,453.033,423.798,453.033z"/>
			</g>
			<g>
				<path style="fill:#E0E0E0;" d="M440.143,451.506c2.06,2.355,4.355,4.504,6.841,6.405c1.172,0.896,2.508,1.775,3.981,1.705
					c1.298-0.062,2.479-0.888,3.198-1.971c0.719-1.082,1.024-2.393,1.125-3.688c0.167-2.148-0.202-4.336-1.063-6.312
					c-0.474-1.088-1.203-2.198-2.346-2.517c-1.309-0.366-2.633,0.426-3.763,1.182c-2.675,1.79-5.349,3.581-8.024,5.371"/>
			</g>
		</g>
		<g>
			<g>
				<path style="fill:#E0E0E0;" d="M434.914,444.861c0.026-0.02,0.221,0.17,0.524,0.557c0.304,0.386,0.701,0.981,1.1,1.768
					c0.802,1.559,1.529,3.991,1.321,6.71c-0.209,2.719-1.3,5.012-2.33,6.43c-0.514,0.717-0.997,1.245-1.357,1.58
					c-0.359,0.336-0.581,0.494-0.603,0.47c-0.066-0.065,0.729-0.806,1.654-2.255c0.926-1.434,1.916-3.658,2.117-6.265
					c0.199-2.606-0.439-4.955-1.135-6.513C435.512,445.769,434.839,444.915,434.914,444.861z"/>
			</g>
		</g>
		<g>
			<path style="fill:#E0E0E0;" d="M432.863,448.337c-0.903-0.147-1.835,0.671-1.805,1.585c0.03,0.914,1.013,1.67,1.904,1.462
				c0.891-0.208,1.438-1.323,1.056-2.155c-0.382-0.831-1.586-1.143-2.322-0.6"/>
		</g>
	</g>
	<g>
		<g>
			<path style="fill:#E0E0E0;" d="M219.255,428.926c3.22,2.401,6.479,4.825,10.173,6.402c3.694,1.577,7.922,2.251,11.75,1.034
				c0.993-0.316,2.079-0.918,2.225-1.95c0.175-1.23-1.064-2.153-2.165-2.73c-4.903-2.569-10.255-4.275-15.74-5.019
				c5.982-1.209,11.271-5.447,13.754-11.022c0.576-1.294,0.953-2.959-0.002-4.005c-0.62-0.678-1.625-0.857-2.542-0.797
				c-2.53,0.166-4.707,1.788-6.622,3.448c-4.704,4.077-8.85,8.797-12.285,13.988"/>
		</g>
		<g>
			<path style="fill:#E0E0E0;" d="M174.601,416.221c3.375-1.947,6.751-3.894,10.126-5.84c0.638-0.368,1.306-0.745,2.041-0.784
				c0.735-0.039,1.551,0.377,1.707,1.096c0.119,0.549-0.162,1.113-0.114,1.672c0.097,1.126,1.455,1.718,2.581,1.623
				c1.127-0.095,2.188-0.618,3.317-0.676c0.624-0.032,1.38,0.19,1.531,0.796c0.123,0.492-0.217,0.965-0.356,1.453
				c-0.395,1.385,0.988,2.759,2.418,2.933s2.818-0.467,4.128-1.067c1.309-0.6,2.736-1.189,4.149-0.909s2.648,1.836,2.051,3.147
				c1.428-0.367,2.966-0.73,4.346-0.211c1.38,0.519,2.682,3.04,1.821,4.237c-12.946-4.203-26.84-7.191-40.449-7.434"/>
		</g>
		<g>
			<path style="fill:#E0E0E0;" d="M172.003,435.264c1.661,3.289,4.934,5.715,8.565,6.347c3.63,0.632,7.531-0.546,10.205-3.081
				c0.412-0.391,0.826-0.829,1.377-0.971c1.016-0.262,1.944,0.565,2.848,1.097c1.475,0.869,3.359,1.001,4.941,0.347
				c0.939-0.388,1.824-1.046,2.84-1.021c0.83,0.021,1.566,0.497,2.312,0.861c3.143,1.535,7.159,1.074,9.871-1.134
				c2.713-2.208,3.98-6.046,3.116-9.435"/>
		</g>
		<g>
			<path style="fill:#EBEBEB;" d="M147.176,427.125c7.794-7.729,19.171-10.987,30.148-11.029c10.977-0.042,21.74,2.807,32.3,5.803
				c4.247,1.205,8.864,2.713,11.195,6.462c-12.365,5.392-25.959,7.54-39.447,7.78c-6.002,0.107-12.047-0.159-17.908-1.458
				c-5.861-1.299-11.556-3.671-16.22-7.45"/>
		</g>
		<g>
			<path style="fill:#E0E0E0;" d="M161.46,422.469c-1.251-0.161-2.51,0.958-2.495,2.219c0.015,1.261,1.299,2.352,2.546,2.161
				c1.247-0.191,2.147-1.615,1.783-2.823c-0.363-1.208-1.9-1.899-3.045-1.37"/>
		</g>
		<g>
			<g>
				<path style="fill:#E0E0E0;" d="M165.507,432.588c-0.064-0.061,0.545-0.667,1.232-1.834c0.689-1.153,1.403-2.932,1.465-4.985
					c0.061-2.053-0.546-3.872-1.165-5.064c-0.617-1.206-1.188-1.847-1.12-1.904c0.037-0.04,0.717,0.521,1.443,1.726
					c0.725,1.188,1.427,3.087,1.363,5.258c-0.066,2.17-0.88,4.023-1.675,5.166C166.253,432.111,165.541,432.63,165.507,432.588z"/>
			</g>
		</g>
		<g>
			<path style="fill:#E0E0E0;" d="M169.372,426.238c3.301,2.446,7.124,4.185,11.136,5.067c1.547,0.34,3.149,0.554,4.713,0.306
				c1.564-0.248,3.098-1.007,4.014-2.299c1.01,0.349,2.152,0.692,3.108,0.216c1.306-0.65,1.511-2.509,0.952-3.856
				c-1.001-2.41-3.71-3.753-6.315-3.901c-2.605-0.148-5.157,0.675-7.636,1.488C175.893,424.39,172.824,425.107,169.372,426.238"/>
		</g>
	</g>
	<g>
		<g>
			<path style="fill:#E0E0E0;" d="M677.197,371.49c1.86,1.387,3.743,2.787,5.877,3.698c2.134,0.911,4.576,1.3,6.788,0.597
				c0.574-0.182,1.201-0.53,1.286-1.126c0.101-0.71-0.615-1.244-1.25-1.577c-2.832-1.484-5.924-2.47-9.092-2.899
				c3.456-0.698,6.511-3.146,7.945-6.367c0.333-0.747,0.55-1.71-0.002-2.313c-0.358-0.392-0.939-0.495-1.468-0.46
				c-1.461,0.096-2.719,1.033-3.826,1.992c-2.718,2.355-5.112,5.082-7.097,8.08"/>
		</g>
		<g>
			<path style="fill:#E0E0E0;" d="M651.402,364.151c1.95-1.125,3.899-2.249,5.849-3.374c0.368-0.212,0.755-0.43,1.179-0.453
				c0.425-0.023,0.896,0.218,0.986,0.633c0.069,0.317-0.094,0.643-0.066,0.966c0.056,0.651,0.84,0.992,1.491,0.938
				c0.651-0.055,1.264-0.357,1.916-0.391c0.36-0.019,0.797,0.109,0.885,0.46c0.071,0.284-0.125,0.558-0.205,0.839
				c-0.228,0.8,0.571,1.594,1.397,1.694c0.826,0.1,1.628-0.27,2.384-0.616c0.756-0.347,1.581-0.687,2.397-0.525
				c0.816,0.162,1.53,1.061,1.185,1.818c0.825-0.212,1.713-0.422,2.511-0.122s1.549,1.756,1.052,2.448
				c-7.478-2.428-15.505-4.154-23.366-4.294"/>
		</g>
		<g>
			<path style="fill:#E0E0E0;" d="M649.901,375.151c0.959,1.9,2.85,3.301,4.948,3.666c2.097,0.365,4.35-0.315,5.895-1.78
				c0.238-0.226,0.477-0.479,0.795-0.561c0.587-0.151,1.123,0.326,1.645,0.634c0.852,0.502,1.941,0.578,2.854,0.201
				c0.542-0.224,1.054-0.604,1.64-0.59c0.479,0.012,0.905,0.287,1.336,0.497c1.815,0.887,4.135,0.62,5.702-0.655
				c1.567-1.275,2.299-3.493,1.8-5.45"/>
		</g>
		<g>
			<path style="fill:#EBEBEB;" d="M635.56,370.449c4.502-4.465,11.074-6.346,17.415-6.371c6.341-0.024,12.558,1.622,18.658,3.353
				c2.453,0.696,5.121,1.567,6.467,3.733c-7.143,3.115-14.996,4.355-22.787,4.494c-3.467,0.062-6.959-0.092-10.345-0.842
				c-3.386-0.751-6.675-2.12-9.37-4.304"/>
		</g>
		<g>
			<path style="fill:#E0E0E0;" d="M643.811,367.76c-0.723-0.093-1.45,0.553-1.441,1.282c0.008,0.729,0.75,1.358,1.471,1.248
				c0.72-0.11,1.24-0.933,1.03-1.631c-0.21-0.698-1.098-1.097-1.759-0.791"/>
		</g>
		<g>
			<g>
				<path style="fill:#E0E0E0;" d="M646.148,373.605c-0.058-0.057,0.272-0.426,0.646-1.101c0.376-0.668,0.767-1.68,0.802-2.841
					c0.034-1.161-0.296-2.195-0.631-2.885c-0.333-0.696-0.64-1.084-0.579-1.137c0.044-0.044,0.459,0.263,0.902,0.96
					c0.441,0.685,0.867,1.799,0.829,3.078c-0.039,1.278-0.53,2.365-1.012,3.022C646.622,373.37,646.189,373.652,646.148,373.605z"/>
			</g>
		</g>
		<g>
			<path style="fill:#E0E0E0;" d="M648.381,369.938c1.907,1.413,4.115,2.417,6.433,2.927c0.893,0.197,1.819,0.32,2.723,0.177
				c0.904-0.143,1.79-0.582,2.319-1.328c0.583,0.202,1.243,0.4,1.795,0.125c0.755-0.375,0.873-1.449,0.55-2.227
				c-0.578-1.392-2.143-2.168-3.648-2.253c-1.505-0.085-2.979,0.39-4.411,0.859C652.148,368.87,650.375,369.284,648.381,369.938"/>
		</g>
	</g>
	<g>
		<g>
			<g>
				<g>
					<g>
						<path style="fill:#F5F5F5;" d="M677.689,175.205c0-0.766,2.586-51.148,2.586-51.148l3.944,22.797L677.689,175.205z"/>
					</g>
				</g>
				<g>
					<g>
						<path style="fill:#F5F5F5;" d="M676.731,230.568c0.191-0.575,4.406-9.77,4.406-9.77l18.582-23.563l-11.494,25.861
							L676.731,230.568z"/>
					</g>
				</g>
				<g>
					<g>
						<polygon style="fill:#F5F5F5;" points="674.624,244.169 669.852,232.867 670.793,216.584 674.624,237.464 						"/>
					</g>
				</g>
				<g>
					<g>
						<g>
							<path style="fill:#E0E0E0;" d="M673.408,272.681c-0.113-0.005,0.822-25.385,2.078-53.087
								c1.256-27.711,2.366-50.164,2.48-50.159c0.113,0.005-0.813,22.466-2.069,50.178
								C674.641,247.314,673.522,272.686,673.408,272.681z"/>
						</g>
					</g>
				</g>
				<g>
					<g>
						<path style="fill:#EBEBEB;" d="M668.303,147.264c-0.383-0.575-1.533-19.348-0.958-20.881
							c0.575-1.533,6.705-22.222,6.705-22.222l-1.724,30.651L668.303,147.264z"/>
					</g>
				</g>
				<g>
					<g>
						<path style="fill:#EBEBEB;" d="M667.685,171.182c0,0,1.916-8.237,3.431-9.195c1.516-0.958,21.822-16.283,21.822-16.283
							l10.345-2.107l-8.812,4.406L667.685,171.182z"/>
					</g>
				</g>
				<g>
					<g>
						<polygon style="fill:#EBEBEB;" points="659.031,145.537 664.586,179.061 666.885,181.743 667.685,172.931 						"/>
					</g>
				</g>
				<g>
					<g>
						<polygon style="fill:#EBEBEB;" points="647.838,174.248 659.524,197.619 666.42,200.492 660.865,189.764 						"/>
					</g>
				</g>
				<g>
					<g>
						<path style="fill:#EBEBEB;" d="M665.341,214.726c0.383-0.575,6.896-17.049,6.896-17.049l17.049-11.877h7.279l-5.172,1.245
							L665.341,214.726z"/>
					</g>
				</g>
				<g>
					<g>
						<polygon style="fill:#EBEBEB;" points="654.89,215.779 660.631,230.165 665.341,231.105 665.341,227.809 						"/>
					</g>
				</g>
				<g>
					<g>
						<g>
							<path style="fill:#E0E0E0;" d="M663.366,270.494c-0.114-0.005,0.985-28.208,2.453-62.986
								c1.469-34.79,2.751-62.979,2.864-62.975c0.113,0.005-0.985,28.202-2.453,62.992
								C664.762,242.303,663.479,270.499,663.366,270.494z"/>
						</g>
					</g>
				</g>
			</g>
			<g>
				<g>
					<g>
						<path style="fill:#E0E0E0;" d="M449.72,267.053c-4.167,0.88-8.338,2.242-14.053,2.717l-0.266-79.226
							c0-3.954,3.206-7.16,7.16-7.16l0,0c3.954,0,7.16,3.206,7.16,7.16V267.053z"/>
					</g>
				</g>
				<g>
					<g>
						<path style="fill:#E0E0E0;" d="M487.953,216.352H421.21c-1.935,0-3.504-1.569-3.504-3.504l0,0
							c0-1.935,1.569-3.504,3.504-3.504h66.742V216.352z"/>
					</g>
				</g>
				<g>
					<g>
						<rect x="490.143" y="209.343" style="fill:#E0E0E0;" width="72.274" height="7.008"/>
					</g>
				</g>
				<g>
					<g>
						<rect x="565.326" y="209.343" style="fill:#E0E0E0;" width="72.274" height="7.008"/>
					</g>
				</g>
				<g>
					<g>
						<rect x="640.51" y="209.343" style="fill:#E0E0E0;" width="72.274" height="7.008"/>
					</g>
				</g>
				<g>
					<g>
						<rect x="714.767" y="209.343" style="fill:#E0E0E0;" width="35.233" height="7.008"/>
					</g>
				</g>
				<g>
					<g>
						<path style="fill:#E0E0E0;" d="M606.966,275.199c-1.817,0.563-9.089,0.312-14.32,0.149v-84.803c0-3.954,3.206-7.16,7.16-7.16
							l0,0c3.954,0,7.16,3.206,7.16,7.16V275.199z"/>
					</g>
				</g>
				<g>
					<g>
						<g>
							<path style="fill:#EBEBEB;" d="M606.966,209.343c0.007,0.227-3.206,0.474-7.164,0.416c-3.951-0.057-7.149-0.179-7.156-0.406
								c-0.006-0.227,3.206-0.474,7.164-0.416C603.76,208.995,606.959,209.116,606.966,209.343z"/>
						</g>
					</g>
				</g>
				<g>
					<g>
						<g>
							<path style="fill:#EBEBEB;" d="M607.657,203.881c0.089,0.196-3.117,1.796-7.352,3.001c-4.233,1.219-7.799,1.557-7.827,1.344
								c-0.037-0.236,3.427-0.931,7.601-2.134C604.255,204.904,607.563,203.662,607.657,203.881z"/>
						</g>
					</g>
				</g>
				<g>
					<g>
						<g>
							<path style="fill:#EBEBEB;" d="M607.162,203.25c0.023,0.219-3.18,0.718-7.168,0.748c-3.989,0.04-7.2-0.403-7.181-0.622
								c0.018-0.233,3.226-0.161,7.174-0.2C603.934,203.146,607.14,203.017,607.162,203.25z"/>
						</g>
					</g>
				</g>
				<g>
					<g>
						<g>
							<path style="fill:#EBEBEB;" d="M607.161,201.295c0.013,0.227-3.187,0.602-7.148,0.839c-3.962,0.237-7.184,0.245-7.198,0.018
								c-0.014-0.227,3.187-0.602,7.149-0.839C603.925,201.077,607.148,201.069,607.161,201.295z"/>
						</g>
					</g>
				</g>
				<g>
					<g>
						<g>
							<path style="fill:#EBEBEB;" d="M607.131,216.457c-0.025,0.236-3.259,0.051-7.238,0.098c-3.981,0.034-7.209,0.283-7.239,0.048
								c-0.032-0.215,3.193-0.836,7.231-0.87C603.921,215.686,607.159,216.241,607.131,216.457z"/>
						</g>
					</g>
				</g>
				<g>
					<g>
						<g>
							<path style="fill:#EBEBEB;" d="M607.323,218.838c0.079,0.192-3.116,1.486-7.315,1.771c-4.198,0.311-7.544-0.518-7.493-0.719
								c0.037-0.244,3.356,0.203,7.434-0.102C604.029,219.514,607.252,218.601,607.323,218.838z"/>
						</g>
					</g>
				</g>
				<g>
					<g>
						<g>
							<path style="fill:#EBEBEB;" d="M607.737,222.508c-0.002,0.227-3.356,0.377-7.489,0.334c-4.135-0.042-7.484-0.261-7.481-0.488
								c0.002-0.227,3.355-0.377,7.49-0.334C604.39,222.062,607.74,222.281,607.737,222.508z"/>
						</g>
					</g>
				</g>
				<g>
					<g>
						<g>
							<g>
								<path style="fill:#EBEBEB;" d="M449.071,209.031c0.007,0.227-3.044,0.474-6.802,0.416c-3.751-0.057-6.787-0.179-6.793-0.406
									c-0.007-0.227,3.044-0.474,6.803-0.416C446.028,208.683,449.064,208.804,449.071,209.031z"/>
							</g>
						</g>
					</g>
					<g>
						<g>
							<g>
								<path style="fill:#EBEBEB;" d="M449.727,203.569c0.093,0.194-2.932,1.788-6.957,2.995c-4.022,1.221-7.425,1.563-7.454,1.349
									c-0.039-0.235,3.256-0.933,7.216-2.136C446.496,204.59,449.63,203.352,449.727,203.569z"/>
							</g>
						</g>
					</g>
					<g>
						<g>
							<g>
								<path style="fill:#EBEBEB;" d="M449.258,202.938c0.024,0.219-3.016,0.717-6.805,0.748c-3.79,0.04-6.839-0.403-6.819-0.622
									c0.019-0.233,3.064-0.161,6.811-0.2C446.191,202.834,449.235,202.705,449.258,202.938z"/>
							</g>
						</g>
					</g>
					<g>
						<g>
							<g>
								<path style="fill:#EBEBEB;" d="M449.257,200.984c0.014,0.227-3.023,0.602-6.784,0.839c-3.762,0.237-6.822,0.245-6.836,0.018
									c-0.014-0.227,3.023-0.602,6.785-0.839C446.182,200.765,449.243,200.757,449.257,200.984z"/>
							</g>
						</g>
					</g>
					<g>
						<g>
							<g>
								<path style="fill:#EBEBEB;" d="M449.72,216.588c0.007,0.227-3.155,0.507-7.062,0.628c-3.899,0.121-7.1,0.036-7.067-0.184
									c-0.049-0.233,3.143-0.517,7.042-0.637C446.539,216.274,449.713,216.361,449.72,216.588z"/>
							</g>
						</g>
					</g>
					<g>
						<g>
							<g>
								<path style="fill:#EBEBEB;" d="M449.411,218.526c0.082,0.19-2.939,1.483-6.936,1.771c-3.997,0.313-7.177-0.518-7.123-0.718
									c0.04-0.244,3.191,0.204,7.061-0.102C446.285,219.2,449.335,218.29,449.411,218.526z"/>
							</g>
						</g>
					</g>
					<g>
						<g>
							<g>
								<path style="fill:#EBEBEB;" d="M449.804,222.196c-0.003,0.227-3.186,0.377-7.111,0.335
									c-3.925-0.042-7.105-0.261-7.102-0.488c0.002-0.227,3.186-0.377,7.111-0.334
									C446.626,221.75,449.806,221.969,449.804,222.196z"/>
							</g>
						</g>
					</g>
				</g>
			</g>
		</g>
		<g>
			<g>
				<path style="fill:#FFFFFF;" d="M414.838,278.454c15.122-11.76,35.773-16.069,54.336-11.337
					c12.819,3.268,24.771,10.58,37.997,10.87c19.069,0.418,36.223-13.869,55.283-13.146c15.088,0.572,28.691,10.527,43.789,10.749
					c14.214,0.208,27.416-8.257,41.63-8.414c16.167-0.179,31.29,10.403,47.388,8.899c8.384-0.783,16.08-4.791,24.164-7.148
					c8.084-2.356,21.342,1.98,27.697,7.504"/>
			</g>
			<g>
				<g>
					<path style="fill:#E0E0E0;" d="M747.123,276.43c0,0-0.247-0.176-0.712-0.538c-0.453-0.378-1.178-0.872-2.135-1.506
						c-1.941-1.219-4.956-2.835-9.114-4.167c-2.075-0.663-4.436-1.266-7.068-1.59c-2.621-0.31-5.555-0.373-8.536,0.416
						c-2.975,0.862-6.085,2.028-9.389,3.246c-3.305,1.211-6.826,2.478-10.667,3.306c-3.834,0.86-8.012,0.995-12.262,0.503
						c-4.26-0.496-8.591-1.608-12.992-2.937c-4.406-1.323-8.913-2.841-13.652-4.028c-4.724-1.216-9.745-1.946-14.878-1.619
						c-5.135,0.353-10.275,1.714-15.439,3.281c-5.171,1.562-10.434,3.323-15.999,4.341c-2.784,0.48-5.637,0.75-8.518,0.684
						c-2.884-0.056-5.758-0.54-8.604-1.169c-5.694-1.313-11.201-3.494-16.819-5.459c-2.81-0.987-5.622-1.92-8.47-2.625
						c-2.843-0.705-5.714-1.272-8.599-1.407c-5.778-0.41-11.453,0.774-16.815,2.339c-5.38,1.593-10.503,3.673-15.585,5.544
						c-5.077,1.872-10.141,3.556-15.26,4.457c-5.107,0.924-10.266,0.939-15.099-0.001c-4.844-0.891-9.374-2.446-13.682-4.044
						c-4.312-1.605-8.431-3.256-12.475-4.597c-4.038-1.351-8.017-2.326-11.88-2.855c-3.864-0.518-7.582-0.658-11.094-0.558
						c-3.507,0.188-6.807,0.544-9.846,1.154c-6.097,1.146-11.13,3.066-15.087,4.886c-3.978,1.812-6.809,3.707-8.746,4.94
						c-0.927,0.663-1.637,1.171-2.128,1.522c-0.481,0.341-0.736,0.505-0.736,0.505s0.233-0.192,0.704-0.548
						c0.484-0.361,1.185-0.884,2.101-1.566c1.921-1.263,4.741-3.191,8.719-5.036c3.956-1.854,8.998-3.81,15.117-4.988
						c3.05-0.626,6.365-0.998,9.889-1.199c3.529-0.113,7.268,0.014,11.157,0.524c3.886,0.521,7.9,1.493,11.956,2.839
						c4.062,1.336,8.192,2.981,12.499,4.573c4.304,1.587,8.814,3.125,13.614,3.999c4.791,0.922,9.872,0.9,14.934-0.021
						c5.07-0.899,10.105-2.578,15.171-4.451c5.07-1.871,10.2-3.96,15.612-5.566c5.393-1.577,11.129-2.78,16.991-2.367
						c2.926,0.136,5.828,0.71,8.695,1.42c2.872,0.711,5.698,1.649,8.514,2.638c5.632,1.97,11.121,4.144,16.763,5.445
						c2.819,0.623,5.659,1.103,8.501,1.159c2.839,0.066,5.656-0.198,8.414-0.672c5.515-1.005,10.763-2.755,15.945-4.315
						c5.175-1.565,10.353-2.933,15.55-3.284c5.2-0.325,10.276,0.424,15.021,1.654c4.762,1.201,9.271,2.73,13.666,4.059
						c4.39,1.335,8.693,2.449,12.915,2.952c4.215,0.497,8.335,0.376,12.139-0.464c3.81-0.81,7.323-2.059,10.63-3.257
						c3.307-1.205,6.427-2.362,9.423-3.215c3.046-0.792,6.007-0.709,8.647-0.382c2.65,0.342,5.019,0.962,7.1,1.644
						c4.168,1.368,7.179,3.02,9.109,4.272c0.952,0.65,1.669,1.16,2.112,1.553C746.9,276.228,747.123,276.43,747.123,276.43z"/>
				</g>
			</g>
		</g>
	</g>
	<g>
		<g>
			<g>
				<path style="fill:#EBEBEB;" d="M134.607,114.954h93.747c0,0-8.29-15.086-32.421-12.89c-23.046,2.097-24.218-7.422-35.936-8.593
					C148.278,92.299,138.513,101.283,134.607,114.954z"/>
			</g>
		</g>
	</g>
	<g>
		<g>
			<g>
				<path style="fill:#F5F5F5;" d="M537.005,91.91h103.322c0,0-9.137-16.627-35.732-14.207c-25.4,2.311-26.691-8.18-39.607-9.471
					C552.073,66.941,541.31,76.842,537.005,91.91z"/>
			</g>
		</g>
	</g>
	<g>
		<g>
			<path style="fill:#E0E0E0;" d="M124.142,149.909c154.003,0,330.628,0,484.631,0"/>
		</g>
		<g>
			<g>
				<path style="fill:#E0E0E0;" d="M608.773,149.909c0,0.144-108.497,0.26-242.304,0.26c-133.853,0-242.327-0.117-242.327-0.26
					c0-0.144,108.474-0.26,242.327-0.26C500.276,149.649,608.773,149.766,608.773,149.909z"/>
			</g>
		</g>
	</g>
	<g>
		<g>
			<path style="fill:#E0E0E0;" d="M342.188,157.45c0,0.144-15.208,0.26-33.964,0.26c-18.762,0-33.967-0.117-33.967-0.26
				c0-0.144,15.205-0.26,33.967-0.26C326.979,157.19,342.188,157.306,342.188,157.45z"/>
		</g>
	</g>
	<g>
		<g>
			<path style="fill:#E0E0E0;" d="M326.511,164.285c0,0.144-8.189,0.26-18.288,0.26c-10.103,0-18.29-0.117-18.29-0.26
				c0-0.144,8.187-0.26,18.29-0.26C318.322,164.024,326.511,164.141,326.511,164.285z"/>
		</g>
	</g>
</g>
<g id="Background_Simple" style="display:none;">
	<path style="display:inline;fill:#F5F5F5;" d="M241.529,361.911c-33.604-3.91-64.394-31.311-84.034-53.084
		c-19.641-21.773-27.391-49.941-20.95-76.143c3.674-14.947,12.131-29.558,26.557-39.722c23.276-16.398,57.315-18.595,88.573-18.049
		c31.258,0.546,63.94,2.805,92.486-7.213c37.893-13.298,59.637-45.038,93.92-63.414c23.77-12.741,53.63-18.542,82.086-15.178
		c28.456,3.364,55.127,16.051,71.288,34.755c16.057,18.583,21.247,41.726,21.885,64.18c1.047,36.839-9.718,74.638-36.616,104.825
		c-34.782,39.035-81.691,61.967-145.969,73.835C371.709,377.606,296.47,382.098,241.529,361.911"/>
</g>
<g id="Character">
	<g>
		<g>
			<g>
				<g>
					<g>
						<g>
							<g>
								<g>
									<g>
										<g>
											<g>
												<g>
													<g>
														<g>
															<g>
																<g>
																	<g>
																		<g>
																			<path style="fill:#FFBE9D;" d="M208.055,194.942l2.471,35.013c0.404,5.717,5.159,10.148,10.889,10.148l0,0
																				c6.309,0,11.307-5.335,10.893-11.631c-0.219-3.333-0.417-6.062-0.417-6.062s8.476-1.318,8.581-9.793
																				c0.06-4.895-0.784-16.003-1.507-24.512c-0.489-5.753-5.305-10.169-11.079-10.169h-5.12
																				C213.949,178.451,207.296,186.142,208.055,194.942z"/>
																		</g>
																	</g>
																</g>
															</g>
														</g>
													</g>
												</g>
											</g>
											<g>
												<g>
													<g>
														<g>
															<g>
																<g>
																	<g>
																		<g>
																			<path style="fill:#EB996E;" d="M231.906,222.288c0,0-5.356,0.436-11.049-3.14c0,0,2.612,6.099,11.068,5.336
																				L231.906,222.288z"/>
																		</g>
																	</g>
																</g>
															</g>
														</g>
													</g>
												</g>
											</g>
										</g>
									</g>
								</g>
								<g>
									<g>
										<g>
											<g>
												<g>
													<g>
														<g>
															<g>
																<g>
																	<g>
																		<g>
																			<g>
																				<g>
																					<g>
																						<path style="fill:#263238;" d="M236.753,198.27c0.023,0.639-0.5,1.185-1.167,1.221
																							c-0.666,0.036-1.225-0.452-1.247-1.091c-0.023-0.639,0.5-1.186,1.166-1.222
																							C236.171,197.143,236.73,197.632,236.753,198.27z"/>
																					</g>
																				</g>
																			</g>
																		</g>
																	</g>
																</g>
															</g>
														</g>
														<g>
															<g>
																<g>
																	<g>
																		<g>
																			<g>
																				<g>
																					<g>
																						<g>
																							<path style="fill:#263238;" d="M237.504,196.604c-0.15,0.158-1.067-0.521-2.369-0.517
																								c-1.301-0.015-2.257,0.655-2.398,0.495c-0.07-0.071,0.083-0.355,0.499-0.659
																								c0.41-0.302,1.108-0.595,1.92-0.592c0.811,0.005,1.494,0.303,1.886,0.609
																								C237.442,196.248,237.578,196.533,237.504,196.604z"/>
																						</g>
																					</g>
																				</g>
																			</g>
																		</g>
																	</g>
																</g>
															</g>
														</g>
													</g>
													<g>
														<g>
															<g>
																<g>
																	<g>
																		<g>
																			<g>
																				<g>
																					<g>
																						<path style="fill:#263238;" d="M224.486,198.622c0.023,0.639-0.5,1.185-1.167,1.221
																							c-0.666,0.036-1.225-0.452-1.248-1.091c-0.023-0.639,0.5-1.186,1.166-1.222
																							C223.904,197.494,224.463,197.983,224.486,198.622z"/>
																					</g>
																				</g>
																			</g>
																		</g>
																	</g>
																</g>
															</g>
														</g>
														<g>
															<g>
																<g>
																	<g>
																		<g>
																			<g>
																				<g>
																					<g>
																						<g>
																							<path style="fill:#263238;" d="M224.703,196.847c-0.15,0.158-1.068-0.521-2.37-0.517
																								c-1.301-0.015-2.257,0.655-2.398,0.495c-0.069-0.071,0.082-0.355,0.5-0.658
																								c0.41-0.302,1.108-0.595,1.919-0.592c0.811,0.005,1.494,0.303,1.886,0.609
																								C224.639,196.491,224.776,196.777,224.703,196.847z"/>
																						</g>
																					</g>
																				</g>
																			</g>
																		</g>
																	</g>
																</g>
															</g>
														</g>
													</g>
													<g>
														<g>
															<g>
																<g>
																	<g>
																		<g>
																			<g>
																				<g>
																					<g>
																						<path style="fill:#263238;" d="M229.429,206.505c-0.006-0.074,0.803-0.214,2.115-0.382
																							c0.333-0.034,0.647-0.1,0.703-0.327c0.079-0.24-0.061-0.599-0.222-0.986c-0.313-0.805-0.64-1.648-0.984-2.532
																							c-1.366-3.606-2.354-6.57-2.209-6.624c0.146-0.054,1.371,2.825,2.737,6.431
																							c0.329,0.889,0.643,1.737,0.942,2.548c0.126,0.378,0.342,0.806,0.173,1.305
																							c-0.089,0.249-0.333,0.429-0.547,0.486c-0.213,0.065-0.4,0.069-0.565,0.079
																							C230.253,206.574,229.434,206.58,229.429,206.505z"/>
																					</g>
																				</g>
																			</g>
																		</g>
																	</g>
																</g>
															</g>
														</g>
													</g>
													<g>
														<g>
															<g>
																<g>
																	<g>
																		<g>
																			<g>
																				<g>
																					<g>
																						<path style="fill:#263238;" d="M225.596,207.406c0.212-0.012,0.215,1.401,1.424,2.405
																							c1.208,1.007,2.715,0.848,2.726,1.046c0.02,0.089-0.336,0.274-0.972,0.292
																							c-0.624,0.021-1.535-0.179-2.275-0.793c-0.738-0.615-1.055-1.436-1.104-2.016
																							C225.342,207.749,225.499,207.398,225.596,207.406z"/>
																					</g>
																				</g>
																			</g>
																		</g>
																	</g>
																</g>
															</g>
														</g>
													</g>
												</g>
											</g>
										</g>
										<g>
											<g>
												<g>
													<g>
														<g>
															<g>
																<g>
																	<g>
																		<path style="fill:#263238;" d="M225.039,191.743c-0.129,0.354-1.429,0.186-2.957,0.371
																			c-1.532,0.153-2.764,0.601-2.967,0.283c-0.09-0.152,0.124-0.485,0.623-0.828c0.494-0.342,1.282-0.667,2.199-0.77
																			c0.917-0.1,1.757,0.046,2.314,0.272C224.812,191.297,225.094,191.575,225.039,191.743z"/>
																	</g>
																</g>
															</g>
														</g>
													</g>
												</g>
											</g>
										</g>
										<g>
											<g>
												<g>
													<g>
														<g>
															<g>
																<g>
																	<g>
																		<path style="fill:#263238;" d="M237.025,192.835c-0.229,0.296-1.126-0.011-2.205-0.026
																			c-1.078-0.052-1.992,0.199-2.202-0.111c-0.092-0.15,0.051-0.446,0.451-0.726c0.393-0.279,1.051-0.507,1.793-0.485
																			c0.741,0.024,1.384,0.292,1.759,0.595C237.001,192.386,237.126,192.691,237.025,192.835z"/>
																	</g>
																</g>
															</g>
														</g>
													</g>
												</g>
											</g>
										</g>
									</g>
								</g>
								<g>
									<g>
										<g>
											<g>
												<g>
													<g>
														<g>
															<g>
																<g>
																	<path style="fill:#FFBE9D;" d="M210.912,201.303c-0.144-0.063-5.823-1.722-5.638,4.072
																		c0.185,5.794,5.964,4.413,5.969,4.246C211.247,209.454,210.912,201.303,210.912,201.303z"/>
																</g>
															</g>
														</g>
													</g>
												</g>
											</g>
										</g>
									</g>
									<g>
										<g>
											<g>
												<g>
													<g>
														<g>
															<g>
																<g>
																	<g>
																		<path style="fill:#EB996E;" d="M209.403,207.482c-0.026-0.018-0.099,0.074-0.267,0.158
																			c-0.164,0.081-0.448,0.143-0.754,0.04c-0.619-0.205-1.166-1.16-1.227-2.204c-0.032-0.527,0.063-1.033,0.236-1.454
																			c0.163-0.43,0.428-0.734,0.734-0.799c0.304-0.081,0.529,0.097,0.605,0.258c0.083,0.16,0.05,0.276,0.081,0.285
																			c0.017,0.014,0.121-0.101,0.067-0.339c-0.028-0.114-0.1-0.249-0.24-0.356c-0.143-0.109-0.349-0.16-0.563-0.13
																			c-0.446,0.045-0.835,0.469-1.026,0.932c-0.215,0.466-0.334,1.034-0.298,1.626c0.074,1.166,0.707,2.24,1.552,2.455
																			c0.411,0.093,0.747-0.04,0.918-0.183C209.397,207.623,209.423,207.492,209.403,207.482z"/>
																	</g>
																</g>
															</g>
														</g>
													</g>
												</g>
											</g>
										</g>
									</g>
								</g>
							</g>
						</g>
						<g>
							<g>
								<g>
									<g>
										<path style="fill:#263238;" d="M207.688,201.106c0.884-0.214,2.412,0.602,2.789,1.429c0.377,0.827,0.46,1.765,0.835,2.593
											c0.376,0.828,1.225,1.577,2.11,1.367c0.61-0.145,1.046-0.716,1.208-1.322c0.161-0.606,0.096-1.247,0.017-1.869
											c-0.341-2.706-0.91-5.389-1.019-8.114c-0.109-2.725,0.279-5.556,1.71-7.878c1.431-2.322,4.059-4.029,6.778-3.81
											c1.801,0.145,3.452,1.084,5.241,1.335c2.121,0.297,4.364-0.452,5.881-1.963c0.195-0.194,1.099-0.79,1.099-0.79
											c0-0.14-0.133-1.351-0.61-1.792c-3.549-3.282-9.944-4.198-14.632-3.019c-4.688,1.18-9.082,4.49-11.099,8.883
											C205.979,190.55,206.577,196.661,207.688,201.106"/>
									</g>
								</g>
							</g>
						</g>
					</g>
				</g>
				<g>
					<g>
						<path style="fill:#E8505B;" d="M236.324,184.539c-2.873-6.591-6.319-13.167-14.814-15.805
							c-3.032-0.942-8.858-1.854-11.533-0.155c-1.712,1.088-2.88,2.842-4.423,4.158c-1.817,1.549-4.105,2.45-5.98,3.929
							c-0.521,0.411-1.022,0.884-1.281,1.495c-0.259,0.611-0.223,1.388,0.24,1.865c0.372,0.383,0.931,0.505,1.457,0.598
							c2.204,0.386,4.443,0.568,6.679,0.542c-1.062,0.485-1.658,1.806-1.322,2.925c0.337,1.12,1.563,1.896,2.718,1.72
							c-0.622,2.828-1.381,3.075-0.464,5.826c0,0,8.236-7.217,15.135-8.377C229.635,182.102,236.324,184.539,236.324,184.539z"/>
					</g>
					<g>
						<path style="fill:#E8505B;" d="M238.182,180.444c-0.228-1.647-1.415-3.014-3.023-3.435
							c-5.379-1.408-11.258-0.447-15.751,0.927c-10.561,3.228-13.826,9.702-13.826,11.425c0,2.58,1.626,9.519,1.626,9.519
							c9.618-19.236,31.851-12.083,31.851-12.083L238.182,180.444z"/>
					</g>
					<g>
						<g>
							<path style="fill:#263238;" d="M235.377,176.827c-0.02,0.098-1.796-0.295-4.705-0.534c-2.897-0.225-6.985-0.223-11.261,0.992
								c-2.126,0.627-4.051,1.516-5.691,2.505c-0.4,0.261-0.792,0.516-1.174,0.765c-0.376,0.255-0.707,0.549-1.046,0.807
								c-0.693,0.503-1.238,1.086-1.772,1.579c-1.012,1.039-1.786,1.937-2.254,2.604c-0.49,0.653-0.777,1.007-0.808,0.988
								c-0.031-0.019,0.199-0.41,0.642-1.105c0.421-0.709,1.16-1.654,2.156-2.744c0.526-0.519,1.068-1.127,1.762-1.656
								c0.34-0.271,0.674-0.577,1.053-0.844c0.386-0.26,0.782-0.527,1.187-0.801c1.663-1.034,3.629-1.958,5.8-2.598
								c4.367-1.241,8.525-1.18,11.44-0.858c1.463,0.168,2.639,0.367,3.438,0.563C234.947,176.674,235.385,176.792,235.377,176.827z
								"/>
						</g>
					</g>
					<g>
						<g>
							<path style="fill:#263238;" d="M216.076,176.318c0.059,0.148-2.136,1.064-4.744,2.355c-2.611,1.289-4.573,2.615-4.663,2.493
								c-0.086-0.106,1.775-1.647,4.43-2.958C213.746,176.897,216.031,176.198,216.076,176.318z"/>
						</g>
					</g>
					<g>
						<path style="fill:#263238;" d="M219.955,187.277c0.785,1.269,2.188,2.136,3.675,2.271c1.487,0.135,3.023-0.465,4.024-1.572
							c0.439,1.096,1.617,1.848,2.796,1.787c1.179-0.062,2.272-0.934,2.594-2.069c0.646,0.626,1.318,1.27,2.163,1.579
							c0.845,0.309,1.916,0.192,2.47-0.516c0.565-0.721,0.401-1.82-0.154-2.55c-0.554-0.73-1.408-1.164-2.254-1.517
							c-2.641-1.103-5.553-1.656-8.39-1.272c-2.836,0.384-5.583,1.759-7.356,4.006"/>
					</g>
					<g style="opacity:0.2;">
						<g>
							<path d="M206.669,181.166c1.144-1.542,1.55-2.905,2.882-4.288c1.332-1.383,2.917-2.575,4.748-3.156
								c0.267-0.085,0.548-0.157,0.826-0.118c0.278,0.039,0.553,0.213,0.634,0.481c0.081,0.268-0.107,0.607-0.387,0.617
								c0.864-0.299,1.79-0.417,2.701-0.347c0.219,0.017,0.457,0.055,0.603,0.218c0.191,0.214,0.136,0.567-0.044,0.791
								c-0.18,0.224-0.452,0.349-0.714,0.467C214.028,177.583,210.559,179.414,206.669,181.166"/>
						</g>
					</g>
					<g>
						<g>
							<path style="fill:#263238;" d="M210.715,193.682c-0.01,0.01-0.109-0.081-0.279-0.255c-0.172-0.171-0.4-0.44-0.662-0.787
								c-0.524-0.693-1.138-1.744-1.558-3.009c-0.415-1.267-0.547-2.478-0.538-3.346c0.003-0.435,0.027-0.786,0.064-1.026
								c0.033-0.241,0.058-0.372,0.072-0.37c0.037,0.004-0.019,0.536,0.011,1.394c0.029,0.856,0.181,2.04,0.589,3.283
								c0.412,1.241,0.993,2.283,1.48,2.989C210.381,193.262,210.743,193.657,210.715,193.682z"/>
						</g>
					</g>
					<g>
						<g>
							<path style="fill:#263238;" d="M215.551,189.002c-0.037,0.002-0.069-0.503-0.231-1.297c-0.16-0.793-0.484-1.872-1.052-2.969
								c-0.572-1.095-1.269-1.98-1.826-2.566c-0.557-0.589-0.952-0.905-0.928-0.934c0.009-0.011,0.114,0.058,0.299,0.195
								c0.186,0.134,0.439,0.35,0.735,0.635c0.592,0.568,1.323,1.457,1.906,2.574c0.579,1.118,0.887,2.227,1.012,3.038
								c0.064,0.406,0.095,0.737,0.098,0.966C215.569,188.875,215.565,189.001,215.551,189.002z"/>
						</g>
					</g>
					<g>
						<g>
							<path style="fill:#263238;" d="M222.343,186.262c-0.035,0.002-0.075-0.545-0.223-1.415c-0.146-0.87-0.426-2.059-0.909-3.314
								c-0.487-1.254-1.08-2.323-1.557-3.064c-0.476-0.743-0.814-1.175-0.787-1.197c0.011-0.009,0.106,0.09,0.268,0.279
								c0.165,0.187,0.385,0.472,0.641,0.837c0.513,0.728,1.135,1.8,1.629,3.071c0.49,1.272,0.75,2.484,0.86,3.368
								c0.056,0.442,0.085,0.801,0.088,1.05C222.361,186.124,222.358,186.262,222.343,186.262z"/>
						</g>
					</g>
					<g>
						<g>
							<path style="fill:#263238;" d="M229.734,184.668c-0.033-0.004,0.008-0.501,0.022-1.305c0.015-0.803-0.015-1.915-0.177-3.129
								c-0.164-1.214-0.427-2.295-0.653-3.066c-0.225-0.772-0.396-1.241-0.365-1.253c0.013-0.005,0.07,0.106,0.162,0.313
								c0.094,0.206,0.212,0.512,0.344,0.896c0.264,0.766,0.553,1.854,0.719,3.082c0.163,1.228,0.171,2.354,0.118,3.162
								c-0.026,0.404-0.06,0.731-0.096,0.954C229.774,184.547,229.748,184.669,229.734,184.668z"/>
						</g>
					</g>
					<g>
						<g>
							<path style="fill:#263238;" d="M235.368,186.229c-0.034-0.011,0.121-0.513,0.28-1.342c0.16-0.828,0.296-1.99,0.247-3.275
								c-0.053-1.285-0.282-2.433-0.507-3.245c-0.224-0.813-0.419-1.302-0.385-1.315c0.013-0.006,0.074,0.111,0.171,0.329
								c0.101,0.216,0.224,0.539,0.355,0.944c0.264,0.81,0.52,1.973,0.574,3.279c0.05,1.305-0.112,2.485-0.311,3.313
								c-0.098,0.415-0.196,0.746-0.279,0.97C235.432,186.112,235.381,186.233,235.368,186.229z"/>
						</g>
					</g>
					<g>
						<g>
							<path style="fill:#263238;" d="M218.121,177.437c-0.015,0.022-0.283-0.245-0.885-0.501c-0.587-0.245-1.581-0.464-2.669-0.054
								l-0.096,0.036l-0.011-0.101c-0.098-0.906-1.011-1.75-2.144-1.954c-1.155-0.216-2.424,0.161-3.715,0.523
								c-2.811,0.775-5.352,1.475-7.395,2.038c-0.852,0.225-1.598,0.423-2.248,0.595c-0.218,0.054-0.42,0.104-0.614,0.152
								c-0.141,0.033-0.216,0.046-0.218,0.039c-0.002-0.007,0.069-0.034,0.206-0.079c0.19-0.06,0.389-0.122,0.603-0.189
								c0.645-0.19,1.384-0.409,2.23-0.658c2.039-0.579,4.575-1.3,7.38-2.097c1.285-0.358,2.586-0.748,3.806-0.513
								c1.199,0.226,2.17,1.131,2.265,2.128l-0.106-0.065c1.148-0.41,2.169-0.154,2.76,0.121
								C217.879,177.143,218.121,177.437,218.121,177.437z"/>
						</g>
					</g>
					<g>
						<g>
							<path style="fill:#263238;" d="M226.169,175.818c-0.005,0.007-0.131-0.074-0.367-0.227c-0.238-0.15-0.591-0.368-1.062-0.612
								c-0.938-0.484-2.375-1.079-4.231-1.29l-0.068-0.008l-0.005-0.068c-0.094-1.283-1.212-2.566-2.742-2.996
								c-1.532-0.449-3.325-0.266-5.045,0.23c-2.077,0.6-3.9,1.606-5.525,2.541c-1.627,0.941-3.078,1.823-4.35,2.469
								c-1.269,0.654-2.351,1.068-3.107,1.321c-0.381,0.119-0.683,0.189-0.885,0.244c-0.203,0.052-0.311,0.076-0.312,0.069
								c-0.002-0.007,0.102-0.044,0.301-0.109c0.258-0.083,0.544-0.175,0.87-0.281c0.744-0.276,1.81-0.707,3.064-1.375
								c1.258-0.66,2.697-1.552,4.322-2.505c1.624-0.945,3.456-1.965,5.564-2.575c1.746-0.502,3.569-0.69,5.16-0.217
								c1.59,0.456,2.762,1.805,2.849,3.172l-0.073-0.075c1.88,0.234,3.324,0.859,4.256,1.371
								C225.718,175.417,226.169,175.818,226.169,175.818z"/>
						</g>
					</g>
				</g>
			</g>
			<g>
				<g>
					<path style="fill:#E8505B;" d="M231.925,227.507l-21.885-4.718l0,0c0,0-7.354,0.251-15.131,3.814
						c-7.75,3.55-22.382,20.926-26.226,42.873c-2.038,11.637-3.557,28.836-4.252,37.354c0,0-6.071,7.022-0.567,8.839
						c0,0,0.212,1.429,0.212,1.429l50.105-11.967c0,0,0,0,0,0l6.179-29.303l0,0l7.805-18.343c0,0,0,0,0,0
						c4.792,6.768,10.784,15.223,14.937,21.083c3.119,4.402,8.18,7.016,13.575,7.016h0.912c3.023,0,5.766-0.913,8.024-2.602v0
						l27.613-24.106c0,0,0,0,0,0l-4.744-7.776c0,0,0,0,0,0l-31.32,14.915c0,0,0,0,0,0l-16.465-28.752
						c-1.492-2.606-3.395-4.954-5.635-6.954L231.925,227.507z"/>
				</g>
				<g>
					<path style="fill:#E8505B;" d="M208.947,221.018c-12.193,0.375-24.348,1.939-36.239,4.662
						c-1.276,0.292-2.656,0.667-3.431,1.722c-1.143,1.557-0.421,3.738,0.356,5.507c1.63,3.71,3.779,7.775,7.672,8.898
						c2.998,0.864,6.18-0.305,9.006-1.629c8.935-4.187,17.044-10.129,23.729-17.388"/>
				</g>
				<g>
					<g>
						<path style="fill:#263238;" d="M233.692,243.255c0.134,0.053-1.874,5.418-4.485,11.98c-2.611,6.565-4.836,11.842-4.969,11.789
							c-0.134-0.053,1.874-5.417,4.485-11.982C231.333,248.48,233.558,243.202,233.692,243.255z"/>
					</g>
				</g>
				<g>
					<polygon style="fill:#E8505B;" points="209.408,224.55 209.408,219.148 232.747,223.983 233.21,230.679 					"/>
				</g>
				<g>
					<g>
						<path style="fill:#263238;" d="M201.248,224.688c0.028,0.097-1.667,0.536-4.24,1.651c-1.29,0.549-2.776,1.314-4.365,2.262
							c-1.574,0.974-3.241,2.145-4.868,3.529c-1.614,1.4-3.024,2.872-4.224,4.281c-1.177,1.428-2.158,2.782-2.895,3.974
							c-1.491,2.376-2.18,3.984-2.272,3.942c-0.033-0.014,0.121-0.422,0.43-1.151c0.15-0.367,0.346-0.809,0.613-1.305
							c0.262-0.497,0.536-1.079,0.915-1.678c0.705-1.23,1.666-2.624,2.839-4.088c1.196-1.445,2.617-2.95,4.255-4.37
							c1.651-1.404,3.353-2.581,4.961-3.545c1.624-0.938,3.147-1.678,4.469-2.19c0.649-0.284,1.265-0.468,1.797-0.651
							c0.53-0.189,0.997-0.316,1.383-0.409C200.812,224.744,201.238,224.653,201.248,224.688z"/>
					</g>
				</g>
				<g>
					<g>
						<path style="fill:#263238;" d="M213.181,222.629c-0.143,0.013-0.313-0.565-0.378-1.292c-0.066-0.727-0.003-1.326,0.14-1.339
							c0.143-0.013,0.313,0.565,0.378,1.292C213.387,222.017,213.324,222.617,213.181,222.629z"/>
					</g>
				</g>
				<g>
					<g>
						<path style="fill:#263238;" d="M217.984,223.743c-0.144,0-0.26-0.589-0.26-1.315c0-0.727,0.117-1.315,0.26-1.315
							s0.26,0.589,0.26,1.315C218.245,223.155,218.128,223.743,217.984,223.743z"/>
					</g>
				</g>
				<g>
					<g>
						<path style="fill:#263238;" d="M223.476,225.179c-0.143,0.01-0.308-0.678-0.367-1.537c-0.059-0.859,0.01-1.563,0.153-1.573
							c0.143-0.01,0.308,0.678,0.366,1.537C223.688,224.465,223.62,225.169,223.476,225.179z"/>
					</g>
				</g>
				<g>
					<g>
						<path style="fill:#263238;" d="M228.845,226.293c-0.143,0.012-0.317-0.693-0.387-1.573c-0.07-0.88-0.011-1.603,0.133-1.614
							c0.143-0.011,0.316,0.693,0.387,1.573C229.047,225.559,228.988,226.281,228.845,226.293z"/>
					</g>
				</g>
				<g style="opacity:0.3;">
					<path d="M228.165,257.485l6.955,9.819c0,0-2.163-22.201-2.25-21.982C232.783,245.54,228.165,257.485,228.165,257.485z"/>
				</g>
				<g style="opacity:0.3;">
					<g>
						<path d="M171.266,236.173c3.515,0.79,7.171-0.496,10.335-2.219c3.164-1.723,6.101-3.91,9.482-5.157
							c-3.712,2.856-7.532,5.836-9.762,9.955c-0.595,1.099-0.764,2.767-1.868,3.351c-1.378,0.231-3.699-0.675-4.585-1.392
							C173.915,239.941,171.585,237.93,171.266,236.173"/>
					</g>
				</g>
				<g>
					<g>
						<path style="fill:#263238;" d="M204.127,292.57c0.02,0.03-0.457,0.378-1.339,0.983c-0.877,0.612-2.186,1.44-3.836,2.406
							c-3.297,1.936-8.042,4.317-13.545,6.289c-5.509,1.961-10.689,3.125-14.467,3.716c-1.889,0.298-3.426,0.487-4.492,0.569
							c-1.065,0.09-1.655,0.123-1.659,0.087c-0.003-0.036,0.579-0.137,1.635-0.289c1.056-0.143,2.58-0.387,4.453-0.73
							c3.746-0.681,8.879-1.894,14.354-3.843c5.469-1.96,10.209-4.272,13.539-6.119c1.666-0.921,3-1.698,3.908-2.256
							C203.592,292.831,204.107,292.54,204.127,292.57z"/>
					</g>
				</g>
			</g>
			<g>
				<g>
					<path style="fill:#263238;" d="M210.124,304.471l53.085-19.959l0,0c9.762-0.765,18.735,5.387,21.54,14.768l8.478,28.345
						l-25.801,2.884l-3.626-16.657c0,0-43.206,20.501-44.276,19.828c-0.407-0.255-17.246-4.214-17.211-9.516
						C202.37,315.51,210.124,304.471,210.124,304.471z"/>
				</g>
				<g>
					<path style="fill:#263238;" d="M163.864,315.669l79.182-28.058h0c9.762-0.765,18.735,5.387,21.54,14.768l8.478,28.346
						l-25.801,2.884l-6.357-15.522l-43.271,17.989c-14.697,6.11-31.22-3.234-33.559-18.978L163.864,315.669z"/>
				</g>
				<g>
					<g>
						<path style="fill:#455A64;" d="M272.592,332.459c-0.017,0.004-0.071-0.16-0.157-0.475c-0.096-0.374-0.213-0.83-0.354-1.381
							c-0.321-1.278-0.752-2.996-1.276-5.083c-1.095-4.286-2.707-10.182-4.765-16.609c-1.023-3.214-2.09-6.245-3.375-8.856
							c-1.267-2.619-2.759-4.793-4.236-6.418c-1.472-1.632-2.898-2.721-3.93-3.387c-1.034-0.668-1.657-0.958-1.636-1.001
							c0.008-0.016,0.168,0.043,0.469,0.173c0.301,0.128,0.736,0.341,1.273,0.655c1.077,0.62,2.563,1.682,4.094,3.309
							c1.537,1.618,3.088,3.813,4.396,6.455c1.325,2.635,2.416,5.689,3.44,8.91c2.062,6.44,3.621,12.365,4.626,16.68
							c0.504,2.157,0.878,3.911,1.116,5.126c0.103,0.56,0.189,1.023,0.259,1.403C272.59,332.284,272.61,332.455,272.592,332.459z"/>
					</g>
				</g>
				<g>
					<path style="fill:#E8505B;" d="M247.054,339.783c-0.219-0.658-4.486-17.639-4.486-17.639l28.378-9.388l3.069,25.83
						L247.054,339.783z"/>
				</g>
				<g>
					<path style="fill:#E8505B;" d="M267.001,336.057c-0.219-0.658-4.486-17.639-4.486-17.639l28.378-9.388l3.069,25.831
						L267.001,336.057z"/>
				</g>
				<g>
					<g>
						<path style="fill:#263238;" d="M274.594,338.605c-0.143,0.019-1.017-5.664-1.952-12.692
							c-0.936-7.03-1.579-12.743-1.436-12.762c0.143-0.019,1.017,5.663,1.953,12.693
							C274.093,332.872,274.736,338.586,274.594,338.605z"/>
					</g>
				</g>
				<g>
					<g>
						<g>
							<path style="fill:#455A64;" d="M250.574,313.853c0.055,0.133-8.957,3.953-20.125,8.532
								c-11.172,4.58-20.27,8.184-20.325,8.051c-0.055-0.133,8.955-3.953,20.127-8.533
								C241.419,317.324,250.519,313.72,250.574,313.853z"/>
						</g>
					</g>
					<g>
						<g>
							<path style="fill:#455A64;" d="M248.484,317.881c0.019,0.139-1.861,0.499-4.212,0.624c-2.351,0.129-4.258-0.026-4.255-0.166
								c0.003-0.147,1.897-0.226,4.227-0.354C246.574,317.862,248.466,317.735,248.484,317.881z"/>
						</g>
					</g>
					<g>
						<g>
							<path style="fill:#455A64;" d="M243.465,322.543c-0.125,0.072-0.799-0.868-1.505-2.098c-0.707-1.231-1.178-2.286-1.053-2.358
								c0.125-0.072,0.798,0.868,1.505,2.099C243.118,321.416,243.589,322.472,243.465,322.543z"/>
						</g>
					</g>
				</g>
				<g style="opacity:0.3;">
					<polygon points="271.205,315.543 278.238,325.084 272.592,325.536 					"/>
				</g>
			</g>
			<g>
				<g>
					<g>
						<g>
							<g>
								<g>
									<g>
										<path style="fill:#FFBE9D;" d="M291.293,258.525l3.546,0.888c3.296,0.528,5.109,0.948,6.231,0.327
											c1.501-0.831,0.144-2.387,0.144-2.387s2.535-0.189,2.689-1.664c0.104-1.006-0.97-1.404-0.97-1.404
											s2.262-0.263,2.891-1.012c0.859-1.022-0.428-2.023-0.428-2.023c3.251-0.993,3.443-2.765,2.841-3.104
											c-0.602-0.339-3.049,0.092-3.049,0.092c-1.981,0.044-7.412,0.263-4.822-2.023c2.59-2.287,3.719-5.019,3.51-5.971
											c-0.209-0.952-1.61-1.008-2.043-0.027c-0.35,0.793-1.344,1.933-2.125,2.759c-0.645,0.681-1.397,1.254-2.233,1.681
											c-0.974,0.496-1.819,0.878-2.545,1.186l-6.014,5.907L291.293,258.525z"/>
									</g>
								</g>
							</g>
						</g>
					</g>
					<g>
						<g>
							<path style="fill:#263238;" d="M564.957,174.674c-56.942-10.285-113.622-2.25-167.771,18.147
								c-54.149,20.397-102.598,55.701-138.603,100.997l-2.34-3.739c36.006-45.297,84.454-80.6,138.603-100.997
								c54.149-20.397,113.849-25.831,170.791-15.547L564.957,174.674z"/>
						</g>
						<g>
							<circle style="fill:#263238;" cx="292.456" cy="267.303" r="8.428"/>
						</g>
						<g>
							<circle style="fill:#455A64;" cx="290.283" cy="267.303" r="8.428"/>
						</g>
						<g>
							
								<rect x="276.377" y="270.016" transform="matrix(0.9076 -0.4197 0.4197 0.9076 -87.3154 144.2023)" style="fill:#E0E0E0;" width="15.3" height="1.001"/>
						</g>
						<g>
							<g>
								<path style="fill:#E0E0E0;" d="M560.218,411.026c0,0-0.011-0.401-0.008-1.186c0.005-0.793,0.013-1.959,0.023-3.486
									c0.031-3.077,0.077-7.607,0.136-13.458c0.139-11.724,0.342-28.737,0.594-49.935c0.549-42.415,1.314-101.567,2.181-168.565
									l0.375,0.233c-5.753,2.908-11.744,5.899-18.338,7.513c-3.287,0.811-6.698,1.189-10.123,1.274
									c-3.42,0.06-6.888-0.09-10.3-0.744c-5.237-0.957-10.195-2.867-14.949-4.996c-4.762-2.135-9.352-4.512-14.003-6.632
									l0.252-0.021c-10.731,7.189-22.457,12.495-34.5,15.16c-6.016,1.321-12.114,1.95-18.103,1.708
									c-5.985-0.236-11.855-1.367-17.291-3.414l0.288-0.096c-4.4,6.821-10.099,12.505-16.374,16.933
									c-6.282,4.435-13.138,7.638-20.067,9.681c-13.888,4.117-28.021,3.456-39.675-0.704l0.251-0.156
									c-0.791,6.616-2.647,12.767-5.245,18.17c-2.556,5.431-5.834,10.111-9.338,14.062c-3.538,3.934-7.382,7.068-11.112,9.617
									c-3.718,2.567-7.296,4.703-10.773,6.052c-3.471,1.359-6.767,1.961-9.624,2.116c-2.863,0.152-5.287-0.036-7.23-0.246
									c-1.942-0.236-3.416-0.469-4.4-0.663c-0.986-0.182-1.488-0.289-1.488-0.289s0.509,0.071,1.497,0.235
									c0.986,0.177,2.461,0.392,4.402,0.61c1.942,0.193,4.36,0.362,7.209,0.194c2.843-0.171,6.113-0.786,9.557-2.151
									c3.45-1.355,7.003-3.494,10.704-6.067c3.717-2.559,7.523-5.682,11.035-9.607c3.476-3.94,6.725-8.603,9.254-14.008
									c2.572-5.378,4.403-11.495,5.178-18.067l0.028-0.236l0.223,0.079c11.584,4.112,25.628,4.748,39.423,0.64
									c6.883-2.038,13.691-5.229,19.924-9.639c6.226-4.403,11.876-10.05,16.234-16.816l0.106-0.164l0.183,0.069
									c5.386,2.023,11.203,3.14,17.14,3.371c5.941,0.236,11.996-0.391,17.975-1.706c11.968-2.654,23.64-7.938,34.319-15.096
									l0.121-0.081l0.132,0.06c4.665,2.126,9.257,4.503,14.001,6.629c4.736,2.121,9.656,4.013,14.832,4.959
									c3.367,0.646,6.796,0.794,10.194,0.736c3.394-0.084,6.763-0.458,10.012-1.258c6.515-1.592,12.48-4.563,18.225-7.467
									l0.381-0.192l-0.006,0.425c-0.936,66.997-1.762,126.149-2.355,168.563c-0.318,21.198-0.574,38.21-0.75,49.933
									c-0.098,5.851-0.174,10.38-0.226,13.457c-0.031,1.528-0.055,2.693-0.07,3.486
									C560.239,410.625,560.218,411.026,560.218,411.026z"/>
							</g>
						</g>
					</g>
					<g>
						<g>
							<path style="fill:#FFBE9D;" d="M308.161,248.342c-2.997-0.07-5.828-0.256-8.808-0.161c-0.484,0.015-0.98,0.04-1.427,0.229
								c-0.446,0.189-0.839,0.577-0.896,1.059c-0.07,0.593,0.392,1.145,0.941,1.378s1.168,0.189,1.764,0.203
								c2.286,0.053,5.766,0.349,5.766,0.349"/>
						</g>
						<g>
							<path style="fill:#FFBE9D;" d="M305.954,251.216c-2.997-0.07-5.828-0.256-8.808-0.161c-0.484,0.016-0.98,0.04-1.427,0.229
								c-0.446,0.189-0.839,0.577-0.896,1.059c-0.07,0.593,0.392,1.145,0.941,1.378c0.549,0.233,1.168,0.189,1.764,0.203
								c2.286,0.053,5.766,0.349,5.766,0.349"/>
						</g>
						<g>
							<path style="fill:#FFBE9D;" d="M303.102,254.004c-2.518-0.059-4.897-0.215-7.401-0.135c-0.407,0.013-0.824,0.033-1.199,0.192
								s-0.705,0.485-0.753,0.889c-0.059,0.498,0.329,0.962,0.791,1.158c0.462,0.196,0.981,0.159,1.483,0.171
								c1.921,0.045,4.845,0.293,4.845,0.293"/>
						</g>
						<g>
							<g>
								<path style="fill:#EB996E;" d="M305.793,251.398c-0.009,0.143-1.719,0.153-3.818,0.02c-2.1-0.132-3.795-0.356-3.786-0.499
									c0.009-0.143,1.718-0.153,3.818-0.02C304.108,251.031,305.802,251.255,305.793,251.398z"/>
							</g>
						</g>
						<g>
							<g>
								<path style="fill:#EB996E;" d="M303.402,254.668c0,0.155-1.638,0.181-3.603-0.097c-1.963-0.278-3.537-0.481-3.537-0.614
									c0-0.155,1.638-0.181,3.604,0.097C301.827,254.332,303.401,254.535,303.402,254.668z"/>
							</g>
						</g>
						<g>
							<g>
								<path style="fill:#EB996E;" d="M301.889,257.463c0,0.155-1.638,0.181-3.603-0.097c-1.963-0.278-3.537-0.48-3.537-0.614
									c0-0.155,1.638-0.181,3.604,0.097C300.315,257.127,301.889,257.33,301.889,257.463z"/>
							</g>
						</g>
					</g>
				</g>
				<g>
					<path style="fill:#FFBE9D;" d="M266.741,270.648l9.383-4.896c3.042-1.506,6.731-0.419,8.471,2.495l0.324,0.543l-1.72,11.156
						l-13.159,3.177L266.741,270.648z"/>
				</g>
			</g>
			<g>
				<g>
					<path style="fill:#E8505B;" d="M195.948,253.974c3.22,9.581,7.733,22.993,10.744,31.94c2.011,5.974,6.792,10.598,12.829,12.411
						h0c3.541,1.064,7.311,1.096,10.87,0.092l39.805-14.569l-3.51-13.409l-40.047,6.158l-6.825-29.384
						c-1.671-7.193-9.212-11.347-16.185-8.914l0,0C197.207,240.54,193.781,247.527,195.948,253.974z"/>
				</g>
				<g>
					<g>
						<path style="fill:#263238;" d="M233.732,297.151c0.009,0.016-0.208,0.148-0.632,0.387c-0.209,0.127-0.479,0.258-0.806,0.4
							c-0.321,0.156-0.702,0.31-1.141,0.457c-1.729,0.635-4.45,1.138-7.751,0.706c-3.291-0.396-7.121-1.914-10.492-4.745
							c-3.39-2.804-6.284-6.798-8.408-11.371c-2.127-4.587-3.403-9.237-4.493-13.444c-1.077-4.216-1.95-8.033-2.722-11.231
							c-0.739-3.161-1.341-5.738-1.772-7.586c-0.189-0.858-0.341-1.546-0.456-2.068c-0.099-0.474-0.142-0.725-0.125-0.73
							s0.095,0.239,0.227,0.705c0.139,0.517,0.322,1.197,0.551,2.045c0.471,1.837,1.127,4.401,1.933,7.545
							c0.817,3.185,1.727,6.994,2.829,11.199c1.114,4.193,2.397,8.811,4.5,13.345c2.099,4.518,4.936,8.453,8.244,11.223
							c3.291,2.795,7.01,4.312,10.235,4.748c3.232,0.47,5.911,0.034,7.636-0.534C232.832,297.643,233.704,297.095,233.732,297.151z"
							/>
					</g>
				</g>
				<g>
					<g>
						<path style="fill:#263238;" d="M205.606,233.937c-0.003-0.01,0.11-0.041,0.334-0.092c0.259-0.055,0.587-0.123,0.994-0.209
							c0.219-0.039,0.463-0.105,0.735-0.134c0.278-0.008,0.579-0.016,0.902-0.025c0.325,0.009,0.68-0.056,1.05,0.014
							c0.373,0.06,0.768,0.123,1.184,0.19c1.638,0.384,3.563,1.441,5.003,3.359c1.432,1.906,2.539,4.424,3.035,7.35l-0.005-0.024
							c1.866,7.443,4.188,16.706,6.7,26.728c0.463,1.863,0.919,3.7,1.351,5.438l-0.291-0.191
							c11.449-1.789,21.599-3.375,28.939-4.522c3.619-0.543,6.543-0.981,8.611-1.291c0.979-0.137,1.755-0.245,2.328-0.324
							c0.532-0.069,0.811-0.097,0.814-0.08c0.003,0.017-0.272,0.077-0.798,0.176c-0.569,0.102-1.34,0.24-2.313,0.415
							c-2.062,0.348-4.977,0.839-8.586,1.447c-7.333,1.19-17.474,2.835-28.912,4.69l-0.234,0.038l-0.057-0.229
							c-0.433-1.739-0.891-3.575-1.354-5.438c-2.476-10.032-4.764-19.303-6.602-26.753l-0.002-0.009l-0.003-0.015
							c-0.457-2.839-1.523-5.339-2.888-7.201c-1.376-1.88-3.207-2.922-4.791-3.332c-0.404-0.074-0.787-0.145-1.149-0.212
							c-0.36-0.079-0.709-0.023-1.028-0.041c-0.318-0.002-0.614-0.003-0.888-0.005c-0.27,0.02-0.512,0.075-0.731,0.104
							c-0.409,0.06-0.738,0.109-0.998,0.147C205.727,233.937,205.609,233.948,205.606,233.937z"/>
					</g>
				</g>
				<g style="opacity:0.3;">
					<g>
						<path d="M195.597,250.7c-0.306,0,0.914,12.506,0.425,18.897c-0.489,6.391-0.687,13.028,1.698,18.978
							c2.384,5.949,6.473,10.682,12.881,10.533l5.854-1.962c0,0-3.219-2.599-4.327-3.648c-5.632-5.33-7.926-12.103-10.419-19.446
							C199.217,266.709,196.873,258.348,195.597,250.7"/>
					</g>
				</g>
			</g>
		</g>
		<g>
			<g>
				<polygon style="fill:#EBEBEB;" points="99.895,341.666 90.129,310.854 137.563,310.854 133.978,344.025 				"/>
			</g>
			<g>
				<g>
					<path style="fill:#E8505B;" d="M52.157,320.703c0,0,34.354,56.472,69.178,66.354l226.828-2.353
						c0,0,55.011-42.494,65.612-93.789h-7.793l-2.803,9.231c0,0-33.369,19.145-142.077,26.204
						c-108.708,7.059-192.475,2.353-192.475,2.353l-7.059-9.412L52.157,320.703z"/>
				</g>
				<g style="opacity:0.4;">
					<path d="M52.157,320.703c0,0,34.354,56.472,69.178,66.354l226.828-2.353c0,0,55.011-42.494,65.612-93.789h-7.793l-2.803,9.231
						c0,0-33.369,19.145-142.077,26.204c-108.708,7.059-192.475,2.353-192.475,2.353l-7.059-9.412L52.157,320.703z"/>
				</g>
				<g>
					<g>
						<path style="fill:#263238;" d="M133.978,385.154c0,0-1.236,0.172-3.447-0.155c-2.206-0.316-5.336-1.332-8.769-3.367
							c-3.453-2.007-7.177-4.947-11.272-8.225c-4.085-3.298-8.455-7.076-12.862-11.235c-8.834-8.31-16.067-16.599-21.021-22.799
							c-2.467-3.111-4.392-5.683-5.689-7.484c-0.618-0.878-1.109-1.575-1.472-2.09c-0.332-0.481-0.499-0.738-0.484-0.749
							c0.015-0.01,0.21,0.227,0.569,0.687c0.382,0.5,0.898,1.177,1.549,2.031c1.346,1.763,3.313,4.297,5.813,7.374
							c5.02,6.132,12.278,14.361,21.092,22.651c4.397,4.15,8.747,7.93,12.807,11.242c4.072,3.293,7.763,6.254,11.157,8.281
							c3.378,2.056,6.443,3.109,8.615,3.484c1.084,0.203,1.943,0.27,2.524,0.295C133.671,385.116,133.978,385.136,133.978,385.154z"
							/>
					</g>
				</g>
				<g>
					<g>
						<path style="fill:#263238;" d="M406.36,291.971c0.009,0.003-0.019,0.1-0.081,0.286c-0.075,0.212-0.17,0.483-0.288,0.821
							c-0.277,0.753-0.664,1.803-1.156,3.14c-0.256,0.684-0.539,1.44-0.848,2.265c-0.337,0.82-0.702,1.708-1.093,2.661
							c-0.802,1.902-1.659,4.093-2.771,6.443c-0.54,1.183-1.106,2.421-1.696,3.711c-0.594,1.288-1.279,2.596-1.952,3.968
							c-1.323,2.756-2.906,5.613-4.538,8.638c-3.369,5.991-7.318,12.442-11.841,18.961c-4.562,6.495-9.258,12.427-13.721,17.655
							c-2.277,2.575-4.414,5.046-6.546,7.238c-1.056,1.105-2.048,2.198-3.052,3.2c-1.007,0.998-1.975,1.956-2.899,2.871
							c-1.823,1.853-3.584,3.413-5.093,4.821c-0.759,0.696-1.467,1.344-2.121,1.943c-0.668,0.574-1.28,1.1-1.834,1.576
							c-1.085,0.922-1.938,1.648-2.548,2.167c-0.276,0.228-0.497,0.41-0.671,0.553c-0.153,0.122-0.234,0.182-0.24,0.175
							c-0.006-0.007,0.064-0.08,0.206-0.215c0.165-0.153,0.375-0.349,0.637-0.593c0.595-0.537,1.426-1.286,2.482-2.239
							c0.544-0.486,1.146-1.023,1.802-1.608c0.644-0.608,1.341-1.267,2.089-1.973c1.488-1.427,3.229-3.003,5.032-4.87
							c0.915-0.921,1.872-1.885,2.87-2.889c0.995-1.008,1.978-2.106,3.025-3.215c2.114-2.201,4.234-4.678,6.497-7.255
							c4.433-5.234,9.106-11.161,13.658-17.641c4.512-6.504,8.464-12.932,11.849-18.897c1.639-3.012,3.233-5.856,4.571-8.598
							c0.68-1.365,1.372-2.666,1.975-3.948c0.599-1.282,1.174-2.514,1.723-3.69c1.131-2.336,2.011-4.513,2.837-6.402
							c0.405-0.946,0.783-1.827,1.132-2.641c0.324-0.818,0.62-1.568,0.889-2.246c0.531-1.321,0.948-2.359,1.247-3.103
							c0.139-0.331,0.25-0.595,0.337-0.803C406.308,292.059,406.352,291.968,406.36,291.971z"/>
					</g>
				</g>
				<g>
					<g>
						<path style="fill:#263238;" d="M357.807,369.619c0,0-0.216,0.032-0.639,0.068c-0.441,0.035-1.065,0.084-1.878,0.149
							c-1.651,0.131-4.088,0.289-7.228,0.475c-6.281,0.359-15.379,0.743-26.626,0.915c-11.248,0.185-24.641,0.139-39.51,0.145
							c-14.871-0.003-31.218-0.006-48.377-0.009c-34.323-0.051-65.391-0.096-87.899-0.13c-11.234-0.042-20.33-0.075-26.637-0.099
							c-3.131-0.023-5.568-0.041-7.242-0.053c-0.815-0.012-1.441-0.021-1.883-0.027c-0.424-0.009-0.642-0.027-0.642-0.027
							s0.217-0.018,0.642-0.026c0.443-0.006,1.069-0.014,1.883-0.025c1.674-0.01,4.112-0.025,7.242-0.045
							c6.307-0.016,15.403-0.038,26.637-0.067c22.508-0.006,53.576-0.014,87.899-0.023c17.159,0.018,33.505,0.034,48.377,0.05
							c14.87,0.02,28.261,0.104,39.505-0.034c11.244-0.125,20.339-0.453,26.621-0.749c3.126-0.163,5.56-0.29,7.232-0.378
							c0.814-0.042,1.439-0.074,1.881-0.097C357.589,369.615,357.807,369.619,357.807,369.619z"/>
					</g>
				</g>
				<g>
					<g>
						<path style="fill:#263238;" d="M380.608,341.666c0,0-0.251,0.056-0.745,0.139c-0.511,0.083-1.242,0.202-2.197,0.357
							c-1.949,0.305-4.796,0.751-8.456,1.324c-1.832,0.319-3.888,0.528-6.135,0.781c-2.248,0.252-4.69,0.526-7.312,0.82
							c-1.313,0.138-2.667,0.318-4.072,0.435c-1.406,0.112-2.855,0.228-4.347,0.347c-2.985,0.237-6.139,0.488-9.451,0.752
							c-26.522,1.844-63.256,2.459-103.799,2.273c-20.279-0.097-39.596-0.189-57.167-0.273c-17.569-0.088-33.39-0.041-46.676,0.078
							c-6.643,0.018-12.651,0.185-17.928,0.252c-5.277,0.063-9.82,0.196-13.534,0.308c-3.703,0.098-6.581,0.175-8.553,0.227
							c-0.967,0.02-1.708,0.035-2.225,0.046c-0.501,0.007-0.759-0.002-0.759-0.002s0.256-0.026,0.757-0.051
							c0.517-0.023,1.257-0.055,2.223-0.098c1.971-0.075,4.849-0.184,8.55-0.324c3.713-0.143,8.256-0.306,13.534-0.396
							c5.277-0.095,11.285-0.288,17.929-0.329c13.287-0.166,29.111-0.251,46.681-0.19c17.571,0.071,36.888,0.15,57.167,0.232
							c40.54,0.186,77.259-0.371,103.773-2.12c3.311-0.25,6.464-0.489,9.448-0.715c1.492-0.112,2.941-0.221,4.346-0.327
							c1.405-0.109,2.759-0.283,4.071-0.414c2.623-0.279,5.064-0.538,7.312-0.777c2.247-0.238,4.304-0.431,6.137-0.735
							c3.665-0.531,6.515-0.944,8.467-1.227c0.958-0.133,1.692-0.235,2.205-0.306C380.351,341.687,380.608,341.666,380.608,341.666z
							"/>
					</g>
				</g>
				<g>
					<g>
						<path style="fill:#263238;" d="M219.434,371.151c-0.067,0.004-0.204-1.244-0.272-3.267c-0.074-2.024-0.059-4.82,0.012-7.903
							c0.063-3.003,0.119-5.718,0.164-7.889c0.026-2.018,0.02-3.267,0.096-3.271c0.067-0.004,0.203,1.243,0.272,3.267
							c0.074,2.024,0.059,4.82-0.012,7.904c-0.062,3.002-0.119,5.716-0.164,7.887C219.504,369.897,219.511,371.147,219.434,371.151z
							"/>
					</g>
				</g>
				<g>
					<g>
						<path style="fill:#263238;" d="M286.793,384.761c-0.144-0.009-0.09-2.765,0.12-6.156c0.21-3.392,0.496-6.133,0.64-6.124
							c0.143,0.009,0.09,2.765-0.12,6.157C287.223,382.028,286.937,384.77,286.793,384.761z"/>
					</g>
				</g>
				<g>
					<g>
						<path style="fill:#263238;" d="M305.269,321.642c0.144,0.002,0.16,5.794,0.037,12.934c-0.123,7.143-0.34,12.929-0.483,12.927
							c-0.144-0.003-0.161-5.793-0.037-12.936C304.909,327.427,305.125,321.639,305.269,321.642z"/>
					</g>
				</g>
				<g>
					<g>
						<path style="fill:#263238;" d="M161.686,329.083c0.144,0.008,0.018,4.433-0.28,9.883c-0.298,5.451-0.656,9.863-0.8,9.855
							s-0.018-4.432,0.28-9.884C161.184,333.488,161.542,329.076,161.686,329.083z"/>
					</g>
				</g>
			</g>
		</g>
		<g>
			<g>
				<path style="fill:#FFFFFF;" d="M65.92,389.416c6.934-8.436,19.516-9.518,30.276-7.658c10.76,1.86,21.29,5.978,32.198,5.46
					c17.608-0.838,33.935-13.674,51.305-10.675c10.86,1.875,20.547,9.851,31.538,9.031c12.895-0.962,22.308-13.661,35.081-15.67
					c17.272-2.716,32.169,14.809,49.649,14.402c14.846-0.346,27.793-13.646,42.493-11.546c10.832,1.548,19.112,11.164,29.891,13.047
					c8.917,1.558,17.725-2.423,26.38-5.072c8.656-2.65,32.658-5.182,40.1,12.412"/>
			</g>
			<g>
				<g>
					<path style="fill:#263238;" d="M66.008,389.505c10.962-12.405,28.682-8.174,42.64-4.837c6.992,1.672,14.111,3.189,21.343,2.566
						c6.472-0.557,12.698-2.635,18.791-4.771c7.014-2.459,14.083-5.244,21.532-6.029c8.244-0.868,15.365,1.682,22.834,4.816
						c10.75,4.51,19.825,6.14,30.341,0.271c5.501-3.07,10.514-7.004,16.325-9.507c6.695-2.883,13.518-2.718,20.348-0.406
						c10.94,3.704,20.64,11.465,32.388,12.672c12.813,1.317,23.371-7.328,35.19-10.525c8.064-2.181,15.205-0.404,22.36,3.61
						c5.209,2.922,10.217,6.479,16.05,8.063c12.949,3.515,24.995-5.091,37.695-6.242c12.142-1.1,25.405,1.993,30.879,14.023
						c0.066,0.146,0.282,0.019,0.216-0.126c-8.637-18.98-32.124-15.034-48.071-9.913c-9.249,2.97-17.867,4.013-26.818-0.417
						c-5.819-2.88-11.046-6.996-17.255-9.071c-12.615-4.214-23.934,3.792-35.321,8.001c-7.374,2.725-14.697,3.193-22.217,0.731
						c-6.484-2.122-12.414-5.59-18.59-8.427c-10.496-4.822-20.29-6.076-30.698-0.375c-5.718,3.132-10.873,7.266-16.911,9.806
						c-7.803,3.282-15.257,1.883-22.869-1.169c-6.151-2.466-12.157-5.506-18.851-6.135c-6.882-0.647-13.67,1.046-20.162,3.167
						c-7.7,2.516-15.233,5.773-23.254,7.171c-10.448,1.82-20.437-0.95-30.547-3.316c-12.622-2.954-28.038-4.566-37.544,6.191
						C65.725,389.448,65.901,389.626,66.008,389.505L66.008,389.505z"/>
				</g>
			</g>
		</g>
		<g>
			<g>
				<path style="fill:#263238;" d="M563.377,414.169c0.005,0.017-0.134,0.071-0.403,0.157c-0.27,0.082-0.667,0.213-1.188,0.343
					c-1.039,0.267-2.562,0.598-4.472,0.833c-3.802,0.48-9.227,0.481-14.913-1.096c-1.41-0.401-2.802-0.805-4.053-1.473
					c-1.241-0.649-2.359-1.611-2.871-2.867c-0.528-1.25-0.38-2.598,0.022-3.676c0.408-1.093,1.068-1.983,1.782-2.651
					c1.443-1.336,2.916-1.952,3.885-2.393c0.493-0.212,0.881-0.363,1.146-0.461c0.265-0.097,0.408-0.14,0.415-0.124
					c0.016,0.035-0.519,0.294-1.476,0.768c-0.937,0.492-2.366,1.159-3.715,2.474c-0.664,0.652-1.268,1.506-1.632,2.534
					c-0.359,1.015-0.467,2.239,0.014,3.342c0.466,1.113,1.481,1.988,2.667,2.603c1.189,0.629,2.556,1.025,3.952,1.422
					c5.609,1.556,10.957,1.614,14.736,1.232c1.897-0.186,3.418-0.459,4.466-0.664C562.786,414.255,563.366,414.13,563.377,414.169z"
					/>
			</g>
		</g>
		<g>
			<g>
				<path style="fill:#263238;" d="M559.797,421.827c0.003,0.018-0.299,0.079-0.877,0.179c-0.578,0.096-1.43,0.254-2.536,0.388
					c-2.207,0.3-5.421,0.64-9.41,0.728c-3.986,0.096-8.746-0.062-13.981-0.735c-2.615-0.346-5.347-0.813-8.15-1.434
					c-2.787-0.644-5.719-1.291-8.518-2.583c-2.753-1.27-5.407-3.084-6.707-5.797c-0.619-1.347-0.824-2.847-0.625-4.256
					c0.209-1.412,0.794-2.705,1.536-3.817c1.497-2.239,3.487-3.866,5.362-5.264c1.892-1.395,3.746-2.568,5.497-3.53
					c3.507-1.921,6.552-3.051,8.68-3.71c1.064-0.334,1.903-0.552,2.473-0.688c0.571-0.134,0.873-0.195,0.878-0.178
					c0.004,0.017-0.289,0.113-0.85,0.279c-0.561,0.167-1.388,0.416-2.438,0.779c-2.1,0.716-5.106,1.892-8.564,3.839
					c-1.726,0.975-3.553,2.156-5.417,3.553c-1.85,1.401-3.789,3.017-5.22,5.182c-0.709,1.075-1.254,2.303-1.445,3.624
					c-0.18,1.318,0.015,2.714,0.595,3.97c1.214,2.532,3.763,4.299,6.462,5.54c2.73,1.262,5.634,1.91,8.412,2.558
					c2.786,0.624,5.502,1.099,8.102,1.456c5.205,0.696,9.941,0.891,13.912,0.843c3.973-0.04,7.182-0.323,9.392-0.561
					c1.108-0.103,1.962-0.228,2.545-0.29C559.487,421.836,559.794,421.81,559.797,421.827z"/>
			</g>
		</g>
		<g>
			<g>
				<path style="fill:#263238;" d="M575.067,408.735c-0.014-0.034,0.425-0.242,1.22-0.602c0.79-0.368,1.953-0.872,3.27-1.683
					c1.301-0.81,2.791-1.985,3.718-3.786c0.468-0.884,0.776-1.916,0.781-2.991c0.009-1.074-0.355-2.175-1.035-3.09
					c-1.396-1.843-3.607-2.752-5.564-3.145c-1.997-0.369-3.87-0.296-5.428-0.306c-1.564,0.01-2.838-0.035-3.712-0.139
					c-0.874-0.102-1.346-0.226-1.341-0.255c0.006-0.041,0.487,0.014,1.356,0.053c0.87,0.041,2.128,0.03,3.69-0.027
					c1.559-0.035,3.44-0.153,5.524,0.203c1.035,0.194,2.107,0.516,3.133,1.048c1.025,0.521,2.018,1.257,2.761,2.26
					c0.743,0.998,1.144,2.223,1.125,3.4c-0.013,1.178-0.359,2.283-0.867,3.215c-1.01,1.898-2.602,3.092-3.952,3.877
					c-1.373,0.789-2.565,1.243-3.382,1.555C575.543,408.624,575.08,408.767,575.067,408.735z"/>
			</g>
		</g>
		<g>
			<g>
				<path style="fill:#263238;" d="M585.692,415.83c-0.006-0.017,0.222-0.12,0.662-0.3c0.488-0.197,1.128-0.455,1.927-0.777
					c1.661-0.689,4.107-1.64,6.845-3.313c1.356-0.847,2.786-1.887,4.079-3.242c1.278-1.361,2.456-3.026,3.207-4.987
					c0.754-1.943,1.075-4.211,0.522-6.414c-0.507-2.219-1.909-4.234-3.713-5.833c-1.836-1.585-3.949-2.746-6.078-3.607
					c-2.13-0.87-4.298-1.426-6.369-1.882c-4.154-0.888-7.997-1.14-11.208-1.071c-3.216,0.051-5.803,0.419-7.578,0.712
					c-0.888,0.149-1.575,0.281-2.04,0.378c-0.466,0.09-0.713,0.129-0.718,0.111c-0.004-0.017,0.235-0.09,0.694-0.214
					c0.458-0.13,1.14-0.294,2.026-0.475c1.771-0.355,4.366-0.782,7.605-0.881c3.234-0.117,7.115,0.098,11.316,0.969
					c4.152,0.878,8.859,2.279,12.692,5.567c1.865,1.65,3.338,3.767,3.865,6.104c0.576,2.325,0.224,4.702-0.57,6.708
					c-0.791,2.027-2.016,3.727-3.342,5.111c-1.344,1.38-2.811,2.419-4.199,3.258c-2.801,1.655-5.277,2.554-6.964,3.188
					c-0.849,0.309-1.512,0.537-1.963,0.686C585.939,415.777,585.698,415.847,585.692,415.83z"/>
			</g>
		</g>
	</g>
</g>
<g id="Sun">
	<g>
		<g>
			<g>
				
					<ellipse transform="matrix(0.7071 -0.7071 0.7071 0.7071 29.2192 243.4721)" style="fill:#E8505B;" cx="308.506" cy="86.465" rx="23.132" ry="23.132"/>
			</g>
		</g>
		<g style="opacity:0.4;">
			<g>
				
					<ellipse transform="matrix(0.7071 -0.7071 0.7071 0.7071 29.2192 243.4721)" style="fill:#FFFFFF;" cx="308.506" cy="86.465" rx="23.132" ry="23.132"/>
			</g>
		</g>
	</g>
</g>
<g id="Plants">
	<g>
		<g>
			<path style="fill:#263238;" d="M709.813,330.972c0,0-0.696,0.255-2.067,0.576c-1.368,0.332-3.44,0.638-6.119,0.651
				c-2.677-0.015-5.958-0.366-9.653-1.27c-3.702-0.879-7.8-2.308-12.248-4.042c-4.46-1.693-9.307-3.699-14.747-5.025
				c-5.418-1.414-11.498-1.594-17.677-0.445c-3.081,0.619-6.196,1.464-9.318,2.524c-3.118,1.072-6.265,2.275-9.452,3.553
				c-6.376,2.523-13.003,5.254-20.181,6.757c-7.186,1.534-14.459,1.212-21.241,0.108c-6.807-1.105-13.209-2.914-19.279-4.635
				c-6.072-1.726-11.847-3.347-17.352-4.403c-5.497-1.067-10.723-1.565-15.477-1.377c-9.548,0.363-16.939,3.445-21.292,6.456
				c-2.214,1.489-3.686,2.958-4.695,3.93c-0.461,0.508-0.817,0.901-1.073,1.183c-0.244,0.265-0.379,0.393-0.379,0.393
				s0.108-0.15,0.338-0.427c0.247-0.29,0.592-0.696,1.037-1.22c0.987-0.999,2.446-2.501,4.656-4.025
				c4.346-3.082,11.775-6.244,21.391-6.657c4.79-0.213,10.048,0.268,15.574,1.321c5.532,1.042,11.327,2.652,17.402,4.365
				c6.074,1.708,12.461,3.501,19.23,4.593c6.748,1.09,13.944,1.404,21.055-0.114c7.112-1.488,13.716-4.203,20.097-6.721
				c3.189-1.275,6.348-2.479,9.482-3.55c3.139-1.06,6.278-1.907,9.388-2.525c6.236-1.15,12.414-0.948,17.868,0.497
				c5.479,1.355,10.328,3.387,14.777,5.101c4.438,1.754,8.506,3.2,12.184,4.102c3.67,0.926,6.925,1.304,9.586,1.35
				c2.662,0.017,4.726-0.254,6.096-0.551c0.693-0.113,1.202-0.286,1.556-0.358C709.63,331.003,709.813,330.972,709.813,330.972z"/>
		</g>
	</g>
	<g>
		<g>
			<g>
				<path style="fill:#E8505B;" d="M629.505,223.97c0.668-0.611,9.821-25.067,9.573-27.197c-0.249-2.131-1.534-30.383-1.534-30.383
					l-7.457,39.538L629.505,223.97z"/>
			</g>
		</g>
		<g>
			<g>
				<path style="fill:#E8505B;" d="M625.27,246.484c0,0,0.156-11.083-1.47-12.779c-1.627-1.696-22.636-27.587-22.636-27.587
					l-12.498-5.938l9.824,8.38L625.27,246.484z"/>
			</g>
		</g>
		<g>
			<g>
				<polygon style="fill:#E8505B;" points="642.387,224.534 624.763,265.437 620.994,268.125 622.751,256.662 				"/>
			</g>
		</g>
		<g>
			<g>
				<polygon style="fill:#E8505B;" points="647.765,264.292 625.539,290.347 615.86,291.831 626.306,279.932 				"/>
			</g>
		</g>
		<g>
			<g>
				<polygon style="fill:#E8505B;" points="597.255,269.509 604.764,302.923 612.633,308.75 608.943,293.352 				"/>
			</g>
		</g>
		<g>
			<g>
				<polygon style="fill:#E8505B;" points="626.896,310.356 615.062,326.85 608.773,326.563 609.81,322.37 				"/>
			</g>
		</g>
		<g>
			<g>
				<g>
					<path style="fill:#263238;" d="M606.917,336.407c0.184,0.037,5.707-26.382,12.334-59.002
						c6.629-32.631,11.852-59.106,11.667-59.143c-0.184-0.037-5.706,26.376-12.335,59.008
						C611.956,309.889,606.732,336.37,606.917,336.407z"/>
				</g>
			</g>
		</g>
	</g>
	<g>
		<g>
			<g>
				<path style="fill:#E8505B;" d="M73.595,165.305c-0.089-0.854-8.852-56.681-8.852-56.681l-1.732,25.858L73.595,165.305z"/>
			</g>
		</g>
		<g style="opacity:0.3;">
			<g>
				<path d="M73.595,165.305c-0.089-0.854-8.852-56.681-8.852-56.681l-1.732,25.858L73.595,165.305z"/>
			</g>
		</g>
		<g>
			<g>
				<path style="fill:#E8505B;" d="M81.125,226.871c-0.28-0.618-6.049-10.37-6.049-10.37L51.624,192.42l15.824,27.47L81.125,226.871
					z"/>
			</g>
		</g>
		<g>
			<g>
				<polygon style="fill:#E8505B;" points="85.061,241.777 89.058,228.629 86.109,210.598 84.278,234.308 				"/>
			</g>
		</g>
		<g>
			<g>
				<g>
					<path style="fill:#263238;" d="M89.393,270.154c0.126-0.019-3.529-24.94-8.162-55.655c-4.635-30.726-8.492-55.61-8.618-55.591
						c-0.126,0.019,3.528,24.934,8.163,55.66C85.409,245.283,89.267,270.173,89.393,270.154z"/>
				</g>
			</g>
		</g>
		<g>
			<g>
				<path style="fill:#E8505B;" d="M81.73,133.814c0.36-0.685-0.551-21.734-1.371-23.375c-0.819-1.64-10.064-23.974-10.064-23.974
					l5.499,33.946L81.73,133.814z"/>
			</g>
		</g>
		<g>
			<g>
				<path style="fill:#E8505B;" d="M85.679,159.507c0,0-3.096-8.953-4.896-9.843c-1.8-0.89-26.212-15.593-26.212-15.593
					l-11.771-1.14l10.332,3.88L85.679,159.507z"/>
			</g>
		</g>
		<g>
			<g>
				<polygon style="fill:#E8505B;" points="92.257,129.258 89.981,167.255 87.733,170.512 85.814,160.788 				"/>
			</g>
		</g>
		<g>
			<g>
				<polygon style="fill:#E8505B;" points="108.697,160.547 98.407,187.949 91.059,191.955 95.996,179.355 				"/>
			</g>
		</g>
		<g>
			<g>
				<path style="fill:#E8505B;" d="M92.759,208.175c-0.494-0.595-9.674-18.189-9.674-18.189l-20.381-11.242l-8.11,0.85l5.908,0.783
					L92.759,208.175z"/>
			</g>
		</g>
		<g>
			<g>
				<polygon style="fill:#E8505B;" points="105.823,206.806 101.106,223.502 95.968,225.1 95.583,221.428 				"/>
			</g>
		</g>
		<g>
			<g>
				<g>
					<path style="fill:#263238;" d="M100.676,269.791c0.126-0.019-4.39-31.311-10.086-69.885
						c-5.698-38.587-10.417-69.842-10.543-69.824c-0.126,0.019,4.39,31.304,10.087,69.891
						C95.83,238.547,100.55,269.809,100.676,269.791z"/>
				</g>
			</g>
		</g>
		<g style="opacity:0.3;">
			<g>
				<path d="M81.125,226.871c-0.28-0.618-6.049-10.37-6.049-10.37L51.624,192.42l15.824,27.47L81.125,226.871z"/>
			</g>
		</g>
		<g style="opacity:0.3;">
			<g>
				<polygon points="85.061,241.777 89.058,228.629 86.109,210.598 84.278,234.308 				"/>
			</g>
		</g>
	</g>
	<g>
		<g>
			<path style="fill:#263238;" d="M135.75,263.472c-0.059,0.074-0.923-1.09-3.138-2.252c-2.209-1.129-5.899-1.883-10.308-1.114
				c-2.196,0.374-4.556,1.054-6.948,2.136c-2.407,1.054-4.887,2.391-7.541,3.725c-2.656,1.322-5.51,2.661-8.676,3.467
				c-3.163,0.818-6.622,0.883-10.02,0.299c-3.41-0.582-6.599-1.711-9.593-2.936c-2.994-1.235-5.807-2.58-8.508-3.8
				c-5.365-2.493-10.515-4.065-14.965-4.477c-2.22-0.216-4.246-0.145-5.997,0.108c-1.748,0.281-3.211,0.742-4.355,1.236
				c-1.135,0.509-1.99,0.979-2.525,1.363c-0.255,0.165-0.462,0.3-0.63,0.408c-0.144,0.09-0.22,0.133-0.226,0.125
				c-0.006-0.007,0.06-0.064,0.194-0.168c0.16-0.12,0.358-0.269,0.603-0.452c0.519-0.414,1.365-0.918,2.502-1.461
				c1.146-0.53,2.621-1.026,4.391-1.339c1.772-0.284,3.827-0.382,6.077-0.187c4.507,0.368,9.728,1.925,15.128,4.406
				c2.712,1.21,5.526,2.544,8.505,3.765c2.978,1.212,6.135,2.324,9.486,2.895c3.342,0.573,6.711,0.512,9.809-0.281
				c3.105-0.783,5.934-2.096,8.586-3.402c2.651-1.318,5.147-2.645,7.582-3.692c2.427-1.076,4.832-1.749,7.062-2.103
				c4.481-0.734,8.24,0.092,10.459,1.298c1.105,0.619,1.881,1.231,2.355,1.694c0.213,0.22,0.386,0.398,0.525,0.542
				C135.7,263.4,135.756,263.466,135.75,263.472z"/>
		</g>
	</g>
</g>
<g id="Birds">
	<g>
		<g>
			<g>
				<path style="fill:#263238;" d="M466.965,66.688c0.004,0.017-0.257,0.094-0.756,0.225c-0.497,0.142-1.244,0.292-2.184,0.575
					c-1.892,0.515-4.608,1.38-7.847,2.76c-6.459,2.707-15.028,7.913-22.097,16.236l-0.209,0.246l-0.201-0.263
					c-0.409-0.537-0.849-1.114-1.291-1.694c-3.519-4.456-7.693-8.007-11.849-10.63c-4.142-2.664-8.289-4.348-11.835-5.457
					c-3.562-1.089-6.55-1.587-8.62-1.829c-1.033-0.143-1.845-0.164-2.392-0.228c-0.548-0.051-0.836-0.086-0.835-0.104
					c0.001-0.018,0.29-0.018,0.84-0.001c0.549,0.031,1.366,0.019,2.407,0.132c2.085,0.181,5.102,0.626,8.705,1.678
					c3.587,1.072,7.787,2.735,11.985,5.403c4.211,2.626,8.441,6.205,12.001,10.713c0.447,0.587,0.891,1.171,1.305,1.714l-0.41-0.017
					c7.14-8.396,15.82-13.594,22.354-16.231c3.277-1.345,6.022-2.161,7.936-2.619c0.951-0.255,1.707-0.374,2.212-0.484
					C466.694,66.715,466.961,66.671,466.965,66.688z"/>
			</g>
		</g>
	</g>
	<g>
		<g>
			<g>
				<path style="fill:#263238;" d="M498.017,102.254c-0.025,0.042-0.558-0.298-1.6-0.73c-1.036-0.427-2.623-0.918-4.634-0.965
					c-1.994-0.051-4.439,0.392-6.684,1.817c-2.235,1.39-4.263,3.712-5.21,6.624l-0.189,0.581l-0.292-0.545
					c-0.049-0.092-0.103-0.192-0.157-0.293c-1.458-2.739-3.847-4.737-6.302-5.801c-2.467-1.092-4.98-1.217-6.989-0.92
					c-2.024,0.295-3.569,0.974-4.572,1.518c-1.007,0.551-1.512,0.949-1.541,0.91c-0.011-0.014,0.107-0.123,0.343-0.318
					c0.234-0.197,0.6-0.465,1.097-0.768c0.988-0.607,2.544-1.355,4.617-1.706c2.054-0.352,4.663-0.266,7.236,0.844
					c2.557,1.08,5.05,3.141,6.571,5.996c0.056,0.104,0.112,0.209,0.163,0.305l-0.481,0.036c0.992-3.046,3.116-5.448,5.454-6.87
					c2.35-1.459,4.9-1.877,6.948-1.776c2.068,0.096,3.674,0.655,4.703,1.147c0.518,0.243,0.903,0.469,1.152,0.638
					C497.901,102.144,498.026,102.239,498.017,102.254z"/>
			</g>
		</g>
	</g>
</g>
<g id="Seagull">
	<g>
		<g>
			<path style="fill:#263238;" d="M437.684,263.019c7.614,0.079,15.238-2.064,21.695-6.1c-1.399,0.491-2.911,0.659-4.383,0.488
				c1.982-0.576,3.74-1.89,4.852-3.629c-6.769,1.17-13.657,1.648-20.522,1.424"/>
		</g>
		<g>
			<g>
				<path style="fill:#263238;" d="M406.82,272.584v16.616l-8.794,3.027c0,0,2.955,0.793,2.522,2.306c0,0,2.667-0.649,3.315,1.658
					l4.468-5.261v-18.346H406.82z"/>
			</g>
			<g>
				<path style="fill:#263238;" d="M409.599,280.27c0.049,0.859-0.797,1.606-1.89,1.668c-1.093,0.062-2.018-0.583-2.067-1.442
					c-0.049-0.859,0.797-1.606,1.89-1.668C408.625,278.765,409.55,279.411,409.599,280.27z"/>
			</g>
		</g>
		<g>
			<g>
				<path style="fill:#263238;" d="M415.085,272.584v16.616l-8.794,3.027c0,0,2.955,0.793,2.522,2.306c0,0,2.667-0.649,3.315,1.658
					l4.468-5.261v-18.346H415.085z"/>
			</g>
			<g>
				<path style="fill:#263238;" d="M417.864,280.27c0.049,0.859-0.797,1.606-1.89,1.668c-1.093,0.062-2.018-0.583-2.067-1.442
					c-0.049-0.859,0.797-1.606,1.89-1.668C416.889,278.765,417.815,279.411,417.864,280.27z"/>
			</g>
		</g>
		<g>
			<g>
				<path style="fill:#FAFAFA;" d="M385.165,230.667c0,0,3.337-0.969,4.458-2.23c1.121-1.261,4.762-5.463,9.525-4.342
					c4.762,1.121,8.124,4.762,7.984,8.404c-0.14,3.642,0.004,8.124,0.004,8.124l38.935,14.707c0,0-12.326,16.528-27.314,17.089
					c0,0-1.401,2.101-3.012,1.961c-1.611-0.14-3.432-1.961-3.432-1.961s-10.785,1.401-17.929-3.222
					c-7.144-4.622-13.307-10.085-12.887-19.33c0.42-9.245,8.544-15.408,8.544-15.408L385.165,230.667z"/>
			</g>
			<g>
				<g>
					<path style="fill:#263238;" d="M385.165,230.667c0.485,0.365,1.877,1.416,4.935,3.721l0.092,0.069l-0.093,0.077
						c-1.926,1.603-4.287,4.03-6.187,7.527c-0.933,1.748-1.718,3.784-2.066,6.062c-0.343,2.27-0.241,4.784,0.472,7.272
						c0.686,2.503,2.125,4.904,4.034,7.032c1.923,2.13,4.301,3.995,6.886,5.741c1.295,0.886,2.642,1.688,4.126,2.305
						c1.49,0.594,3.071,1.027,4.702,1.338c3.263,0.596,6.738,0.717,10.216,0.36l0.119-0.012l0.09,0.083
						c0.855,0.792,1.904,1.613,3.079,1.856c1.159,0.214,2.254-0.827,2.975-1.821l0.078-0.107l0.126-0.007
						c5.823-0.307,11.552-2.905,16.481-6.623c4.07-3.021,7.646-6.578,10.636-10.364l0.115,0.394
						c-14.563-5.521-27.877-10.569-38.917-14.755l-0.13-0.049l-0.003-0.137c-0.07-2.805-0.083-5.48,0.011-8.02
						c0.058-1.235-0.275-2.427-0.845-3.446c-0.575-1.02-1.349-1.882-2.2-2.583c-1.714-1.395-3.714-2.195-5.58-2.482
						c-1.892-0.209-3.631,0.385-4.961,1.21c-1.354,0.813-2.382,1.803-3.218,2.693c-0.767,0.988-1.775,1.475-2.531,1.816
						c-0.775,0.344-1.39,0.547-1.804,0.679C385.385,230.626,385.165,230.667,385.165,230.667s0.208-0.081,0.616-0.23
						c0.406-0.151,1.013-0.373,1.773-0.732c0.756-0.366,1.701-0.832,2.45-1.826c0.83-0.91,1.856-1.926,3.229-2.771
						c1.346-0.856,3.138-1.495,5.115-1.293c1.94,0.283,3.973,1.081,5.757,2.508c0.883,0.718,1.691,1.605,2.299,2.667
						c0.603,1.058,0.966,2.33,0.911,3.633c-0.08,2.526-0.055,5.2,0.027,7.993l-0.133-0.186c11.05,4.159,24.377,9.174,38.953,14.66
						l0.329,0.124l-0.213,0.27c-3.034,3.848-6.62,7.415-10.739,10.475c-4.979,3.755-10.803,6.407-16.772,6.715l0.203-0.113
						c-0.411,0.578-0.88,1.078-1.452,1.491c-0.556,0.4-1.308,0.699-2.035,0.545c-1.391-0.305-2.422-1.155-3.346-2.001l0.209,0.071
						c-3.556,0.359-7.046,0.228-10.369-0.385c-1.657-0.32-3.267-0.765-4.79-1.378c-1.514-0.632-2.917-1.475-4.203-2.362
						c-2.597-1.766-4.997-3.66-6.945-5.836c-1.935-2.173-3.399-4.641-4.088-7.208c-0.716-2.555-0.804-5.111-0.44-7.428
						c0.369-2.322,1.185-4.385,2.144-6.148c1.957-3.528,4.356-5.94,6.332-7.536l-0.001,0.146c-1.581-1.263-2.793-2.231-3.63-2.899
						c-0.386-0.311-0.685-0.551-0.903-0.727C385.254,230.745,385.157,230.665,385.165,230.667z"/>
				</g>
			</g>
		</g>
		<g>
			<path style="fill:#EBEBEB;" d="M443.727,252.74c-4.901-6.093-11.879-10.484-19.493-12.267c-5.87-1.374-12.088-1.184-17.882,0.477
				l0.295-0.109c-3.652,0.49-7.187,1.833-10.244,3.892c-1.301,0.876-2.631,2.115-2.586,3.682c0.041,1.415,1.193,2.522,2.304,3.399
				c6.626,5.233,14.911,8.331,23.345,8.729c8.434,0.398,16.974-1.906,24.064-6.492c0.218-0.141,0.452-0.31,0.501-0.565
				C444.083,253.213,443.901,252.956,443.727,252.74z"/>
		</g>
		<g>
			<path style="fill:#263238;" d="M396.982,230.048c0,0.687-0.557,1.244-1.244,1.244s-1.244-0.557-1.244-1.244
				s0.557-1.244,1.244-1.244S396.982,229.361,396.982,230.048z"/>
		</g>
		<g>
			<g>
				<path style="fill:#263238;" d="M427.916,249.578c0.012,0.021-0.13,0.134-0.419,0.312c-0.291,0.173-0.737,0.4-1.337,0.603
					c-1.182,0.404-3.067,0.694-5.149,0.04l0.136-0.448c1.038,0.31,1.324,1.76,0.563,2.567c-0.743,0.799-1.986,0.866-2.948,0.499
					c-0.57-0.201-1.072-0.491-1.536-0.755l0.346-0.361c0.469,0.764,0.388,1.689,0.061,2.386c-0.325,0.713-0.941,1.246-1.588,1.504
					c-1.322,0.523-2.609,0.256-3.523-0.107c-0.93-0.376-1.584-0.831-2.03-1.138c-0.443-0.314-0.671-0.504-0.653-0.531
					c0.018-0.029,0.282,0.11,0.753,0.373c0.472,0.256,1.148,0.658,2.05,0.973c0.881,0.307,2.084,0.494,3.224,0.009
					c0.562-0.242,1.048-0.684,1.319-1.289c0.269-0.593,0.309-1.337-0.048-1.907l-0.54-0.861l0.887,0.5
					c0.464,0.262,0.944,0.533,1.453,0.712c0.857,0.331,1.854,0.23,2.402-0.35c0.553-0.531,0.305-1.617-0.313-1.773l0.136-0.448
					c1.948,0.657,3.754,0.453,4.921,0.137C427.264,249.903,427.884,249.518,427.916,249.578z"/>
			</g>
		</g>
		<g>
			<g>
				<path style="fill:#263238;" d="M442.293,254.525c0.008,0.009-0.051,0.073-0.173,0.189c-0.124,0.114-0.301,0.291-0.554,0.497
					c-0.504,0.413-1.279,0.987-2.361,1.564c-2.127,1.139-5.668,2.311-9.906,1.597l0.114-0.426c0.892,0.315,1.756,0.909,2.394,1.74
					l0.221,0.288l-0.356,0.083c-2.724,0.639-5.91,0.697-9.066-0.154l-1.498-0.404l1.558-0.104c0.408-0.027,0.788,0.314,0.876,0.651
					c0.116,0.339,0.103,0.698-0.034,1.034c-0.347,0.744-1.152,0.863-1.765,0.846c-8.096-1.363-14.918-4.229-19.639-6.665
					c-2.356-1.231-4.199-2.343-5.437-3.163c-0.628-0.396-1.092-0.74-1.413-0.962c-0.318-0.227-0.48-0.354-0.47-0.369
					c0.01-0.015,0.191,0.082,0.527,0.281c0.383,0.23,0.867,0.521,1.462,0.878c1.267,0.765,3.131,1.824,5.496,3.006
					c2.364,1.183,5.255,2.444,8.549,3.609c3.285,1.126,7.037,2.246,10.942,2.863c0.527,0.036,1.124-0.144,1.268-0.53
					c0.19-0.409-0.018-1.014-0.347-0.964l0.059-0.508c3.065,0.833,6.166,0.794,8.826,0.194l-0.135,0.371
					c-0.572-0.76-1.359-1.312-2.17-1.609l0.115-0.426c4.102,0.739,7.583-0.335,9.71-1.39
					C441.25,255.464,442.245,254.46,442.293,254.525z"/>
			</g>
		</g>
		<g>
			<g>
				<path style="fill:#263238;" d="M397.444,227.958c-0.188,0.111-0.413,0.113-0.606,0.128c-0.196,0.009-0.366,0.012-0.542-0.028
					c-0.178-0.035-0.332-0.106-0.507-0.194c-0.17-0.092-0.375-0.185-0.502-0.362c-0.124-0.169-0.111-0.439,0.137-0.68
					c0.238-0.24,0.71-0.397,1.197-0.292c0.487,0.102,0.854,0.436,0.975,0.752C397.723,227.602,397.625,227.853,397.444,227.958z"/>
			</g>
		</g>
		<g>
			<path style="fill:#E8505B;" d="M385.165,230.667c0,0-9.776-0.615-11.298,8.108l1.439-0.785c0.749-0.409,1.577-0.654,2.427-0.721
				l10.226-1.093l2.083-1.715C389.352,233.916,385.165,230.667,385.165,230.667z"/>
		</g>
		<g>
			<g>
				<path style="fill:#263238;" d="M384.758,231.559c0.009,0.145-0.559,0.299-1.262,0.412c-0.703,0.112-1.291,0.143-1.327,0.002
					c-0.036-0.138,0.515-0.4,1.245-0.517C384.143,231.339,384.749,231.417,384.758,231.559z"/>
			</g>
		</g>
		<g>
			<g>
				<path style="fill:#263238;" d="M388.964,235.425c0.006,0.072-0.871,0.215-2.295,0.39c-1.424,0.175-3.394,0.38-5.572,0.575
					c-1.089,0.104-2.134,0.162-3.052,0.296c-0.921,0.131-1.72,0.367-2.336,0.687c-1.253,0.635-1.678,1.472-1.747,1.419
					c-0.062-0.002,0.267-0.966,1.569-1.741c0.635-0.386,1.486-0.676,2.437-0.838c0.955-0.166,1.994-0.236,3.082-0.341
					c2.179-0.195,4.154-0.342,5.586-0.423C388.069,235.368,388.958,235.354,388.964,235.425z"/>
			</g>
		</g>
	</g>
</g>
</svg>
