<?xml version="1.0" encoding="utf-8"?>
<!-- Generator: Adobe Illustrator 27.5.0, SVG Export Plug-In . SVG Version: 6.00 Build 0)  -->
<svg version="1.1" xmlns="http://www.w3.org/2000/svg" xmlns:xlink="http://www.w3.org/1999/xlink" x="0px" y="0px"
	 viewBox="0 0 750 500" style="enable-background:new 0 0 750 500;" xml:space="preserve">
<g id="Background_Simple">
	<g>
		<path style="fill:#92E3A9;" d="M616.502,86.172c-47.899-28.207-102.22-39.891-156.583-47.225
			c-52.504-7.083-106.383-3.383-157.534,10.331c-22.389,6.003-44.265,13.928-65.279,23.715
			c-19.689,9.17-38.703,25.586-60.154,29.841c7.184-10.03,14.367-20.06,21.551-30.09c4.143-5.784,8.22-14.079,3.427-19.336
			c-1.954-2.143-4.925-3.036-7.795-3.459c-11.089-1.633-22.222,2.389-32.281,7.333C115.499,80.061,77.652,122.542,48.872,164.57
			C1.381,233.922,6.658,347.75,60.933,403.533c54.275,55.783,170.365,82.921,218.61,76.89c36.623-4.578-2.837-26.344-10.942-39.541
			c-0.707-1.15-1.37-2.418-1.312-3.767c0.099-2.308,2.207-3.967,4.204-5.128c16.734-9.724,38.121-6.865,56.642-8.324
			c29.459-2.32,59.155-3.277,88.695-2.181c4.012,0.149,50.314,1.255,46.645,10.701c-2.917,7.501-14.424,13.563-20.466,18.154
			c-4.64,3.527-34.679,23.958-26.01,30.935c2.396,1.928,5.642,2.325,8.703,2.622c50.723,4.918,102.923,3.404,152.869-7.168
			c43.495-9.208,91.506-24.19,117.458-63.096c26.466-39.676,28.084-92.67,17.988-137.893c-2.404-10.767-5.563-21.376-9.559-31.661
			c-3.709-9.546-9.604-17.591-14.525-26.508c-1.983-3.594-3.353-7.925-1.924-11.773c6.304-16.979,24.607,16.881,29.599-1.302
			c2.424-8.83-2.248-21.929-5.214-30.266c-5.344-15.024-14.39-28.538-25.221-40.156C666.466,111.86,641.922,101.142,616.502,86.172z
			"/>
		<path style="opacity:0.8;fill:#FFFFFF;" d="M616.502,86.172c-47.899-28.207-102.22-39.891-156.583-47.225
			c-52.504-7.083-106.383-3.383-157.534,10.331c-22.389,6.003-44.265,13.928-65.279,23.715
			c-19.689,9.17-38.703,25.586-60.154,29.841c7.184-10.03,14.367-20.06,21.551-30.09c4.143-5.784,8.22-14.079,3.427-19.336
			c-1.954-2.143-4.925-3.036-7.795-3.459c-11.089-1.633-22.222,2.389-32.281,7.333C115.499,80.061,77.652,122.542,48.872,164.57
			C1.381,233.922,6.658,347.75,60.933,403.533c54.275,55.783,170.365,82.921,218.61,76.89c36.623-4.578-2.837-26.344-10.942-39.541
			c-0.707-1.15-1.37-2.418-1.312-3.767c0.099-2.308,2.207-3.967,4.204-5.128c16.734-9.724,38.121-6.865,56.642-8.324
			c29.459-2.32,59.155-3.277,88.695-2.181c4.012,0.149,50.314,1.255,46.645,10.701c-2.917,7.501-14.424,13.563-20.466,18.154
			c-4.64,3.527-34.679,23.958-26.01,30.935c2.396,1.928,5.642,2.325,8.703,2.622c50.723,4.918,102.923,3.404,152.869-7.168
			c43.495-9.208,91.506-24.19,117.458-63.096c26.466-39.676,28.084-92.67,17.988-137.893c-2.404-10.767-5.563-21.376-9.559-31.661
			c-3.709-9.546-9.604-17.591-14.525-26.508c-1.983-3.594-3.353-7.925-1.924-11.773c6.304-16.979,24.607,16.881,29.599-1.302
			c2.424-8.83-2.248-21.929-5.214-30.266c-5.344-15.024-14.39-28.538-25.221-40.156C666.466,111.86,641.922,101.142,616.502,86.172z
			"/>
	</g>
</g>
<g id="Clouds">
	<path style="fill:none;stroke:#263238;stroke-linecap:round;stroke-linejoin:round;stroke-miterlimit:10;" d="M667.969,189.857
		c0,0-21.903-24.168-45.316-24.168c-23.413,0-24.168,21.903-27.945,24.924c-3.776,3.021-18.882-5.287-24.168,0
		c-5.287,5.287-5.287,9.818-8.308,10.574c-3.021,0.755-15.105-3.776-20.392-2.266c-5.287,1.51-9.818,5.287-9.818,5.287
		s-9.818-0.755-15.105,3.776c-5.287,4.532-10.574,6.042-10.574,6.042h216.006c0,0-0.755-13.595-12.084-18.882
		c-11.329-5.287-13.243-4.287-20.392-0.755c-7.149,3.531-3.413-8.055-10.574-8.308C671.216,185.794,673.256,189.101,667.969,189.857
		z"/>
	<path style="fill:none;stroke:#263238;stroke-linecap:round;stroke-linejoin:round;stroke-miterlimit:10;" d="M511.138,274.7
		c0,0-11.814-13.036-24.443-13.036c-12.629,0-13.036,11.814-15.073,13.443c-2.037,1.63-10.185-2.852-13.036,0
		c-2.852,2.852-2.852,5.296-4.481,5.703c-1.629,0.407-8.148-2.037-10.999-1.222c-2.852,0.815-5.296,2.852-5.296,2.852
		s-5.296-0.407-8.148,2.037c-2.852,2.444-5.703,3.259-5.703,3.259h116.51c0,0-0.407-7.333-6.518-10.184
		c-6.111-2.852-7.143-2.312-10.999-0.407c-3.856,1.905-1.841-4.345-5.703-4.481C512.889,272.508,513.99,274.292,511.138,274.7z"/>
	<path style="fill:none;stroke:#263238;stroke-linecap:round;stroke-linejoin:round;stroke-miterlimit:10;" d="M118.349,81.041
		c0,0-11.814-13.036-24.443-13.036S80.87,79.819,78.833,81.448c-2.037,1.63-10.185-2.852-13.036,0
		c-2.852,2.852-2.852,5.296-4.481,5.703c-1.63,0.407-8.148-2.037-10.999-1.222c-2.852,0.815-5.296,2.852-5.296,2.852
		s-5.296-0.407-8.148,2.037c-2.852,2.444-5.703,3.259-5.703,3.259h116.51c0,0-0.407-7.333-6.518-10.185
		c-6.111-2.852-7.143-2.312-10.999-0.407c-3.856,1.905-1.841-4.344-5.703-4.481C120.1,78.85,121.2,80.634,118.349,81.041z"/>
</g>
<g id="Trees">
	<g>
		<path style="fill:#92E3A9;" d="M239.844,234.91c0,0-24.462,3.198-29.197,19.354c-4.735,16.156,34.72,26.414,34.72,29.57
			s-10.258,18.938-1.578,23.673c8.68,4.735,42.611,2.367,42.611,2.367s11.837,11.047,25.251,7.102
			c13.415-3.945,26.04-11.047,29.197-22.884c3.156-11.837,11.836-14.204,17.36-22.884c5.524-8.68,3.156-22.884-8.68-33.931
			C337.692,226.23,253.259,228.597,239.844,234.91z"/>
		<path style="opacity:0.16;" d="M239.844,234.91c0,0-24.462,3.198-29.197,19.354c-4.735,16.156,34.72,26.414,34.72,29.57
			s-10.258,18.938-1.578,23.673c8.68,4.735,42.611,2.367,42.611,2.367s11.837,11.047,25.251,7.102
			c13.415-3.945,26.04-11.047,29.197-22.884c3.156-11.837,11.836-14.204,17.36-22.884c5.524-8.68,3.156-22.884-8.68-33.931
			C337.692,226.23,253.259,228.597,239.844,234.91z"/>
		<path style="fill:#8C8C8C;" d="M272.197,229.387c0,0,5.524,72.597,0,91.536c-5.524,18.938-41.033,97.848-41.033,97.848h35.51
			c0,0,57.604-59.182,67.073-71.808s43.401-90.746,43.401-90.746l-12.626-0.789c0,0-21.306,51.291-29.986,67.863
			c-8.68,16.571-37.877,44.979-45.768,49.713c-7.891,4.735,11.836-20.517,16.571-33.142c4.735-12.626,23.673-58.393,26.04-67.074
			c2.367-8.68,10.258-34.72,10.258-34.72l-11.836-0.789c0,0-4.735,33.931-9.469,42.611c-4.735,8.68-14.204,29.197-14.204,29.197
			l-6.313-79.699l-11.047-5.524c0,0,3.945,63.917,5.524,75.754c1.578,11.837,1.578,22.884,0.789,27.618
			c-0.789,4.735-11.047,26.829-14.204,30.775s-5.524-4.735-4.735-9.469c0.789-4.735,8.68-26.04,10.258-38.666
			c1.578-12.626-3.945-93.903-3.945-93.903L272.197,229.387z"/>
		<g>
			<path style="fill:#92E3A9;" d="M407.922,296.46c0,0-19.727-19.727-41.033-9.469c-21.306,10.258-19.728,21.306-22.095,26.04
				s-7.891-3.156-15.782,7.102c-7.891,10.258,4.735,20.517,11.047,22.095c6.313,1.578,22.884-6.313,26.829-3.946
				c3.945,2.367,7.102,11.837,23.673,3.946c16.571-7.891,14.993-18.938,21.306-23.673C418.18,313.82,422.126,309.086,407.922,296.46
				z"/>
			<path style="opacity:0.5;fill:#FFFFFF;" d="M407.922,296.46c0,0-19.727-19.727-41.033-9.469
				c-21.306,10.258-19.728,21.306-22.095,26.04c-2.367,4.735-7.891-3.156-15.782,7.102c-3.972,5.164-2.744,10.327,0.26,14.384
				c-1.6-5.302-3.138-14.028,5.264-11.227c11.837,3.945,24.462-0.789,24.462-0.789s-10.258-11.837,1.578-15.782
				c11.836-3.945,19.727,0,19.727,3.156s5.524-13.415,11.837-7.102c6.313,6.313,2.367,15.782,2.367,15.782s7.102-3.156,6.313,2.367
				c-0.789,5.524-5.524,9.469-5.524,9.469l6.985,2.955c4.699-5.865,5.445-11.686,9.586-14.792
				C418.18,313.82,422.126,309.086,407.922,296.46z"/>
		</g>
		<g>
			<path style="fill:#92E3A9;" d="M407.529,69.758c-22.454,2.897-45.119-2.124-64.578-13.837
				c-11.334-6.823-25.914-13.634-42.347-16.692c-38.666-7.194-42.611,19.985-46.557,28.778c-3.945,8.793-19.728,0-57.604,5.596
				c-37.877,5.596-48.135,38.37-44.979,47.164c3.156,8.793,9.469,11.991,3.945,19.185c-5.524,7.194-26.383,25.666-23.673,41.568
				c2.71,15.902,54.448,67.148,78.91,72.744s58.393-21.583,83.645-18.386c25.251,3.198,21.306,35.972,89.168,28.778
				s57.604-62.352,96.27-66.349c38.666-3.997,83.645-4.796,78.91-46.364s-57.604-80.738-91.535-86.334
				c-33.931-5.596-21.306-0.799-58.393,3.997C408.313,69.657,407.919,69.708,407.529,69.758z"/>
			<path style="opacity:0.5;fill:#FFFFFF;" d="M467.105,65.609c-33.931-5.596-21.306-0.799-58.394,3.997
				c-0.398,0.051-0.792,0.102-1.182,0.153c-22.454,2.897-45.119-2.124-64.578-13.837c-11.334-6.823-25.914-13.634-42.347-16.692
				c-38.666-7.194-42.611,19.985-46.557,28.778c-3.945,8.793-19.728,0-57.604,5.596c-37.877,5.596-48.135,38.371-44.979,47.164
				c3.156,8.793,9.469,11.991,3.945,19.185c-5.524,7.194-26.383,25.666-23.673,41.568c2.138,12.541,34.765,47.058,60.461,63.837
				c-7.092-9.11-46.411-60.501-39.945-71.996c7.102-12.626,48.924-3.156,57.604-7.891c8.68-4.735,4.735-25.251,9.469-26.829
				c4.735-1.578,16.571,3.946,16.571,3.946s-14.993-16.571,0-14.204c14.993,2.367,18.149,11.047,18.149,11.047
				s-3.156-22.884,2.367-26.04c5.524-3.156,4.499,8.89,6.145,13.199c1.646,4.309,4.113,14.42,4.113,14.42
				s12.755-33.015,22.884-27.618c10.129,5.397,6.313,18.938,11.047,20.517c4.735,1.578,3.946-7.102,25.251-22.884
				c21.306-15.782,43.4-8.68,47.346-3.156c3.945,5.524,9.469,4.735,5.524-3.156c-3.945-7.891-22.095-10.258-26.04-15.782
				c-3.945-5.524,11.047-7.891,18.938-3.946c7.891,3.946,22.095,21.306,22.095,21.306s3.712-9.605,10.258-7.891
				c6.546,1.714,6.313,18.149,6.313,18.149s2.897-23.007,8.945-13.082c6.048,9.925-1.054,28.864-1.054,28.864
				s25.251-14.993,29.986-1.578c4.735,13.415-13.415,29.197-15.782,32.353c-2.367,3.156,25.251-0.789,31.564,0.789
				c6.313,1.578,3.157-11.836,3.946-21.306c0.789-9.469,14.204-0.789,14.204-0.789s-11.047-11.837-10.258-17.36
				c0.789-5.524,17.36-4.735,20.517,6.313c3.156,11.047,0.789-11.836,8.68-3.156c7.891,8.68-0.789,32.353-0.789,32.353
				s22.884-31.564,22.884-15.782c0,15.782-3.156,22.884,0,22.095c3.156-0.789,14.993-19.728,19.728-11.837
				c4.734,7.891,3.945,13.415,3.156,15.782c-0.496,1.489,4.934,2.977,9.035,3.877c3.238-5.691,4.642-12.908,3.591-22.138
				C553.906,110.374,501.036,71.204,467.105,65.609z"/>
			<path style="opacity:0.55;fill:#FFFFFF;" d="M385.827,205.714c0,0-13.415-12.626-7.891-14.204
				c5.524-1.578,19.727,11.837,21.306,7.102c1.578-4.735-2.367-20.517,8.68-14.204c11.047,6.313,11.047,6.313,11.047,6.313
				l10.258-7.891l6.313,11.047c0,0,3.946-11.047,12.626-3.945c8.68,7.102-4.735,14.204-4.735,14.204s-24.462-4.735-33.142-0.789
				c-8.68,3.945-6.313,6.313-7.891,10.258c-1.578,3.945-19.728,3.945-33.142-1.578C355.842,206.503,378.725,204.924,385.827,205.714
				z"/>
		</g>
		<g>
			<path style="fill:#8C8C8C;" d="M184.23,356.838c2.624-4.724,24.145-38.317,24.145-38.317l-10.498,3.149l-16.797,29.919
				l2.625-29.919l-5.774,2.624c0,0-1.05,32.543-2.624,40.942c-1.12,5.972-0.117,18.839,0.557,25.779
				c-4.222-9.879-8.208-19.59-9.426-23.765c-2.908-9.972,0-48.196,0-48.196l-5.401-7.063c0,0-2.908,42.795-2.077,49.443
				c0.831,6.648,4.986,17.866,5.401,20.359c0.415,2.493-0.831,7.063-2.493,4.986c-1.662-2.077-7.063-13.711-7.479-16.204
				c-0.416-2.493-0.416-8.31,0.415-14.542c0.831-6.232,2.908-39.887,2.908-39.887l-5.817,2.908l-3.324,41.964
				c0,0-4.986-10.803-7.479-15.373c-2.493-4.57-4.986-22.436-4.986-22.436l-6.232,0.415c0,0,4.155,13.711,5.401,18.281
				c1.247,4.57,11.218,28.668,13.711,35.316c2.493,6.648,12.88,19.943,8.725,17.45c-4.155-2.493-19.528-17.45-24.098-26.176
				c-4.57-8.725-15.788-35.732-15.788-35.732l-6.648,0.415c0,0,17.866,41.133,22.852,47.781
				c4.986,6.648,35.316,37.809,35.316,37.809h18.697c0,0-3.283-7.295-7.311-16.504C181.129,389.13,182.216,360.464,184.23,356.838z"
				/>
			<g>
				<path style="fill:#92E3A9;" d="M94.975,354.37c0,0,10.387-10.387,21.605-4.986c11.218,5.401,10.387,11.218,11.634,13.711
					c1.246,2.493,4.155-1.662,8.31,3.739c4.155,5.401-2.493,10.803-5.817,11.634c-3.324,0.831-12.049-3.324-14.127-2.077
					c-2.077,1.247-3.739,6.232-12.465,2.077c-8.725-4.155-7.894-9.972-11.218-12.465C89.574,363.511,87.496,361.018,94.975,354.37z"
					/>
				<path style="opacity:0.55;fill:#FFFFFF;" d="M94.975,354.37c0,0,10.387-10.387,21.605-4.986
					c11.218,5.401,10.387,11.218,11.634,13.711c1.246,2.493,4.155-1.662,8.31,3.739c2.092,2.719,1.445,5.437-0.137,7.573
					c0.842-2.792,1.652-7.386-2.772-5.912c-6.232,2.077-12.88-0.415-12.88-0.415s5.401-6.232-0.831-8.31
					c-6.232-2.077-10.387,0-10.387,1.662c0,1.662-2.908-7.063-6.232-3.739c-3.324,3.324-1.246,8.31-1.246,8.31
					s-3.739-1.662-3.324,1.246c0.415,2.908,2.908,4.986,2.908,4.986l-3.678,1.556c-2.474-3.088-2.867-6.153-5.047-7.788
					C89.574,363.511,87.496,361.018,94.975,354.37z"/>
			</g>
			<g>
				<path style="fill:#92E3A9;" d="M95.182,235.005c11.823,1.525,23.756-1.118,34.002-7.286c5.968-3.592,13.645-7.179,22.297-8.789
					c20.359-3.788,22.436,10.523,24.514,15.152c2.077,4.63,10.387,0,30.33,2.946c19.943,2.946,25.345,20.203,23.683,24.833
					c-1.662,4.63-4.986,6.314-2.077,10.102c2.908,3.788,13.892,13.514,12.465,21.887c-1.427,8.373-28.668,35.356-41.549,38.302
					c-12.88,2.946-30.746-11.364-44.041-9.681s-11.218,18.941-46.95,15.152c-35.732-3.788-30.33-32.83-50.689-34.935
					c-20.359-2.104-44.041-2.525-41.549-24.412s30.33-42.511,48.196-45.457c17.866-2.946,11.218-0.421,30.746,2.105
					C94.769,234.952,94.976,234.979,95.182,235.005z"/>
				<path style="opacity:0.55;fill:#FFFFFF;" d="M63.813,232.82c17.866-2.946,11.218-0.421,30.746,2.105
					c0.209,0.027,0.417,0.054,0.622,0.08c11.823,1.525,23.756-1.118,34.002-7.286c5.968-3.592,13.645-7.179,22.297-8.789
					c20.359-3.788,22.436,10.523,24.514,15.152c2.077,4.63,10.387,0,30.33,2.946c19.943,2.946,25.345,20.203,23.683,24.833
					c-1.662,4.63-4.986,6.314-2.077,10.102c2.908,3.788,13.892,13.514,12.465,21.887c-1.126,6.603-18.305,24.778-31.835,33.612
					c3.734-4.797,24.437-31.856,21.032-37.908c-3.739-6.648-25.76-1.662-30.33-4.155c-4.57-2.493-2.493-13.296-4.986-14.127
					c-2.493-0.831-8.725,2.077-8.725,2.077s7.894-8.725,0-7.479c-7.894,1.246-9.556,5.817-9.556,5.817s1.662-12.049-1.247-13.711
					c-2.908-1.662-2.369,4.681-3.235,6.949c-0.867,2.269-2.166,7.592-2.166,7.592s-6.716-17.383-12.049-14.542
					c-5.333,2.841-3.324,9.972-5.817,10.803c-2.493,0.831-2.077-3.739-13.296-12.049c-11.218-8.31-22.852-4.57-24.929-1.662
					c-2.077,2.908-4.986,2.493-2.908-1.662c2.077-4.155,11.634-5.401,13.711-8.31c2.077-2.908-5.817-4.155-9.972-2.077
					c-4.155,2.077-11.634,11.218-11.634,11.218s-1.955-5.058-5.401-4.155c-3.447,0.903-3.324,9.556-3.324,9.556
					s-1.525-12.114-4.71-6.888c-3.185,5.226,0.555,15.198,0.555,15.198s-13.296-7.894-15.788-0.831
					c-2.493,7.063,7.063,15.373,8.31,17.035c1.246,1.662-13.296-0.415-16.619,0.415c-3.324,0.831-1.662-6.232-2.077-11.218
					c-0.416-4.986-7.479-0.415-7.479-0.415s5.817-6.232,5.401-9.141c-0.416-2.908-9.141-2.493-10.803,3.324
					c-1.662,5.817-0.415-6.232-4.57-1.662c-4.155,4.57,0.416,17.035,0.416,17.035s-12.049-16.619-12.049-8.31s1.662,12.049,0,11.634
					c-1.662-0.415-7.894-10.387-10.387-6.232c-2.493,4.155-2.077,7.063-1.662,8.31c0.261,0.784-2.598,1.567-4.757,2.041
					c-1.705-2.997-2.444-6.796-1.891-11.656C18.11,256.391,45.947,235.766,63.813,232.82z"/>
				<path style="opacity:0.55;fill:#FFFFFF;" d="M106.608,306.59c0,0,7.063-6.648,4.155-7.479
					c-2.908-0.831-10.387,6.232-11.218,3.739c-0.831-2.493,1.247-10.803-4.57-7.479c-5.817,3.324-5.817,3.324-5.817,3.324
					l-5.401-4.155l-3.324,5.817c0,0-2.077-5.817-6.648-2.078c-4.57,3.739,2.493,7.479,2.493,7.479s12.88-2.493,17.45-0.415
					c4.57,2.077,3.324,3.324,4.155,5.401c0.831,2.077,10.387,2.077,17.45-0.831C122.397,307.005,110.348,306.174,106.608,306.59z"/>
			</g>
		</g>
	</g>
</g>
<g id="Bushes">
	<g>
		<path style="fill:#92E3A9;" d="M49.936,417.539c0,0,10.205-19.81,34.217-26.413c24.012-6.603,43.821,8.404,45.622,4.802
			c1.801-3.602-6.603-11.406-1.201-12.606c5.403-1.201,21.01,7.804,21.01,7.804s-4.802-10.205,6.003-17.409
			c10.805-7.204,40.82,0.6,49.824,11.406c9.004,10.805,9.605,6.603,16.808,4.802c7.204-1.801,15.608,3.602,15.608,3.602
			s0-22.211,18.009-25.212s51.025,25.813,54.026,25.813c3.001,0,19.81-12.006,29.414-4.202c9.605,7.804,22.277,10.945,22.277,10.945
			s-5.469-22.351,17.942-24.152c23.411-1.801,48.023,22.811,63.631,16.208c15.608-6.603,51.625-25.212,49.824-13.207
			c-1.801,12.006,3.002,14.407,3.002,14.407s21.01-26.413,51.625-18.609c30.615,7.804,33.016,23.411,40.22,22.811
			c7.203-0.6,13.807-16.808,25.813-10.805c12.006,6.003,21.611,19.209,23.411,19.209c1.801,0,26.413-16.808,41.42-7.203
			c15.007,9.605,17.409,18.609,17.409,18.609L49.936,417.539z"/>
		<path style="opacity:0.48;fill:#FFFFFF;" d="M695.556,417.308c-0.981-2.437-4.81-9.903-17.113-17.777
			c-15.007-9.605-39.619,7.203-41.42,7.203c-1.801,0-11.406-13.206-23.411-19.209c-12.006-6.003-18.609,10.205-25.813,10.805
			c-7.204,0.6-9.605-15.007-40.22-22.811c-30.615-7.804-51.625,18.609-51.625,18.609s-4.802-2.401-3.002-14.407
			c1.801-12.006-34.217,6.603-49.824,13.206c-15.608,6.603-40.22-18.009-63.631-16.208c-23.411,1.801-17.942,24.152-17.942,24.152
			s-12.673-3.141-22.277-10.945c-9.605-7.804-26.413,4.202-29.414,4.202c-3.001,0-36.018-28.814-54.026-25.813
			c-18.009,3.001-18.009,25.212-18.009,25.212s-8.404-5.403-15.608-3.602c-7.203,1.801-7.804,6.003-16.808-4.802
			c-9.004-10.805-39.019-18.609-49.824-11.406c-10.805,7.204-6.003,17.409-6.003,17.409s-15.608-9.004-21.01-7.804
			c-5.403,1.201,3.001,9.004,1.201,12.606c-1.801,3.602-21.611-11.406-45.622-4.802c-14.762,4.06-24.299,13.107-29.461,19.477
			c6.443-2.519,24.312-9.272,30.661-9.272c7.804,0,27.013,13.807,34.217,10.205c7.204-3.602,7.804-6.003,15.608-4.802
			c7.804,1.201,10.805,4.202,12.006-3.001c1.201-7.203,6.603-13.206,24.012-8.404c17.408,4.802,28.814,13.207,31.816,8.404
			c3.001-4.802,7.204-4.802,16.208,1.201c9.005,6.003,6.603,1.201,12.606-1.801c6.003-3.001,13.807,1.801,17.408,2.401
			c3.602,0.6-7.203-13.807,12.606-19.21c19.81-5.403,48.624,19.81,53.426,17.409c4.802-2.401,9.605-7.804,16.808-5.403
			c7.203,2.401,14.407,6.603,14.407,6.603s-5.505-9.521,3.602-6.003c9.107,3.518,16.208,8.404,16.208,8.404
			s9.605-16.808,16.208-16.808c6.603,0,15.007,9.004,15.007,9.004s6.603-10.205,12.606-4.802c6.003,5.403,12.006,9.004,12.006,9.004
			s23.411-11.406,21.611-4.202c-1.801,7.203-1.801,7.203-1.801,7.203s33.616-17.409,36.618-10.205
			c3.001,7.203,4.802,12.606,9.004,9.605c4.202-3.001,15.608-10.205,16.208-7.203c0.6,3.001,0.6,3.001,0.6,3.001
			s23.411-13.206,33.616-10.805c10.205,2.401,18.609,12.606,18.609,12.606s17.409-7.203,16.208-1.801
			c-1.201,5.403-1.201,5.403-1.201,5.403s12.606-3.002,13.807-0.6c0,0,18.609-15.007,31.215-6.603
			c12.606,8.404,24.012,13.207,25.813,11.406c1.801-1.801,18.609-12.006,26.413-6.603c4.672,3.235,11.924,9.05,16.994,13.197
			l9.165,0.009C695.183,417.865,695.369,417.588,695.556,417.308z"/>
	</g>
</g>
<g id="River">
	<g>
		
			<line style="fill:#FFFFFF;stroke:#263238;stroke-linecap:round;stroke-linejoin:round;stroke-miterlimit:10;" x1="31.355" y1="418.14" x2="723.822" y2="418.14"/>
		<g>
			<g>
				<path style="fill:none;stroke:#263238;stroke-linecap:round;stroke-linejoin:round;stroke-miterlimit:10;" d="M711.059,447.54
					c13.014,2.307,20.252,4.337,20.252,4.337"/>
				<path style="fill:none;stroke:#263238;stroke-linecap:round;stroke-linejoin:round;stroke-miterlimit:10;" d="M567.308,445.402
					c57.815-7.839,106.014-3.735,134.88,0.676"/>
				<path style="fill:none;stroke:#263238;stroke-linecap:round;stroke-linejoin:round;stroke-miterlimit:10;" d="M329.825,457.289
					c52.949,12.263,106.443,19.931,173.658,1.232c18.893-5.256,37.234-9.088,54.764-11.804"/>
				<path style="fill:none;stroke:#263238;stroke-linecap:round;stroke-linejoin:round;stroke-miterlimit:10;" d="M134.607,427.072
					c14.497,0.377,30.475,1.023,48.019,2.022c50.518,2.875,93.75,15.346,136.77,25.726"/>
				<path style="fill:none;stroke:#263238;stroke-linecap:round;stroke-linejoin:round;stroke-miterlimit:10;" d="M15.552,431.942
					c0,0,30.415-6.317,105.427-5.154"/>
				<path style="fill:none;stroke:#263238;stroke-linecap:round;stroke-linejoin:round;stroke-miterlimit:10;" d="M512.144,470.021
					c36.801-3.371,69.684-7.843,98.608-11.5c82.588-10.442,121.508,10.442,121.508,10.442"/>
				<path style="fill:none;stroke:#263238;stroke-linecap:round;stroke-linejoin:round;stroke-miterlimit:10;" d="M386.735,474.851
					c42.487,0.852,81.486-1.054,116.962-4.082"/>
				<path style="fill:none;stroke:#263238;stroke-linecap:round;stroke-linejoin:round;stroke-miterlimit:10;" d="M215.187,458.967
					c16.327,1.557,33.651,3.589,51.925,6.2c38.239,5.463,74.335,8.328,108.271,9.393"/>
				<path style="fill:none;stroke:#263238;stroke-linecap:round;stroke-linejoin:round;stroke-miterlimit:10;" d="M35.487,460.42
					c0,0,62.201-11.749,171.271-2.224"/>
				<path style="fill:none;stroke:#263238;stroke-linecap:round;stroke-linejoin:round;stroke-miterlimit:10;" d="M413.983,441.527
					c-48.783,1.306-81.001-2.929-97.509-6.738"/>
				<path style="fill:none;stroke:#263238;stroke-linecap:round;stroke-linejoin:round;stroke-miterlimit:10;" d="M662.73,427.53
					c-25.196-1.051-88.681-2.246-163.993,7.259c-26.944,3.401-51.004,5.36-72.24,6.294"/>
				<path style="fill:none;stroke:#263238;stroke-linecap:round;stroke-linejoin:round;stroke-miterlimit:10;" d="M674.354,428.145
					c0,0-1.67-0.122-4.828-0.292"/>
			</g>
		</g>
	</g>
</g>
<g id="Fish">
	<g>
		
			<line style="fill:none;stroke:#263238;stroke-linecap:round;stroke-linejoin:round;stroke-miterlimit:10;" x1="542.5" y1="154.671" x2="572.3" y2="300.554"/>
		<g>
			<g>
				<g>
					<path style="fill:#92E3A9;" d="M583.547,315.624c0.66,3.339,2.835,5.716,1.343,9.682c-1.492,3.966-6.385,9.293-10.489,11.12
						c-4.104,1.827-7.145,1.823-11.236,2.111c4.711-2.511,9.552-4.421,13.184-8.441C579.981,326.075,581.814,320.75,583.547,315.624
						z"/>
					<path style="opacity:0.12;" d="M583.547,315.624c0.66,3.339,2.835,5.716,1.343,9.682c-1.492,3.966-6.385,9.293-10.489,11.12
						c-4.104,1.827-7.145,1.823-11.236,2.111c4.711-2.511,9.552-4.421,13.184-8.441C579.981,326.075,581.814,320.75,583.547,315.624
						z"/>
					
						<path style="fill:none;stroke:#263238;stroke-width:0.75;stroke-linecap:round;stroke-linejoin:round;stroke-miterlimit:10;" d="
						M583.547,315.624c0.66,3.339,2.835,5.716,1.343,9.682c-1.492,3.966-6.385,9.293-10.489,11.12
						c-4.104,1.827-7.145,1.823-11.236,2.111c4.711-2.511,9.552-4.421,13.184-8.441C579.981,326.075,581.814,320.75,583.547,315.624
						z"/>
					
						<path style="fill:none;stroke:#263238;stroke-width:0.75;stroke-linecap:round;stroke-linejoin:round;stroke-miterlimit:10;" d="
						M582.894,318.99c0.407,0.99,0.73,1.991,1.03,3.018"/>
					
						<path style="fill:none;stroke:#263238;stroke-width:0.75;stroke-linecap:round;stroke-linejoin:round;stroke-miterlimit:10;" d="
						M582.345,322.355c0.392,1.129,0.785,2.257,1.183,3.384"/>
					
						<path style="fill:none;stroke:#263238;stroke-width:0.75;stroke-linecap:round;stroke-linejoin:round;stroke-miterlimit:10;" d="
						M581.164,323.601c0.308,0.739,0.632,1.473,0.918,2.22"/>
					
						<path style="fill:none;stroke:#263238;stroke-width:0.75;stroke-linecap:round;stroke-linejoin:round;stroke-miterlimit:10;" d="
						M579.742,326.543c0.367,1.104,0.722,2.211,1.064,3.324"/>
					
						<path style="fill:none;stroke:#263238;stroke-width:0.75;stroke-linecap:round;stroke-linejoin:round;stroke-miterlimit:10;" d="
						M576.924,330.46c0.42,0.802,0.81,1.619,1.206,2.433"/>
					
						<path style="fill:none;stroke:#263238;stroke-width:0.75;stroke-linecap:round;stroke-linejoin:round;stroke-miterlimit:10;" d="
						M575.021,332.134c0.358,0.719,0.707,1.441,1.046,2.169"/>
					
						<path style="fill:none;stroke:#263238;stroke-width:0.75;stroke-linecap:round;stroke-linejoin:round;stroke-miterlimit:10;" d="
						M573.987,334.638c0.186,0.345,0.361,0.693,0.565,1.028"/>
					
						<path style="fill:none;stroke:#263238;stroke-width:0.75;stroke-linecap:round;stroke-linejoin:round;stroke-miterlimit:10;" d="
						M582.412,326.407c0.091,0.268,0.178,0.537,0.263,0.807"/>
					
						<path style="fill:none;stroke:#263238;stroke-width:0.75;stroke-linecap:round;stroke-linejoin:round;stroke-miterlimit:10;" d="
						M571.569,336.018c0.095,0.202,0.19,0.405,0.285,0.607"/>
				</g>
				
					<path style="fill:#92E3A9;stroke:#263238;stroke-width:0.75;stroke-linecap:round;stroke-linejoin:round;stroke-miterlimit:10;" d="
					M570.205,293.931c-2.725,8.02-5.318,17.314-8.404,24.903c-3.086,7.589-8.218,12.251-11.164,19.439
					c-1.066,2.6-1.027,4.136-1.542,7.17c-0.515,3.034,2.18,7.562,3.727,9.758c1.547,2.195,2.577,1.993,3.513,0.639
					c0.936-1.354-3.561-8.709-0.888-7.445c2.673,1.264,0.414,3.772,2.09,5.874c1.676,2.102,3.804-1.197,3.612-3.917
					c-0.192-2.72-3.929-5.938-3.092-9.088c0.837-3.15,10.018-3.216,14.988-6.476c4.97-3.26,11.152-15.348,10.307-22.073
					c-0.845-6.725-4.404-13.298-7.294-16.574c-2.89-3.276-2.372-1.542-4.568-1.306C571.689,294.054,571.159,293.44,570.205,293.931z
					"/>
				<path style="fill:#92E3A9;" d="M561.074,350.366c-0.561-2.649-2.886-6.123-3.328-9.074c-0.021-0.139,0.016-0.23,0.03-0.305
					c-1.562,0.615-2.476,4.051-4.163,3.725c-2.125-0.41-2.806-2.894-2.884-4.788c-0.15-0.082-0.322-0.067-0.467-0.152
					c-0.554,2.087-0.941,3.25-1.2,5.615c-0.358,3.269,2.156,7.538,3.749,9.802c1.592,2.264,2.579,1.979,3.518,0.649
					c0.94-1.331-3.532-8.719-0.891-7.441c2.641,1.278,0.514,3.752,2.075,5.878C559.073,356.4,561.635,353.015,561.074,350.366z"/>
				<path style="opacity:0.12;" d="M561.074,350.366c-0.561-2.649-2.886-6.123-3.328-9.074c-0.021-0.139,0.016-0.23,0.03-0.305
					c-1.562,0.615-2.476,4.051-4.163,3.725c-2.125-0.41-2.806-2.894-2.884-4.788c-0.15-0.082-0.322-0.067-0.467-0.152
					c-0.554,2.087-0.941,3.25-1.2,5.615c-0.358,3.269,2.156,7.538,3.749,9.802c1.592,2.264,2.579,1.979,3.518,0.649
					c0.94-1.331-3.532-8.719-0.891-7.441c2.641,1.278,0.514,3.752,2.075,5.878C559.073,356.4,561.635,353.015,561.074,350.366z"/>
				
					<path style="fill:none;stroke:#263238;stroke-width:0.75;stroke-linecap:round;stroke-linejoin:round;stroke-miterlimit:10;" d="
					M561.074,350.366c-0.561-2.649-2.886-6.123-3.328-9.074c-0.021-0.139,0.016-0.23,0.03-0.305
					c-1.562,0.615-2.476,4.051-4.163,3.725c-2.125-0.41-2.806-2.894-2.884-4.788c-0.15-0.082-0.322-0.067-0.467-0.152
					c-0.554,2.087-0.941,3.25-1.2,5.615c-0.358,3.269,2.156,7.538,3.749,9.802c1.592,2.264,2.579,1.979,3.518,0.649
					c0.94-1.331-3.532-8.719-0.891-7.441c2.641,1.278,0.514,3.752,2.075,5.878C559.073,356.4,561.635,353.015,561.074,350.366z"/>
				
					<path style="fill:none;stroke:#263238;stroke-width:0.75;stroke-linecap:round;stroke-linejoin:round;stroke-miterlimit:10;" d="
					M550.768,341.975c-0.738,1.915-0.298,4.217,0.235,6.123"/>
				
					<path style="fill:none;stroke:#263238;stroke-width:0.75;stroke-linecap:round;stroke-linejoin:round;stroke-miterlimit:10;" d="
					M551.591,343.337c-0.138,0.994-0.143,1.883-0.048,2.882"/>
				
					<path style="fill:none;stroke:#263238;stroke-width:0.75;stroke-linecap:round;stroke-linejoin:round;stroke-miterlimit:10;" d="
					M552.703,344.799c-0.094,0.896,0.102,1.729,0.326,2.592"/>
				
					<path style="fill:none;stroke:#263238;stroke-width:0.75;stroke-linecap:round;stroke-linejoin:round;stroke-miterlimit:10;" d="
					M553.598,344.804c0.231,0.751,0.49,1.473,0.742,2.217"/>
				
					<path style="fill:none;stroke:#263238;stroke-width:0.75;stroke-linecap:round;stroke-linejoin:round;stroke-miterlimit:10;" d="
					M555.131,344.279c0.263,0.804,0.672,1.61,1.093,2.343"/>
				
					<path style="fill:none;stroke:#263238;stroke-width:0.75;stroke-linecap:round;stroke-linejoin:round;stroke-miterlimit:10;" d="
					M556.151,342.712c0.745,1.565,1.772,3.031,2.894,4.346"/>
				<path style="fill:#92E3A9;" d="M575.877,295.87c-1.932-1.836-2.748-2.107-4.346-0.97c0.115-0.938-0.363-1.389-1.314-0.996
					c-0.977,2.766-1.794,5.549-2.551,8.401c1.895,2.329,4.038,4.392,7.243,4.289c2.446-0.078,4.37-1.292,5.766-3.256
					C579.943,301.264,576.956,296.895,575.877,295.87z"/>
				<path style="opacity:0.12;" d="M575.877,295.87c-1.932-1.836-2.748-2.107-4.346-0.97c0.115-0.938-0.363-1.389-1.314-0.996
					c-0.977,2.766-1.794,5.549-2.551,8.401c1.895,2.329,4.038,4.392,7.243,4.289c2.446-0.078,4.37-1.292,5.766-3.256
					C579.943,301.264,576.956,296.895,575.877,295.87z"/>
				
					<path style="fill:none;stroke:#263238;stroke-width:0.75;stroke-linecap:round;stroke-linejoin:round;stroke-miterlimit:10;" d="
					M575.877,295.87c-1.932-1.836-2.748-2.107-4.346-0.97c0.115-0.938-0.363-1.389-1.314-0.996
					c-0.977,2.766-1.794,5.549-2.551,8.401c1.895,2.329,4.038,4.392,7.243,4.289c2.446-0.078,4.37-1.292,5.766-3.256
					C579.943,301.264,576.956,296.895,575.877,295.87z"/>
				
					<path style="fill:#FFFFFF;stroke:#263238;stroke-width:0.75;stroke-linecap:round;stroke-linejoin:round;stroke-miterlimit:10;" d="
					M575.612,298.105c-0.105,0.596-0.582,0.959-1.185,0.845c-0.602-0.114-0.975-0.653-0.897-1.251
					c0.078-0.599,0.616-0.93,1.195-0.816C575.305,296.997,575.716,297.509,575.612,298.105z"/>
				<path style="fill:#263238;" d="M575.09,297.864c-0.051,0.253-0.295,0.395-0.542,0.352c-0.247-0.043-0.419-0.284-0.371-0.535
					c0.049-0.251,0.278-0.398,0.53-0.349C574.958,297.38,575.141,297.611,575.09,297.864z"/>
				<g>
					<path style="fill:#92E3A9;" d="M573.257,311.274c-1.357,0.112-3.746,1.468-4.695,2.02c-0.949,0.553-4.86,1.975-4.379,3.023
						c0.481,1.048,2.488,3.457,4.205,2.602c1.716-0.855,4.199-4.283,5.372-6.062"/>
					<path style="opacity:0.12;" d="M573.257,311.274c-1.357,0.112-3.746,1.468-4.695,2.02c-0.949,0.553-4.86,1.975-4.379,3.023
						c0.481,1.048,2.488,3.457,4.205,2.602c1.716-0.855,4.199-4.283,5.372-6.062"/>
					
						<path style="fill:none;stroke:#263238;stroke-width:0.75;stroke-linecap:round;stroke-linejoin:round;stroke-miterlimit:10;" d="
						M573.257,311.274c-1.357,0.112-3.746,1.468-4.695,2.02c-0.949,0.553-4.86,1.975-4.379,3.023
						c0.481,1.048,2.488,3.457,4.205,2.602c1.716-0.855,4.199-4.283,5.372-6.062"/>
					
						<path style="fill:none;stroke:#263238;stroke-width:0.75;stroke-linecap:round;stroke-linejoin:round;stroke-miterlimit:10;" d="
						M573.505,310.71c-0.231,0.739,0.155,1.916,0.713,2.204c0.557,0.288,0.903,0.15,1.033-0.257"/>
					
						<path style="fill:none;stroke:#263238;stroke-width:0.75;stroke-linecap:round;stroke-linejoin:round;stroke-miterlimit:10;" d="
						M573.304,311.251c-1.544,1.156-3.228,2.174-4.942,3.056"/>
					
						<path style="fill:none;stroke:#263238;stroke-width:0.75;stroke-linecap:round;stroke-linejoin:round;stroke-miterlimit:10;" d="
						M572.686,312.312c-1.298,1.317-2.664,2.584-4.279,3.5"/>
					
						<path style="fill:none;stroke:#263238;stroke-width:0.75;stroke-linecap:round;stroke-linejoin:round;stroke-miterlimit:10;" d="
						M573.308,312.331c-0.552,0.838-1.162,1.654-1.772,2.451"/>
				</g>
			</g>
			<path style="fill:#FFFFFF;" d="M569.621,321.996c-0.426,4.264-9.522,9.544-11.291,10.659c-1.77,1.115-7.075,7.608-4.149,6.153
				c2.926-1.456,12.774-8.361,15.635-10.396C572.677,326.376,573.139,318.787,569.621,321.996z"/>
			<path style="fill:#FFFFFF;" d="M577.143,299.433c0.45,1.096,0.508,2.174,0.249,3.276c-0.26,1.102-2.892,1.62-2.663,2.511
				s2.055-0.146,2.862-0.523c0.807-0.377,1.919-1.839,1.477-2.735C578.625,301.067,577.661,298.878,577.143,299.433z"/>
			<path style="fill:#FFFFFF;" d="M579.831,307.064c2.813,4.454,1.035,11.902-0.471,15.792c-1.506,3.891-12.732,9.232-8.877,10.849
				c3.855,1.618,8.787-7.775,10.305-11.27c1.517-3.495,2.308-11.091,1.1-14.069C580.679,305.388,581,305.877,579.831,307.064z"/>
		</g>
		<g>
			<path style="fill:#FFFFFF;stroke:#263238;stroke-linecap:round;stroke-linejoin:round;stroke-miterlimit:10;" d="
				M547.211,420.526c0,0,8.094-5.01,6.937-10.406c-1.156-5.396-10.791-10.791-11.177-15.031c-0.385-4.239,7.708-5.01,12.333,0.771
				c4.625,5.781,3.854,14.26,6.166,14.26s1.542-10.021,8.094-11.177c6.552-1.156,8.864,4.239,5.396,8.094
				c-3.469,3.854-5.781,6.166-3.854,6.552s9.25-5.01,10.02-1.542c0.771,3.469-4.239,6.552-4.239,6.552l3.083,1.927"/>
			<path style="fill:#FFFFFF;stroke:#263238;stroke-linecap:round;stroke-linejoin:round;stroke-miterlimit:10;" d="
				M556.846,372.929c0,1.809-1.467,3.276-3.276,3.276c-1.809,0-3.276-1.467-3.276-3.276c0-1.809,1.467-3.276,3.276-3.276
				C555.38,369.653,556.846,371.12,556.846,372.929z"/>
			<path style="fill:#FFFFFF;stroke:#263238;stroke-linecap:round;stroke-linejoin:round;stroke-miterlimit:10;" d="
				M571.492,357.706c0,1.064-0.863,1.927-1.927,1.927c-1.064,0-1.927-0.863-1.927-1.927c0-1.064,0.863-1.927,1.927-1.927
				C570.629,355.779,571.492,356.642,571.492,357.706z"/>
			
				<circle style="fill:#FFFFFF;stroke:#263238;stroke-linecap:round;stroke-linejoin:round;stroke-miterlimit:10;" cx="573.611" cy="349.42" r="1.349"/>
			<path style="fill:#FFFFFF;stroke:#263238;stroke-linecap:round;stroke-linejoin:round;stroke-miterlimit:10;" d="
				M538.732,339.399c0,0.958-0.776,1.734-1.734,1.734c-0.958,0-1.734-0.776-1.734-1.734c0-0.958,0.776-1.734,1.734-1.734
				C537.956,337.665,538.732,338.441,538.732,339.399z"/>
			
				<circle style="fill:#FFFFFF;stroke:#263238;stroke-linecap:round;stroke-linejoin:round;stroke-miterlimit:10;" cx="543.165" cy="354.43" r="0.963"/>
			
				<circle style="fill:#FFFFFF;stroke:#263238;stroke-linecap:round;stroke-linejoin:round;stroke-miterlimit:10;" cx="564.94" cy="385.455" r="1.927"/>
		</g>
	</g>
</g>
<g id="Character">
	<g>
		<g>
			<path style="fill:#92E3A9;stroke:#263238;stroke-linecap:round;stroke-linejoin:round;stroke-miterlimit:10;" d="
				M158.371,176.746c0,0,10.351,5.074,15.831,11.569c5.48,6.495,18.063,23.34,19.078,24.558c1.015,1.218,10.554,8.93,10.554,10.757
				c0,1.827-0.406,3.044-0.406,3.044s2.638,1.015,4.465,3.653c1.827,2.639,1.827,2.639,1.827,2.639s2.03,0.812,0.812,8.727
				c-1.218,7.915-11.366,12.786-14.613,12.989c-3.247,0.203-6.901-3.247-6.901-3.247s-3.45-0.609-3.856-1.218
				c-0.406-0.609-7.307-9.945-7.307-9.945s-9.336-25.37-17.455-38.968C152.282,187.706,153.5,176.137,158.371,176.746z"/>
			<path style="fill:none;stroke:#263238;stroke-linecap:round;stroke-linejoin:round;stroke-miterlimit:10;" d="M203.428,226.674
				c0,0-7.713,0.406-12.381,9.336c-4.668,8.93-3.856,12.381-3.856,12.381"/>
			<path style="fill:none;stroke:#263238;stroke-linecap:round;stroke-linejoin:round;stroke-miterlimit:10;" d="M186.449,231.367
				c0.004,2.054-0.259,3.915-0.881,5.455"/>
			<path style="fill:none;stroke:#263238;stroke-linecap:round;stroke-linejoin:round;stroke-miterlimit:10;" d="M177.246,200.695
				c0,0,7.027,14.281,8.8,25.903"/>
		</g>
		<g>
			<path style="fill:#A6A6A6;stroke:#263238;stroke-linecap:round;stroke-linejoin:round;stroke-miterlimit:10;" d="
				M112.983,318.251c0,0-3.99,14.407-2.438,18.618c1.552,4.211,5.763,12.412,5.763,12.412s0.887,8.644,1.995,11.082
				c1.108,2.438,5.541,10.196,5.541,10.196s6.649,23.716,7.093,25.046c0.443,1.33-3.768,5.763-3.99,9.087
				c-0.222,3.325,1.995,13.498,1.995,13.498l53.729-0.071c0,0,2.125-1.68,3.012-10.102c0.887-8.423-0.222-33.025-0.222-33.025
				l23.938,33.69l1.551,9.366h43.221c0,0,1.773-16.902-0.443-25.325c-2.216-8.423-7.758-26.598-9.088-28.814
				c-1.33-2.217-29.257-44.551-29.257-44.551s-0.887-5.984-2.217-7.093c-1.33-1.108-3.546-1.773-3.546-1.773
				s-0.443-3.325-1.773-6.206c-1.33-2.881-10.861-18.397-10.861-18.397l-83.339,26.819L112.983,318.251z"/>
			<polygon style="fill:#263238;stroke:#263238;stroke-linecap:round;stroke-linejoin:round;stroke-miterlimit:10;" points="
				185.462,374.993 185.601,360.235 193.288,384.395 			"/>
			<g>
				<path style="fill:none;stroke:#263238;stroke-linecap:round;stroke-linejoin:round;stroke-miterlimit:10;" d="M139.803,314.705
					c0,0-4.654,11.082-13.52,16.402"/>
				<path style="fill:none;stroke:#263238;stroke-linecap:round;stroke-linejoin:round;stroke-miterlimit:10;" d="M150.039,325.115
					c-5.303,4.379-13.428,10.698-21.318,15.301"/>
				<path style="fill:none;stroke:#263238;stroke-linecap:round;stroke-linejoin:round;stroke-miterlimit:10;" d="M155.983,320.024
					c0,0-1.298,1.174-3.478,3.026"/>
				<path style="fill:none;stroke:#263238;stroke-linecap:round;stroke-linejoin:round;stroke-miterlimit:10;" d="M176.455,326.638
					c0.03,1.727,0.008,3.586-0.081,5.577"/>
				<path style="fill:none;stroke:#263238;stroke-linecap:round;stroke-linejoin:round;stroke-miterlimit:10;" d="M173.936,309.829
					c0,0,1.58,3.836,2.243,11.428"/>
				<path style="fill:none;stroke:#263238;stroke-linecap:round;stroke-linejoin:round;stroke-miterlimit:10;" d="M200.977,299.633
					c0,0-1.108,7.758-2.438,16.624c-1.33,8.866,7.979,1.773,8.644-1.108"/>
				<path style="fill:none;stroke:#263238;stroke-linecap:round;stroke-linejoin:round;stroke-miterlimit:10;" d="M212.281,317.143
					c0,0-15.737,17.953-21.278,26.819c-5.541,8.866,0.443,5.098,0.443,5.098"/>
				<path style="fill:none;stroke:#263238;stroke-linecap:round;stroke-linejoin:round;stroke-miterlimit:10;" d="M124.509,350.833
					c5.763-6.871,25.711-19.727,20.613-13.964c-5.098,5.763-14.407,14.185-14.407,14.185"/>
				<path style="fill:none;stroke:#263238;stroke-linecap:round;stroke-linejoin:round;stroke-miterlimit:10;" d="M122.071,359.034
					c0,0-1.87-0.748-0.374-4.021"/>
			</g>
		</g>
		<path style="fill:#263238;stroke:#263238;stroke-linecap:round;stroke-linejoin:round;stroke-miterlimit:10;" d="M109.437,305.174
			l3.546,13.077c0,0,39.231-5.763,60.288-15.515c21.056-9.752,23.716-16.845,23.716-16.845l-6.871-9.309l-81.344,25.933
			L109.437,305.174z"/>
		<path style="fill:#A6A6A6;stroke:#263238;stroke-linecap:round;stroke-linejoin:round;stroke-miterlimit:10;" d="M100.78,285.28
			c0,0-1.982,3.271-0.652,5.044c1.33,1.773,5.098,12.634,5.984,14.629c0.887,1.995,0,3.103,7.314,1.108
			c7.314-1.995,44.994-9.087,59.401-16.402s18.175-9.752,18.84-11.969c0.665-2.216-5.02-17.743-5.763-22.608
			c-0.743-4.865-4.356-13.4-4.356-13.4s-16.478,10.075-37.313,20.271c-20.835,10.196-42.778,18.397-42.778,18.397
			S100.546,282.452,100.78,285.28z"/>
		<path style="fill:#92E3A9;stroke:#263238;stroke-linecap:round;stroke-linejoin:round;stroke-miterlimit:10;" d="M102.528,191.339
			c0,0-6.117,11.36-9.613,19.662c-3.495,8.302-7.428,18.351-1.966,36.702c5.462,18.351,3.277,29.711,4.369,33.425
			c1.092,3.714,2.403,4.369,5.462,4.151c3.059-0.219,20.536-8.52,41.727-17.259c21.191-8.739,30.585-12.671,33.862-16.603
			c3.277-3.932,5.68-6.554,5.243-13.763c-0.437-7.209-3.714-31.459-11.579-45.004c-7.865-13.545-5.68-12.234-10.268-15.074
			c-4.588-2.84-12.016-4.369-20.317-1.311C131.147,179.324,108.208,186.096,102.528,191.339z"/>
		<path style="fill:#263238;stroke:#263238;stroke-linecap:round;stroke-linejoin:round;stroke-miterlimit:10;" d="M145.16,187.974
			c0,0,10.672,13.996,18.019,27.816c7.348,13.821,13.19,35.627,13.19,35.627s3.255-3.612,4.13-6.236
			c0.875-2.624,1.05-3.499,1.05-3.499s-1.924-9.797-11.721-31.49c-9.797-21.693-22.568-32.89-22.568-32.89L145.16,187.974z"/>
		<path style="fill:#FFFFFF;stroke:#263238;stroke-linecap:round;stroke-linejoin:round;stroke-miterlimit:10;" d="M171.726,213.203
			l-7.672,5.212l4.199,8.922l6.998-5.598L171.726,213.203z M166.34,218.991l4.984-3.457l2.01,5.628l-4.663,3.377L166.34,218.991z"/>
		<path style="fill:#263238;stroke:#263238;stroke-linecap:round;stroke-linejoin:round;stroke-miterlimit:10;" d="M83.958,231.755
			c0,0,5.899-17.696,7.428-19.225c1.529-1.529,9.831-4.588,20.754,0s36.265,27.09,43.038,36.921
			c6.772,9.831,6.454,10.929,6.454,10.929l-16.311,6.749c0,0-15.048-30.349-30.996-37.996
			C98.377,221.487,83.958,231.755,83.958,231.755z"/>
		<path style="fill:#FFFFFF;stroke:#263238;stroke-linecap:round;stroke-linejoin:round;stroke-miterlimit:10;" d="M143.163,235.688
			l-10.268,8.957l6.335,8.52l11.36-10.268L143.163,235.688z M138.974,249.92l-3.811-4.841l8.24-6.901l3.914,4.326L138.974,249.92z"
			/>
		<path style="fill:#FFFFFF;stroke:#263238;stroke-linecap:round;stroke-linejoin:round;stroke-miterlimit:10;" d="M207.198,231.956
			c0,0-3.43-0.643-5.573,1.929c-2.143,2.572-6.002,10.503-5.788,14.362c0.214,3.858,4.501,4.716,5.359,4.716
			c0.857,0,17.577,0.857,17.577,0.857s11.218,2.839,12.924,2.218c1.706-0.62,6.049-10.547,6.824-12.873
			c0.775-2.326-0.31-5.894-0.31-5.894s4.808-4.808,5.118-6.359c0.31-1.551-0.465-1.706-2.327-1.241
			c-1.861,0.465-2.947,0.775-4.653,1.086c-1.706,0.31-1.396-0.465-5.894,0.155c-4.498,0.62-8.53,2.947-9.926,4.188
			s-3.567,1.706-4.498,1.086C215.101,235.565,207.198,231.956,207.198,231.956z"/>
		<path style="fill:#A1A1A1;stroke:#263238;stroke-linecap:round;stroke-linejoin:round;stroke-miterlimit:10;" d="M230.699,240.143
			c10.617-9.317,21.415-18.447,32.656-27.083c5.639-4.296,11.377-8.484,17.399-12.337c2.999-1.953,6.146-3.713,9.215-5.441
			c3.103-1.715,6.222-3.4,9.374-5.021c12.593-6.512,25.582-12.229,38.843-17.188c6.619-2.513,13.342-4.738,20.085-6.876
			c3.389-1.016,6.764-2.076,10.18-2.996c1.705-0.469,3.402-0.967,5.114-1.411l5.138-1.318c27.437-6.908,55.595-10.743,83.809-11.812
			c28.225-1.065,56.501,0.718,84.398,4.796c0.273,0.04,0.462,0.294,0.422,0.567c-0.039,0.271-0.292,0.459-0.562,0.423
			c-27.894-3.69-56.096-5.078-84.163-3.636c-28.055,1.445-55.97,5.641-83.078,12.86l-5.076,1.376
			c-1.69,0.463-3.366,0.981-5.049,1.468c-3.372,0.958-6.702,2.054-10.045,3.106c-6.651,2.21-13.275,4.502-19.791,7.078
			c-13.054,5.086-25.815,10.912-38.156,17.508c-3.089,1.642-6.144,3.347-9.181,5.08c-3.041,1.769-6.023,3.488-8.901,5.419
			c-5.793,3.817-11.388,8.016-16.892,12.329c-10.982,8.678-21.584,17.89-32.011,27.295c-1.148,1.039-2.92,0.95-3.959-0.197
			c-1.039-1.148-0.95-2.92,0.197-3.959C230.673,240.166,230.693,240.148,230.699,240.143z"/>
		<path style="fill:#263238;" d="M241.257,268.549c-1.003-3.763-5.519-7.526-7.777-7.024c-2.258,0.502-9.533,6.523-11.038,7.526
			c-1.505,1.004-3.592-1.216-4.806-1.988c-0.839-0.533-2.33-2.416-3.174-3.531c7.072-6.615,13.945-12.903,20.431-18.684
			c1.443-1.286,1.57-3.499,0.284-4.941c-1.286-1.442-3.498-1.571-4.941-0.284c-6.804,6.064-14.021,12.669-21.452,19.633
			c-0.697,0.654-1.065,1.526-1.101,2.411c-2.341,2.202-4.704,4.44-7.079,6.704c-0.885-0.012-1.776,0.307-2.467,0.967
			c-13.979,13.373-23.745,23.245-23.842,23.344c-1.359,1.374-1.346,3.59,0.029,4.949c0.682,0.674,1.571,1.011,2.46,1.011
			c0.902,0,1.805-0.347,2.489-1.04c0.096-0.097,9.799-9.904,23.703-23.205c0.686-0.656,1.042-1.524,1.074-2.403
			c2.37-2.26,4.729-4.494,7.065-6.69c0.021,0,0.042,0.006,0.063,0.006c0.565,0,1.125-0.15,1.639-0.423l3.355,4.917l-2.509,16.557
			c0,0,6.021,7.024,7.024,6.773c1.003-0.251,17.812-14.3,19.066-17.31c1.254-3.01-0.502-4.516-0.502-4.516
			S242.26,272.312,241.257,268.549z"/>
		<g>
			<path style="fill:#FFFFFF;stroke:#263238;stroke-linecap:round;stroke-linejoin:round;stroke-miterlimit:10;" d="
				M242.398,236.961c0,0-8.065-1.086-9.926-1.086c-1.861,0-3.567,1.241-3.567,2.326c0,1.086,5.583,3.102,7.6,4.033
				c2.016,0.93,3.257,0.93,4.498,0.155C242.243,241.614,244.104,238.667,242.398,236.961z"/>
			<path style="fill:#FFFFFF;stroke:#263238;stroke-linecap:round;stroke-linejoin:round;stroke-miterlimit:10;" d="M229.68,239.443
				c0,0-2.016-0.465-2.792,0.931c-0.775,1.396,0.155,2.947,0.155,2.947s-2.947-0.775-3.722,0.931
				c-0.775,1.706-0.62,2.792-0.62,2.792s-2.171-0.31-2.016,1.861c0.155,2.171,3.257,4.963,5.428,5.584
				c2.171,0.62,5.583,1.861,6.979,1.086c1.396-0.775,2.482-2.326,2.482-2.326s1.551,0.155,2.171-1.706
				c0.62-1.861,0.62-3.102,0.62-3.102s2.482-0.465,2.637-2.171c0.155-1.706,0-3.877,0-3.877S233.558,240.994,229.68,239.443z"/>
			<path style="fill:#FFFFFF;stroke:#263238;stroke-linecap:round;stroke-linejoin:round;stroke-miterlimit:10;" d="M227.044,243.32
				c0,0,3.722,4.033,11.322,5.118"/>
			<path style="fill:#FFFFFF;stroke:#263238;stroke-linecap:round;stroke-linejoin:round;stroke-miterlimit:10;" d="
				M222.701,247.042c0,0,3.412,3.877,6.049,4.808c2.637,0.931,6.824,1.396,6.824,1.396"/>
		</g>
		<g>
			<path style="fill:#FFFFFF;stroke:#263238;stroke-linecap:round;stroke-linejoin:round;stroke-miterlimit:10;" d="
				M101.217,166.434c0,0,3.058,8.739,4.588,12.671c1.529,3.932,1.092,5.243,0.655,5.899c-0.437,0.655-2.185,1.748-0.874,3.714
				c1.311,1.966,15.293,13.326,24.25,17.914c8.957,4.588,18.788,9.394,18.788,9.394s-7.865-14.2-8.302-17.477
				c-0.437-3.277,4.151-23.594,4.806-28.837c0.655-5.243-0.655-17.914-0.874-18.788
				C144.036,150.049,101.217,166.434,101.217,166.434z"/>
			<path style="fill:#FFFFFF;stroke:#263238;stroke-linecap:round;stroke-linejoin:round;stroke-miterlimit:10;" d="
				M103.183,168.182c0,0,0.655,4.151,3.495,5.462c2.84,1.311,4.806,0.437,5.025-1.748"/>
			<path style="fill:#92E3A9;stroke:#263238;stroke-linecap:round;stroke-linejoin:round;stroke-miterlimit:10;" d="
				M146.221,210.127c0,0-0.655-9.176,0.437-9.613c1.092-0.437,3.495,5.68,3.495,3.277c0-2.403-1.748-8.083-3.277-11.142
				c-1.529-3.059-5.68-3.059-6.773,1.092c-1.092,4.151-0.218,6.772-0.218,6.772L146.221,210.127z"/>
			<path style="fill:#FFFFFF;stroke:#263238;stroke-linecap:round;stroke-linejoin:round;stroke-miterlimit:10;" d="
				M149.279,150.704c0,0,2.403,5.68,1.966,8.302c-0.437,2.622-0.874,2.622-0.437,3.714c0.437,1.092,3.714,9.394,3.277,10.486
				c-0.437,1.092-5.025,2.84-5.025,2.84s-1.311,7.865-1.311,10.923s3.059,3.277,1.092,8.302s-8.083,5.899-15.948,5.243
				c-7.865-0.655-19.443-10.049-19.662-13.108c-0.218-3.058-1.092-15.729-1.311-17.696c-0.218-1.966-0.874-3.495-0.874-3.495
				S131.365,154.855,149.279,150.704z"/>
			<path style="fill:#263238;stroke:#263238;stroke-linecap:round;stroke-linejoin:round;stroke-miterlimit:10;" d="M147.75,186.97
				c0-3.059,1.311-10.923,1.311-10.923c-10.923-3.932-21.847,5.462-24.25,5.462c-2.403,0-5.243-2.622-6.117-7.428
				c-0.667-3.668,2.268-12.726,1.688-14.801c-3.176,1.606-9.334,6.936-9.334,6.936s0.655,1.529,0.874,3.495
				c0.218,1.966,1.092,14.637,1.311,17.696c0.219,3.059,11.797,12.453,19.662,13.108c7.865,0.655,13.982-0.218,15.948-5.243
				S147.75,190.028,147.75,186.97z"/>
			<path style="fill:none;stroke:#FFFFFF;stroke-linecap:round;stroke-linejoin:round;stroke-miterlimit:10;" d="M146.221,181.727
				c0,0-5.68,2.185-10.705-1.966"/>
			<g>
				<path style="fill:#263238;stroke:#263238;stroke-linecap:round;stroke-linejoin:round;stroke-miterlimit:10;" d="
					M97.285,158.351c0,0,0.874-5.243,0.874-7.646c0-2.403,0-14.2,9.613-19.443c9.612-5.243,18.57-3.277,24.905-1.311
					c6.336,1.966,10.268,5.243,11.797,7.428c1.529,2.185,2.622,5.025,2.622,5.025s-17.259,2.84-24.468,6.117
					c-7.209,3.277-13.763,7.865-17.696,9.175C100.998,159.006,97.285,158.351,97.285,158.351z"/>
				<path style="fill:#263238;stroke:#263238;stroke-linecap:round;stroke-linejoin:round;stroke-miterlimit:10;" d="
					M97.285,158.351c0,0,1.529,10.05,2.84,11.579c1.311,1.529,13.108-2.403,20.317-6.335c7.209-3.932,22.284-8.957,25.124-9.613
					c2.84-0.655,6.554-0.655,6.554-0.655s1.092-2.622,0-5.243c-1.092-2.622-3.277-9.175-4.588-9.612
					c-1.311-0.437-18.57,0.655-26.871,5.68c-8.302,5.025-19.225,10.486-20.317,10.923C99.251,155.511,97.285,154.855,97.285,158.351
					z"/>
			</g>
			<path style="fill:#92E3A9;stroke:#263238;stroke-linecap:round;stroke-linejoin:round;stroke-miterlimit:10;" d="
				M104.712,183.693l-2.185,7.646c0,0,4.151,10.268,15.074,18.351c10.923,8.083,18.351,13.982,18.351,11.797
				c0-2.185-1.966-14.419-1.966-14.419s-22.72-15.511-24.031-17.04C108.645,188.499,105.586,182.6,104.712,183.693z"/>
			<path style="fill:#263238;" d="M143.923,164.488c0,1.618-0.605,2.93-1.353,2.93c-0.747,0-1.352-1.312-1.352-2.93
				c0-1.618,0.605-2.93,1.352-2.93C143.317,161.557,143.923,162.869,143.923,164.488z"/>
			<path style="fill:none;stroke:#263238;stroke-width:2;stroke-linecap:round;stroke-linejoin:round;stroke-miterlimit:10;" d="
				M138.814,159.089c0,0,3.641-3.488,8.036-1.786"/>
			<path style="fill:#FFFFFF;stroke:#263238;stroke-linecap:round;stroke-linejoin:round;stroke-miterlimit:10;" d="
				M145.129,169.711c0,0-3.993,2.771-8.636,3.129"/>
		</g>
		<g>
			<path style="fill:#FFFFFF;stroke:#263238;stroke-linecap:round;stroke-linejoin:round;stroke-miterlimit:10;" d="M170.346,286.75
				c0,0,35.112-8.727,37.345-9.945c2.233-1.218,9.945-9.742,9.945-9.742s5.683-3.45,6.901-3.653
				c1.218-0.203,3.856-1.827,4.668-1.218c0.812,0.609,4.262,1.827,4.262,1.827s2.13-0.33,2.684,1.457
				c0.642,2.068,0.078,3.985-0.497,3.853c0,0,1.466,2.808,1.06,4.026c-0.406,1.218-1.421,1.827-1.421,1.827s0.812,2.03,0.406,3.45
				c-0.406,1.421-1.421,2.638-1.421,2.638s-0.609,2.03-1.827,3.45c-1.218,1.421-6.089,2.638-6.901,2.841
				c-0.812,0.203-3.247,1.624-6.698,2.841c-3.45,1.218-8.321,2.03-8.321,2.03l-48.71,21.717L170.346,286.75z"/>
			<path style="fill:none;stroke:#263238;stroke-linecap:round;stroke-linejoin:round;stroke-miterlimit:10;" d="M233.466,264.018
				c0,0-4.525-0.035-6.389,0.463c-1.864,0.497-4.474,0.994-4.847,1.243"/>
			<path style="fill:none;stroke:#263238;stroke-linecap:round;stroke-linejoin:round;stroke-miterlimit:10;" d="M235.653,269.328
				c0,0-4.226-0.621-6.836,0.249"/>
			
				<line style="fill:none;stroke:#263238;stroke-linecap:round;stroke-linejoin:round;stroke-miterlimit:10;" x1="235.293" y1="275.181" x2="229.563" y2="275.419"/>
			<path style="fill:none;stroke:#263238;stroke-linecap:round;stroke-linejoin:round;stroke-miterlimit:10;" d="M234.278,281.27
				c0,0-3.845-0.631-4.218-0.507"/>
		</g>
		<g>
			<path style="fill:#92E3A9;stroke:#263238;stroke-linecap:round;stroke-linejoin:round;stroke-miterlimit:10;" d="
				M146.658,265.181c0,0-8.739-13.982-16.603-24.468c-7.865-10.486-16.822-20.536-29.493-21.191
				c-12.671-0.655-17.477,10.049-17.477,19.007c0,8.957,7.209,25.124,13.545,33.644c6.335,8.52,26.434,27.745,33.862,33.425
				c7.428,5.68,17.259,9.176,18.57,9.176c1.311,0,1.311,2.403,6.554,3.059c5.243,0.655,9.176-5.68,13.108-13.108
				c3.932-7.428,6.772-20.754,3.495-21.191c-3.277-0.437-11.579-1.748-12.452,0.655c0,0-4.588-4.369-5.462-4.369
				c-0.874,0-3.277,0-3.277-0.655C151.027,278.507,146.658,265.181,146.658,265.181z"/>
			<path style="fill:none;stroke:#263238;stroke-linecap:round;stroke-linejoin:round;stroke-miterlimit:10;" d="M159.766,284.187
				c0,0-0.437,12.234-4.369,18.788c-3.932,6.554-6.773,9.831-6.773,9.831"/>
			<path style="fill:none;stroke:#263238;stroke-linecap:round;stroke-linejoin:round;stroke-miterlimit:10;" d="M156.707,283.75
				c0,0-22.939,1.966-20.973,3.277c1.966,1.311,8.957,0.219,8.957,0.219"/>
			<path style="fill:none;stroke:#263238;stroke-linecap:round;stroke-linejoin:round;stroke-miterlimit:10;" d="M108.086,232.898
				c6.976,2.044,16.613,5.92,23.28,12.839"/>
			<path style="fill:none;stroke:#263238;stroke-linecap:round;stroke-linejoin:round;stroke-miterlimit:10;" d="M99.251,230.882
				c0,0,2.242,0.31,5.661,1.158"/>
			<path style="fill:none;stroke:#263238;stroke-linecap:round;stroke-linejoin:round;stroke-miterlimit:10;" d="M118.257,241.149
				c0,0,13.108,4.588,16.166,6.991"/>
		</g>
		<path style="fill:none;stroke:#263238;stroke-linecap:round;stroke-linejoin:round;stroke-miterlimit:10;" d="M237.881,262.689
			l28.559-45.656c0,0,32.908-9.483,53.698-32.533c0,0,31.803,1.763,54.318-19.456c0,0,30.65,1.378,46.016-9.017
			c0,0,31.637,1.808,48.811-4.52c0,0,19.886,5.423,37.06,0c0,0,23.954,7.231,36.157,3.164"/>
		<g>
			<g>
				<path style="fill:#FFFFFF;stroke:#263238;stroke-linecap:round;stroke-linejoin:round;stroke-miterlimit:10;" d="
					M267.402,219.279c-0.38,0-0.756-0.162-1.011-0.474l-4.255-5.208c-0.444-0.543-0.351-1.333,0.207-1.764
					c0.557-0.432,1.37-0.342,1.813,0.201l4.255,5.208c0.444,0.543,0.351,1.333-0.207,1.765
					C267.967,219.19,267.683,219.279,267.402,219.279z"/>
			</g>
			<g>
				<path style="fill:#FFFFFF;stroke:#263238;stroke-linecap:round;stroke-linejoin:round;stroke-miterlimit:10;" d="
					M321.195,187.49c-0.373-0.073-0.711-0.304-0.901-0.659l-3.181-5.925c-0.332-0.618-0.09-1.375,0.54-1.692
					c0.63-0.317,1.41-0.074,1.741,0.544l3.181,5.925c0.332,0.618,0.09,1.375-0.54,1.692
					C321.767,187.51,321.471,187.543,321.195,187.49z"/>
			</g>
			<g>
				<path style="fill:#FFFFFF;stroke:#263238;stroke-linecap:round;stroke-linejoin:round;stroke-miterlimit:10;" d="
					M374.575,168.459c-0.359-0.124-0.662-0.4-0.801-0.778l-2.326-6.31c-0.243-0.658,0.102-1.374,0.77-1.601
					c0.668-0.227,1.407,0.123,1.648,0.781l2.326,6.31c0.242,0.658-0.102,1.374-0.77,1.601
					C375.138,168.559,374.841,168.551,374.575,168.459z"/>
			</g>
			<g>
				<path style="fill:#FFFFFF;stroke:#263238;stroke-linecap:round;stroke-linejoin:round;stroke-miterlimit:10;" d="
					M420.362,158.932c-0.325-0.196-0.564-0.529-0.621-0.928l-0.96-6.656c-0.1-0.694,0.387-1.323,1.087-1.405
					c0.7-0.082,1.35,0.414,1.449,1.107l0.96,6.656c0.1,0.694-0.387,1.323-1.087,1.405
					C420.892,159.147,420.603,159.077,420.362,158.932z"/>
			</g>
			<g>
				<path style="fill:#FFFFFF;stroke:#263238;stroke-linecap:round;stroke-linejoin:round;stroke-miterlimit:10;" d="
					M468.127,154.471c-0.26-0.208-0.429-0.525-0.432-0.879l-0.062-5.899c-0.006-0.615,0.49-1.105,1.108-1.095
					c0.618,0.01,1.126,0.517,1.132,1.131l0.062,5.898c0.006,0.615-0.49,1.105-1.108,1.096
					C468.563,154.719,468.32,154.625,468.127,154.471z"/>
			</g>
			<g>
				<path style="fill:#FFFFFF;stroke:#263238;stroke-linecap:round;stroke-linejoin:round;stroke-miterlimit:10;" d="
					M506.145,153.859c-0.204-0.163-0.337-0.413-0.34-0.691l-0.048-4.638c-0.005-0.483,0.385-0.869,0.871-0.861
					c0.486,0.008,0.885,0.406,0.89,0.889l0.048,4.638c0.005,0.483-0.385,0.869-0.871,0.861
					C506.488,154.054,506.297,153.98,506.145,153.859z"/>
			</g>
		</g>
	</g>
</g>
</svg>
