<?xml version="1.0" encoding="utf-8"?>
<!-- Generator: Adobe Illustrator 27.5.0, SVG Export Plug-In . SVG Version: 6.00 Build 0)  -->
<svg version="1.1" xmlns="http://www.w3.org/2000/svg" xmlns:xlink="http://www.w3.org/1999/xlink" x="0px" y="0px"
	 viewBox="0 0 500 500" style="enable-background:new 0 0 500 500;" xml:space="preserve">
<g id="Background_Complete">
	<g>
		<rect y="382.398" style="fill:#EBEBEB;" width="500" height="0.25"/>
		<rect x="52.459" y="391.922" style="fill:#EBEBEB;" width="25.997" height="0.25"/>
		<rect x="146.333" y="389.208" style="fill:#EBEBEB;" width="54.101" height="0.25"/>
		<rect x="79.457" y="401.208" style="fill:#EBEBEB;" width="26.317" height="0.25"/>
		<rect x="430.667" y="399.528" style="fill:#EBEBEB;" width="19.235" height="0.25"/>
		<rect x="391.471" y="399.528" style="fill:#EBEBEB;" width="30.292" height="0.25"/>
		<rect x="258.227" y="395.306" style="fill:#EBEBEB;" width="54.556" height="0.25"/>
		<path style="fill:#EBEBEB;" d="M237.014,337.8H43.915c-3.147,0-5.708-2.561-5.708-5.708V60.66c0-3.147,2.561-5.708,5.708-5.708
			h193.099c3.146,0,5.707,2.561,5.707,5.708v271.432C242.721,335.239,240.16,337.8,237.014,337.8z M43.915,55.203
			c-3.01,0-5.458,2.448-5.458,5.458v271.432c0,3.01,2.448,5.458,5.458,5.458h193.099c3.009,0,5.457-2.448,5.457-5.458V60.66
			c0-3.009-2.448-5.458-5.457-5.458H43.915z"/>
		<path style="fill:#EBEBEB;" d="M453.31,337.8H260.212c-3.147,0-5.707-2.561-5.707-5.708V60.66c0-3.147,2.561-5.708,5.707-5.708
			H453.31c3.148,0,5.708,2.561,5.708,5.708v271.432C459.019,335.239,456.458,337.8,453.31,337.8z M260.212,55.203
			c-3.009,0-5.457,2.448-5.457,5.458v271.432c0,3.01,2.448,5.458,5.457,5.458H453.31c3.01,0,5.458-2.448,5.458-5.458V60.66
			c0-3.009-2.448-5.458-5.458-5.458H260.212z"/>
	</g>
	<g>
		<path style="fill:#FAFAFA;" d="M292.228,125.81c1.552-1.575,4.676-2.791,6.984-2.715c0.864,0.03,1.491,0.236,1.856,0.564
			c4.217-1.96,9.068-3.165,13.072-3.031c2.036,0.065,3.62,0.469,4.715,1.129c4.525-2.959,10.293-5.056,14.478-5.056
			c2.378,0,1.853-1.132,2.378,0c4.645-1.987,11.418-1.396,15.265-1.396c6.134,0,8.126,3.1,5.617,7.454
			c1.005,0.82,5.842,1.968,5.645,3.34H291.96C292.046,126.004,292.131,125.909,292.228,125.81z"/>
		<path style="fill:#FAFAFA;" d="M367.236,172.841c0.918,0.035,1.56,0.305,1.913,0.741c4.634-2.579,9.861-4.161,14.07-3.986
			c2.15,0.085,3.785,0.621,4.873,1.487c0.005,0.005,0.006,0,0.006,0c5.037-3.885,11.319-6.64,15.74-6.64
			c2.517,0,4.014,0.891,4.46,2.378c5.083-2.614,10.23-4.216,14.295-4.216c5.039,0,7.265,2.464,6.57,6.254
			c2.429-1.102,4.812-1.753,6.754-1.753c2.691,0,3.952,1.247,3.734,3.2c0.237,0,0.471,0.01,0.701,0.03
			c4.107,0.326,5.681,2.849,3.705,5.733h-84.138C361.762,174.168,364.934,172.746,367.236,172.841z"/>
		<path style="fill:#FAFAFA;" d="M78.924,101.659c0.818,0.031,1.39,0.272,1.704,0.66c4.13-2.298,8.788-3.708,12.539-3.552
			c1.916,0.076,3.373,0.553,4.342,1.325c0.004,0.005,0.006,0,0.006,0c4.489-3.463,10.087-5.917,14.027-5.917
			c2.243,0,3.577,0.794,3.974,2.119c4.53-2.329,9.117-3.757,12.739-3.757c4.491,0,6.474,2.195,5.855,5.573
			c2.165-0.982,4.288-1.562,6.019-1.562c2.398,0,3.522,1.111,3.328,2.851c0.212,0,0.42,0.009,0.625,0.027
			c3.66,0.29,5.062,2.539,3.302,5.109H72.404C74.046,102.841,76.873,101.574,78.924,101.659z"/>
		<path style="fill:#FAFAFA;" d="M308.353,233.976c1.477,0.056,2.509,0.491,3.077,1.192c7.454-4.148,15.861-6.693,22.633-6.411
			c3.458,0.137,6.088,0.999,7.838,2.392c0.007,0.008,0.01,0,0.01,0c8.102-6.25,18.206-10.68,25.318-10.68
			c4.048,0,6.457,1.434,7.173,3.826c8.177-4.204,16.455-6.781,22.994-6.781c8.105,0,11.685,3.963,10.568,10.059
			c3.907-1.772,7.74-2.819,10.864-2.819c4.329,0,6.357,2.005,6.006,5.146c0.382,0,0.758,0.016,1.128,0.048
			c6.606,0.524,9.137,4.583,5.96,9.222H296.584C299.547,236.111,304.65,233.823,308.353,233.976z"/>
		<path style="fill:#EBEBEB;" d="M287.97,172.237c2.053,0.175,4.048,0.451,6.031,0.764c1.969,0.332,3.903,0.731,5.779,1.238
			c1.417,0.39,2.814,0.816,4.147,1.366c2.223-1.343,4.615-2.493,7.087-3.475c1.51-0.589,3.038-1.136,4.604-1.602
			c1.561-0.472,3.149-0.889,4.767-1.189l-4.073,2.152c-1.334,0.718-2.657,1.422-3.943,2.145c-1.307,0.702-2.532,1.464-3.757,2.197
			c-1.216,0.744-2.36,1.514-3.459,2.293l-1.304,0.923l-1.379-0.609c-1.439-0.635-3.132-1.181-4.838-1.705
			c-1.708-0.53-3.48-1.027-5.26-1.527c-3.539-1.036-7.174-1.996-10.681-3.243C283.848,171.928,285.92,172.06,287.97,172.237z"/>
		<path style="fill:#EBEBEB;" d="M360.073,83.6c2.053,0.175,4.048,0.45,6.031,0.764c1.969,0.332,3.903,0.731,5.779,1.239
			c1.417,0.39,2.814,0.815,4.148,1.365c2.222-1.343,4.614-2.493,7.086-3.474c1.51-0.589,3.038-1.136,4.604-1.603
			c1.561-0.471,3.149-0.889,4.768-1.189l-4.073,2.151c-1.334,0.717-2.657,1.421-3.944,2.145c-1.307,0.703-2.532,1.463-3.757,2.197
			c-1.216,0.744-2.36,1.515-3.459,2.293l-1.305,0.923l-1.379-0.609c-1.439-0.636-3.132-1.181-4.837-1.706
			c-1.709-0.529-3.48-1.026-5.261-1.526c-3.539-1.036-7.174-1.996-10.681-3.243C355.95,83.291,358.022,83.424,360.073,83.6z"/>
		<path style="fill:#EBEBEB;" d="M82.273,133.172c1.248,0.106,2.461,0.274,3.666,0.464c1.197,0.202,2.372,0.444,3.513,0.753
			c0.861,0.237,1.71,0.496,2.521,0.83c1.351-0.816,2.805-1.516,4.308-2.112c0.918-0.358,1.847-0.69,2.799-0.974
			c0.949-0.287,1.914-0.541,2.898-0.723l-2.476,1.308c-0.811,0.436-1.615,0.864-2.397,1.304c-0.795,0.427-1.539,0.89-2.284,1.336
			c-0.739,0.452-1.435,0.921-2.103,1.394l-0.793,0.561l-0.839-0.37c-0.875-0.386-1.904-0.718-2.941-1.036
			c-1.039-0.322-2.116-0.625-3.198-0.928c-2.152-0.63-4.361-1.213-6.493-1.971C79.767,132.984,81.027,133.064,82.273,133.172z"/>
		<path style="fill:#EBEBEB;" d="M406.23,136.123c1.248,0.107,2.461,0.274,3.666,0.464c1.197,0.202,2.372,0.444,3.513,0.753
			c0.862,0.237,1.711,0.496,2.521,0.83c1.351-0.816,2.805-1.515,4.308-2.112c0.918-0.358,1.847-0.691,2.799-0.974
			c0.949-0.286,1.914-0.54,2.898-0.723l-2.476,1.308c-0.811,0.436-1.615,0.864-2.397,1.304c-0.795,0.427-1.539,0.89-2.284,1.336
			c-0.739,0.452-1.434,0.921-2.103,1.394l-0.793,0.561l-0.839-0.37c-0.874-0.386-1.904-0.718-2.941-1.037
			c-1.039-0.322-2.116-0.624-3.198-0.928c-2.151-0.63-4.361-1.213-6.493-1.971C403.724,135.935,404.983,136.016,406.23,136.123z"/>
		<path style="fill:#EBEBEB;" d="M220.115,126.592c0.875,0.074,1.724,0.192,2.569,0.325c0.839,0.142,1.662,0.311,2.462,0.527
			c0.604,0.166,1.199,0.348,1.767,0.582c0.947-0.572,1.966-1.062,3.019-1.48c0.643-0.251,1.294-0.484,1.961-0.682
			c0.665-0.201,1.341-0.379,2.031-0.507l-1.735,0.916c-0.568,0.306-1.132,0.606-1.68,0.914c-0.557,0.299-1.079,0.623-1.6,0.936
			c-0.518,0.317-1.005,0.645-1.474,0.977l-0.556,0.393l-0.587-0.259c-0.613-0.271-1.334-0.503-2.061-0.726
			c-0.728-0.226-1.482-0.438-2.241-0.65c-1.508-0.441-3.056-0.85-4.55-1.381C218.359,126.46,219.242,126.516,220.115,126.592z"/>
		<path style="fill:#EBEBEB;" d="M196.163,87.788c0.874,0.075,1.724,0.192,2.569,0.325c0.839,0.141,1.662,0.311,2.462,0.528
			c0.604,0.166,1.199,0.347,1.767,0.581c0.947-0.572,1.965-1.062,3.018-1.48c0.643-0.251,1.294-0.484,1.961-0.683
			c0.665-0.201,1.341-0.379,2.031-0.506l-1.735,0.916c-0.568,0.306-1.132,0.605-1.68,0.914c-0.557,0.299-1.078,0.623-1.6,0.936
			c-0.518,0.317-1.005,0.645-1.473,0.977l-0.556,0.393l-0.588-0.259c-0.613-0.271-1.334-0.503-2.06-0.727
			c-0.728-0.226-1.483-0.437-2.241-0.65c-1.507-0.441-3.056-0.85-4.549-1.381C194.407,87.656,195.29,87.713,196.163,87.788z"/>
		<path style="fill:#F0F0F0;" d="M92.635,381.279c1.545-6.082,8.473-10.78,15.498-10.485c2.634,0.118,4.904,0.913,6.633,2.179
			c8.732-7.57,20.827-12.223,33.018-11.708c6.192,0.25,11.702,1.811,16.254,4.359c7.697-11.428,20.781-19.528,33.248-19.528
			c7.083,0,12.814,2.621,16.591,6.995c9.954-7.673,21.78-12.385,33.241-12.385c18.275,0,30.27,11.973,31.307,28.791
			c4.598,3.166,21.25,7.599,23.347,12.901H92.403C92.472,382.03,92.541,381.662,92.635,381.279z"/>
		<path style="fill:#F0F0F0;" d="M208.164,370.228c2.735,0.132,5.117,1.151,6.973,2.792c8.551-9.717,20.726-15.68,33.297-15.019
			c6.41,0.321,12.185,2.34,17,5.604c0.023,0.019,0.018,0,0.018,0c7.23-14.642,20.236-25.02,33.087-25.02
			c7.315,0,13.368,3.359,17.5,8.963c9.79-9.849,21.693-15.887,33.51-15.887c14.647,0,25.815,9.283,31.025,23.567
			c4.959-4.151,10.645-6.604,16.29-6.604c7.823,0,13.865,4.698,16.956,12.057c0.69,0,1.388,0.038,2.096,0.113
			c12.558,1.227,21.946,10.736,21.706,21.605H193.056C194.782,375.228,201.291,369.869,208.164,370.228z"/>
		<g>
			<polygon style="fill:#F0F0F0;" points="186.836,332.545 188.36,300.528 185.397,299.192 184.197,238.794 171.943,238.794 
				172.243,272.278 168.299,272.278 171.828,297.282 169.157,289.898 169.851,289.537 161.005,258.728 157.77,258.415 
				137.224,201.607 125.619,205.545 136.665,237.156 132.93,238.423 146.51,265.332 153.812,286.231 152.347,286.296 
				165.144,318.662 172.016,338.33 173.018,358.613 173.232,382.398 187.051,382.398 186.063,332.664 			"/>
			<path style="fill:#E6E6E6;" d="M147.326,166.503c-12.491-6.995-28.344-1.808-30.006,17.206
				c-1.662,19.014-18.638,2.939-27.303,32.24c-8.666,29.301,20.104,39.11,6.222,56.899c-13.882,17.789-7.026,41.212,20.792,35.224
				c27.818-5.988,9.544,6.805,38.671,3.597c29.128-3.208,15.237-40.171,35.56-31.979c20.324,8.192,49.392,13.934,47.086-8.329
				c-3.473-33.534,8.141-11.536,13.041-35.543c5.611-27.494-24.746-14.666-32.243-49.581c-7.497-34.915-29.259-49.151-42.845-24.918
				C165.734,180.166,160.616,173.946,147.326,166.503z"/>
		</g>
	</g>
</g>
<g id="Background_Simple" style="display:none;">
	<g style="display:inline;">
		<path style="fill:#407BFF;" d="M258.953,307.455c46.605,10.968,80.23,30.021,124.211-0.505
			c29.686-20.604,52.781-58.513,45.954-94.935c-12.35-65.889-106.864-162.74-179.846-116.602
			c-35.665,22.547-50.641,56.93-92.657,74.065c-41.896,17.086-77.15,33.528-77.428,86.678
			c-0.178,34.042,22.205,73.307,59.046,76.864C182.774,337.319,206.584,295.13,258.953,307.455z"/>
		<path style="opacity:0.9;fill:#FFFFFF;" d="M258.953,307.455c46.605,10.968,80.23,30.021,124.211-0.505
			c29.686-20.604,52.781-58.513,45.954-94.935c-12.35-65.889-106.864-162.74-179.846-116.602
			c-35.665,22.547-50.641,56.93-92.657,74.065c-41.896,17.086-77.15,33.528-77.428,86.678
			c-0.178,34.042,22.205,73.307,59.046,76.864C182.774,337.319,206.584,295.13,258.953,307.455z"/>
	</g>
</g>
<g id="Shadow_1_">
	<ellipse id="_x3C_Path_x3E__213_" style="fill:#F5F5F5;" cx="250" cy="416.238" rx="193.889" ry="11.323"/>
</g>
<g id="Bucket">
	<g>
		<g>
			<path style="fill:#407BFF;" d="M249.79,406.898l6.52-50.44h-53.49l6.519,50.44c-0.565,0.161-0.99,0.66-0.99,1.275
				c0,0.741,0.607,1.348,1.348,1.348h39.735c0.741,0,1.348-0.607,1.348-1.348C250.779,407.558,250.355,407.059,249.79,406.898z"/>
			<path style="opacity:0.4;fill:#FFFFFF;" d="M249.79,406.898l6.52-50.44h-53.49l6.519,50.44c-0.565,0.161-0.99,0.66-0.99,1.275
				c0,0.741,0.607,1.348,1.348,1.348h39.735c0.741,0,1.348-0.607,1.348-1.348C250.779,407.558,250.355,407.059,249.79,406.898z"/>
		</g>
		<polygon style="opacity:0.2;" points="256.309,356.458 202.819,356.458 203.754,363.694 255.798,360.412 		"/>
		<g>
			<path style="fill:#407BFF;" d="M255.611,354.671h-3.555c-0.915-11.612-10.65-20.782-22.492-20.782
				c-11.843,0-21.577,9.17-22.492,20.782h-3.555c-0.983,0-1.787,0.804-1.787,1.787c0,0.983,0.804,1.787,1.787,1.787h52.094
				c0.983,0,1.787-0.804,1.787-1.787C257.398,355.475,256.594,354.671,255.611,354.671z M229.564,334.894
				c11.287,0,20.56,8.721,21.473,19.776h-42.947C209.004,343.616,218.277,334.894,229.564,334.894z"/>
			<path style="opacity:0.4;fill:#FFFFFF;" d="M255.611,354.671h-3.555c-0.915-11.612-10.65-20.782-22.492-20.782
				c-11.843,0-21.577,9.17-22.492,20.782h-3.555c-0.983,0-1.787,0.804-1.787,1.787c0,0.983,0.804,1.787,1.787,1.787h52.094
				c0.983,0,1.787-0.804,1.787-1.787C257.398,355.475,256.594,354.671,255.611,354.671z M229.564,334.894
				c11.287,0,20.56,8.721,21.473,19.776h-42.947C209.004,343.616,218.277,334.894,229.564,334.894z"/>
		</g>
	</g>
</g>
<g id="Character_1_">
	<g>
		<g>
			<g>
				<rect x="316.325" y="339.444" style="fill:#407BFF;" width="72.32" height="6.363"/>
				<rect x="370.993" y="339.444" style="opacity:0.2;" width="17.652" height="6.363"/>
				<polygon style="fill:#263238;" points="328.632,411.856 321.845,411.856 376.337,345.808 383.124,345.808 				"/>
				<polygon style="fill:#263238;" points="376.337,411.856 383.124,411.856 328.632,345.808 321.845,345.808 				"/>
			</g>
		</g>
		<g>
			<g>
				<path style="fill:#407BFF;" d="M348.711,241c5.26-3.917,11.722-8.88,25.314-8.5c17.809,0.498,11.208,17.678,8.933,17.5
					L348.711,241z"/>
				<path style="opacity:0.2;" d="M355.428,238.682c0.449-2.071,10.464-5.861,19.174-4.904c9.1,1,3.926,6.252,2.475,6.139
					L355.428,238.682z"/>
				<path style="fill:#407BFF;" d="M350.514,242.229c-3.83-0.533-7.366,2.139-7.899,5.969l-0.013,0.091
					c-0.234,1.678-0.534,3.564-0.853,5.357c-0.316,1.815-0.662,3.63-1.027,5.44c-0.73,3.621-1.542,7.222-2.45,10.786
					c-0.911,3.563-1.952,7.067-3.085,10.517c-0.275,0.815-0.585,1.606-0.877,2.41c-0.616-1.156-1.229-2.378-1.835-3.644
					l-1.069-2.209l-0.535-1.112l-0.255-0.553c-0.072-0.083-0.002-0.205-0.238-0.236c-0.233-0.028-0.716-0.002-1.677,0.195
					l-3.189,0.651c-1.184,0.251-2.359,0.635-3.505,1.161c-0.902,0.414-1.323,0.656-1.494,0.843c-0.174,0.184-0.041,0.278-0.049,0.41
					l0.138,0.736l0.298,1.449c0.208,0.963,0.488,1.903,0.765,2.856c0.602,1.888,1.341,3.762,2.315,5.632
					c0.987,1.871,2.104,3.765,3.826,5.726c0.878,0.968,1.9,1.994,3.369,2.912c1.435,0.907,3.464,1.716,5.714,1.738
					c2.28,0.019,4.488-1.237,5.569-3.418l0.047-0.095c1.819-3.674,3.414-7.39,4.825-11.132c1.379-3.746,2.639-7.513,3.75-11.3
					c1.105-3.789,2.115-7.591,3.008-11.418c0.443-1.915,0.865-3.833,1.258-5.763c0.401-1.949,0.758-3.819,1.109-5.906
					c0.009-0.054,0.022-0.14,0.03-0.195C357.016,246.298,354.344,242.762,350.514,242.229z M337.507,287.074
					c-0.034-0.004-0.127-0.052-0.246-0.135C337.464,287.005,337.571,287.087,337.507,287.074z"/>
				<path style="fill:#FFC3BD;" d="M331.438,276.187l-2.09-4.982l-6.34,5.557c0,0,2.163,4.861,5.557,3.117L331.438,276.187z"/>
				<polygon style="fill:#FFC3BD;" points="322.969,268.626 319.268,273.22 323.008,276.763 329.348,271.205 				"/>
				<path style="fill:#407BFF;" d="M367.333,238.709c-6.055-0.179-11.436,0.316-15.412,0.883c-4.471,0.638-8.129,3.888-9.264,8.259
					c-2.665,10.265-6.18,31.777-0.971,63.39h43.482c0.307-3.882-0.592-16.516,0.077-32.603c0.45-10.802,1.721-21.883,3.173-29.764
					c0.063-0.341,0.126-0.677,0.189-1.007c0.764-4.001-2.055-7.806-6.11-8.195C378.48,239.285,373.183,238.882,367.333,238.709z"/>
				<path style="opacity:0.2;" d="M385.1,300.9c-1.22,0.11-6.233,1.343-7.433,1.433l-5.292,7.125c5.875,0,11.75-2.307,12.815-3.778
					C385.17,304.27,385.13,302.67,385.1,300.9z"/>
				<path style="fill:#FFFFFF;" d="M369.722,242.667H368c-0.722,1.222-2,11.055-0.667,12.278l2.389-0.5
					C369.722,254.445,368.444,247.389,369.722,242.667z"/>
				<path style="fill:#FFFFFF;" d="M356.124,242.625l-1.753-0.158c-1.076,1.104-4.124,9.152-3.385,11.168l2.296,0.526
					C353.281,254.161,353.505,247.027,356.124,242.625z"/>
				<path style="opacity:0.2;" d="M381.42,258.95c-0.86,4.03,0.03,14.18,3.82,19.75v-0.06c0.16-3.86,0.43-7.75,0.77-11.52
					L381.42,258.95z"/>
				<path style="opacity:0.2;fill:#FFFFFF;" d="M349.609,282.415l19.445,0.681c0.816,0.029,1.459,0.698,1.446,1.515
					c-0.058,3.409,0.174,12.122,3.614,19.042c0.455,0.916-0.085,2.013-1.096,2.167c-4.6,0.7-15.996,1.883-26.269-1.46
					c-0.434-0.141-0.79-0.47-0.942-0.9c-1.331-3.766-0.885-14.165,2.452-20.301C348.523,282.673,349.056,282.395,349.609,282.415z"
					/>
				<g>
					<polygon style="fill:#FFC3BD;" points="239.592,409.732 234.556,403.339 247.582,389.48 252.618,395.873 					"/>
					<path style="fill:#263238;" d="M235.851,401.391l5.652,7.175c0.206,0.261,0.18,0.601-0.063,0.817l-5.402,4.82
						c-0.56,0.5-1.553,0.387-2.016-0.223c-1.925-2.532-2.718-3.841-5.204-6.996c-1.529-1.941-5.842-7.131-7.604-10.054
						c-1.722-2.859,1.18-4.581,2.188-3.5c4.52,4.847,8.353,6.483,11.19,7.17C235.103,400.724,235.55,401.009,235.851,401.391z"/>
					<g>
						<polygon style="opacity:0.2;" points="252.616,395.878 247.577,389.483 240.866,396.629 245.904,403.025 						"/>
					</g>
					<g>
						<path style="fill:#263238;" d="M341.637,310.826c0,0-44.396,6.891-53.063,21.558c-17.048,28.85-46.185,57.51-46.185,57.51
							l9.67,11.323c0,0,46.829-36.879,62.191-60.967c15.6,0.198,52.216,1.707,55.766-7.917c4.112-11.149-0.263-21.367-0.263-21.367
							L341.637,310.826z"/>
						<path style="opacity:0.3;" d="M341.637,310.826c0,0-44.396,6.891-53.063,21.558c-17.048,28.85-46.185,57.51-46.185,57.51
							l9.67,11.323c0,0,46.829-36.879,62.191-60.967c15.6,0.198,52.216,1.707,55.766-7.917c4.112-11.149-0.263-21.367-0.263-21.367
							L341.637,310.826z"/>
					</g>
					<polygon style="fill:#407BFF;" points="250,404.396 239.699,391.321 243.832,386.158 256.538,399.606 					"/>
					<path style="fill:#407BFF;" d="M232.955,400.004c0.464,0.59,1.1,1.147,1.569,1.522c0.058,0.047,0.139,0.055,0.205,0.021
						c0.067-0.035,0.106-0.105,0.102-0.179c-0.019-0.316-0.208-3.097-1.128-3.636c-0.213-0.125-0.453-0.13-0.695-0.015
						c-0.398,0.191-0.62,0.467-0.661,0.823C232.296,398.991,232.565,399.509,232.955,400.004z M234.417,400.946
						c-1.128-0.963-1.755-1.832-1.693-2.364c0.025-0.22,0.172-0.392,0.449-0.524c0.128-0.061,0.235-0.061,0.339,0
						C234.006,398.348,234.305,399.834,234.417,400.946z"/>
					<path style="fill:#407BFF;" d="M234.494,401.495c0.018,0.023,0.042,0.042,0.07,0.055c0.059,0.027,0.128,0.022,0.183-0.014
						c0.083-0.055,2.033-1.359,2.146-2.492c0.031-0.306-0.067-0.573-0.289-0.795c-0.267-0.266-0.578-0.332-0.876-0.185
						c-0.813,0.401-1.395,2.404-1.273,3.338C234.459,401.437,234.473,401.469,234.494,401.495z M236.395,398.583
						c0.097,0.124,0.137,0.263,0.121,0.423c-0.067,0.676-1.078,1.557-1.698,2.018c0.032-0.925,0.545-2.357,1.078-2.62
						c0.101-0.051,0.244-0.083,0.44,0.113C236.358,398.539,236.377,398.561,236.395,398.583z"/>
				</g>
				<g>
					<polygon style="fill:#FFC3BD;" points="292.502,412.853 284.438,411.822 291.583,393.755 299.647,394.786 					"/>
					<path style="fill:#263238;" d="M284.218,409.603l9.037,1.325c0.329,0.048,0.543,0.313,0.516,0.637l-0.61,7.214
						c-0.063,0.748-0.862,1.348-1.618,1.224c-3.138-0.516-4.614-0.921-8.588-1.504c-2.445-0.358-10.776-1.32-14.152-1.816
						c-3.302-0.484-2.79-3.819-1.315-3.912c6.615-0.415,12.74-1.427,15.273-2.878C283.217,409.633,283.737,409.533,284.218,409.603z
						"/>
					<g>
						<polygon style="opacity:0.2;" points="299.647,394.791 291.579,393.759 287.9,403.073 295.968,404.104 						"/>
					</g>
					<path style="fill:#263238;" d="M361.887,310.826c0,0-60.137-13.102-58.818,10.174c1.444,25.49-17.222,77.748-17.222,77.748
						l13.554,2.51c0,0,28.763-39.479,25.5-65.433c12.293,4.05,53.808,10.646,58.835-2.982c4.112-11.149,1.432-21.6,1.432-21.6
						L361.887,310.826z"/>
					<polygon style="fill:#407BFF;" points="301.387,403.1 284.438,400.053 285.504,392.431 303.722,396.254 					"/>
					<path style="fill:#407BFF;" d="M281.162,410.587c0.743,0.109,1.588,0.076,2.186,0.027c0.074-0.006,0.139-0.056,0.163-0.126
						c0.025-0.071,0.005-0.149-0.049-0.2c-0.231-0.216-2.28-2.107-3.319-1.865c-0.241,0.056-0.419,0.217-0.514,0.467
						c-0.158,0.412-0.129,0.766,0.086,1.052C279.987,410.304,280.539,410.495,281.162,410.587z M282.872,410.266
						c-1.481,0.076-2.534-0.124-2.855-0.553c-0.133-0.178-0.144-0.403-0.035-0.689c0.051-0.132,0.129-0.206,0.246-0.233
						C280.787,408.661,282.026,409.535,282.872,410.266z"/>
					<path style="fill:#407BFF;" d="M283.304,410.612c0.029,0.004,0.06,0.002,0.089-0.008c0.062-0.021,0.108-0.072,0.123-0.136
						c0.022-0.097,0.542-2.384-0.155-3.285c-0.188-0.243-0.443-0.37-0.756-0.378c-0.377-0.01-0.648,0.157-0.763,0.468
						c-0.314,0.85,0.639,2.705,1.37,3.3C283.239,410.594,283.271,410.607,283.304,410.612z M282.683,407.19
						c0.156,0.023,0.28,0.096,0.378,0.224c0.416,0.537,0.288,1.872,0.154,2.633c-0.613-0.693-1.224-2.086-1.018-2.644
						c0.039-0.106,0.12-0.228,0.398-0.22C282.626,407.183,282.655,407.186,282.683,407.19z"/>
				</g>
				<g>
					<path style="fill:#263238;" d="M159.74,187.982c18.627,8.534,37.039,17.502,55.338,26.708
						c18.29,9.222,36.427,18.75,54.407,28.572c17.961,9.859,35.708,20.114,53.248,30.725c17.469,10.73,34.661,21.928,51.409,33.804
						l-2.003,2.761c-16.542-11.975-33.564-23.303-50.882-34.175c-17.391-10.756-35.004-21.166-52.843-31.187
						c-17.859-9.984-35.883-19.68-54.066-29.073c-18.189-9.376-36.509-18.522-55.025-27.227L159.74,187.982z"/>
					<path style="fill:#263238;" d="M327.063,282.049c-13.513-8.443-27.104-16.766-40.908-24.726
						c-13.783-7.994-27.669-15.814-41.685-23.394c-14.005-7.601-28.096-15.04-42.286-22.291
						c-14.19-7.248-28.459-14.346-42.85-21.181l0.169-0.026c-4.108,3.807-7.954,7.889-11.645,12.101
						c-3.706,4.201-7.192,8.592-10.565,13.064c-6.711,8.972-12.92,18.322-18.577,27.996c-11.343,19.333-20.794,39.756-28.488,60.802
						c-7.703,21.051-13.503,42.778-17.646,64.8c-2.009,11.025-3.589,22.125-4.774,33.268c-1.121,11.151-1.778,22.342-2.099,33.543
						c-0.002,0.138-0.116,0.248-0.254,0.246c-0.138-0.002-0.248-0.116-0.246-0.254l0-0.003c0.329-11.214,0.995-22.418,2.126-33.581
						c1.195-11.155,2.784-22.266,4.804-33.302c4.164-22.043,9.985-43.789,17.712-64.856c7.717-21.063,17.192-41.499,28.562-60.844
						c5.671-9.679,11.893-19.036,18.619-28.015c3.38-4.475,6.875-8.87,10.59-13.075c3.7-4.216,7.556-8.302,11.677-12.116
						c0.047-0.044,0.115-0.052,0.169-0.026c14.392,6.85,28.655,13.96,42.841,21.221c14.185,7.263,28.272,14.716,42.272,22.329
						c14.011,7.593,27.892,15.425,41.671,23.431c13.799,7.973,27.384,16.309,40.892,24.763c0.034,0.022,0.045,0.067,0.023,0.101
						C327.143,282.06,327.097,282.07,327.063,282.049z"/>
					<g>
						<path style="fill:#407BFF;" d="M64.513,433.903c-1.188,0.387-1.931,1.577-1.931,2.826v4.811h5.751v-4.915
							C68.333,434.737,66.489,433.259,64.513,433.903z"/>
						<rect x="62.582" y="438.083" style="opacity:0.8;fill:#FFFFFF;" width="5.752" height="1.667"/>
					</g>
					<path style="fill:#263238;" d="M173.303,195.972l-0.38,0.7c-0.307,0.565-1.021,0.777-1.586,0.47l0,0
						c-0.565-0.307-0.777-1.021-0.47-1.586l0.38-0.7c0.307-0.565,1.021-0.777,1.586-0.47l0,0
						C173.398,194.693,173.61,195.407,173.303,195.972z"/>
					<path style="fill:#263238;" d="M226.9,223.294l-0.38,0.7c-0.307,0.565-1.021,0.777-1.586,0.47l0,0
						c-0.565-0.307-0.777-1.021-0.47-1.586l0.38-0.7c0.307-0.565,1.021-0.777,1.586-0.47l0,0
						C226.996,222.015,227.207,222.729,226.9,223.294z"/>
					<path style="fill:#263238;" d="M283.101,253.814l-0.38,0.7c-0.307,0.565-1.02,0.777-1.586,0.47l0,0
						c-0.565-0.307-0.777-1.021-0.47-1.586l0.38-0.7c0.307-0.565,1.021-0.776,1.586-0.47l0,0
						C283.196,252.535,283.408,253.249,283.101,253.814z"/>
					<path style="fill:#263238;" d="M338.846,281.959l-4.534,8.349c-0.245,0.452-0.826,0.594-1.252,0.306l-12.009-8.115
						c-0.371-0.251-0.492-0.743-0.278-1.137l4.534-8.349c0.245-0.452,0.827-0.594,1.252-0.306l12.009,8.115
						C338.94,281.073,339.06,281.565,338.846,281.959z"/>
					<path style="fill:#263238;" d="M330.116,291.524c-0.159,0-0.316-0.047-0.451-0.138l-7.646-5.167
						c-0.345-0.232-0.455-0.684-0.256-1.05l2.887-5.316c0.108-0.199,0.296-0.344,0.516-0.397c0.219-0.055,0.453-0.013,0.641,0.115
						l7.647,5.167c0.345,0.233,0.455,0.684,0.256,1.05l0,0l-2.887,5.316c-0.108,0.199-0.296,0.344-0.516,0.397
						C330.244,291.517,330.18,291.524,330.116,291.524z M325.357,279.933c-0.024,0-0.049,0.003-0.073,0.009
						c-0.085,0.021-0.154,0.074-0.195,0.15l-2.887,5.316c-0.075,0.139-0.034,0.309,0.097,0.397l7.647,5.167
						c0.072,0.048,0.157,0.063,0.242,0.043c0.085-0.021,0.154-0.074,0.195-0.15l2.887-5.316c0.075-0.139,0.033-0.309-0.097-0.397
						l-7.647-5.167C325.476,279.951,325.417,279.933,325.357,279.933z M333.49,285.668h0.006H333.49z"/>
					<path style="fill:#263238;" d="M338.072,279.367l-0.371,0.684c-0.113,0.209-0.366,0.27-0.563,0.135l-8.107-5.502
						c-0.198-0.134-0.266-0.412-0.153-0.621l0.371-0.684c0.113-0.209,0.366-0.27,0.564-0.135l8.107,5.502
						C338.117,278.88,338.186,279.159,338.072,279.367z"/>
				</g>
				<path style="fill:#FFC3BD;" d="M372.003,300.764l-5.398,0.233l3.014,7.874c0,0,5.31-0.344,4.851-4.132L372.003,300.764z"/>
				<polygon style="fill:#FFC3BD;" points="361.974,306.086 365.001,311.15 369.62,308.871 366.606,300.997 				"/>
				<path style="fill:#FFC3BD;" d="M375.276,217.983l-4.946,4.102l-6.733,5.592c0.197,0.91,0.351,1.832,0.428,2.72
					c0.362,3.651-0.684,7.264-6.057,8.536c0,0-4.203,1.474,6.366,1.622c10.569,0.148,12.072-1.39,12.072-1.39
					C372.381,235.196,373.905,223.938,375.276,217.983z"/>
				<path style="opacity:0.2;" d="M363.597,227.677c0.198,0.91,0.351,1.832,0.428,2.72c2.511-0.505,5.867-3.181,6.218-5.747
					c0.132-0.965,0.154-1.897,0.088-2.566L363.597,227.677z"/>
				<path style="fill:#263238;" d="M359.038,213.626c-3.845-0.872-5.694-7.044-4.314-11.758c1.831-6.256,8.001-5.842,12.688-2.193
					C373.202,204.183,365,214.978,359.038,213.626z"/>
				<path style="fill:#FFC3BD;" d="M377.315,209.419c-1.719,7.906-2.323,12.606-6.993,16.214
					c-7.024,5.427-16.333,0.606-17.015-7.571c-0.614-7.36,2.301-19.052,10.618-21.291
					C372.119,194.565,379.035,201.513,377.315,209.419z"/>
				<path style="fill:#263238;" d="M373.242,215.305c-3.458-1.894-2.428-10.932-0.919-12.491c1.508-1.559,9.298-3.42,12.802,1.376
					C389.454,210.115,378.604,218.242,373.242,215.305z"/>
				<path style="fill:#263238;" d="M375.828,203.153c-4.875,1.221-4.035-2.974-12.606-2.037c-6.353,0.695-11.655-3.894-11.522-9.279
					c0.163-6.602,9.115-10.088,13.917-4.463c4.801,5.624,8.628,9.984,16.421,9.341c6.062-0.501,6.59,8.755-0.081,9.548
					C378.038,206.727,375.828,203.153,375.828,203.153z"/>
				<path style="fill:#263238;" d="M360.552,201.492c-2.125,0-4.191-0.59-5.946-1.734c-2.241-1.46-3.726-3.708-4.075-6.167
					c-0.02-0.137,0.076-0.263,0.212-0.283c0.13-0.017,0.263,0.075,0.283,0.212c0.333,2.351,1.702,4.417,3.853,5.819
					c2.51,1.635,5.691,2.083,8.727,1.227c0.136-0.037,0.272,0.04,0.309,0.173c0.037,0.133-0.04,0.271-0.173,0.309
					C362.685,201.345,361.611,201.492,360.552,201.492z"/>
				<path style="fill:#FFC3BD;" d="M378.715,216.569c-0.92,1.679-2.462,2.826-3.892,3.306c-2.151,0.723-3.129-1.209-2.45-3.331
					c0.612-1.91,2.468-4.586,4.588-4.388C379.049,212.352,379.767,214.65,378.715,216.569z"/>
				<path style="fill:#263238;" d="M363.776,210.142c-0.1,0.648-0.526,1.133-0.952,1.083c-0.426-0.051-0.69-0.617-0.59-1.266
					c0.1-0.648,0.526-1.133,0.952-1.083C363.612,208.926,363.876,209.493,363.776,210.142z"/>
				<path style="fill:#263238;" d="M356.415,209.266c-0.1,0.648-0.526,1.133-0.952,1.083c-0.426-0.051-0.69-0.617-0.59-1.266
					c0.1-0.648,0.526-1.133,0.952-1.083C356.251,208.051,356.515,208.618,356.415,209.266z"/>
				<path style="fill:#ED847E;" d="M358.658,209.527c0,0-1.545,3.146-3.074,4.624c0.907,0.97,2.621,0.636,2.621,0.636
					L358.658,209.527z"/>
				<path style="fill:#263238;" d="M358.216,217.988c2.56,0.353,4.21-1.046,4.285-1.111c0.08-0.07,0.089-0.191,0.02-0.271
					c-0.069-0.081-0.191-0.089-0.271-0.02c-0.019,0.016-1.897,1.611-4.685,0.88c-0.104-0.028-0.208,0.035-0.235,0.138
					c-0.027,0.103,0.035,0.208,0.138,0.235C357.724,217.905,357.974,217.954,358.216,217.988z"/>
				<path style="fill:#263238;" d="M367.953,206.124c0.062-0.014,0.12-0.043,0.171-0.088c0.159-0.141,0.173-0.385,0.032-0.544
					c-1.399-1.573-3.163-1.287-3.237-1.274c-0.201,0.015-0.35,0.235-0.314,0.445c0.036,0.21,0.235,0.35,0.444,0.314
					c0.073-0.011,1.432-0.209,2.53,1.027C367.677,206.113,367.821,206.153,367.953,206.124z"/>
				<path style="fill:#263238;" d="M353.991,204.548c0.118,0.034,0.251,0.011,0.353-0.074c1.347-1.12,2.731-0.75,2.745-0.746
					c0.205,0.058,0.418-0.062,0.475-0.267c0.057-0.204-0.061-0.416-0.265-0.474c-0.001,0-0.001,0-0.002-0.001
					c-0.073-0.02-1.791-0.48-3.445,0.895c-0.164,0.136-0.186,0.379-0.05,0.542C353.852,204.486,353.919,204.527,353.991,204.548z"/>
				<path style="fill:#407BFF;" d="M401.088,276.446c-0.627-3.535-1.663-6.725-2.846-9.774c-1.193-3.043-2.548-5.937-4.027-8.74
					c-0.741-1.4-1.511-2.778-2.312-4.142l-1.229-2.038c-0.433-0.696-0.82-1.314-1.348-2.102c-0.047-0.069-0.11-0.16-0.159-0.228
					c-2.28-3.123-6.66-3.807-9.783-1.528c-3.123,2.28-3.807,6.66-1.528,9.783l0.004,0.005c0.313,0.429,0.739,1.048,1.106,1.596
					l1.127,1.724c0.741,1.162,1.458,2.343,2.146,3.534c1.377,2.379,2.653,4.797,3.727,7.221c1.073,2.417,1.957,4.857,2.467,7.135
					c0.447,1.918,0.539,3.72,0.344,4.93c-0.942,1.328-2.008,2.616-3.219,3.819c-1.483,1.488-3.149,2.864-4.912,4.146
					c-1.762,1.283-3.611,2.504-5.504,3.677c-0.936,0.607-1.906,1.161-2.863,1.733c-0.479,0.287-0.961,0.564-1.441,0.83l-0.715,0.389
					c-0.107,0.093-0.264,0.046-0.303,0.296c-0.024,0.119-0.008,0.319,0.022,0.575c0.015,0.132,0.04,0.274,0.096,0.502
					c0.044,0.204,0.088,0.408,0.15,0.605l1.617,5.136c0.156,0.489,0.4,0.96,0.736,1.388c0.134,0.171,0.25,0.348,0.365,0.525
					c0.127,0.201,0.224,0.317,0.31,0.421c0.172,0.201,0.331,0.348,0.449,0.41c0.245,0.139,0.373-0.021,0.548-0.044l0.977-0.32
					c0.643-0.217,1.276-0.442,1.904-0.677c1.257-0.468,2.47-1.02,3.683-1.581c2.401-1.17,4.731-2.512,6.946-4.079
					c2.219-1.558,4.361-3.278,6.386-5.2c2.034-1.907,3.955-4.023,5.679-6.368c0.281-0.386,0.527-0.838,0.696-1.31l0.079-0.221
					c0.794-2.226,1.061-4.391,1.099-6.387C401.597,280.077,401.393,278.217,401.088,276.446z"/>
			</g>
		</g>
	</g>
</g>
</svg>
