<?xml version="1.0" encoding="utf-8"?>
<!-- Generator: Adobe Illustrator 27.5.0, SVG Export Plug-In . SVG Version: 6.00 Build 0)  -->
<svg version="1.1" xmlns="http://www.w3.org/2000/svg" xmlns:xlink="http://www.w3.org/1999/xlink" x="0px" y="0px"
	 viewBox="0 0 750 500" style="enable-background:new 0 0 750 500;" xml:space="preserve">
<g id="Background_Complete">
	<g>
		<g>
			<path style="fill:#E0E0E0;" d="M486.154,66.051c-0.652-1.741-1.317-3.506-2.414-5.007c-1.097-1.501-2.699-2.73-4.544-2.956
				c-1.845-0.226-3.889,0.77-4.491,2.529c-0.265-3.964-0.826-8.031-2.811-11.472c-1.984-3.442-5.686-6.146-9.652-5.903
				c-3.739,0.229-6.94,3.006-8.719,6.302c-1.779,3.297-2.389,7.078-2.973,10.778c-1.417-1.739-4.41-1.193-5.889,0.494
				c-1.479,1.687-1.854,4.044-2.168,6.266l44.174,0.46L486.154,66.051z"/>
		</g>
	</g>
	<g>
		<g>
			<path style="fill:#F5F5F5;" d="M153.312,157.842c-1.11-2.963-2.242-5.966-4.108-8.521c-1.867-2.554-4.594-4.646-7.734-5.031
				c-3.14-0.385-6.619,1.311-7.642,4.304c-0.45-6.746-1.406-13.667-4.783-19.523c-3.377-5.857-9.677-10.458-16.425-10.046
				c-6.363,0.389-11.81,5.115-14.838,10.726c-3.027,5.61-4.066,12.045-5.06,18.342c-2.412-2.96-7.505-2.03-10.022,0.841
				c-2.517,2.87-3.155,6.883-3.69,10.663l75.176,0.783L153.312,157.842z"/>
		</g>
	</g>
	<g>
		<g>
			<path style="fill:#F5F5F5;" d="M690.623,83.699c-1.11-2.963-2.242-5.966-4.108-8.521c-1.867-2.554-4.594-4.646-7.734-5.031
				c-3.14-0.385-6.619,1.311-7.642,4.304c-0.45-6.746-1.406-13.667-4.783-19.523c-3.377-5.857-9.677-10.458-16.425-10.046
				c-6.363,0.389-11.81,5.115-14.838,10.726c-3.027,5.61-4.066,12.045-5.06,18.342c-2.412-2.959-7.505-2.029-10.022,0.841
				c-2.517,2.87-3.155,6.883-3.69,10.663l75.176,0.783L690.623,83.699z"/>
		</g>
	</g>
	<g>
		<g>
			<path style="fill:#F5F5F5;" d="M228.489,87.073c-0.697-1.859-1.407-3.745-2.578-5.348c-1.172-1.603-2.883-2.916-4.854-3.158
				c-1.971-0.241-4.154,0.823-4.797,2.701c-0.283-4.234-0.883-8.578-3.002-12.254c-2.119-3.676-6.074-6.564-10.309-6.305
				c-3.994,0.244-7.413,3.211-9.313,6.732c-1.9,3.521-2.552,7.56-3.176,11.512c-1.514-1.857-4.71-1.274-6.29,0.528
				c-1.58,1.802-1.98,4.32-2.316,6.693l47.184,0.491L228.489,87.073z"/>
		</g>
	</g>
	<g>
		<g>
			<path style="fill:#F5F5F5;" d="M541.699,118.041c-0.697-1.859-1.407-3.745-2.578-5.348c-1.172-1.603-2.883-2.916-4.854-3.158
				c-1.971-0.241-4.154,0.823-4.797,2.701c-0.283-4.234-0.883-8.578-3.002-12.254c-2.119-3.676-6.074-6.564-10.309-6.305
				c-3.994,0.244-7.413,3.211-9.313,6.732c-1.9,3.521-2.552,7.56-3.176,11.512c-1.514-1.857-4.71-1.274-6.29,0.528
				c-1.58,1.802-1.98,4.32-2.316,6.693l47.184,0.492L541.699,118.041z"/>
		</g>
	</g>
	<g>
		<g>
			<path style="fill:#F5F5F5;" d="M450.548,108.606c-1.437-3.836-2.902-7.726-5.319-11.034c-2.417-3.307-5.948-6.017-10.014-6.514
				c-4.066-0.498-8.571,1.697-9.896,5.573c-0.583-8.735-1.821-17.697-6.194-25.281c-4.372-7.585-12.531-13.542-21.269-13.008
				c-8.239,0.504-15.293,6.624-19.213,13.888c-3.92,7.264-5.265,15.597-6.552,23.751c-3.123-3.832-9.718-2.628-12.977,1.089
				c-3.259,3.717-4.085,8.913-4.778,13.808l97.345,1.014L450.548,108.606z"/>
		</g>
	</g>
	<g>
		<path style="fill:#E0E0E0;" d="M202.354,335.886c-0.216-1.356-1.849-2.094-3.2-1.847c-1.351,0.247-2.459,1.179-3.499,2.077
			c-0.088-1.886,0.964-3.606,1.744-5.325c0.781-1.719,1.272-3.86,0.18-5.4c-1.361-1.919-4.324-1.716-6.444-0.697
			c-3.34,1.605-5.897,4.755-6.781,8.353c-1.071-5.476-3.833-10.609-7.813-14.519c-1.638-1.61-4.022-3.095-6.1-2.117
			c-2.166,1.019-2.444,4.139-1.4,6.294c1.043,2.155,2.971,3.729,4.404,5.647c4.488,6.006,3.055,15.573-2.997,19.999l29.883-0.101
			c-1.835-1.689-2.399-6.145-0.825-8.08C200.632,338.785,202.634,337.647,202.354,335.886z"/>
		<path style="fill:#E0E0E0;" d="M205.446,310.422c0,1.105-0.896,2.001-2.001,2.001c-1.105,0-2.001-0.896-2.001-2.001
			c0-1.105,0.896-2.001,2.001-2.001C204.55,308.422,205.446,309.317,205.446,310.422z"/>
		<path style="fill:#E0E0E0;" d="M145.53,258.95l-0.328,0.243c-1.125,1.457-1.574,3.39-1.3,5.205
			c0.173,1.147,1.735,1.386,2.248,0.345C147.056,262.905,146.906,260.503,145.53,258.95z"/>
		<path style="fill:#E0E0E0;" d="M154.826,280.13l-0.27,0.306c-0.795,1.66-0.829,3.644-0.18,5.362
			c0.41,1.085,1.987,0.991,2.27-0.134C157.147,283.677,156.497,281.359,154.826,280.13z"/>
	</g>
	<g>
		<g>
			<g>
				<path style="fill:#E0E0E0;" d="M648.424,294.845c0,0-0.931-6.569-1.217-17.276c-0.024-1.339-0.05-2.741-0.076-4.201
					c-0.021-1.461,0.04-2.981,0.058-4.555c0.008-3.15,0.229-6.507,0.417-10.042c0.513-7.061,1.389-14.804,2.81-22.853
					c1.472-8.042,3.348-15.608,5.326-22.407c1.054-3.38,2.017-6.605,3.107-9.56c0.531-1.482,1.004-2.928,1.532-4.29
					c0.533-1.36,1.046-2.665,1.535-3.912c3.998-9.937,7.157-15.769,7.157-15.769c0.008,0.004-0.028,0.101-0.106,0.288
					c-0.092,0.211-0.211,0.482-0.359,0.821c-0.341,0.749-0.818,1.799-1.426,3.135c-0.314,0.682-0.662,1.436-1.042,2.259
					c-0.356,0.839-0.742,1.749-1.156,2.724c-0.813,1.962-1.807,4.166-2.726,6.677c-0.478,1.249-0.979,2.555-1.501,3.917
					c-0.517,1.363-0.98,2.81-1.501,4.292c-1.07,2.955-2.015,6.178-3.054,9.554c-1.948,6.791-3.805,14.34-5.274,22.363
					c-1.417,8.029-2.305,15.751-2.844,22.794c-0.201,3.526-0.438,6.876-0.464,10.019c-0.028,1.57-0.098,3.087-0.088,4.545
					c0.015,1.458,0.029,2.857,0.043,4.194c-0.013,2.673,0.151,5.087,0.23,7.209c0.048,1.059,0.093,2.045,0.135,2.956
					c0.069,0.904,0.132,1.732,0.19,2.481c0.104,1.464,0.187,2.614,0.245,3.435c0.021,0.37,0.038,0.665,0.051,0.895
					C648.433,294.741,648.433,294.845,648.424,294.845z"/>
			</g>
		</g>
		<g>
			<path style="fill:#E0E0E0;" d="M669.887,188.141c-2.223,7.463-5.042,14.713-8.578,21.518c-0.958,1.843-2.403,3.906-4.298,3.623
				c-1.311-0.196-2.29-1.559-2.575-2.998c-0.284-1.439-0.01-2.938,0.332-4.361c1.374-5.726,3.827-11.047,6.261-16.317
				c0.856-1.852,1.773-3.784,3.323-4.948c1.55-1.165,3.935-1.235,5.077,0.414C669.43,185.072,670.457,186.226,669.887,188.141z"/>
		</g>
		<g>
			<path style="fill:#EBEBEB;" d="M660.492,303.16c3.886-8.181,9.218-23.677,7.777-31.457c-9.222,3.458-18.156,15.85-25.523,24.432
				c8.633-19.665,17.267-39.33,25.9-58.995c-17.547,10.957-27.715,30.307-37.078,48.754c4.945-14.512,7.931-29.69,8.852-44.993
				c-9.744,7.837-16.622,19.161-19.083,31.42c2.804-26.05,5.609-52.099,8.413-78.149c-11.868,11.023-17.919,27.187-19.752,43.28
				c-1.833,16.094,0.155,32.35,2.141,48.425c-4.487-8.38-8.973-16.76-13.46-25.14c-1.023,16.5,2.078,31.606,10.549,45.802
				l59.618,0.033c15.032-16.25,25.824-30.858,35.579-50.729C684.004,263.908,671.523,284.178,660.492,303.16z"/>
		</g>
		<g>
			<g>
				<path style="fill:#E0E0E0;" d="M618.743,299.828c-0.009,0.001-0.032-0.09-0.068-0.269c-0.039-0.209-0.087-0.472-0.147-0.798
					c-0.125-0.742-0.297-1.771-0.517-3.078c-0.109-0.673-0.23-1.416-0.361-2.227c-0.105-0.82-0.219-1.709-0.341-2.661
					c-0.226-1.912-0.543-4.083-0.72-6.502c-0.105-1.208-0.215-2.473-0.33-3.791c-0.109-1.319-0.152-2.695-0.235-4.118
					c-0.191-2.846-0.209-5.892-0.266-9.098c0.004-6.411,0.28-13.462,1.011-20.827c0.776-7.363,1.933-14.325,3.228-20.605
					c0.705-3.128,1.34-6.108,2.103-8.856c0.369-1.377,0.69-2.716,1.064-3.985c0.379-1.267,0.743-2.483,1.091-3.646
					c0.663-2.332,1.413-4.395,2.022-6.221c0.312-0.908,0.603-1.755,0.872-2.537c0.293-0.767,0.561-1.471,0.804-2.107
					c0.479-1.235,0.857-2.208,1.129-2.909c0.125-0.307,0.226-0.555,0.306-0.751c0.072-0.168,0.112-0.253,0.121-0.249
					c0.008,0.003-0.016,0.094-0.071,0.269c-0.068,0.202-0.152,0.455-0.257,0.77c-0.25,0.709-0.597,1.693-1.036,2.941
					c-0.23,0.641-0.484,1.348-0.761,2.12c-0.256,0.785-0.533,1.636-0.831,2.548c-0.582,1.832-1.306,3.899-1.945,6.234
					c-0.337,1.163-0.689,2.38-1.056,3.648c-0.363,1.27-0.674,2.609-1.033,3.985c-0.743,2.747-1.361,5.724-2.052,8.847
					c-1.266,6.27-2.405,13.216-3.179,20.56c-0.729,7.346-1.019,14.377-1.049,20.773c0.044,3.198,0.046,6.238,0.218,9.078
					c0.073,1.42,0.106,2.795,0.205,4.111c0.103,1.316,0.201,2.579,0.296,3.786c0.153,2.416,0.444,4.586,0.642,6.499
					c0.107,0.953,0.206,1.842,0.298,2.663c0.115,0.812,0.22,1.557,0.316,2.231c0.178,1.312,0.318,2.345,0.42,3.09
					c0.039,0.33,0.071,0.595,0.096,0.806C618.746,299.733,618.751,299.827,618.743,299.828z"/>
			</g>
		</g>
		<g>
			<g>
				<path style="fill:#E0E0E0;" d="M624.862,298.182c-0.018,0-0.032-0.209-0.042-0.607c-0.005-0.455-0.012-1.032-0.02-1.743
					c-0.011-0.757-0.001-1.683,0.049-2.758c0.042-1.074,0.071-2.3,0.188-3.649c0.165-2.704,0.532-5.911,1.065-9.453
					c0.575-3.535,1.348-7.401,2.4-11.401c1.076-3.995,2.329-7.735,3.606-11.083c0.679-1.658,1.29-3.248,1.971-4.689
					c0.33-0.723,0.649-1.423,0.957-2.097c0.331-0.66,0.648-1.294,0.952-1.901c0.589-1.22,1.203-2.282,1.724-3.223
					c0.512-0.946,0.989-1.74,1.398-2.378c0.381-0.601,0.69-1.088,0.934-1.472c0.218-0.333,0.34-0.504,0.355-0.494
					c0.015,0.01-0.077,0.198-0.266,0.549c-0.221,0.396-0.502,0.9-0.848,1.52c-0.382,0.652-0.832,1.458-1.318,2.415
					c-0.495,0.951-1.085,2.02-1.65,3.247c-0.293,0.609-0.6,1.246-0.918,1.908c-0.297,0.675-0.606,1.376-0.925,2.101
					c-0.661,1.443-1.254,3.032-1.918,4.687c-1.246,3.342-2.479,7.068-3.55,11.045c-1.047,3.981-1.831,7.826-2.43,11.343
					c-0.556,3.523-0.96,6.714-1.172,9.405c-0.14,1.343-0.194,2.563-0.264,3.634c-0.078,1.07-0.117,1.993-0.138,2.749
					c-0.032,0.71-0.058,1.285-0.078,1.739C624.901,297.973,624.88,298.182,624.862,298.182z"/>
			</g>
		</g>
		<g>
			<g>
				<path style="fill:#E0E0E0;" d="M668.289,237.739c0.014,0.012-0.13,0.213-0.416,0.587c-0.323,0.41-0.745,0.947-1.271,1.617
					c-1.12,1.389-2.701,3.433-4.605,5.992c-1.912,2.553-4.097,5.662-6.428,9.175c-2.307,3.529-4.746,7.473-7.138,11.71
					c-2.374,4.249-4.473,8.385-6.287,12.192c-1.787,3.819-3.305,7.303-4.49,10.265c-1.194,2.958-2.117,5.371-2.72,7.05
					c-0.298,0.797-0.537,1.437-0.719,1.926c-0.17,0.439-0.268,0.666-0.285,0.661c-0.017-0.006,0.047-0.245,0.185-0.694
					c0.159-0.497,0.368-1.148,0.628-1.96c0.545-1.702,1.416-4.138,2.569-7.119c1.144-2.985,2.63-6.492,4.398-10.332
					c1.794-3.828,3.886-7.983,6.267-12.244c2.399-4.249,4.857-8.197,7.192-11.72c2.359-3.508,4.58-6.602,6.534-9.132
					c1.946-2.536,3.573-4.548,4.743-5.899c0.558-0.644,1.005-1.161,1.347-1.556C668.105,237.907,668.275,237.728,668.289,237.739z"
					/>
			</g>
		</g>
		<g>
			<g>
				<path style="fill:#E0E0E0;" d="M666.142,273.874c0.125,0.072-3.567,6.698-8.244,14.798c-4.679,8.103-8.571,14.611-8.696,14.539
					c-0.125-0.072,3.566-6.697,8.245-14.799C662.124,280.312,666.018,273.802,666.142,273.874z"/>
			</g>
		</g>
		<g>
			<g>
				<path style="fill:#E0E0E0;" d="M702.406,259.737c0.113,0.09-7.917,10.36-17.932,22.937
					c-10.018,12.581-18.229,22.704-18.341,22.614s7.915-10.358,17.934-22.939C694.081,269.772,702.293,259.647,702.406,259.737z"/>
			</g>
		</g>
		<g>
			<g>
				<path style="fill:#E0E0E0;" d="M616.076,304.461c-0.03,0.019-0.391-0.494-1.018-1.441c-0.633-0.943-1.498-2.34-2.519-4.096
					c-2.045-3.507-4.621-8.51-6.923-14.27c-2.294-5.766-3.866-11.169-4.796-15.121c-0.467-1.976-0.801-3.585-0.99-4.705
					c-0.196-1.118-0.288-1.739-0.252-1.746c0.035-0.007,0.194,0.601,0.451,1.705c0.25,1.105,0.638,2.698,1.149,4.656
					c1.018,3.918,2.639,9.278,4.922,15.018c2.292,5.734,4.803,10.739,6.76,14.282c0.977,1.773,1.791,3.196,2.37,4.17
					C615.803,303.891,616.106,304.442,616.076,304.461z"/>
			</g>
		</g>
	</g>
	<g>
		<g>
			<g>
				<path style="fill:#E0E0E0;" d="M86.962,296.374c0,0,0.809-5.712,1.059-15.024c0.021-1.165,0.043-2.384,0.066-3.654
					c0.018-1.271-0.035-2.592-0.05-3.961c-0.007-2.739-0.199-5.659-0.363-8.733c-0.446-6.141-1.208-12.875-2.444-19.874
					c-1.28-6.994-2.912-13.574-4.632-19.486c-0.917-2.939-1.754-5.744-2.702-8.314c-0.462-1.289-0.873-2.546-1.333-3.731
					c-0.464-1.182-0.909-2.318-1.335-3.402c-3.477-8.642-6.224-13.714-6.224-13.714c-0.007,0.004,0.024,0.088,0.093,0.25
					c0.08,0.184,0.183,0.419,0.312,0.714c0.296,0.652,0.712,1.564,1.24,2.726c0.273,0.593,0.576,1.249,0.906,1.965
					c0.31,0.73,0.645,1.521,1.005,2.369c0.707,1.706,1.572,3.623,2.371,5.807c0.416,1.086,0.852,2.222,1.305,3.406
					c0.45,1.186,0.852,2.443,1.305,3.732c0.931,2.57,1.752,5.373,2.656,8.309c1.695,5.906,3.309,12.471,4.587,19.448
					c1.232,6.983,2.005,13.698,2.473,19.823c0.175,3.067,0.381,5.979,0.404,8.713c0.024,1.366,0.085,2.685,0.076,3.953
					c-0.013,1.268-0.025,2.485-0.037,3.647c0.012,2.325-0.131,4.424-0.2,6.269c-0.042,0.921-0.081,1.779-0.117,2.571
					c-0.06,0.786-0.115,1.506-0.165,2.157c-0.091,1.273-0.162,2.273-0.213,2.988c-0.018,0.322-0.033,0.578-0.044,0.778
					C86.954,296.283,86.954,296.373,86.962,296.374z"/>
			</g>
		</g>
		<g>
			<path style="fill:#E0E0E0;" d="M68.297,203.579c1.933,6.49,4.385,12.795,7.46,18.713c0.833,1.603,2.09,3.397,3.737,3.151
				c1.14-0.171,1.992-1.356,2.239-2.607c0.247-1.251,0.009-2.555-0.288-3.792c-1.195-4.98-3.328-9.607-5.445-14.19
				c-0.744-1.611-1.542-3.29-2.89-4.303c-1.348-1.013-3.422-1.074-4.415,0.36C68.694,200.91,67.801,201.913,68.297,203.579z"/>
		</g>
		<g>
			<path style="fill:#EBEBEB;" d="M76.467,303.605c-3.38-7.114-8.016-20.59-6.763-27.357c8.02,3.007,15.789,13.784,22.196,21.248
				c-7.508-17.102-15.016-34.203-22.524-51.305c15.26,9.529,24.103,26.357,32.245,42.399c-4.3-12.62-6.897-25.82-7.698-39.128
				c8.474,6.815,14.455,16.663,16.596,27.324c-2.439-22.654-4.877-45.308-7.316-67.963c10.321,9.586,15.583,23.643,17.177,37.639
				c1.594,13.996-0.135,28.133-1.861,42.113c3.902-7.288,7.804-14.575,11.706-21.863c0.889,14.349-1.807,27.486-9.174,39.832
				l-51.847,0.029c-13.073-14.132-22.458-26.836-30.941-44.117C56.02,269.469,66.874,287.097,76.467,303.605z"/>
		</g>
		<g>
			<g>
				<path style="fill:#E0E0E0;" d="M112.775,300.707c0.008,0.001,0.028-0.078,0.059-0.234c0.034-0.182,0.076-0.41,0.128-0.694
					c0.108-0.645,0.259-1.54,0.449-2.676c0.095-0.585,0.2-1.232,0.314-1.937c0.091-0.713,0.19-1.486,0.296-2.314
					c0.197-1.663,0.472-3.551,0.626-5.654c0.091-1.051,0.187-2.151,0.287-3.297c0.095-1.147,0.133-2.344,0.205-3.581
					c0.166-2.475,0.182-5.124,0.232-7.912c-0.003-5.575-0.244-11.707-0.879-18.112c-0.675-6.403-1.681-12.458-2.807-17.919
					c-0.613-2.72-1.166-5.312-1.829-7.702c-0.321-1.197-0.6-2.362-0.926-3.466c-0.33-1.102-0.646-2.16-0.948-3.17
					c-0.577-2.028-1.229-3.822-1.758-5.41c-0.272-0.79-0.525-1.526-0.759-2.206c-0.255-0.667-0.488-1.279-0.7-1.833
					c-0.417-1.074-0.745-1.92-0.982-2.53c-0.109-0.267-0.196-0.482-0.266-0.654c-0.062-0.146-0.098-0.22-0.105-0.217
					c-0.007,0.003,0.014,0.082,0.062,0.234c0.059,0.175,0.132,0.396,0.224,0.669c0.217,0.617,0.519,1.472,0.901,2.557
					c0.2,0.557,0.421,1.173,0.661,1.844c0.223,0.683,0.464,1.423,0.722,2.215c0.506,1.594,1.136,3.391,1.692,5.421
					c0.293,1.011,0.599,2.07,0.919,3.172c0.316,1.104,0.586,2.269,0.899,3.465c0.646,2.389,1.184,4.978,1.784,7.694
					c1.101,5.453,2.092,11.493,2.765,17.88c0.634,6.388,0.886,12.503,0.912,18.065c-0.038,2.781-0.04,5.425-0.189,7.895
					c-0.064,1.235-0.092,2.43-0.178,3.575c-0.089,1.144-0.175,2.243-0.257,3.293c-0.133,2.101-0.386,3.989-0.559,5.652
					c-0.093,0.829-0.179,1.602-0.259,2.316c-0.1,0.706-0.192,1.354-0.274,1.94c-0.155,1.141-0.277,2.039-0.365,2.688
					c-0.034,0.287-0.062,0.517-0.084,0.701C112.772,300.624,112.767,300.706,112.775,300.707z"/>
			</g>
		</g>
		<g>
			<g>
				<path style="fill:#E0E0E0;" d="M107.453,299.275c0.016,0,0.028-0.182,0.037-0.528c0.005-0.395,0.01-0.897,0.017-1.516
					c0.009-0.659,0.001-1.464-0.043-2.398c-0.037-0.934-0.062-2-0.164-3.173c-0.144-2.351-0.463-5.14-0.926-8.221
					c-0.5-3.074-1.172-6.436-2.087-9.915c-0.936-3.474-2.025-6.727-3.135-9.638c-0.591-1.442-1.122-2.824-1.714-4.078
					c-0.287-0.629-0.565-1.238-0.832-1.824c-0.287-0.574-0.564-1.125-0.828-1.654c-0.512-1.061-1.046-1.984-1.499-2.802
					c-0.445-0.823-0.86-1.513-1.216-2.068c-0.331-0.522-0.6-0.946-0.812-1.28c-0.19-0.29-0.296-0.438-0.309-0.43
					c-0.013,0.008,0.067,0.173,0.231,0.477c0.192,0.345,0.437,0.783,0.737,1.322c0.332,0.567,0.723,1.268,1.146,2.1
					c0.431,0.827,0.943,1.757,1.435,2.823c0.255,0.53,0.521,1.084,0.799,1.66c0.259,0.587,0.527,1.197,0.805,1.827
					c0.575,1.255,1.091,2.637,1.668,4.076c1.084,2.907,2.156,6.147,3.088,9.605c0.911,3.462,1.593,6.806,2.113,9.865
					c0.484,3.064,0.835,5.839,1.019,8.179c0.122,1.168,0.169,2.229,0.23,3.16c0.068,0.931,0.102,1.734,0.12,2.39
					c0.028,0.617,0.05,1.118,0.068,1.513C107.419,299.094,107.438,299.275,107.453,299.275z"/>
			</g>
		</g>
		<g>
			<g>
				<path style="fill:#E0E0E0;" d="M69.687,246.712c-0.012,0.01,0.113,0.186,0.362,0.51c0.28,0.357,0.647,0.824,1.105,1.406
					c0.974,1.208,2.349,2.985,4.005,5.211c1.663,2.221,3.563,4.924,5.59,7.979c2.006,3.069,4.127,6.499,6.208,10.184
					c2.065,3.695,3.89,7.292,5.467,10.603c1.554,3.322,2.874,6.351,3.905,8.927c1.038,2.572,1.841,4.671,2.365,6.131
					c0.259,0.694,0.467,1.25,0.626,1.675c0.148,0.381,0.233,0.579,0.248,0.574c0.015-0.005-0.041-0.213-0.161-0.604
					c-0.139-0.432-0.32-0.998-0.546-1.704c-0.474-1.48-1.232-3.599-2.234-6.191c-0.995-2.596-2.287-5.646-3.825-8.986
					c-1.56-3.329-3.38-6.942-5.45-10.648c-2.086-3.695-4.224-7.128-6.255-10.193c-2.052-3.051-3.983-5.741-5.682-7.942
					c-1.692-2.205-3.107-3.955-4.125-5.13c-0.485-0.56-0.874-1.01-1.171-1.353C69.847,246.857,69.699,246.702,69.687,246.712z"/>
			</g>
		</g>
		<g>
			<g>
				<path style="fill:#E0E0E0;" d="M71.554,278.137c-0.108,0.063,3.102,5.825,7.169,12.869c4.069,7.047,7.454,12.706,7.562,12.644
					c0.108-0.063-3.101-5.824-7.17-12.87C75.048,283.735,71.662,278.074,71.554,278.137z"/>
			</g>
		</g>
		<g>
			<g>
				<path style="fill:#E0E0E0;" d="M40.017,265.841c-0.098,0.078,6.885,9.01,15.595,19.947c8.712,10.941,15.852,19.745,15.95,19.667
					c0.098-0.078-6.883-9.008-15.596-19.949C47.256,274.569,40.115,265.764,40.017,265.841z"/>
			</g>
		</g>
		<g>
			<g>
				<path style="fill:#E0E0E0;" d="M115.094,304.736c0.026,0.017,0.34-0.43,0.886-1.253c0.551-0.82,1.303-2.035,2.19-3.562
					c1.779-3.05,4.019-7.401,6.021-12.41c1.995-5.014,3.363-9.713,4.171-13.15c0.406-1.718,0.697-3.118,0.861-4.091
					c0.17-0.973,0.25-1.512,0.219-1.518c-0.031-0.006-0.169,0.523-0.392,1.482c-0.217,0.961-0.554,2.346-0.999,4.049
					c-0.885,3.407-2.295,8.069-4.281,13.06c-1.993,4.987-4.177,9.339-5.879,12.421c-0.849,1.542-1.558,2.779-2.061,3.626
					C115.331,304.241,115.068,304.72,115.094,304.736z"/>
			</g>
		</g>
	</g>
	<path style="fill:#EBEBEB;" d="M330.947,460.932c0,3.46-17.699,6.265-39.531,6.265c-21.832,0-39.531-2.805-39.531-6.265
		c0-3.46,17.699-6.265,39.531-6.265C313.249,454.667,330.947,457.472,330.947,460.932z"/>
	<path style="fill:#EBEBEB;" d="M484.357,465.131c0,2.189-11.195,3.963-25.004,3.963c-13.81,0-25.004-1.774-25.004-3.963
		s11.195-3.963,25.004-3.963C473.162,461.169,484.357,462.943,484.357,465.131z"/>
	<ellipse style="fill:#EBEBEB;" cx="589.549" cy="467.216" rx="25.004" ry="3.963"/>
	<ellipse style="fill:#EBEBEB;" cx="193.824" cy="441.442" rx="11.919" ry="2.057"/>
	<ellipse style="fill:#EBEBEB;" cx="173.651" cy="448.952" rx="7.256" ry="2.032"/>
	<path style="fill:#EBEBEB;" d="M400.233,443.238c0,1.136-5.336,2.057-11.919,2.057c-6.583,0-11.919-0.921-11.919-2.057
		s5.336-2.057,11.919-2.057C394.896,441.181,400.233,442.102,400.233,443.238z"/>
	<path style="fill:#EBEBEB;" d="M674.108,451.009c0,1.136-5.336,2.057-11.919,2.057c-6.583,0-11.919-0.921-11.919-2.057
		c0-1.136,5.336-2.057,11.919-2.057C668.772,448.952,674.108,449.873,674.108,451.009z"/>
	<path style="fill:#EBEBEB;" d="M375.396,450.748c0,1.122-3.249,2.032-7.256,2.032c-4.007,0-7.256-0.91-7.256-2.032
		s3.249-2.032,7.256-2.032C372.147,448.716,375.396,449.626,375.396,450.748z"/>
	<path style="fill:#EBEBEB;" d="M162.208,461.477c0,1.675-8.57,3.034-19.141,3.034s-19.141-1.358-19.141-3.034
		c0-1.675,8.57-3.033,19.141-3.033S162.208,459.802,162.208,461.477z"/>
</g>
<g id="Background_Simple" style="display:none;">
	<path style="display:inline;fill:#F5F5F5;" d="M66.279,133.951l1.542-3.56c12.996-30.009,41.087-50.887,73.404-53.269
		c4.154-0.306,8.332-0.313,12.497-0.004c29.988,2.227,58.365,20.768,72.753,47.534c8.462,15.742,12.817,34.607,26.354,46.164
		c17.618,15.04,43.6,12.013,66.28,8.169c22.68-3.844,48.688-6.806,66.241,8.312c10.993,9.468,16.125,24.377,17.344,38.915
		c3.227,38.489-18.697,76.318-50.22,97.959c-31.524,21.641-71.182,28.648-109.268,26.277
		c-53.354-3.322-106.679-25.267-142.462-65.573C64.96,244.57,49.128,185.128,66.279,133.951z"/>
	
		<ellipse transform="matrix(0.7071 -0.7071 0.7071 0.7071 79.5223 477.7451)" style="display:inline;fill:#F5F5F5;" cx="616.451" cy="142.881" rx="61.002" ry="61.002"/>
</g>
<g id="Floor">
	<g>
		<path style="fill:#263238;" d="M706.161,410.627c0,0.144-150.836,0.26-336.859,0.26c-186.087,0-336.891-0.117-336.891-0.26
			s150.804-0.26,336.891-0.26C555.324,410.366,706.161,410.483,706.161,410.627z"/>
	</g>
</g>
<g id="Water">
	<g>
		<path style="fill:#263238;" d="M721.78,305.465c0,0.144-156.551,0.26-349.621,0.26c-193.137,0-349.655-0.117-349.655-0.26
			s156.517-0.26,349.655-0.26C565.23,305.204,721.78,305.321,721.78,305.465z"/>
	</g>
</g>
<g id="Lines">
	<g>
		<path style="fill:#263238;" d="M403.008,316.152c0,0.144-21.488,0.26-47.988,0.26c-26.509,0-47.993-0.117-47.993-0.26
			c0-0.144,21.483-0.26,47.993-0.26C381.52,315.892,403.008,316.008,403.008,316.152z"/>
	</g>
	<g>
		<path style="fill:#263238;" d="M448.22,326.818c0,0.144-21.488,0.26-47.988,0.26c-26.51,0-47.993-0.116-47.993-0.26
			c0-0.144,21.483-0.26,47.993-0.26C426.733,326.557,448.22,326.674,448.22,326.818z"/>
	</g>
	<g>
		<path style="fill:#263238;" d="M218.466,347.904c0,0.144-14.798,0.26-33.048,0.26c-18.256,0-33.051-0.117-33.051-0.26
			s14.795-0.26,33.051-0.26C203.669,347.644,218.466,347.76,218.466,347.904z"/>
	</g>
	<g>
		<path style="fill:#263238;" d="M609.336,394.606c0,0.144-61.115,0.26-136.486,0.26c-75.398,0-136.499-0.117-136.499-0.26
			s61.102-0.26,136.499-0.26C548.221,394.346,609.336,394.462,609.336,394.606z"/>
	</g>
</g>
<g id="Rock">
	<g>
		<polygon style="fill:#FAFAFA;" points="251.868,459.337 243.524,448.246 245.54,435.557 279.262,421.19 306.081,427.169 
			317.206,436.829 306.746,461.071 282.47,462.613 		"/>
		<polygon style="fill:#EBEBEB;" points="243.524,448.246 278.969,455.813 281.806,462.613 251.868,459.337 		"/>
		<path style="fill:#F5F5F5;" d="M279.025,455.813c0,0,17.519-9.109,23.993-8.445l0.788,13.883l-21.944,1.362L279.025,455.813z"/>
		<polygon style="fill:#E0E0E0;" points="303.751,461.251 302.962,447.368 317.206,436.829 306.746,461.071 		"/>
		<path style="fill:#263238;" d="M251.868,459.337c0,0,0.191,0,0.563,0l1.599,0.146l6.114,0.597l22.35,2.252l0,0l24.275-1.599
			l-0.225,0.158c3.198-7.454,6.756-15.651,10.426-24.241l0.079,0.326l-9.098-7.882l-2.038-1.768l0.135,0.068l-26.808-6.001h0.169
			l-33.778,14.311l0.124-0.158c-0.796,4.879-1.486,9.105-2.072,12.678V448.1l6.069,8.298l1.588,2.173l0.405,0.563
			C251.789,459.199,251.83,459.267,251.868,459.337c0,0,0,0-0.146-0.169l-0.428-0.529l-1.633-2.06l-6.26-8.186v-0.056v-0.068
			c0.563-3.573,1.22-7.803,1.97-12.689v-0.113h0.101l33.699-14.434h0.079h0.09L306.149,427h0.079v0.056l2.027,1.757l9.098,7.882
			l0.158,0.146l-0.079,0.191l-10.482,24.23l-0.068,0.146h-0.158l-24.286,1.497l0,0l-22.406-2.5l-6.08-0.709l-1.565-0.191
			C252.208,459.467,252.034,459.411,251.868,459.337z"/>
	</g>
</g>
<g id="Birds">
	<g>
		<g>
			<g>
				<g>
					<g>
						<g>
							<path style="fill:#263238;" d="M102.546,95.964c-0.014,0.039-0.682-0.236-1.945-0.516c-1.256-0.276-3.141-0.52-5.427-0.209
								c-2.27,0.304-4.959,1.216-7.313,3.154c-2.349,1.902-4.359,4.781-5.162,8.197c-0.008,0.031-0.016,0.062-0.023,0.091
								l-0.15,0.586l-0.225-0.556c-1.314-3.245-3.649-5.824-6.181-7.463c-2.539-1.669-5.27-2.361-7.548-2.517
								c-2.293-0.16-4.153,0.169-5.393,0.494c-1.245,0.328-1.903,0.618-1.917,0.58c-0.005-0.013,0.156-0.09,0.469-0.226
								c0.312-0.138,0.784-0.318,1.407-0.502c1.239-0.373,3.117-0.751,5.452-0.624c2.318,0.122,5.118,0.799,7.728,2.49
								c2.601,1.66,5.001,4.291,6.35,7.621l-0.375,0.03c0.007-0.029,0.016-0.061,0.024-0.093c0.826-3.512,2.898-6.456,5.318-8.39
								c2.426-1.971,5.192-2.876,7.506-3.148c2.333-0.28,4.241,0.011,5.499,0.336c0.633,0.159,1.113,0.324,1.431,0.453
								C102.387,95.878,102.551,95.951,102.546,95.964z"/>
						</g>
					</g>
				</g>
			</g>
		</g>
		<g>
			<g>
				<g>
					<g>
						<g>
							<path style="fill:#263238;" d="M156.811,69.18c-0.012,0.033-0.384-0.107-1.077-0.25c-0.69-0.141-1.722-0.264-2.969-0.086
								c-1.238,0.174-2.701,0.678-3.979,1.736c-1.276,1.039-2.368,2.608-2.804,4.465l-0.013,0.049l-0.151,0.585l-0.225-0.555
								c-0.715-1.766-1.984-3.172-3.362-4.069c-1.381-0.913-2.867-1.297-4.111-1.39c-1.252-0.095-2.271,0.075-2.953,0.242
								c-0.685,0.17-1.051,0.318-1.064,0.286c-0.005-0.013,0.081-0.061,0.252-0.141c0.17-0.081,0.428-0.186,0.771-0.292
								c0.681-0.216,1.718-0.435,3.012-0.372c1.284,0.06,2.84,0.428,4.291,1.363c1.446,0.917,2.781,2.376,3.53,4.227l-0.375,0.03
								l0.013-0.052c0.459-1.953,1.613-3.587,2.96-4.658c1.351-1.091,2.889-1.587,4.172-1.73c1.294-0.147,2.348,0.024,3.04,0.213
								c0.348,0.093,0.612,0.189,0.785,0.266C156.728,69.122,156.816,69.167,156.811,69.18z"/>
						</g>
					</g>
				</g>
			</g>
		</g>
		<g>
			<g>
				<g>
					<g>
						<g>
							<path style="fill:#263238;" d="M121.332,56.993c0.024,0.025-0.371,0.426-1.043,1.183c-0.673,0.756-1.59,1.905-2.547,3.438
								c-1.924,3.026-3.848,7.849-3.782,13.382c0,0.058-0.001,0.116-0.001,0.169l-0.392,0.032c-0.409-2.7-1.31-5.177-2.447-7.248
								c-1.134-2.076-2.467-3.763-3.725-5.033c-1.257-1.273-2.404-2.171-3.23-2.738c-0.824-0.57-1.302-0.857-1.284-0.888
								c0.007-0.012,0.132,0.049,0.365,0.175c0.229,0.133,0.585,0.303,1.003,0.586c0.858,0.532,2.043,1.405,3.341,2.669
								c1.3,1.26,2.676,2.954,3.846,5.054c1.173,2.094,2.102,4.614,2.519,7.366l-0.392,0.032c0-0.054,0.001-0.113,0.001-0.172
								c-0.067-5.63,1.935-10.516,3.941-13.536c0.998-1.531,1.957-2.663,2.669-3.393c0.343-0.377,0.648-0.632,0.841-0.818
								C121.214,57.073,121.322,56.983,121.332,56.993z"/>
						</g>
					</g>
				</g>
			</g>
		</g>
	</g>
</g>
<g id="Plant_2">
	<g>
		<g>
			<g>
				<path style="fill:#263238;" d="M377.693,293.854c-0.009-0.001-0.009-0.105,0-0.307c0.013-0.23,0.03-0.525,0.051-0.895
					c0.059-0.821,0.141-1.972,0.245-3.436c0.057-0.749,0.12-1.577,0.19-2.481c0.041-0.911,0.086-1.898,0.134-2.956
					c0.079-2.122,0.243-4.535,0.23-7.209c0.014-1.337,0.028-2.736,0.043-4.194c0.01-1.458-0.06-2.975-0.088-4.545
					c-0.026-3.143-0.263-6.492-0.464-10.019c-0.538-7.043-1.427-14.765-2.844-22.794c-1.469-8.023-3.326-15.573-5.274-22.363
					c-1.039-3.376-1.984-6.599-3.054-9.554c-0.521-1.482-0.984-2.928-1.501-4.292c-0.522-1.361-1.022-2.668-1.501-3.917
					c-0.919-2.511-1.913-4.716-2.726-6.677c-0.414-0.976-0.799-1.885-1.156-2.724c-0.379-0.823-0.727-1.577-1.042-2.259
					c-0.608-1.335-1.085-2.385-1.426-3.134c-0.148-0.339-0.267-0.61-0.359-0.821c-0.078-0.186-0.115-0.284-0.106-0.288
					c0,0,3.159,5.832,7.157,15.769c0.489,1.247,1.001,2.552,1.535,3.912c0.528,1.362,1.001,2.808,1.532,4.29
					c1.09,2.955,2.052,6.18,3.107,9.56c1.978,6.798,3.854,14.364,5.326,22.406c1.421,8.049,2.297,15.792,2.81,22.853
					c0.189,3.535,0.41,6.893,0.417,10.043c0.018,1.574,0.079,3.094,0.058,4.555c-0.026,1.46-0.052,2.862-0.076,4.202
					C378.624,287.286,377.693,293.854,377.693,293.854z"/>
			</g>
		</g>
		<g>
			<g>
				<path style="fill:#263238;" d="M324.579,160.246c0.007-0.006,0.092,0.083,0.252,0.262c0.175,0.201,0.406,0.466,0.7,0.802
					c0.608,0.711,1.52,1.748,2.613,3.149c2.223,2.771,5.316,6.895,8.696,12.283c3.394,5.376,7.053,12.027,10.474,19.709
					c3.448,7.669,6.605,16.382,9.257,25.713c5.299,18.692,7.647,36.173,9.003,48.79c0.339,3.159,0.606,6.017,0.952,8.512
					c0.34,2.495,0.747,4.627,1.18,6.345c0.428,1.719,0.859,3.028,1.174,3.907c0.155,0.417,0.277,0.747,0.37,0.996
					c0.082,0.225,0.12,0.342,0.112,0.346c0,0-0.926-1.755-1.852-5.198c-0.465-1.718-0.903-3.855-1.272-6.355
					c-0.375-2.499-0.668-5.36-1.029-8.513c-1.448-12.597-3.851-30.041-9.138-48.688c-2.646-9.309-5.78-18.002-9.195-25.661
					c-3.388-7.671-7.003-14.322-10.348-19.709c-3.332-5.399-6.372-9.547-8.543-12.352c-1.068-1.418-1.953-2.475-2.534-3.207
					c-0.277-0.35-0.495-0.626-0.66-0.835C324.643,160.352,324.572,160.252,324.579,160.246z"/>
			</g>
		</g>
		<g>
			<path style="fill:#FF725E;" d="M357.217,185.831c2.223,7.463,5.042,14.713,8.578,21.518c0.958,1.843,2.403,3.906,4.297,3.623
				c1.311-0.196,2.29-1.559,2.575-2.998c0.284-1.439,0.01-2.938-0.332-4.361c-1.374-5.726-3.827-11.047-6.262-16.317
				c-0.856-1.852-1.773-3.784-3.323-4.948c-1.55-1.165-3.934-1.235-5.077,0.414C357.674,182.762,356.647,183.916,357.217,185.831z"
				/>
		</g>
		<g>
			<path style="fill:#FF725E;" d="M326.083,167.503c3.525,6.943,7.598,13.57,12.297,19.631c1.272,1.641,3.065,3.412,4.878,2.794
				c1.254-0.428,1.974-1.944,1.995-3.411c0.022-1.467-0.517-2.892-1.108-4.231c-2.379-5.387-5.746-10.182-9.086-14.93
				c-1.174-1.669-2.423-3.404-4.157-4.272c-1.734-0.868-4.092-0.509-4.92,1.318C325.983,164.402,325.179,165.722,326.083,167.503z"
				/>
		</g>
		<g>
			<path style="fill:#455A64;" d="M352.211,302.052c-3.886-8.181-9.218-23.677-7.777-31.457c9.222,3.458,18.156,15.85,25.523,24.432
				c-8.633-19.665-17.267-39.33-25.9-58.995c17.547,10.957,27.715,30.307,37.078,48.754c-4.945-14.512-7.931-29.69-8.852-44.993
				c9.744,7.836,16.622,19.161,19.083,31.42c-2.804-26.05-5.608-52.1-8.413-78.149c11.868,11.023,17.919,27.187,19.752,43.28
				c1.833,16.094-0.155,32.35-2.141,48.425c4.487-8.38,8.973-16.76,13.46-25.14c1.023,16.5-2.078,31.606-10.549,45.802
				l-59.618,0.033c-15.032-16.25-25.824-30.858-35.579-50.729C328.699,262.799,341.18,283.069,352.211,302.052z"/>
		</g>
		<g>
			<g>
				<path style="fill:#263238;" d="M393.961,298.72c-0.009-0.001-0.004-0.096,0.015-0.278c0.025-0.211,0.057-0.477,0.096-0.806
					c0.101-0.745,0.242-1.779,0.42-3.09c0.095-0.674,0.201-1.418,0.316-2.231c0.092-0.821,0.191-1.71,0.298-2.663
					c0.198-1.912,0.489-4.083,0.642-6.499c0.094-1.207,0.193-2.47,0.296-3.786c0.099-1.317,0.132-2.691,0.205-4.111
					c0.172-2.84,0.174-5.881,0.218-9.078c-0.03-6.395-0.32-13.427-1.049-20.773c-0.774-7.344-1.914-14.29-3.18-20.56
					c-0.691-3.123-1.309-6.1-2.052-8.847c-0.359-1.376-0.67-2.715-1.033-3.985c-0.367-1.268-0.719-2.485-1.056-3.648
					c-0.639-2.335-1.363-4.401-1.945-6.234c-0.297-0.912-0.574-1.762-0.831-2.548c-0.277-0.772-0.531-1.48-0.761-2.12
					c-0.44-1.248-0.786-2.232-1.036-2.941c-0.105-0.315-0.19-0.568-0.257-0.77c-0.055-0.174-0.079-0.266-0.071-0.269
					c0.008-0.003,0.049,0.081,0.121,0.249c0.08,0.197,0.181,0.444,0.306,0.751c0.272,0.701,0.65,1.674,1.129,2.909
					c0.243,0.637,0.511,1.34,0.804,2.107c0.269,0.782,0.56,1.629,0.872,2.537c0.609,1.826,1.359,3.889,2.022,6.221
					c0.348,1.162,0.712,2.379,1.091,3.646c0.374,1.269,0.695,2.609,1.064,3.985c0.763,2.748,1.398,5.729,2.103,8.856
					c1.295,6.28,2.452,13.242,3.228,20.605c0.731,7.365,1.007,14.416,1.011,20.827c-0.057,3.205-0.076,6.252-0.266,9.098
					c-0.083,1.423-0.126,2.799-0.235,4.118c-0.115,1.317-0.225,2.582-0.33,3.791c-0.177,2.418-0.494,4.59-0.72,6.502
					c-0.122,0.952-0.236,1.841-0.341,2.661c-0.131,0.811-0.252,1.554-0.361,2.227c-0.219,1.306-0.392,2.336-0.516,3.078
					c-0.06,0.326-0.109,0.589-0.147,0.798C393.992,298.63,393.969,298.721,393.961,298.72z"/>
			</g>
		</g>
		<g>
			<g>
				<path style="fill:#263238;" d="M387.841,297.073c-0.018,0-0.039-0.209-0.063-0.607c-0.02-0.454-0.046-1.03-0.078-1.739
					c-0.02-0.755-0.059-1.678-0.138-2.749c-0.07-1.07-0.124-2.291-0.264-3.634c-0.211-2.691-0.615-5.882-1.171-9.405
					c-0.598-3.517-1.382-7.362-2.43-11.343c-1.071-3.976-2.304-7.703-3.55-11.045c-0.664-1.655-1.257-3.244-1.918-4.687
					c-0.319-0.725-0.628-1.426-0.925-2.101c-0.319-0.662-0.625-1.299-0.918-1.908c-0.565-1.226-1.154-2.296-1.65-3.247
					c-0.486-0.957-0.936-1.763-1.318-2.415c-0.346-0.62-0.627-1.123-0.848-1.52c-0.189-0.351-0.281-0.539-0.266-0.549
					c0.015-0.01,0.137,0.161,0.355,0.494c0.243,0.384,0.553,0.871,0.933,1.472c0.41,0.638,0.886,1.432,1.398,2.378
					c0.521,0.941,1.136,2.002,1.724,3.223c0.304,0.607,0.622,1.242,0.952,1.901c0.307,0.674,0.626,1.374,0.957,2.097
					c0.681,1.441,1.292,3.031,1.971,4.689c1.277,3.348,2.529,7.088,3.606,11.083c1.052,4,1.826,7.865,2.4,11.401
					c0.533,3.542,0.9,6.749,1.065,9.453c0.117,1.349,0.146,2.575,0.188,3.649c0.051,1.074,0.06,2.001,0.049,2.758
					c-0.008,0.711-0.014,1.288-0.02,1.743C387.874,296.864,387.859,297.073,387.841,297.073z"/>
			</g>
		</g>
		<g>
			<g>
				<path style="fill:#263238;" d="M344.414,236.631c0.014-0.012,0.184,0.167,0.496,0.519c0.342,0.395,0.789,0.912,1.347,1.556
					c1.17,1.351,2.797,3.363,4.743,5.899c1.954,2.53,4.175,5.624,6.534,9.132c2.335,3.524,4.794,7.471,7.192,11.72
					c2.381,4.261,4.473,8.416,6.267,12.244c1.768,3.841,3.254,7.347,4.398,10.332c1.153,2.981,2.024,5.417,2.569,7.119
					c0.26,0.811,0.468,1.462,0.628,1.96c0.138,0.45,0.202,0.688,0.185,0.694c-0.017,0.006-0.115-0.222-0.285-0.661
					c-0.183-0.489-0.421-1.129-0.719-1.926c-0.603-1.68-1.526-4.093-2.72-7.05c-1.186-2.962-2.703-6.445-4.49-10.265
					c-1.814-3.807-3.912-7.943-6.287-12.192c-2.392-4.237-4.831-8.181-7.138-11.71c-2.331-3.513-4.516-6.622-6.428-9.175
					c-1.904-2.559-3.485-4.603-4.605-5.992c-0.526-0.669-0.948-1.207-1.271-1.617C344.544,236.844,344.4,236.643,344.414,236.631z"
					/>
			</g>
		</g>
		<g>
			<g>
				<path style="fill:#263238;" d="M346.561,272.766c0.125-0.072,4.018,6.438,8.695,14.537c4.679,8.103,8.369,14.727,8.245,14.799
					c-0.124,0.072-4.017-6.436-8.696-14.539C350.128,279.464,346.436,272.838,346.561,272.766z"/>
			</g>
		</g>
		<g>
			<g>
				<path style="fill:#263238;" d="M310.297,258.628c0.112-0.09,8.324,10.035,18.339,22.612
					c10.018,12.581,18.046,22.849,17.934,22.939c-0.112,0.09-8.323-10.033-18.341-22.614
					C318.214,268.988,310.185,258.718,310.297,258.628z"/>
			</g>
		</g>
		<g>
			<g>
				<path style="fill:#263238;" d="M396.628,303.353c-0.03-0.019,0.273-0.57,0.846-1.548c0.579-0.974,1.394-2.397,2.37-4.17
					c1.957-3.543,4.468-8.548,6.76-14.282c2.283-5.74,3.904-11.1,4.922-15.018c0.511-1.958,0.899-3.552,1.149-4.656
					c0.257-1.104,0.415-1.711,0.451-1.705c0.035,0.007-0.056,0.628-0.252,1.746c-0.189,1.119-0.523,2.729-0.99,4.705
					c-0.929,3.952-2.502,9.356-4.796,15.121c-2.302,5.76-4.878,10.763-6.923,14.27c-1.021,1.755-1.886,3.153-2.519,4.096
					C397.018,302.859,396.658,303.372,396.628,303.353z"/>
			</g>
		</g>
	</g>
</g>
<g id="Plant_1">
	<g>
		<g>
			<path style="fill:#263238;" d="M181.917,383.924c0,0.144-24.58,0.26-54.894,0.26c-30.325,0-54.899-0.117-54.899-0.26
				s24.575-0.26,54.899-0.26C157.337,383.663,181.917,383.78,181.917,383.924z"/>
		</g>
		<g>
			<path style="fill:#263238;" d="M116.598,391.667c0,0.144-9.957,0.26-22.236,0.26c-12.284,0-22.238-0.117-22.238-0.26
				c0-0.144,9.955-0.26,22.238-0.26C106.641,391.407,116.598,391.523,116.598,391.667z"/>
		</g>
		<g>
			<g>
				<g>
					<path style="fill:#263238;" d="M82.268,334.155c0.008-0.004,0.063,0.098,0.161,0.301c0.107,0.229,0.247,0.528,0.424,0.905
						c0.376,0.831,0.907,2.004,1.585,3.501c1.355,3.05,3.279,7.48,5.578,12.987c4.62,11.005,10.729,26.319,17.224,43.33
						c6.479,17.023,12.122,32.517,16.047,43.788c1.971,5.632,3.514,10.208,4.558,13.378c0.505,1.564,0.901,2.789,1.181,3.657
						c0.123,0.398,0.22,0.714,0.295,0.955c0.064,0.216,0.092,0.328,0.083,0.331s-0.054-0.104-0.134-0.314
						c-0.087-0.237-0.2-0.547-0.344-0.939c-0.302-0.86-0.729-2.075-1.273-3.625c-1.124-3.176-2.731-7.719-4.713-13.32
						c-4.013-11.236-9.708-26.706-16.186-43.725c-6.494-17.006-12.547-32.338-17.078-43.374c-2.255-5.523-4.126-9.973-5.424-13.047
						c-0.639-1.513-1.14-2.7-1.495-3.54c-0.157-0.386-0.282-0.692-0.377-0.926C82.298,334.268,82.26,334.159,82.268,334.155z"/>
				</g>
				<path style="fill:#FF725E;" d="M96.169,366.448l-1.142,0.469c-2.125,0.872-4.555-0.144-5.426-2.269l-8.409-20.497
					c-0.872-2.125,0.144-4.555,2.269-5.426l1.142-0.469c2.125-0.872,4.554,0.144,5.426,2.269l8.409,20.497
					C99.31,363.147,98.294,365.577,96.169,366.448z"/>
			</g>
			<g>
				<g>
					<path style="fill:#263238;" d="M124.637,310.56c0.009-0.001,0.031,0.126,0.066,0.374c0.036,0.274,0.083,0.639,0.143,1.104
						c0.118,1.002,0.286,2.428,0.501,4.251c0.383,3.697,0.85,9.056,1.268,15.689c0.869,13.264,1.481,31.616,1.907,51.885
						c0.399,20.278,0.563,38.635,0.699,51.921c0.069,6.621,0.124,11.989,0.163,15.733c0.017,1.834,0.031,3.27,0.04,4.278
						c-0.001,0.468-0.002,0.836-0.003,1.113c-0.004,0.251-0.01,0.379-0.019,0.379c-0.009,0-0.02-0.128-0.035-0.378
						c-0.012-0.276-0.028-0.644-0.049-1.112c-0.033-1.008-0.079-2.443-0.138-4.276c-0.078-3.745-0.19-9.112-0.329-15.732
						c-0.218-13.31-0.519-31.651-0.851-51.915c-0.426-20.266-0.98-38.612-1.754-51.874c-0.37-6.632-0.781-11.991-1.102-15.691
						c-0.173-1.826-0.309-3.255-0.404-4.258c-0.039-0.467-0.069-0.834-0.092-1.109C124.633,310.69,124.628,310.562,124.637,310.56z"
						/>
				</g>
				<path style="fill:#FF725E;" d="M128.501,345.506l-1.229,0.115c-2.287,0.213-4.314-1.468-4.527-3.755l-2.057-22.059
					c-0.213-2.287,1.468-4.314,3.755-4.527l1.229-0.115c2.287-0.213,4.314,1.468,4.527,3.755l2.057,22.059
					C132.469,343.266,130.788,345.293,128.501,345.506z"/>
			</g>
			<path style="fill:#455A64;" d="M133.178,452.17c3.643-15.216,4.592-31.073,2.79-46.614c-7.729,13.259-11.403,28.846-10.41,44.16
				c-6.28-9.392-14.577-18.717-25.728-20.538c10.005,8.789,18.025,20.294,24.807,31.754h14.564c2.94-7.443,5.88-14.886,8.82-22.328
				C141.827,441.44,136.558,446.256,133.178,452.17z"/>
		</g>
	</g>
</g>
<g id="Character">
	<g>
		<g>
			<g>
				<path style="fill:#263238;" d="M561.433,327.078c-0.235,0.811,4.24,29.075,9.657,39.438
					c5.417,10.363,16.487,22.375,19.078,22.375s7.439,3.584,7.439,3.584l26.043-10.851l-3.334-6.393c0,0,2.355-5.653-2.591-12.483
					c-4.946-6.83-12.954-9.657-13.19-14.132c-0.236-4.475,0.942-13.163,1.884-21.538c0.942-8.374,0.236-30.043,0.707-31.692
					c0.471-1.649-42.631,3.297-42.631,3.297L561.433,327.078z"/>
				<polygon style="opacity:0.3;" points="564.447,344.655 568.957,335.452 588.802,317.616 561.991,331.835 				"/>
				<path style="fill:#263238;" d="M546.137,268.28c-1.205,1.807-49.404,60.851-50.609,69.285
					c-1.205,8.435-10.242,15.062-4.217,36.751c0,0-2.626,5.861-2.053,10.336s1.751,5.417,1.515,7.301
					c-0.235,1.884,0.942,7.302,0.942,7.302s31.797,1.649,31.797,0c0-1.649,0.942-7.066,0.942-7.066s7.066-6.359,4.946-10.363
					c-2.12-4.004-7.302-8.95-4.946-11.776c2.355-2.826,6.595-2.12,7.772-4.24c1.178-2.12-0.942-4.475,1.178-6.359
					c2.12-1.884,9.657-1.884,10.835-4.24c1.178-2.355,7.772-12.719,10.599-15.781c2.826-3.062,7.537-5.297,7.537-5.297
					s23.24-12.574,28.97-21.554c4.434-6.949,22.611-16.723,27.557-27.086c4.946-10.363,8.479-28.97,8.479-28.97l-78.667-2.355
					L546.137,268.28z"/>
				<g>
					<g>
						<g>
							<g>
								<g>
									<g>
										<g>
											<g>
												<g>
													<g>
														<g>
															<g>
																<g>
																	<g>
																		<g>
																			<g>
																				<g>
																					<g>
																						<path style="fill:#263238;" d="M487.107,394.606c3.063,18.327,7.024,35.237,5.597,52.355
																							c0,0,0.519,2.699-6.978,5.238c-8.049,2.726-16.467,5.53-15.206,12.599l49.766-0.044l5.116-68.676
																							L487.107,394.606z"/>
																					</g>
																				</g>
																			</g>
																		</g>
																	</g>
																</g>
															</g>
														</g>
													</g>
												</g>
											</g>
										</g>
									</g>
								</g>
							</g>
						</g>
					</g>
					<polygon style="fill:#455A64;" points="470.519,464.797 470.519,462.154 520.479,462.154 520.285,464.753 					"/>
				</g>
				<g>
					<g>
						<g>
							<g>
								<g>
									<g>
										<g>
											<g>
												<g>
													<g>
														<g>
															<g>
																<g>
																	<g>
																		<g>
																			<g>
																				<g>
																					<g>
																						<path style="fill:#263238;" d="M590.382,391.469c9.371,16.046,19.078,30.447,23.821,46.956
																							c0,0,0.524,2.18-5.584,7.215c-6.557,5.406-13.431,11.017-9.742,17.177l47.427-17.552l-19.601-66.018
																							L590.382,391.469z"/>
																					</g>
																				</g>
																			</g>
																		</g>
																	</g>
																</g>
															</g>
														</g>
													</g>
												</g>
											</g>
										</g>
									</g>
								</g>
							</g>
						</g>
					</g>
					<polygon style="fill:#455A64;" points="598.878,462.817 597.939,460.346 645.563,442.767 646.305,445.265 					"/>
				</g>
				<g>
					<path style="fill:#455A64;" d="M596.902,309.184c0.025,0.026-0.376,0.459-1.124,1.221c-0.745,0.766-1.856,1.839-3.259,3.134
						c-2.803,2.592-6.83,6.017-11.539,9.455c-4.715,3.434-9.206,6.222-12.531,8.099c-1.662,0.94-3.024,1.671-3.98,2.145
						c-0.954,0.479-1.489,0.729-1.506,0.697c-0.017-0.032,0.486-0.342,1.409-0.876c0.925-0.529,2.257-1.307,3.891-2.285
						c3.269-1.954,7.712-4.78,12.41-8.201c4.692-3.426,8.74-6.792,11.6-9.308c1.431-1.257,2.579-2.287,3.365-3.007
						C596.427,309.542,596.877,309.158,596.902,309.184z"/>
				</g>
				<g>
					<path style="fill:#455A64;" d="M521.166,366.542c0.003,0.036-0.387,0.108-1.094,0.207c-0.708,0.099-1.734,0.226-3.003,0.371
						c-1.311,0.142-2.814,0.305-4.459,0.483c-0.844,0.086-1.724,0.175-2.635,0.268c-0.888,0.124-1.96,0.049-2.505,0.652
						c-0.268,0.306-0.341,0.722-0.109,0.982c0.228,0.278,0.674,0.415,1.107,0.565c0.864,0.301,1.7,0.593,2.501,0.872
						c1.56,0.556,2.984,1.063,4.226,1.505c1.2,0.436,2.169,0.797,2.834,1.057c0.666,0.261,1.028,0.421,1.016,0.455
						c-0.012,0.034-0.396-0.061-1.082-0.263c-0.686-0.202-1.672-0.51-2.888-0.901c-1.253-0.411-2.689-0.883-4.262-1.4
						c-0.805-0.27-1.644-0.552-2.511-0.843c-0.417-0.154-0.938-0.261-1.343-0.72c-0.194-0.228-0.295-0.565-0.249-0.866
						c0.04-0.302,0.179-0.569,0.366-0.786c0.397-0.452,0.957-0.599,1.44-0.674c0.494-0.069,0.948-0.097,1.408-0.143
						c0.912-0.082,1.793-0.161,2.638-0.237c1.65-0.137,3.156-0.263,4.47-0.372c1.273-0.098,2.305-0.169,3.018-0.206
						C520.766,366.509,521.163,366.506,521.166,366.542z"/>
				</g>
				<g>
					<path style="fill:#455A64;" d="M522.158,351.738c0,0.045-0.189,0.04-0.447,0.184c-0.249,0.148-0.542,0.505-0.624,1.029
						c-0.103,0.52,0.141,1.123,0.682,1.604c0.526,0.485,1.28,0.843,2.068,1.237c3.164,1.528,5.835,2.597,5.77,2.755
						c-0.026,0.066-0.717-0.135-1.811-0.525c-1.092-0.393-2.592-0.976-4.189-1.763c-0.787-0.396-1.576-0.776-2.168-1.356
						c-0.294-0.285-0.525-0.623-0.656-0.975c-0.137-0.369-0.128-0.74-0.056-1.048c0.148-0.625,0.563-1.022,0.899-1.141
						C521.972,351.627,522.165,351.714,522.158,351.738z"/>
				</g>
				<g>
					<path style="fill:#455A64;" d="M617.597,375.04c0.089,0.096-2.074,2.108-5.213,3.919c-3.132,1.826-5.952,2.705-5.991,2.58
						c-0.056-0.146,2.644-1.23,5.729-3.03C615.215,376.725,617.498,374.919,617.597,375.04z"/>
				</g>
				<g>
					<path style="fill:#455A64;" d="M524.686,396.286c-0.003,0.036-0.526,0.022-1.467-0.034c-1.037-0.068-2.376-0.156-3.983-0.261
						c-3.362-0.226-8.006-0.517-13.141-0.745c-5.136-0.225-9.789-0.344-13.157-0.414c-1.61-0.037-2.951-0.067-3.99-0.091
						c-0.942-0.027-1.464-0.059-1.464-0.095c0-0.036,0.521-0.072,1.463-0.108c0.943-0.037,2.307-0.063,3.993-0.075
						c3.373-0.024,8.034,0.036,13.178,0.262c5.142,0.228,9.79,0.577,13.147,0.898c1.679,0.16,3.036,0.306,3.972,0.426
						C524.173,396.168,524.689,396.25,524.686,396.286z"/>
				</g>
				<g>
					<path style="fill:#455A64;" d="M625.997,379.443c0.014,0.033-0.457,0.263-1.32,0.651c-0.862,0.389-2.121,0.926-3.686,1.567
						c-3.129,1.284-7.493,2.959-12.375,4.633c-4.885,1.672-9.36,3.025-12.619,3.929c-1.629,0.453-2.953,0.801-3.872,1.022
						c-0.919,0.223-1.432,0.33-1.441,0.295c-0.01-0.035,0.485-0.208,1.387-0.49c0.995-0.307,2.28-0.704,3.823-1.18
						c3.228-0.994,7.677-2.4,12.553-4.069c4.874-1.671,9.25-3.288,12.409-4.483c1.511-0.57,2.769-1.044,3.744-1.412
						C625.487,379.576,625.983,379.409,625.997,379.443z"/>
				</g>
				<g style="opacity:0.3;">
					<g>
						<g>
							<g>
								<g>
									<g>
										<g>
											<g>
												<g>
													<g>
														<g>
															<g>
																<g>
																	<g>
																		<g>
																			<g>
																				<g>
																					<path style="fill:#FFFFFF;" d="M487.107,394.606c3.063,18.327,7.024,35.237,5.597,52.355
																						c0,0,0.519,2.699-6.978,5.238c-8.049,2.726-16.467,5.53-15.206,12.599l49.766-0.044l5.116-68.676l-1.518-0.055
																						l0.176-1.415H487.107z"/>
																				</g>
																			</g>
																		</g>
																	</g>
																</g>
															</g>
														</g>
													</g>
												</g>
											</g>
										</g>
									</g>
								</g>
							</g>
						</g>
					</g>
				</g>
				<g style="opacity:0.3;">
					<g>
						<g>
							<g>
								<g>
									<g>
										<g>
											<g>
												<g>
													<g>
														<g>
															<g>
																<g>
																	<g>
																		<g>
																			<g>
																				<g>
																					<path style="fill:#FFFFFF;" d="M591.974,394.606c9.371,16.046,17.486,27.31,22.23,43.819
																						c0,0,0.524,2.18-5.584,7.215c-6.557,5.406-13.431,11.017-9.742,17.177l47.427-17.552l-15.032-50.629
																						L591.974,394.606z"/>
																				</g>
																			</g>
																		</g>
																	</g>
																</g>
															</g>
														</g>
													</g>
												</g>
											</g>
										</g>
									</g>
								</g>
							</g>
						</g>
					</g>
				</g>
				<path style="opacity:0.3;" d="M529.607,289.161c0,0,49.753,24.307,77.321,25.136l-0.535-5.113l-75.92-23.287L529.607,289.161z"
					/>
			</g>
			<g>
				<path style="fill:#FFBF9D;" d="M517.973,199.283c0,0-5.152-10.611-7.39-12.281c-2.238-1.671-10.77-4.509-13.492-5.867
					c-2.723-1.358-3.853,0.84-2.341,3.379c0.386,0.648,1.118,1.369,1.992,2.083c-3.739-0.408-8.384-0.741-9.225-0.2
					c0,0-3.853,2.915-1.076,5.79c1.534,1.587,3.458,1.305,4.421,1.273c0.095,0.056,0.195,0.102,0.292,0.153
					c-0.568,0.31-0.979,0.672-1.077,1.105c0,0-0.129,3.196,3.968,4.609c0,0-1.326,2.101,2.895,3.524c0,0-1.062,3.863,3.29,3.799
					c1.676-0.025,2.929-0.631,3.835-1.42c0.023,0.008,0.044,0.019,0.066,0.027c5.768,1.891,8.088,1.766,8.088,1.766l4.791-6.697v0
					L517.973,199.283z"/>
				<path style="fill:#FF725E;" d="M510.63,209.916l5.005-15.191l30.807,12.301l20.837-12.502l18.361,13.552
					c0,0-31.475,30.383-36.503,30.601c-5.027,0.219-18.361-4.153-19.016-3.934C529.465,234.961,510.63,209.916,510.63,209.916z"/>
				<path style="opacity:0.3;" d="M510.63,209.916l5.005-15.191l30.807,12.301l20.837-12.502l18.361,13.552
					c0,0-31.475,30.383-36.503,30.601c-5.027,0.219-18.361-4.153-19.016-3.934C529.465,234.961,510.63,209.916,510.63,209.916z"/>
			</g>
			<g>
				<g>
					<path style="fill:#263238;" d="M256.228,67.188c0,0,0.225-0.069,0.669-0.178c0.461-0.11,1.12-0.268,1.979-0.474
						c1.76-0.41,4.33-1.007,7.645-1.779c6.674-1.53,16.333-3.744,28.352-6.499l0.021-0.005l0.023,0
						c11.538,0.223,25.494,0.492,41.029,0.792l0.044,0.001l0.041,0.017c11.682,4.79,24.566,10.072,38.114,15.627l0.027,0.011
						l0.024,0.017c4.828,3.405,9.914,6.992,15.079,10.635c10.194,7.196,20.078,14.171,29.444,20.782l0.024,0.017l0.019,0.021
						c14.259,15.954,27.121,30.345,37.69,42.171l0.03,0.034l0.012,0.043c4.02,14.146,7.282,25.628,9.545,33.588
						c1.114,3.965,1.981,7.051,2.574,9.164c0.285,1.039,0.504,1.835,0.656,2.39c0.145,0.54,0.205,0.82,0.205,0.82
						s-0.097-0.27-0.26-0.804c-0.165-0.551-0.401-1.342-0.71-2.374c-0.617-2.106-1.517-5.182-2.675-9.135
						c-2.302-7.95-5.621-19.414-9.711-33.541l0.042,0.076c-10.592-11.804-23.483-26.17-37.774-42.095l0.042,0.038
						c-9.37-6.607-19.256-13.578-29.454-20.768c-5.164-3.644-10.249-7.232-15.076-10.639l0.051,0.028
						c-13.542-5.57-26.42-10.867-38.097-15.669l0.084,0.018c-15.534-0.341-29.49-0.648-41.026-0.901l0.043-0.004
						c-12.035,2.688-21.706,4.847-28.388,6.34c-3.324,0.731-5.901,1.298-7.666,1.686c-0.864,0.184-1.526,0.325-1.99,0.424
						C256.46,67.153,256.228,67.188,256.228,67.188z"/>
				</g>
				<g>
					<path style="fill:#263238;" d="M455.873,180.049c0,0-1.049-3.943,3.977-6.647c5.026-2.704,8.772,1.196,8.772,1.196
						L455.873,180.049z"/>
					<path style="fill:#263238;" d="M457.239,178.355c0.128-0.055,2.638,5.36,2.638,5.36l8.304-4.334l-2.023-4.839L457.239,178.355z
						"/>
					<polygon style="fill:#263238;" points="470.19,177.87 457.496,183.999 464.813,197.873 476.875,191.173 					"/>
					<path style="fill:#263238;" d="M470.795,196.898c0,0-3.657-0.081-3.675,2.253c-0.018,2.334,3.791,2.126,8.157,2.989
						c4.366,0.862,10.494,1.858,16.845,7.408l2.07-3.459C494.192,206.089,480.23,195.248,470.795,196.898z"/>
					<path style="fill:#263238;" d="M470.177,200.035c0,0-0.943,3.228,2.905,4.789c3.848,1.561,5.689-0.965,6.754-2.884
						c1.065-1.918,1.728-6.056,2.999-8.181c1.271-2.125,1.11-5.437,3.714-8.412c2.605-2.976,6.608-3.878,6.608-3.878l-1.52-2.971
						c0,0-5.602,2.336-8.207,5.724s-2.712,4.808-4.361,6.047c-1.648,1.24-4.769-0.71-4.769-0.71s-7.386,6.298-7.359,6.314
						C466.969,195.89,470.177,200.035,470.177,200.035z"/>
				</g>
				<path style="fill:#455A64;" d="M543.051,250.171c0,0-59.735-87.478-75.293-107.857c-21.278-27.871-43.077-53.094-85.098-76.597
					c0,0-31.803-14.969-53.31-15.637c0,0-40.833-4.02-73.323,12.54l0.712,1.845c31.234-16.314,71.62-11.884,71.62-11.884
					c20.754,1.729,49.724,16.269,49.724,16.269c39.355,19.499,63.393,49.755,85.1,77.293
					c12.129,15.388,74.734,112.697,74.734,112.697"/>
				<g>
					<path style="fill:#455A64;" d="M257.646,66.762c-0.139,0.038-0.463-0.708-0.724-1.666c-0.261-0.958-0.36-1.766-0.222-1.804
						c0.139-0.038,0.463,0.708,0.724,1.667C257.686,65.916,257.785,66.724,257.646,66.762z"/>
				</g>
				<g>
					<path style="fill:#455A64;" d="M294.913,59.578c-0.144-0.002-0.227-1.882-0.187-4.199c0.041-2.317,0.19-4.192,0.334-4.19
						c0.144,0.003,0.227,1.882,0.187,4.199C295.206,57.705,295.056,59.581,294.913,59.578z"/>
				</g>
				<g>
					<path style="fill:#455A64;" d="M335.66,60.155c-0.137-0.044,0.26-1.667,0.888-3.625c0.627-1.958,1.247-3.51,1.384-3.466
						c0.137,0.044-0.26,1.667-0.888,3.625C336.417,58.647,335.797,60.199,335.66,60.155z"/>
				</g>
				<g>
					<path style="fill:#455A64;" d="M374.046,75.413c-0.113-0.074,1.01-1.898,2.856-3.768c1.839-1.878,3.643-3.032,3.719-2.92
						c0.091,0.122-1.544,1.442-3.348,3.285C375.462,73.845,374.17,75.502,374.046,75.413z"/>
				</g>
				<g>
					<path style="fill:#455A64;" d="M425.506,100.378c0.091,0.111-1.525,1.589-3.611,3.3c-2.086,1.712-3.85,3.008-3.941,2.897
						c-0.091-0.111,1.525-1.588,3.611-3.3C423.65,101.564,425.415,100.267,425.506,100.378z"/>
				</g>
				<g>
					<path style="fill:#455A64;" d="M463.296,142.881c0.116,0.119-1.484,1.694-3.618,3.416c-2.13,1.733-3.948,3.019-4.037,2.907
						c-0.09-0.113,1.583-1.581,3.708-3.31C461.482,144.171,463.21,142.794,463.296,142.881z"/>
				</g>
				<g>
					<path style="fill:#263238;" d="M253.349,66.361c0,0-0.305,0.157-0.911,0.44c-0.618,0.285-1.518,0.701-2.694,1.243
						c-1.197,0.519-2.626,1.271-4.328,2.129c-1.718,0.828-3.623,1.93-5.789,3.129c-4.279,2.487-9.424,5.707-15.021,9.968
						c-5.595,4.256-11.639,9.551-17.661,16.036c-3.041,3.215-5.987,6.801-8.934,10.624c-2.887,3.87-5.733,8.017-8.388,12.49
						c-2.658,4.456-5.193,9.256-6.679,14.582c-0.725,2.658-1.178,5.443-1.16,8.272c0.044,2.824,0.558,5.688,1.625,8.384
						c1.072,2.68,2.678,5.232,4.919,7.167c1.117,0.962,2.353,1.809,3.725,2.408c0.656,0.363,1.395,0.536,2.091,0.815
						c0.73,0.17,1.453,0.401,2.203,0.495c2.99,0.47,6.106,0.23,9.116-0.518c3.018-0.732,5.97-1.858,8.826-3.24
						c2.87-1.356,5.627-3.007,8.428-4.633c2.783-1.657,5.574-3.353,8.376-5.078c5.609-3.443,11.297-6.961,17.25-10.186
						c5.951-3.222,12.045-6.071,18.339-8.097c6.288-2.037,12.794-3.09,19.205-3.078c3.208,0.041,6.38,0.501,9.42,1.332
						c3.033,0.839,5.959,2.054,8.518,3.811c2.554,1.741,4.788,3.966,6.287,6.621c1.503,2.646,2.286,5.642,2.341,8.605
						c0.069,2.967-0.541,5.888-1.613,8.559c-1.066,2.677-2.559,5.132-4.342,7.285c-3.557,4.363-8.405,7.223-13.291,9.03
						c-4.922,1.815-9.957,2.628-14.782,3.013c-4.837,0.377-9.493,0.285-13.921,0.164c-8.848-0.298-16.887-0.556-23.849,0.488
						c-6.961,0.984-12.689,3.301-16.849,5.954c-4.193,2.644-6.762,5.611-8.257,7.722c-0.713,1.089-1.241,1.93-1.531,2.533
						c-0.315,0.589-0.489,0.885-0.489,0.885s0.141-0.312,0.441-0.91c0.275-0.612,0.79-1.465,1.492-2.568
						c1.473-2.139,4.033-5.148,8.234-7.834c4.168-2.694,9.92-5.054,16.916-6.071c6.992-1.077,15.059-0.842,23.901-0.568
						c4.426,0.109,9.068,0.19,13.879-0.197c4.8-0.394,9.797-1.213,14.663-3.017c4.836-1.8,9.6-4.624,13.088-8.917
						c1.751-2.121,3.216-4.537,4.258-7.166c1.049-2.623,1.641-5.483,1.57-8.377c-0.058-2.89-0.821-5.797-2.286-8.371
						c-1.461-2.581-3.639-4.749-6.141-6.451c-2.506-1.718-5.385-2.912-8.374-3.737c-2.996-0.816-6.128-1.27-9.295-1.308
						c-6.341-0.007-12.796,1.037-19.038,3.062c-6.251,2.014-12.315,4.849-18.248,8.061c-5.935,3.215-11.616,6.727-17.227,10.169
						c-2.804,1.725-5.598,3.421-8.386,5.08c-2.804,1.627-5.572,3.283-8.47,4.65c-2.88,1.391-5.864,2.529-8.929,3.271
						c-3.055,0.757-6.239,1.005-9.313,0.518c-0.771-0.098-1.516-0.335-2.267-0.512c-0.718-0.287-1.478-0.468-2.154-0.841
						c-1.412-0.619-2.691-1.495-3.84-2.488c-2.309-1.999-3.951-4.619-5.043-7.359c-1.087-2.757-1.607-5.676-1.648-8.555
						c-0.014-2.886,0.449-5.707,1.188-8.399c1.513-5.389,4.075-10.215,6.749-14.68c2.672-4.483,5.534-8.637,8.439-12.512
						c2.965-3.828,5.927-7.417,8.985-10.632c6.056-6.486,12.132-11.775,17.755-16.017c5.625-4.248,10.796-7.449,15.096-9.912
						c2.177-1.188,4.092-2.277,5.819-3.091c1.711-0.845,3.149-1.582,4.354-2.086c1.186-0.523,2.094-0.922,2.717-1.197
						C253.03,66.485,253.349,66.361,253.349,66.361z"/>
				</g>
			</g>
			<path style="fill:#263238;" d="M579.509,91.338c0,0,0.421,8.706,15.125,13.281l3.427-7.935L579.509,91.338z"/>
			<g>
				<g>
					<g>
						<g>
							<g>
								<g>
									<g>
										<g>
											<g>
												<path style="fill:#FFBF9D;" d="M619.332,86.801l-1.168-0.074c-11.75-0.742-22.101,7.662-23.785,19.315
													c-1.567,10.838-3.158,22.832-3.455,28.681c-0.615,12.11,11.369,14.757,11.369,14.757l-1.941,14.473l29.426,0.945
													l5.928-52.562C637.583,99.84,631.875,88.332,619.332,86.801z"/>
											</g>
										</g>
									</g>
								</g>
								<g>
									<g>
										<g>
											<g>
												<g>
													<g>
														<g>
															<g>
																<g>
																	<g>
																		<path style="fill:#FF9A6C;" d="M602.278,149.476c0,0,7.615,0.933,16.065-3.659c0,0-4.467,8.666-16.472,6.814
																			L602.278,149.476z"/>
																	</g>
																</g>
															</g>
														</g>
													</g>
												</g>
											</g>
										</g>
									</g>
								</g>
								<g>
									<g>
										<g>
											<g>
												<g>
													<g>
														<g>
															<g>
																<g>
																	<g>
																		<g>
																			<g>
																				<g>
																					<path style="fill:#263238;" d="M597,117.771c-0.09,0.91,0.607,1.737,1.556,1.849
																						c0.947,0.111,1.79-0.535,1.879-1.445c0.09-0.91-0.607-1.738-1.554-1.85
																						C597.933,116.213,597.09,116.861,597,117.771z"/>
																				</g>
																			</g>
																		</g>
																	</g>
																</g>
															</g>
														</g>
													</g>
												</g>
											</g>
										</g>
									</g>
								</g>
								<g>
									<g>
										<g>
											<g>
												<g>
													<g>
														<g>
															<g>
																<g>
																	<g>
																		<g>
																			<g>
																				<g>
																					<g>
																						<path style="fill:#263238;" d="M596.607,112.127c0.2,0.239,1.57-0.647,3.429-0.525
																							c1.859,0.095,3.163,1.138,3.379,0.924c0.106-0.095-0.087-0.516-0.654-0.986
																							c-0.558-0.468-1.529-0.95-2.688-1.018c-1.159-0.067-2.16,0.298-2.748,0.699
																							C596.727,111.624,596.508,112.019,596.607,112.127z"/>
																					</g>
																				</g>
																			</g>
																		</g>
																	</g>
																</g>
															</g>
														</g>
													</g>
												</g>
											</g>
										</g>
									</g>
								</g>
								<g>
									<g>
										<g>
											<g>
												<g>
													<g>
														<g>
															<g>
																<g>
																	<g>
																		<g>
																			<g>
																				<g>
																					<path style="fill:#263238;" d="M613.643,119.336c-0.09,0.91,0.607,1.737,1.556,1.848
																						c0.947,0.111,1.79-0.535,1.88-1.445c0.09-0.91-0.607-1.738-1.555-1.85
																						C614.576,117.778,613.733,118.425,613.643,119.336z"/>
																				</g>
																			</g>
																		</g>
																	</g>
																</g>
															</g>
														</g>
													</g>
												</g>
											</g>
										</g>
									</g>
								</g>
								<g>
									<g>
										<g>
											<g>
												<g>
													<g>
														<g>
															<g>
																<g>
																	<g>
																		<g>
																			<g>
																				<g>
																					<g>
																						<path style="fill:#263238;" d="M614.863,113.628c0.2,0.239,1.572-0.647,3.43-0.524
																							c1.858,0.095,3.163,1.138,3.379,0.923c0.105-0.095-0.085-0.515-0.654-0.985
																							c-0.558-0.468-1.529-0.949-2.687-1.018c-1.159-0.067-2.16,0.298-2.748,0.699
																							C614.985,113.125,614.765,113.521,614.863,113.628z"/>
																					</g>
																				</g>
																			</g>
																		</g>
																	</g>
																</g>
															</g>
														</g>
													</g>
												</g>
											</g>
										</g>
									</g>
								</g>
								<g>
									<g>
										<g>
											<g>
												<g>
													<g>
														<g>
															<g>
																<g>
																	<g>
																		<g>
																			<g>
																				<g>
																					<path style="fill:#263238;" d="M607.244,126.993c0.016-0.105-1.128-0.378-2.986-0.736
																						c-0.472-0.079-0.915-0.202-0.975-0.531c-0.09-0.35,0.141-0.849,0.406-1.388
																						c0.519-1.12,1.062-2.296,1.632-3.527c2.276-5.025,3.954-9.169,3.751-9.258c-0.203-0.09-2.212,3.91-4.487,8.935
																						c-0.55,1.24-1.075,2.422-1.575,3.552c-0.214,0.529-0.562,1.121-0.364,1.848
																						c0.105,0.363,0.438,0.643,0.737,0.744c0.299,0.112,0.565,0.134,0.799,0.163
																						C606.061,127.015,607.23,127.097,607.244,126.993z"/>
																				</g>
																			</g>
																		</g>
																	</g>
																</g>
															</g>
														</g>
													</g>
												</g>
											</g>
										</g>
									</g>
								</g>
								<g>
									<g>
										<g>
											<g>
												<g>
													<g>
														<g>
															<g>
																<g>
																	<path style="fill:#263238;" d="M613.702,106.371c0.216,0.487,1.841,0.076,3.808,0.137
																		c1.967,0.016,3.597,0.49,3.808,0.011c0.092-0.229-0.23-0.674-0.913-1.096c-0.677-0.422-1.726-0.781-2.905-0.805
																		c-1.179-0.022-2.224,0.296-2.897,0.692C613.925,105.706,613.607,106.14,613.702,106.371z"/>
																</g>
															</g>
														</g>
													</g>
												</g>
											</g>
										</g>
									</g>
								</g>
								<g>
									<g>
										<g>
											<g>
												<g>
													<g>
														<g>
															<g>
																<g>
																	<path style="fill:#263238;" d="M597.001,104.453c0.365,0.447,1.927,0.105,3.774,0.201
																		c1.849,0.042,3.391,0.499,3.778,0.08c0.171-0.204-0.048-0.644-0.705-1.086c-0.648-0.441-1.753-0.838-3.023-0.886
																		c-1.27-0.046-2.393,0.267-3.063,0.659C597.083,103.815,596.841,104.237,597.001,104.453z"/>
																</g>
															</g>
														</g>
													</g>
												</g>
											</g>
										</g>
									</g>
								</g>
								<g>
									<g>
										<g>
											<g>
												<g>
													<g>
														<g>
															<g>
																<path style="fill:#263238;" d="M595.894,100.566c0,0,3.67-7.376,7.436-8.914c4.559-1.861,6.156,3.114,10.447,2.202
																	c4.29-0.912,8.643-2.7,12.745,0.831c4.49,3.865,2.123,6.228,2.075,11.615c-0.193,21.842,3.393,28.249,5.171,18.067
																	c0.195-1.116,3.369-1.812,4.13-6.529c0.987-6.117,1.696-13.574,0.599-18.028c-0.926-3.754-2.863-6.43-6.45-9.472
																	c-5.662-4.801-13.816-5.412-19.394-5.204C607.076,85.343,595.988,91.046,595.894,100.566z"/>
															</g>
														</g>
													</g>
												</g>
											</g>
										</g>
									</g>
								</g>
								<g>
									<g>
										<g>
											<g>
												<g>
													<g>
														<g>
															<g>
																<path style="fill:#FFBF9D;" d="M633.018,123.991c0.194-1.863,1.896-3.236,3.746-2.941
																	c2.243,0.357,4.674,1.797,4.23,6.451c-0.787,8.256-8.913,5.763-8.905,5.525
																	C632.095,132.864,632.658,127.442,633.018,123.991z"/>
															</g>
														</g>
													</g>
												</g>
											</g>
										</g>
									</g>
								</g>
								<g>
									<g>
										<g>
											<g>
												<g>
													<g>
														<g>
															<g>
																<path style="fill:#FF9A6C;" d="M634.182,130.09c0.039-0.023,0.134,0.115,0.367,0.249
																	c0.226,0.131,0.627,0.245,1.073,0.125c0.903-0.237,1.769-1.551,1.951-3.036c0.092-0.749,0.003-1.48-0.207-2.097
																	c-0.194-0.628-0.545-1.087-0.976-1.207c-0.427-0.143-0.763,0.09-0.886,0.313c-0.133,0.22-0.096,0.39-0.141,0.4
																	c-0.025,0.019-0.164-0.156-0.065-0.49c0.05-0.16,0.165-0.346,0.374-0.486c0.213-0.142,0.513-0.197,0.815-0.134
																	c0.632,0.104,1.149,0.745,1.38,1.423c0.266,0.684,0.383,1.507,0.279,2.348c-0.211,1.659-1.211,3.135-2.438,3.366
																	c-0.595,0.096-1.063-0.125-1.295-0.344C634.177,130.291,634.152,130.103,634.182,130.09z"/>
															</g>
														</g>
													</g>
												</g>
											</g>
										</g>
									</g>
								</g>
							</g>
						</g>
					</g>
				</g>
				<g>
					<g>
						<g>
							<g>
								<g>
									<g>
										<g>
											<g>
												<g>
													<g>
														<g>
															<g>
																<g>
																	<g>
																		<g>
																			<path style="fill:#263238;" d="M606.505,132.892c0.066-0.306,2.074,0.248,3.976-1.074
																				c1.906-1.318,2.275-3.52,2.56-3.458c0.134,0.007,0.258,0.585,0.031,1.495c-0.216,0.894-0.86,2.109-2.023,2.918
																				c-1.165,0.805-2.456,0.932-3.298,0.771C606.89,133.389,606.455,133.027,606.505,132.892z"/>
																		</g>
																	</g>
																</g>
															</g>
														</g>
													</g>
												</g>
											</g>
										</g>
									</g>
								</g>
							</g>
						</g>
					</g>
				</g>
			</g>
			<g>
				<path style="fill:#FF725E;" d="M531.047,288.276c0,0,73.952,26.26,83.927,21.767c9.975-4.493,9.055-22.88,14.404-38.285
					c5.349-15.405,17.973-48.784,17.759-64.403c-0.214-15.619-4.279-33.164-4.493-34.662c-0.214-1.498-33.525-22.685-41.228-21.615
					s-23.389,25.467-23.389,25.467s-14.763,43.862-20.113,52.635c-5.349,8.773-14.985,18.241-20.755,32.309
					C530.722,277.183,529.549,286.351,531.047,288.276z"/>
				<path style="fill:#FF725E;" d="M648.431,140.228c-1.029-0.343-6.725-2.387-13.017-1.736c-6.292,0.651-31.819,8.821-34.42,12.859
					c-2.116,3.284,36.384,30.421,42.887,27.656c6.503-2.766,11.439-6.454,11.439-12.528
					C655.32,160.404,660.147,144.133,648.431,140.228z"/>
				<g style="opacity:0.3;">
					<path d="M643.498,178.79c1.06,2.463,1.58,5.157,1.513,7.838c-0.019,0.774-0.115,1.614-0.653,2.172
						c-0.569,0.59-1.506,0.694-2.293,0.464c-0.787-0.23-1.459-0.737-2.104-1.243c-5.095-3.996-9.73-8.54-14.354-13.073
						c-4.013-3.934-7.263-8.673-10.158-13.284c0,0,7.937,8.327,18.651,13.856C637.318,177.164,640.458,178.305,643.498,178.79z"/>
				</g>
				<g>
					<path style="fill:#263238;" d="M643.881,179.007c0.001,0.018-0.125,0.026-0.369,0.024c-0.242-0.008-0.613,0.013-1.063-0.097
						c-0.457-0.08-1.015-0.191-1.638-0.395c-0.636-0.17-1.336-0.428-2.109-0.717c-3.09-1.161-7.167-3.228-11.409-5.927
						c-4.223-2.732-7.762-5.644-10.04-8.032c-1.123-1.208-2.01-2.209-2.52-2.981c-0.536-0.751-0.816-1.175-0.786-1.195
						c0.091-0.066,1.238,1.62,3.568,3.917c2.324,2.3,5.866,5.139,10.061,7.853c4.212,2.681,8.236,4.786,11.263,6.023
						c0.757,0.307,1.442,0.588,2.06,0.781c0.61,0.228,1.148,0.364,1.591,0.474c0.439,0.14,0.789,0.148,1.027,0.191
						C643.753,178.962,643.88,178.989,643.881,179.007z"/>
				</g>
				<g>
					<path style="fill:#263238;" d="M639.57,157.78c0.004-0.03,0.533-0.007,1.479,0.125c0.946,0.132,2.31,0.376,3.962,0.825
						c1.65,0.45,3.589,1.105,5.646,2.057c0.514,0.239,1.033,0.493,1.564,0.768c0.515,0.279,1.143,0.652,1.379,1.373
						c0.107,0.338,0.122,0.745-0.08,1.102c-0.197,0.361-0.592,0.561-0.942,0.62c-0.725,0.116-1.346-0.053-1.995-0.112
						c-5.205-0.687-9.667-2.505-12.65-4.158c-1.499-0.826-2.652-1.595-3.423-2.158c-0.769-0.567-1.17-0.91-1.151-0.936
						c0.023-0.032,0.466,0.256,1.265,0.769c0.802,0.508,1.976,1.224,3.482,2c2.999,1.555,7.417,3.29,12.546,3.967
						c0.636,0.064,1.295,0.215,1.83,0.119c0.554-0.071,0.802-0.556,0.631-1.059c-0.143-0.484-0.632-0.822-1.128-1.088
						c-0.513-0.272-1.028-0.53-1.532-0.771c-2.019-0.964-3.922-1.646-5.543-2.137c-1.623-0.49-2.965-0.786-3.895-0.979
						C640.084,157.912,639.565,157.821,639.57,157.78z"/>
				</g>
				<g>
					<path style="fill:#263238;" d="M577.021,244.53c0.004-0.008,0.081,0.019,0.227,0.08c0.173,0.076,0.384,0.168,0.643,0.28
						c0.599,0.277,1.415,0.655,2.447,1.133c2.116,1.002,5.161,2.49,8.874,4.426c3.714,1.934,8.094,4.32,12.873,7.116
						c2.39,1.397,4.881,2.895,7.439,4.487c0.639,0.401,1.283,0.806,1.933,1.215c0.653,0.433,1.288,0.933,1.777,1.609
						c0.239,0.338,0.439,0.733,0.503,1.178c0.067,0.444-0.029,0.917-0.264,1.301c-0.23,0.396-0.621,0.695-1.038,0.842
						c-0.419,0.153-0.852,0.189-1.273,0.177c-0.843-0.032-1.645-0.24-2.4-0.542c-0.727-0.31-1.45-0.617-2.167-0.923
						c-1.427-0.623-2.832-1.24-4.199-1.876c-2.739-1.26-5.355-2.531-7.816-3.803c-4.93-2.529-9.257-5.019-12.832-7.201
						c-3.57-2.191-6.395-4.066-8.317-5.403c-0.968-0.658-1.7-1.199-2.2-1.558c-0.226-0.168-0.411-0.306-0.563-0.419
						c-0.125-0.097-0.187-0.15-0.181-0.157c0.005-0.007,0.077,0.031,0.212,0.113c0.16,0.101,0.354,0.225,0.592,0.376
						c0.552,0.361,1.304,0.854,2.253,1.477c1.955,1.284,4.806,3.11,8.394,5.256c3.593,2.137,7.929,4.589,12.86,7.088
						c2.461,1.257,5.076,2.515,7.811,3.766c1.365,0.631,2.767,1.244,4.191,1.864c1.441,0.576,2.846,1.387,4.376,1.42
						c0.745,0.034,1.516-0.171,1.85-0.765c0.374-0.594,0.215-1.334-0.215-1.913c-0.864-1.19-2.314-1.857-3.557-2.69
						c-2.55-1.595-5.032-3.1-7.412-4.506c-4.759-2.814-9.115-5.23-12.802-7.204c-3.687-1.975-6.704-3.512-8.791-4.569
						c-1.013-0.514-1.815-0.921-2.403-1.22c-0.25-0.132-0.453-0.239-0.62-0.327C577.087,244.581,577.018,244.538,577.021,244.53z"/>
				</g>
			</g>
			<g>
				<path style="fill:#FFBF9D;" d="M506.028,209.025c0,0-6.607-2.977-10.061-3.721c-3.454-0.744-5.526-3.646-7.339-2.902
					c-1.813,0.744-1.727,2.084-1.295,2.53c0.432,0.446-6.994-0.372-7.598,2.753c-0.604,3.126,2.849,3.349,2.849,3.349
					s-1.9,2.679-0.95,4.316c0.95,1.637,1.122,2.084,1.122,2.084s-1.727,1.935,0.173,3.944c1.9,2.009,1.9,2.009,1.9,2.009
					s-0.864,1.414,1.468,2.828c2.331,1.414,20.637,0.521,20.637,0.521L506.028,209.025z"/>
				<path style="fill:#FF725E;" d="M505.744,207.68c-0.456,0.982-0.776,20.31-0.776,20.31s17.032,3.07,27.688,2.542
					c11.776-0.584,20.282,0.388,20.282,0.388s10.721-0.879,17.104-6.034c6.383-5.155,39.964-28.588,43.156-35.707
					c3.191-7.119,1.894-30.486-2.394-34.948c-4.287-4.462-8.847-3.247-13.406-2.013c-4.559,1.233-25.304,25.536-28.496,27.009
					c-3.192,1.473-6.611,2.7-8.435,9.083c0,0-4.559,1.227-6.839,4.91c-2.28,3.682-2.736,5.892-2.736,5.892s-5.471-2.209-7.979-0.982
					c-2.508,1.227-4.787,3.437-4.787,3.437L505.744,207.68z"/>
				<g>
					<path style="fill:#263238;" d="M560.838,200.015c0.069-0.02,0.469,1.146,1.059,3.046c0.303,1.001,0.642,2.125,1.011,3.345
						c0.166,0.639,0.43,1.263,0.517,2.046c0.033,0.38-0.006,0.845-0.3,1.216c-0.27,0.375-0.79,0.551-1.224,0.5
						c-0.874-0.11-1.529-0.615-2.064-1.107c-0.534-0.487-1.027-0.982-1.477-1.47c-0.898-0.979-1.624-1.932-2.18-2.765
						c-0.558-0.833-0.952-1.542-1.202-2.042c-0.251-0.5-0.359-0.791-0.329-0.807c0.075-0.04,0.66,1.045,1.833,2.637
						c0.587,0.794,1.33,1.707,2.229,2.649c0.451,0.47,0.941,0.947,1.469,1.419c0.501,0.465,1.116,0.89,1.768,0.967
						c0.656,0.083,1.064-0.503,0.969-1.157c-0.06-0.645-0.315-1.321-0.47-1.954c-0.329-1.231-0.633-2.365-0.903-3.376
						C561.043,201.236,560.769,200.035,560.838,200.015z"/>
				</g>
				<g>
					<path style="fill:#263238;" d="M574.863,199.14c-0.021,0.058-0.75-0.128-1.844-0.65c-1.093-0.518-2.531-1.415-3.888-2.681
						c-1.354-1.271-2.344-2.647-2.934-3.702c-0.593-1.057-0.827-1.772-0.771-1.797c0.147-0.084,1.396,2.656,4.06,5.119
						C572.12,197.923,574.937,198.988,574.863,199.14z"/>
				</g>
				<g>
					<path style="fill:#263238;" d="M543.672,217.733c0.013-0.012,0.136,0.273-0.097,0.712c-0.221,0.428-0.865,0.889-1.741,0.876
						c-0.922,0.018-1.807-0.788-2.274-1.764c-0.489-0.994-0.755-2.13-1.049-3.322c-0.547-2.398-0.705-4.63-0.685-6.235
						c0.018-1.608,0.177-2.591,0.241-2.585c0.079,0.005,0.051,0.993,0.127,2.578c0.074,1.584,0.287,3.77,0.825,6.127
						c0.286,1.168,0.546,2.312,0.971,3.226c0.416,0.909,1.128,1.582,1.862,1.607c0.736,0.056,1.321-0.288,1.552-0.617
						C543.653,218.001,543.617,217.727,543.672,217.733z"/>
				</g>
				<g>
					<path style="fill:#263238;" d="M588.802,210.834c0,0-0.19,0.167-0.577,0.469c-0.404,0.311-0.978,0.753-1.726,1.328
						c-1.539,1.168-3.779,2.868-6.651,5.048c-2.897,2.184-6.429,4.846-10.517,7.927c-2.085,1.535-4.627,2.674-7.382,3.601
						c-2.774,0.888-5.778,1.571-8.995,1.91l-0.016,0.002l-0.023-0.002c-6.742-0.658-14.247-0.678-22.322-0.295
						c-4.053,0.015-8.237-0.277-12.521-0.74c-4.286-0.458-8.674-1.074-13.149-1.843l-0.216-0.037l0.008-0.221
						c0.247-6.523,0.504-13.332,0.768-20.31l0.008-0.207l0.203-0.038c2.916-0.551,6.029-1.139,9.17-1.732
						c7.957-1.501,15.728-2.966,23.214-4.378l-0.13,0.067c0.898-0.842,1.84-1.598,2.836-2.284c0.498-0.341,1.011-0.661,1.54-0.95
						c0.507-0.299,1.151-0.526,1.755-0.591c1.227-0.133,2.417,0.051,3.563,0.304c1.15,0.257,2.255,0.604,3.341,1.021l-0.334,0.179
						c0.34-1.325,0.885-2.507,1.469-3.668c0.608-1.147,1.205-2.272,2.022-3.29c0.815-1.004,1.813-1.82,2.88-2.479
						c1.069-0.663,2.194-1.178,3.385-1.539l-0.164,0.161c0.695-2.39,1.802-4.714,3.634-6.35c0.896-0.827,1.943-1.438,2.989-1.961
						c0.525-0.26,1.055-0.499,1.576-0.737c0.273-0.116,0.51-0.237,0.726-0.382c0.223-0.163,0.446-0.325,0.659-0.509
						c1.71-1.457,3.251-3.056,4.762-4.583c1.495-1.548,2.948-3.053,4.358-4.512c5.629-5.847,10.509-11.029,14.986-14.852
						c1.139-0.919,2.212-1.856,3.516-2.283c1.264-0.337,2.458-0.643,3.589-0.839c1.13-0.199,2.199-0.284,3.176-0.238
						c0.979,0.052,1.853,0.253,2.607,0.504c1.502,0.55,2.482,1.32,3.101,1.851c0.6,0.559,0.88,0.878,0.88,0.878
						c-0.005,0.004-0.086-0.064-0.24-0.204c-0.158-0.135-0.375-0.357-0.689-0.617c-0.63-0.509-1.615-1.25-3.099-1.769
						c-0.746-0.236-1.606-0.421-2.568-0.461c-0.962-0.033-2.013,0.061-3.13,0.269c-1.118,0.205-2.302,0.519-3.563,0.866
						c-1.199,0.399-2.284,1.337-3.401,2.257c-4.426,3.832-9.281,9.039-14.885,14.907c-1.405,1.466-2.854,2.977-4.344,4.532
						c-1.512,1.537-3.04,3.136-4.781,4.628c-0.216,0.188-0.452,0.362-0.69,0.535c-0.258,0.173-0.533,0.311-0.789,0.42
						c-0.523,0.24-1.046,0.478-1.561,0.735c-1.026,0.516-2.03,1.108-2.884,1.9c-1.743,1.563-2.81,3.8-3.487,6.145l-0.035,0.12
						l-0.129,0.041c-2.229,0.712-4.455,1.967-6.013,3.872c-0.762,0.948-1.37,2.085-1.96,3.207c-0.569,1.13-1.109,2.329-1.42,3.546
						l-0.071,0.28l-0.263-0.101c-1.048-0.402-2.148-0.746-3.265-0.993c-1.114-0.246-2.272-0.416-3.393-0.291
						c-1.099,0.107-2.087,0.828-3.07,1.46c-0.968,0.667-1.904,1.421-2.768,2.233l-0.057,0.054l-0.073,0.014
						c-7.485,1.415-15.256,2.884-23.213,4.388c-3.141,0.593-6.253,1.18-9.17,1.731l0.211-0.245
						c-0.269,6.978-0.531,13.786-0.783,20.31l-0.207-0.258c4.456,0.77,8.84,1.393,13.112,1.856c4.271,0.469,8.44,0.767,12.465,0.762
						c8.056-0.364,15.602-0.324,22.371,0.364l-0.038-0.001c6.317-0.711,12.061-2.437,16.225-5.373
						c4.107-3.05,7.655-5.684,10.566-7.846c2.9-2.144,5.163-3.816,6.717-4.965c0.762-0.556,1.348-0.982,1.76-1.283
						C588.589,210.969,588.802,210.834,588.802,210.834z"/>
				</g>
				<g style="opacity:0.3;">
					<path d="M571.919,223.31c4.808-0.618,8.441-4.478,12.603-6.964c5.04-3.01,11.202-4.148,15.584-8.055
						c4.56-4.066,6.323-7.657,7.874-13.566c-10.242,11.633-22.079,19.186-35.076,27.631"/>
				</g>
				<g style="opacity:0.3;">
					<path d="M563.174,207.791c-1.198-3.488-2.401-6.984-3.993-10.311c-0.392-0.819-0.818-1.642-1.463-2.282
						c-0.645-0.639-1.55-1.077-2.45-0.955c-0.9,0.122-3.026,0.482-2.7,3.87c1.481,4.248,4.092,8.096,7.492,11.041
						c0.472,0.409,0.982,0.812,1.591,0.953c0.608,0.14,1.339-0.06,1.628-0.614C563.55,208.974,563.364,208.344,563.174,207.791z"/>
				</g>
				<g style="opacity:0.3;">
					<path d="M555.849,214.721c-0.78-4.675-2.713-9.154-5.58-12.929c-0.415,4.635,0.774,9.71,3.259,13.644
						c0.424,0.672,1.211,1.404,1.896,1.002C555.966,216.12,555.952,215.342,555.849,214.721z"/>
				</g>
			</g>
			<g>
				<g>
					<g>
						<g>
							<g>
								<g>
									<g>
										<g>
											<g>
												<g>
													<g>
														<g>
															<g>
																<g>
																	<g>
																		<g>
																			<path style="fill:#455A64;" d="M595.632,99.029c0,0,2.125-2.151,7.097-3.047
																				c9.235-1.665,21.942-1.219,33.976,13.759l1.897,3.735c0,0,0.792-7.132,0.432-10.592
																				c-0.24-2.311-0.005-16.193-16.715-20.479C623.299,82.657,600.014,77.986,595.632,99.029z"/>
																		</g>
																	</g>
																</g>
															</g>
														</g>
													</g>
												</g>
											</g>
										</g>
									</g>
								</g>
							</g>
						</g>
					</g>
				</g>
			</g>
			<path style="fill:#455A64;" d="M597.434,92.127c13.505,0.01,26.215,3.134,35.111,12.783c-6.579-3.614-16.323-5.945-23.824-5.661
				c-7.501,0.283-15.195,0.918-22.36-1.319c-3.23-1.009-6.708-3.211-6.852-6.592L597.434,92.127z"/>
			<g>
				<path style="fill:#263238;" d="M633.931,103.547c-0.021,0.029-0.497-0.26-1.338-0.806c-0.415-0.281-0.934-0.608-1.55-0.965
					c-0.61-0.367-1.298-0.794-2.091-1.21c-1.552-0.892-3.48-1.806-5.641-2.764c-2.181-0.915-4.62-1.821-7.233-2.613
					c-5.237-1.562-10.141-2.343-13.705-2.677c-0.89-0.105-1.699-0.144-2.409-0.197c-0.71-0.059-1.322-0.088-1.823-0.103
					c-1.002-0.043-1.557-0.084-1.558-0.12c0-0.036,0.555-0.063,1.561-0.082c0.503-0.016,1.119-0.016,1.833,0.015
					c0.714,0.025,1.53,0.039,2.426,0.121c3.591,0.243,8.545,0.971,13.823,2.546c2.633,0.798,5.087,1.725,7.275,2.672
					c2.168,0.99,4.093,1.946,5.632,2.885c0.786,0.44,1.465,0.892,2.064,1.284c0.604,0.383,1.109,0.736,1.508,1.044
					C633.516,103.173,633.952,103.518,633.931,103.547z"/>
			</g>
		</g>
		<g>
			<g>
				<path style="fill:#263238;" d="M213.606,228.018c-0.7-3.747-2.129-7.409-2.04-11.22l-5.874,10.176
					c3.09,3.183,5.114,7.384,5.677,11.784C214.095,236.095,214.306,231.765,213.606,228.018z"/>
				<path style="fill:#263238;" d="M189.316,201.404c-2.228,1.05-4.346,2.333-6.309,3.822c-0.427,0.324-0.861,0.675-1.091,1.158
					c-0.23,0.484-0.192,1.138,0.228,1.471c0.334,0.265,0.803,0.262,1.228,0.223c1.236-0.114,2.454-0.429,3.591-0.929"/>
				<path style="fill:#263238;" d="M182.568,213.889c-6.647,1.875-11.29,8.067-12.224,14.54c-0.934,6.473-0.333,15.988,3.747,20.081
					c1.247-8.02,2.906-10.034,5.662-13.436"/>
				<path style="fill:#FF725E;" d="M217.775,184.911c0,0-0.196-2.005-4.005-1.203s-23.657,9.824-31.876,30.272
					c-8.22,20.449-2.258,33.391,8.454,41.572c13.137,10.034,33.4,6.659,33.4,6.659l-1.914-5.293c0,0-21.258-5.98-17.673-23.189
					c0,0,0.279-4.672,5.692-13.749c5.413-9.077,10.132-16.025,12.137-22.24c1.691-5.242,1.83-16.357-4.047-6.234
					C217.674,191.972,218.402,184.441,217.775,184.911z"/>
				<g style="opacity:0.3;">
					<path d="M210.656,208.098c-3.596,6.978-9.982,11.489-11.628,19.165c-1.646,7.676-0.614,16.344,4.58,22.23
						c3.679,4.169,9.026,6.52,14.423,7.857c1.337,0.331,2.77,0.597,4.112,0.422l-0.308-0.853c0,0-21.258-5.98-17.673-23.189
						c0,0,0.279-4.672,5.692-13.749c5.413-9.077,10.132-16.025,12.137-22.24c1.691-5.242,1.83-16.357-4.047-6.234
						c-0.092,0.158-0.068-0.607-0.021-1.666l-4.321,7.265C212.733,197.764,213.537,202.507,210.656,208.098z"/>
				</g>
				<path style="fill:#263238;" d="M198.653,224.359c-3.988,4.552-8.301,8.819-12.896,12.756c3.288,0.554,6.809-0.495,9.258-2.759
					C197.462,232.092,198.949,227.681,198.653,224.359z"/>
				<path style="fill:#FFFFFF;" d="M208.188,189.499l-0.779,0.062c-2.358,0.451-3.623,3.699-2.191,5.625
					c1.432,1.927,4.907,1.652,6.018-0.476C212.347,192.582,210.587,189.573,208.188,189.499z"/>
				<path style="fill:#263238;" d="M208.307,190.484l-0.56,0.044c-1.693,0.324-2.6,2.655-1.572,4.038
					c1.028,1.383,3.522,1.186,4.32-0.342C211.293,192.697,210.03,190.537,208.307,190.484z"/>
				<g>
					<path style="fill:#263238;" d="M210.722,206.54c0.02,0.022-0.173,0.238-0.585,0.557c-0.41,0.321-1.069,0.712-1.954,1.026
						c-1.726,0.638-4.601,0.802-7.091-0.793c-2.469-1.629-3.486-4.323-3.604-6.16c-0.073-0.936,0.018-1.697,0.144-2.202
						c0.124-0.506,0.243-0.769,0.272-0.761c0.105,0.019-0.284,1.13-0.05,2.923c0.204,1.749,1.228,4.252,3.521,5.763
						c2.311,1.482,5.014,1.402,6.695,0.878C209.804,207.258,210.662,206.451,210.722,206.54z"/>
				</g>
				<g>
					<path style="fill:#263238;" d="M209.016,209.794c0.02,0.022-0.173,0.238-0.585,0.557c-0.41,0.321-1.069,0.712-1.954,1.026
						c-1.726,0.638-4.601,0.802-7.091-0.793c-2.469-1.629-3.486-4.323-3.604-6.16c-0.073-0.936,0.018-1.697,0.144-2.202
						c0.124-0.506,0.243-0.769,0.272-0.761c0.105,0.019-0.284,1.13-0.05,2.923c0.204,1.749,1.228,4.252,3.521,5.763
						c2.311,1.482,5.014,1.402,6.695,0.879C208.098,210.512,208.956,209.705,209.016,209.794z"/>
				</g>
				<g>
					<path style="fill:#263238;" d="M203.665,214.944c0.02,0.023-0.122,0.195-0.434,0.446c-0.311,0.252-0.815,0.559-1.495,0.806
						c-1.326,0.502-3.545,0.637-5.472-0.596c-1.91-1.26-2.687-3.344-2.767-4.759c-0.051-0.722,0.026-1.307,0.13-1.693
						c0.102-0.388,0.202-0.587,0.231-0.578c0.096,0.02-0.184,0.872,0.005,2.231c0.166,1.328,0.951,3.221,2.684,4.363
						c1.747,1.121,3.795,1.07,5.076,0.682C202.943,215.466,203.608,214.863,203.665,214.944z"/>
				</g>
				<path style="fill:#263238;" d="M213.157,197.764c0,0-0.749-7.393-0.256-10.388c0.493-2.995,3.029-3.753,3.886-3.606
					c1.169,0.2,1.505,2.251,1.505,2.251s0.031,3.251-0.348,5.488L213.157,197.764z"/>
				<path style="fill:#263238;" d="M209.55,262.53c5.888-1.437,10.581-6.092,13.449-11.431c2.867-5.339,4.161-11.361,5.351-17.304
					c2.639,1.774,4.217,4.81,4.892,7.917c0.675,3.107,1.11,7.363,0.98,10.54c5.912-1.812,11.607-3.531,17.771-3.033
					c-0.658,2.286-2.207,4.221-3.964,5.824c-4.178,3.813-9.626,6.025-15.185,7.072c-5.558,1.046-11.262,0.993-16.913,0.741"/>
				<g>
					<path style="fill:none;" d="M218.031,257.35c-5.397-1.338-10.744-3.688-14.423-7.857c-5.194-5.886-6.226-14.555-4.58-22.23
						c1.646-7.676,5.621-14.619,9.54-21.421c1.678-2.912,3.355-5.823,5.033-8.735l4.321-7.265c0.09-2.061,0.268-5.242-0.146-4.931
						c0,0-0.119-1.163-1.863-1.361c-16.676,6.335-29.711,21.541-33.342,39.017c-1.335,6.427-1.44,13.273,0.905,19.405
						c2.829,7.397,8.828,12.954,15.04,17.996c12.008,4.444,25.233,2.243,25.233,2.243l-1.605-4.44
						C220.801,257.947,219.368,257.682,218.031,257.35z"/>
					<g style="opacity:0.3;">
						<path style="fill:#FFFFFF;" d="M183.475,241.973c-2.345-6.132-2.24-12.978-0.905-19.405
							c3.631-17.476,16.665-32.682,33.342-39.017c-0.543-0.062-1.238-0.033-2.142,0.158c-3.809,0.802-23.657,9.824-31.876,30.272
							c-8.22,20.449-2.258,33.391,8.454,41.572c2.524,1.928,5.311,3.359,8.167,4.416
							C192.303,254.926,186.304,249.37,183.475,241.973z"/>
					</g>
				</g>
			</g>
			<g style="opacity:0.3;">
				<path style="fill:#FFFFFF;" d="M202.238,222.971c-0.391-1.538-1.042-3.343-2.591-3.691c-1.241-0.278-2.434,0.55-3.437,1.332
					c-1.434,1.118-2.869,2.236-4.304,3.354c-0.782,0.609-1.664,1.251-2.653,1.181c-1.279-0.09-2.156-1.323-2.651-2.506
					c-1.062-2.536-1.242-5.431-0.502-8.078c-1.53,3.723-1.825,7.74-1.501,9.759c0.324,2.019,1.77,4.191,3.813,4.097
					c1.55-0.071,2.7-1.389,3.775-2.508c1.557-1.621,3.346-3.019,5.294-4.139c0.442-0.254,0.971-0.5,1.441-0.303
					c0.57,0.239,0.708,0.961,1.003,1.505c0.726,1.338,2.627,1.633,4.031,1.044c1.404-0.589,2.423-1.813,3.385-2.994
					C205.908,222.197,204.089,222.89,202.238,222.971z"/>
			</g>
			<g style="opacity:0.3;">
				<path style="fill:#FFFFFF;" d="M186.156,231.355c-0.045-0.151-0.095-0.261-0.209-0.369c-0.115-0.108-0.144,0.14-0.285,0.209
					c-0.475,0.611-0.813,1.327-0.982,2.081c-0.049,0.216-0.069,0.48,0.101,0.623c0.229,0.193,0.578-0.005,0.772-0.233
					C186.1,233.024,186.397,232.165,186.156,231.355z"/>
			</g>
			<g style="opacity:0.3;">
				<path style="fill:#FFFFFF;" d="M203.113,242.677c-0.069,0.699-0.728,1.234-1.421,1.351c-0.693,0.116-1.4-0.107-2.032-0.414
					c-0.835-0.406-1.86-0.959-2.604-0.403c-0.581,0.434-0.587,1.278-0.722,1.99c-0.322,1.702-1.773,3.131-3.48,3.426
					c-1.706,0.296-3.554-0.561-4.431-2.055l0,0c0.522,2.245,3.045,4.407,5.063,4.559c1.411,0.106,2.718-0.899,3.398-2.14
					c0.68-1.241,0.862-2.685,1.032-4.09c1.121,0.33,2.311,0.663,3.442,0.367C202.49,244.973,203.475,243.788,203.113,242.677z"/>
			</g>
			<path style="fill:#E0E0E0;" d="M185.262,260.136c-0.975,8.655-0.171,9.665,1.687,11.982c1.157,1.443,2.3,1.327,2.932,1.427
				c0.84,0.133,1.612-0.622,1.811-1.449c0.199-0.827-0.022-1.69-0.242-2.511c2.114,1.117,4.347,2.264,6.738,2.214
				c2.391-0.049,4.929-1.759,5.002-4.149c-2.593,1.102-5.579,1.25-8.269,0.41c-2.689-0.84-5.061-2.66-6.566-5.042
				c-0.246,1.427-0.492,2.854-0.738,4.281C186.368,265.099,185.562,262.648,185.262,260.136"/>
		</g>
	</g>
</g>
</svg>
