<svg width="194" height="220" viewBox="0 0 194 220" fill="none" xmlns="http://www.w3.org/2000/svg">
<path d="M47.554 95.121C47.554 95.121 70.465 87.678 93.651 120.981C112.907 148.638 104.149 176.681 96.171 179.456C96.171 179.456 69.159 178.693 62.233 145.901C55.156 112.389 63.898 107.166 47.554 95.121Z" fill="url(#paint0_linear_1_28)"/>
<path opacity="0.3" d="M93.651 120.981C90.704 116.749 87.763 113.178 84.872 110.163C84.831 110.121 84.785 110.08 84.745 110.038C91.467 119.893 96.489 132.071 93.805 134.015C88.856 137.599 71.248 132.076 59.274 125.744C59.695 131.248 60.396 137.193 62.235 145.9C69.161 178.692 96.173 179.455 96.173 179.455C104.149 176.681 112.907 148.638 93.651 120.981Z" fill="#144599"/>
<path opacity="0.5" d="M47.554 95.121C58.037 102.847 58.202 107.77 58.839 119.149C58.839 119.149 60.492 100.457 50.303 95.77C50.303 95.77 60.014 94.956 72.032 99.853C58.057 91.727 47.554 95.121 47.554 95.121Z" fill="white"/>
<path opacity="0.3" d="M72.377 101.714C73.695 102.747 74.3 104.177 73.727 104.907C73.155 105.637 71.622 105.391 70.304 104.358C68.986 103.325 68.381 101.896 68.954 101.166C69.527 100.435 71.059 100.68 72.377 101.714ZM74.426 105.454C73.984 106.017 74.451 107.12 75.468 107.918C76.485 108.715 77.668 108.905 78.109 108.342C78.551 107.779 78.084 106.676 77.067 105.878C76.05 105.081 74.868 104.891 74.426 105.454ZM71.49 106.499C71.149 106.934 71.509 107.786 72.295 108.402C73.081 109.018 73.994 109.164 74.335 108.729C74.676 108.294 74.316 107.442 73.53 106.826C72.744 106.211 71.831 106.064 71.49 106.499ZM67.492 104.041C67.189 104.428 67.509 105.186 68.208 105.734C68.907 106.282 69.72 106.412 70.023 106.025C70.326 105.638 70.006 104.88 69.307 104.332C68.609 103.785 67.796 103.654 67.492 104.041ZM67.118 102.124C66.966 102.318 67.127 102.699 67.477 102.974C67.828 103.249 68.235 103.314 68.388 103.12C68.54 102.926 68.379 102.545 68.029 102.27C67.678 101.995 67.27 101.93 67.118 102.124ZM69.31 107.136C69.113 107.388 69.321 107.881 69.776 108.238C70.231 108.595 70.76 108.68 70.958 108.428C71.155 108.176 70.947 107.683 70.492 107.326C70.037 106.969 69.508 106.884 69.31 107.136Z" fill="#144599"/>
<path d="M144.613 155.168C144.38 111.082 118.254 109.682 118.254 109.682C120.82 132.075 105.891 140.939 105.891 140.939C105.891 140.939 95.861 143.272 64.371 129.276C32.881 115.28 25.416 77.959 49.909 65.829C72.373 54.704 78.645 59.753 79.874 61.212C79.955 61.326 80.038 61.437 80.12 61.55C80.122 61.553 80.126 61.56 80.126 61.56L80.123 61.554C97.883 85.968 124.507 74.57 124.507 74.57C124.507 74.57 99.656 65.621 92.444 47.902C83.217 25.231 95.361 0 95.361 0C95.361 0 67.731 16.509 72.02 42.321L72.016 43.313C70.709 51.836 60.88 52.577 50.743 55.864C45.428 57.588 7.27202 62.436 5.35402 110.381C3.43602 158.326 47.729 240.246 193.208 212.301C189.556 177.765 144.613 155.168 144.613 155.168Z" fill="url(#paint1_linear_1_28)"/>
<path opacity="0.3" d="M7.72004 102.813C7.94104 97.283 8.64904 92.333 9.72904 87.888C7.31804 94.073 5.71204 101.484 5.35604 110.382C3.43804 158.327 47.731 240.247 193.21 212.302C47.554 218.388 5.80304 150.758 7.72004 102.813Z" fill="white"/>
<path opacity="0.3" d="M86.34 206.702C95.777 194.819 94.593 179.457 94.593 179.457C63.465 187.928 48.2 194.631 64.459 202.678C92.963 216.785 133.287 223.027 188.586 213.146C188.586 213.146 126.237 220.912 86.34 206.702Z" fill="#144599"/>
<path opacity="0.25" d="M144.613 155.168C144.38 111.082 118.254 109.682 118.254 109.682C118.254 109.682 142.649 116.717 139.329 152.931C139.329 152.931 124.952 150.222 113.149 150.446C113.149 150.446 173.185 155.047 193.209 212.303C189.556 177.765 144.613 155.168 144.613 155.168Z" fill="white"/>
<path opacity="0.5" d="M61.897 52.589L61.898 52.591C61.898 52.591 70.811 51.247 73.234 45.811C75.658 40.375 71 34.233 76.371 22.616C82.046 10.344 95.362 0 95.362 0C95.362 0 67.732 16.509 72.021 42.321L72.017 43.313C71.217 48.536 67.209 50.834 61.897 52.589Z" fill="white"/>
<path opacity="0.3" d="M89.337 68.1C79.94 61.408 84.174 54.904 70.118 57.056C54.097 59.508 33.831 66.666 33.113 87.888C32.396 109.11 50.271 120.209 50.271 120.209L50.289 120.198C31.276 103.153 29.638 75.868 49.909 65.829C72.373 54.704 78.645 59.753 79.874 61.212C79.955 61.326 80.038 61.437 80.12 61.55C80.122 61.553 80.126 61.56 80.126 61.56L80.123 61.554C97.883 85.968 124.507 74.57 124.507 74.57C114.642 78.173 98.734 74.792 89.337 68.1Z" fill="#144599"/>
<path d="M0 202.445C0 202.445 10.418 224.165 50.523 217.974C83.829 212.833 98.087 187.147 94.592 179.457C94.592 179.457 75.404 160.429 46.888 178.039C17.745 196.035 19.996 205.967 0 202.445Z" fill="url(#paint2_linear_1_28)"/>
<path opacity="0.3" d="M50.523 217.974C83.829 212.833 98.087 187.147 94.592 179.456C94.592 179.456 88.114 204.241 47.554 213.843C17.459 220.968 0.00100708 202.444 0.00100708 202.444C0.00100708 202.444 10.419 224.164 50.523 217.974Z" fill="#144599"/>
<path opacity="0.25" d="M20.365 200.065C31.619 190.948 52.986 171.331 73.071 170.641C65.779 170.194 56.913 171.847 46.887 178.038C17.744 196.035 19.995 205.966 0 202.444C0 202.444 9.10101 209.19 20.365 200.065Z" fill="white"/>
<path opacity="0.3" d="M53.257 184.816C51.377 186.168 49.245 186.42 48.496 185.379C47.747 184.338 48.664 182.397 50.544 181.045C52.424 179.693 54.556 179.441 55.305 180.482C56.054 181.523 55.137 183.464 53.257 184.816ZM47.894 187.172C47.316 186.368 45.671 186.563 44.22 187.606C42.769 188.65 42.061 190.147 42.639 190.951C43.217 191.755 44.862 191.56 46.313 190.517C47.764 189.473 48.472 187.975 47.894 187.172ZM46.699 182.945C46.253 182.324 44.982 182.475 43.861 183.281C42.74 184.087 42.193 185.244 42.64 185.865C43.086 186.486 44.357 186.336 45.478 185.529C46.598 184.723 47.145 183.566 46.699 182.945ZM52.715 187.293C52.318 186.741 51.187 186.874 50.19 187.592C49.193 188.309 48.706 189.338 49.104 189.891C49.501 190.443 50.632 190.31 51.629 189.592C52.626 188.874 53.113 187.845 52.715 187.293ZM56.844 184.938C56.534 184.507 55.651 184.611 54.873 185.171C54.095 185.731 53.714 186.535 54.025 186.966C54.335 187.397 55.218 187.293 55.996 186.733C56.774 186.173 57.154 185.369 56.844 184.938ZM42.636 187.31C42.437 187.033 41.869 187.1 41.369 187.46C40.869 187.82 40.625 188.336 40.824 188.613C41.023 188.89 41.591 188.823 42.091 188.463C42.591 188.103 42.835 187.587 42.636 187.31Z" fill="#144599"/>
<defs>
<linearGradient id="paint0_linear_1_28" x1="59.7713" y1="92.7784" x2="90.132" y2="160.799" gradientUnits="userSpaceOnUse">
<stop stop-color="#4ADAFF"/>
<stop offset="0.2205" stop-color="#3DB7E7"/>
<stop offset="0.7552" stop-color="#2065AF"/>
<stop offset="1" stop-color="#144599"/>
</linearGradient>
<linearGradient id="paint1_linear_1_28" x1="29.2741" y1="46.732" x2="170.827" y2="222.887" gradientUnits="userSpaceOnUse">
<stop stop-color="#4ADAFF"/>
<stop offset="0.2205" stop-color="#3DB7E7"/>
<stop offset="0.7552" stop-color="#2065AF"/>
<stop offset="1" stop-color="#144599"/>
</linearGradient>
<linearGradient id="paint2_linear_1_28" x1="2.4064" y1="206.919" x2="143.964" y2="175.248" gradientUnits="userSpaceOnUse">
<stop stop-color="#4ADAFF"/>
<stop offset="0.2205" stop-color="#3DB7E7"/>
<stop offset="0.7552" stop-color="#2065AF"/>
<stop offset="1" stop-color="#144599"/>
</linearGradient>
</defs>
</svg>
