<svg width="2037" height="2012" viewBox="0 0 2037 2012" fill="none" xmlns="http://www.w3.org/2000/svg">
<path d="M1538.84 1496.74C1538.84 1496.74 1871.97 1623.84 2006.64 1230.81" stroke="#231916" stroke-width="0.5669" stroke-miterlimit="22.9256"/>
<path d="M1337.71 754.082C1556.96 812.375 1795.78 956.316 1802.41 1201.77C1802.41 1201.77 1624.02 1044.15 1515.53 1042.95" stroke="#231916" stroke-width="0.5669" stroke-miterlimit="22.9256"/>
<path fill-rule="evenodd" clip-rule="evenodd" d="M1515.53 1042.95C1480.87 954.706 1425.66 853.848 1337.71 754.082C1202.57 600.773 990.157 450.043 656.33 351.637C488.578 412.593 308.081 503.804 116.325 630.836C109.367 635.445 -27.2906 709.71 4.90138 790.988C69.2794 953.532 426.105 1137.47 854.423 1113.48C1062.12 1101.85 1547.19 1047.92 1573.78 1316.9C1573.78 1316.9 1577.17 1199.88 1515.53 1042.95Z" fill="#003780"/>
<mask id="mask0_1_93" style="mask-type:luminance" maskUnits="userSpaceOnUse" x="656" y="252" width="1376" height="1265">
<path d="M1337.71 754.082C1556.96 812.375 1795.78 956.316 1802.41 1201.77C1802.41 1201.77 1624.02 1044.15 1515.53 1042.95C1577.17 1199.88 1573.78 1316.9 1573.78 1316.9C1578.59 1365.56 1568.39 1424.78 1538.84 1496.74C1538.84 1496.74 1871.97 1623.84 2006.64 1230.82C2025.36 1157.55 2033.34 1083.5 2031.12 1010.67C2017.32 558.816 1610.6 153.827 938.637 274.373C849.138 290.428 754.937 315.806 656.33 351.636C990.158 450.043 1202.57 600.773 1337.71 754.082Z" fill="white"/>
</mask>
<g mask="url(#mask0_1_93)">
<path d="M2033.35 153.828H656.33V1623.84H2033.35V153.828Z" fill="url(#paint0_linear_1_93)"/>
</g>
<mask id="mask1_1_93" style="mask-type:luminance" maskUnits="userSpaceOnUse" x="1337" y="754" width="466" height="448">
<path d="M1802.41 1201.77C1795.78 956.316 1556.96 812.376 1337.71 754.082C1425.66 853.848 1480.87 954.706 1515.53 1042.95C1624.02 1044.15 1802.41 1201.77 1802.41 1201.77Z" fill="white"/>
</mask>
<g mask="url(#mask1_1_93)">
<path d="M1802.41 754.082H1337.71V1201.77H1802.41V754.082Z" fill="url(#paint1_linear_1_93)"/>
</g>
<mask id="mask2_1_93" style="mask-type:luminance" maskUnits="userSpaceOnUse" x="0" y="351" width="1110" height="765">
<path d="M854.423 1113.48C854.423 1113.48 1339.31 863.845 971.541 475.848C880.816 429.216 776.43 387.041 656.33 351.637C488.578 412.593 308.081 503.804 116.325 630.836C109.367 635.445 -27.2906 709.71 4.90138 790.988C69.2784 953.532 426.104 1137.47 854.423 1113.48Z" fill="white"/>
</mask>
<g mask="url(#mask2_1_93)">
<path d="M1339.31 351.637H-27.2905V1137.47H1339.31V351.637Z" fill="url(#paint2_linear_1_93)"/>
</g>
<mask id="mask3_1_93" style="mask-type:luminance" maskUnits="userSpaceOnUse" x="923" y="1230" width="1084" height="782">
<path d="M2006.64 1230.82C1933.31 1444.83 1801.13 1504.62 1695.94 1514.68C1469.1 1536.39 1314.46 1331.45 930.107 1383.78C1034.7 1469.54 1139.3 1555.31 1243.89 1641.08C1174.86 1854.45 923.831 2011.34 923.831 2011.34C1575.34 1919.95 1916.21 1584.56 2006.64 1230.82Z" fill="white"/>
</mask>
<g mask="url(#mask3_1_93)">
<path d="M2006.64 1230.82H923.831V2011.34H2006.64V1230.82Z" fill="url(#paint3_linear_1_93)"/>
</g>
<mask id="mask4_1_93" style="mask-type:luminance" maskUnits="userSpaceOnUse" x="938" y="0" width="1099" height="1011">
<path d="M938.637 274.374C1610.6 153.828 2017.32 558.817 2031.12 1010.67C2121.77 38.2449 1071.3 0 1071.3 0L938.637 274.374Z" fill="white"/>
</mask>
<g mask="url(#mask4_1_93)">
<path d="M2121.77 -0.0010376H938.637V1010.67H2121.77V-0.0010376Z" fill="url(#paint4_linear_1_93)"/>
</g>
<path fill-rule="evenodd" clip-rule="evenodd" d="M1243.89 1641.07C1243.89 1641.07 1750.5 1904.83 1996.12 1259.45C1921.17 1450.24 1796.28 1505.08 1695.94 1514.68C1469.1 1536.39 1314.46 1331.44 930.107 1383.77C1034.7 1469.54 1139.3 1555.31 1243.89 1641.07Z" fill="#51F4E9"/>
<path fill-rule="evenodd" clip-rule="evenodd" d="M971.541 475.848C2155.14 521.838 1831.75 1470.79 1831.75 1470.79C1898.81 1430.59 1963.1 1357.89 2006.64 1230.82C2025.36 1157.55 2033.34 1083.5 2031.12 1010.67C2017.32 558.816 1610.6 153.827 938.637 274.373C849.138 290.428 754.937 315.806 656.33 351.636C776.43 387.041 880.816 429.216 971.541 475.848Z" fill="#51F4E9"/>
<path fill-rule="evenodd" clip-rule="evenodd" d="M1103.68 705.173C618.318 1187.58 4.90137 790.988 4.90137 790.988C69.2794 953.532 426.105 1137.47 854.423 1113.48C854.423 1113.48 1153.73 959.392 1103.68 705.173Z" fill="#00478F"/>
<path fill-rule="evenodd" clip-rule="evenodd" d="M1004.97 137.186C1004.97 137.186 1699.68 54.018 1945.59 681.232C1998.37 782.643 2027.59 895.123 2031.12 1010.67C2121.77 38.246 1071.3 0.000976562 1071.3 0.000976562L1004.97 137.186Z" fill="#5EF9F6"/>
<path fill-rule="evenodd" clip-rule="evenodd" d="M4.90138 790.988C4.90138 790.988 390.953 626.836 971.541 475.848C880.816 429.216 776.43 387.041 656.33 351.637C488.578 412.593 308.081 503.804 116.325 630.836C109.367 635.444 -27.2906 709.71 4.90138 790.988Z" fill="#5EF9F6"/>
<defs>
<linearGradient id="paint0_linear_1_93" x1="1348.19" y1="876.85" x2="1533.54" y2="214.097" gradientUnits="userSpaceOnUse">
<stop stop-color="#0067AF"/>
<stop offset="1" stop-color="#34CDF4"/>
</linearGradient>
<linearGradient id="paint1_linear_1_93" x1="1350.21" y1="1010.11" x2="1736.36" y2="953.588" gradientUnits="userSpaceOnUse">
<stop stop-color="#0067AF"/>
<stop offset="1" stop-color="#34CDF4"/>
</linearGradient>
<linearGradient id="paint2_linear_1_93" x1="638.641" y1="1157.48" x2="671.61" y2="373.742" gradientUnits="userSpaceOnUse">
<stop stop-color="#0067AF"/>
<stop offset="1" stop-color="#34CDF4"/>
</linearGradient>
<linearGradient id="paint3_linear_1_93" x1="1401.79" y1="1913.07" x2="1514.09" y2="1396.22" gradientUnits="userSpaceOnUse">
<stop stop-color="#0067AF"/>
<stop offset="1" stop-color="#34CDF4"/>
</linearGradient>
<linearGradient id="paint4_linear_1_93" x1="1528.42" y1="513.867" x2="1626.39" y2="45.5878" gradientUnits="userSpaceOnUse">
<stop stop-color="#0067AF"/>
<stop offset="1" stop-color="#34CDF4"/>
</linearGradient>
</defs>
</svg>
