<?xml version="1.0" encoding="UTF-8" standalone="no"?>
<!-- Created with Inkscape (http://www.inkscape.org/) -->

<svg
   version="1.1"
   id="svg1"
   width="561.5733"
   height="516.21332"
   viewBox="0 0 561.5733 516.21332"
   sodipodi:docname="3796507.eps"
   xmlns:inkscape="http://www.inkscape.org/namespaces/inkscape"
   xmlns:sodipodi="http://sodipodi.sourceforge.net/DTD/sodipodi-0.dtd"
   xmlns="http://www.w3.org/2000/svg"
   xmlns:svg="http://www.w3.org/2000/svg">
  <defs
     id="defs1">
    <clipPath
       clipPathUnits="userSpaceOnUse"
       id="clipPath59">
      <path
         d="M 514.129,453.559 V 234.551 c 0,-17.582 9.812,-33.692 25.437,-41.762 L 891.527,11.0313 C 904.242,4.46875 919.258,4.05078 932.32,9.91016 L 1450.84,207.551 c 16.9,7.57 27.77,24.371 27.77,42.89 V 515.48 L 885.59,336.262 514.129,453.559"
         transform="translate(0,-2.5e-5)"
         id="path59" />
    </clipPath>
    <clipPath
       clipPathUnits="userSpaceOnUse"
       id="clipPath63">
      <path
         d="M 1055.88,823.211 487.102,640.941 C 477.965,638.012 471.77,629.531 471.77,619.93 V 457.711 c 0,-8.5 4.89,-16.262 12.574,-19.922 L 880.391,249.051 c 5.406,-2.582 11.617,-2.84 17.222,-0.75 L 1493.6,471.012 c 8.62,3.218 14.34,11.468 14.34,20.668 l 1.05,152.129 c 0,10.363 -7.21,19.332 -17.34,21.55 L 1067.34,823.75 c -3.8,0.832 -7.75,0.641 -11.46,-0.539"
         transform="translate(0,-2.5e-5)"
         id="path63" />
    </clipPath>
    <clipPath
       clipPathUnits="userSpaceOnUse"
       id="clipPath65">
      <path
         d="M 1055.88,823.211 487.102,640.941 C 477.965,638.012 471.77,629.531 471.77,619.93 V 457.711 c 0,-8.5 4.89,-16.262 12.574,-19.922 L 880.391,249.051 c 5.406,-2.582 11.617,-2.84 17.222,-0.75 L 1493.6,471.012 c 8.62,3.218 14.34,11.468 14.34,20.668 l 1.05,152.129 c 0,10.363 -7.21,19.332 -17.34,21.55 L 1067.34,823.75 c -3.8,0.832 -7.75,0.641 -11.46,-0.539"
         transform="translate(0,-2.5e-5)"
         id="path65" />
    </clipPath>
    <clipPath
       clipPathUnits="userSpaceOnUse"
       id="clipPath67">
      <path
         d="M 1055.88,823.211 487.102,640.941 C 477.965,638.012 471.77,629.531 471.77,619.93 V 457.711 c 0,-8.5 4.89,-16.262 12.574,-19.922 L 880.391,249.051 c 5.406,-2.582 11.617,-2.84 17.222,-0.75 L 1493.6,471.012 c 8.62,3.218 14.34,11.468 14.34,20.668 l 1.05,152.129 c 0,10.363 -7.21,19.332 -17.34,21.55 L 1067.34,823.75 c -3.8,0.832 -7.75,0.641 -11.46,-0.539"
         transform="translate(0,-2.5e-5)"
         id="path67" />
    </clipPath>
    <clipPath
       clipPathUnits="userSpaceOnUse"
       id="clipPath77">
      <path
         d="m 621.656,1561.42 c 0,0 -22.812,-133.59 -6.519,-198.77 16.289,-65.16 45.621,-101 45.621,-101 0,0 -81.465,-120.56 -65.168,-221.57 16.293,-101.01 58.648,-114.049 58.648,-114.049 0,0 -35.843,-185.73 29.328,-250.902 65.164,-65.16 208.536,-136.848 368.194,-107.527 159.67,29.328 267.2,35.839 299.78,91.238 32.58,55.402 13.03,299.769 13.03,299.769 0,0 -6.52,270.451 -13.03,436.631 -6.52,166.18 -29.33,299.78 -107.53,364.94 -78.2,65.17 -423.592,-35.84 -527.862,-104.27 -104.265,-68.42 -94.492,-94.49 -94.492,-94.49"
         transform="translate(0,-2.5e-5)"
         id="path77" />
    </clipPath>
    <clipPath
       clipPathUnits="userSpaceOnUse"
       id="clipPath83">
      <path
         d="m 1302.66,1721.08 c 0,0 -61.91,94.49 -146.62,146.63 -84.73,52.14 -303.04,91.24 -391.013,107.53 -87.98,16.29 -182.472,9.78 -208.543,-87.98 -26.062,-97.75 -22.804,-260.67 3.258,-332.36 26.071,-71.68 133.598,-114.04 218.317,-65.17 84.722,48.88 319.321,237.86 400.781,247.65 34.46,4.13 60.76,-4.56 80.13,-13.26 26.41,-11.86 39.93,-23.72 43.69,-3.04"
         transform="translate(0,-2.5e-5)"
         id="path83" />
    </clipPath>
    <clipPath
       clipPathUnits="userSpaceOnUse"
       id="clipPath91">
      <path
         d="m 1165.81,1721.08 c 71.69,26.06 162.92,9.78 195.5,-81.45 32.59,-91.24 61.91,-358.43 61.91,-358.43 0,0 81.46,-9.78 114.05,-45.62 32.58,-35.85 48.87,-127.08 42.36,-172.69 -6.52,-45.63 -120.57,-130.339 -250.9,-133.609 -130.33,-3.25 -224.83,58.66 -270.45,224.839 -45.62,166.18 -27.54,419.72 -27.54,419.72 0,0 16.57,74.55 41.41,91.11 l 93.66,56.13"
         transform="translate(0,-2.5e-5)"
         id="path91" />
    </clipPath>
  </defs>
  <sodipodi:namedview
     id="namedview1"
     pagecolor="#ffffff"
     bordercolor="#000000"
     borderopacity="0.25"
     inkscape:showpageshadow="2"
     inkscape:pageopacity="0.0"
     inkscape:pagecheckerboard="0"
     inkscape:deskcolor="#d1d1d1">
    <inkscape:page
       x="0"
       y="0"
       inkscape:label="1"
       id="page1"
       width="561.5733"
       height="516.21332"
       margin="0"
       bleed="0" />
  </sodipodi:namedview>
  <g
     id="g1"
     inkscape:groupmode="layer"
     inkscape:label="1">
    <g
       id="group-R5">
      <path
         id="path2"
         d="m 106.031,1873.79 c 0,0 22.887,-709.47 615.133,-1182.349 C 1313.41,218.57 2134.07,184.699 2798.45,139.781 c 664.37,-44.9099 1174.67,331.18 1251.57,899.709 76.91,568.52 -430.75,735.42 -706.19,1382.58 C 3068.4,3069.24 3092.9,3281.97 2510.11,3680 1927.31,4078.04 1015.62,3833.63 537.617,3151.73 59.6211,2469.84 106.031,1873.79 106.031,1873.79"
         style="fill:#93d222;fill-opacity:1;fill-rule:nonzero;stroke:none"
         transform="matrix(0.13333333,0,0,-0.13333333,0,516.21333)" />
      <path
         id="path3"
         d="m 2904.95,136.148 c -34.99,0.012 -70.57,1.204 -106.5,3.633 -408.71,27.641 -876.6,51.098 -1314.04,175.141 v 100.726 c 2.69,1.262 5.24,2.422 7.61,3.43 v 0 0 -0.008 c 2.91,1.239 5.54,2.262 7.74,2.989 5.38,1.82 14.38,3.171 25.55,4.589 33.61,4.321 87.26,9.832 138.71,41.973 v 0 c 0.06,0.051 0.13,0.09 0.19,0.129 1,0.621 1.98,1.25 2.94,1.891 0.04,0.019 0.08,0.05 0.12,0.078 0.02,0.011 0.05,0.019 0.07,0.043 12.15,8.039 21.07,16.476 27.12,25.187 6.6,9.473 9.75,19.332 9.74,28.832 -0.01,14.289 -6.99,27.207 -17.61,37.27 -10.65,10.097 -25.03,17.629 -40.96,21.621 -24.97,6.238 -51.04,13.539 -70.85,19.277 -9.91,2.86 -18.25,5.34 -24.12,7.102 -2.15,0.64 -3.97,1.187 -5.41,1.629 l -4.41,69.242 c 53.54,10.367 97.2,18.918 106.5,20.738 5.4,-2.199 20.53,-6.191 62.62,-6.262 26.7,0.012 78.11,4.922 126.26,15.204 24.06,5.136 47.25,11.617 66.17,19.628 9.46,4.012 17.86,8.399 24.81,13.329 6.93,4.929 12.49,10.39 15.96,16.8 7.79,14.512 15.85,38.289 22.15,66.661 6.28,28.351 10.7,61.171 10.7,93.281 -0.03,35.258 -5.27,69.699 -19.83,96.489 -40.32,73.65 -116.18,109.68 -116.64,109.98 l -1.06,0.39 -1.44,-5.62 v 0 l 1.44,5.62 c -0.06,0.01 -35.17,8.99 -79.71,17.98 -11.62,2.35 -23.86,4.69 -36.3,6.87 -5.4,43.15 -23.33,90.38 -49.97,132.3 -13.98,21.97 -29.37,37.71 -46.25,47.93 -16.84,10.22 -35.1,14.81 -54.24,14.81 -0.03,0 -0.07,0 -0.1,0 -25.88,-0.01 -53.36,-8.17 -82.66,-21.47 -34.95,-15.89 -55.84,-23.97 -67.9,-28.03 -2.98,25.52 -9.36,77.89 -17.87,135.49 0.9,0.19 1.8,0.38 2.7,0.6 24.85,5.83 47.8,20.87 64.85,36.96 8.51,8.06 15.54,16.4 20.57,24.19 4.97,7.85 8.16,14.93 8.27,21.82 0,1.01 -0.08,2.02 -0.27,3.03 -1.16,6.08 -4.58,11.53 -8.74,16.81 -2.72,3.4 -5.83,6.73 -9.03,9.86 4.95,-1.04 10.08,-1.74 15.07,-1.75 5.96,0.02 11.88,0.97 16.99,4.2 5.15,3.18 8.83,8.99 9.63,16.12 0.15,1.16 0.22,2.32 0.22,3.49 -0.07,10.04 -4.72,20.36 -11.66,30.74 -1.01,1.5 -2.07,3 -3.18,4.49 35.96,39.42 75.15,82.27 117.03,127.86 222.2,-19.13 492.05,-90.93 762.9,-168.28 316.73,-90.41 634.84,-188.35 881.4,-218.13 320.82,-38.71 574.75,-45.76 717.06,-45.76 20.81,0 39.24,0.16 55.13,0.38 9.99,-46.27 15.42,-95.1 15.44,-147.42 0.02,-35.85 -2.51,-73.34 -7.84,-112.76 C 3977.28,501.711 3516.86,136.109 2904.95,136.148 M 642.559,758.512 c -248.286,226.25 -381.844,493.108 -453.614,709.078 96.996,27.46 225.52,62.73 367.09,98.62 1.18,-3.98 2.414,-7.76 3.707,-11.31 v 0 0 c 8.473,-23.29 25.551,-43.49 47.649,-58.47 -2.176,-22.22 -3.914,-47.54 -3.918,-71.79 0.007,-23.22 1.566,-45.45 6.039,-63.39 13.718,-54.85 36.504,-89.33 44.16,-99.85 -5.199,-8.14 -18.508,-29.85 -31.848,-58.9 -17.008,-37.1 -34.156,-86.11 -34.191,-134.49 0,-9.68 0.691,-19.34 2.23,-28.86 8.262,-51.228 23.239,-80.752 36.621,-97.58 8.551,-10.781 16.438,-16.281 21.254,-18.922 -2.363,-13.707 -9.129,-57.089 -9.133,-105.476 0.004,-19.262 1.071,-39.313 3.954,-58.66 M 3987.29,1310.89 c -141.93,0 -395.41,7.03 -715.67,45.68 -244.84,29.52 -562.8,127.29 -879.61,217.76 -267.47,76.34 -534.07,147.52 -756.2,167.89 43.88,47.75 90.56,98.37 139.39,151.08 88.29,-12.88 174.14,-20.95 256.03,-20.96 45.11,0 89.01,2.45 131.45,7.92 500.16,64.41 903.89,113.84 1277.1,126.34 22.09,0.74 43.94,1.09 65.49,1.09 27.52,0 54.57,-0.57 81.01,-1.61 192.87,-260.11 393.43,-438.46 453.54,-694.85 -15.28,-0.2 -32.83,-0.34 -52.53,-0.34 M 185.32,1478.62 c -73.867,227.08 -79.289,395.17 -79.289,395.17 0,0 -1.226,15.75 -1.226,45.08 0,1.62 0.004,3.28 0.011,4.98 14.098,5.94 30.567,12.45 49.782,19.56 66.343,24.54 165.472,56.24 313.191,96.55 76.191,20.79 158.246,29.43 244.391,29.43 0.008,0 0.004,0 0.015,0 0.024,0 0.086,0 0.114,0 38.203,0 77.199,-1.7 116.855,-4.79 12.316,-22.5 26.609,-43.76 41.797,-63.36 -1.059,-3.95 -2.09,-7.86 -3.086,-11.71 -2.918,-11.33 -5.555,-22.18 -7.812,-32.38 -37.754,7.58 -71.184,13.67 -95.036,18.09 -22.668,4.19 -45.765,6.88 -68.015,6.88 -64.114,0 -121.172,-22.29 -140.528,-94.86 -12.214,-45.82 -17.992,-105.96 -17.996,-164.31 v 0 c -0.004,-54.43 5.016,-107.3 14.512,-145.54 -141.844,-35.97 -270.598,-71.3 -367.68,-98.79 m 1300.82,149.58 c -5.62,5.03 -11.56,9.77 -17.63,14.04 -8.51,6 -17.25,11.07 -25.73,14.7 -8.48,3.62 -16.69,5.86 -24.38,5.88 -10.66,-0.06 -21.74,-4.5 -32.83,-10.68 -7.86,-4.43 -15.75,-9.84 -23.21,-15.52 -0.35,1.02 -0.7,2.03 -1.05,3.01 -12.78,35.8 -34.6,60.06 -60.73,74.75 0.74,1.41 1.34,3.17 1.81,5.35 65.23,8.46 125.93,14.11 179.88,16.06 11.54,0.42 23.29,0.63 35.23,0.63 0.06,0 0.14,0 0.19,0 21.86,0 44.36,-0.69 67.43,-2.02 -35.03,-37.48 -68.17,-73.05 -98.98,-106.2 m -190.07,102.4 c -9.11,12.73 -27.21,36.74 -51.67,62.82 9.25,1.96 17.9,4.48 25.97,7.45 12.37,-0.32 24.72,-0.51 36.88,-0.51 28.61,0.01 56.15,1 80.35,3.52 24.22,2.54 45.06,6.53 60.62,12.85 21.61,8.77 36.08,21.86 44.84,37.06 8.78,15.2 11.88,32.23 11.88,48.97 -0.01,14.27 -2.24,28.39 -5.28,41.31 80.91,-16.99 161.15,-32.85 239.66,-45.31 -50.54,-53.66 -98.79,-105.08 -143.94,-153.37 -26.71,1.72 -52.69,2.62 -77.88,2.63 -12.07,0 -23.96,-0.21 -35.65,-0.63 -55.75,-2.04 -118.45,-7.94 -185.78,-16.79 m 735.04,153.34 c -78.66,0 -161.25,7.55 -246.33,19.7 389.98,420.76 911.58,969.11 1224.86,1242.91 3.92,3.42 4.36,9.43 1,13.41 -1.85,2.19 -4.47,3.31 -7.1,3.31 -2.16,0 -4.33,-0.75 -6.1,-2.29 -317.45,-277.46 -852.16,-831.49 -1248.48,-1251.99 -82.51,12.88 -167.14,29.63 -252.58,47.62 -4.55,15.94 -9.76,29.23 -12.26,36.75 -2.3,6.87 -7.65,27.16 -14.19,53.2 -9.84,39.13 -22.55,91.7 -32.8,134.48 -5.12,21.38 -9.63,40.32 -12.86,53.92 -2.39,10.05 -4.07,17.16 -4.79,20.2 1.43,4.17 5.37,15.93 9.33,30.11 4.93,17.77 9.95,39.06 9.99,54.91 0,14.86 -0.82,42.64 -3.28,69.37 -1.24,13.37 -2.88,26.45 -5.08,37.6 -2.26,11.19 -4.8,20.29 -8.91,26.59 -1.41,2.06 -3.15,3.34 -5.11,4.55 -3.68,2.2 -8.48,4.03 -14.57,5.87 -21.18,6.34 -58.05,12.19 -101.07,16.58 -24.45,2.49 -50.84,4.48 -77.26,5.73 -30.72,7.98 -74.25,15.34 -130.39,15.33 -30.51,0 -64.73,-2.17 -102.638,-7.58 -76.074,-10.82 -128.601,-42.69 -161.601,-87.73 -33.024,-45.01 -46.504,-102.6 -46.504,-164.61 0,-31.77 3.539,-64.75 9.855,-97.93 5.789,-30.3 16.602,-59.62 30.551,-87.24 -37.465,2.76 -74.359,4.27 -110.598,4.28 -86.925,-0.01 -170.004,-8.7 -247.461,-29.84 -186.254,-50.84 -295.554,-88.02 -359.789,-114.67 2.664,170.11 46.75,664.71 432.672,1215.25 321.797,459.06 840.073,719.82 1322.313,719.82 234.08,0 459.73,-61.48 650.18,-191.55 582.79,-398.03 558.29,-610.76 833.72,-1257.93 67.87,-159.46 149.8,-289.72 233.65,-404.06 -23.63,0.83 -47.73,1.28 -72.21,1.28 -21.67,0 -43.65,-0.35 -65.88,-1.09 -373.96,-12.53 -778,-62.02 -1278.19,-126.43 -41.87,-5.4 -85.28,-7.83 -129.97,-7.83 -0.04,0 -0.08,0 -0.12,0"
         style="fill:#daee97;fill-opacity:1;fill-rule:nonzero;stroke:none"
         transform="matrix(0.13333333,0,0,-0.13333333,0,516.21333)" />
      <path
         id="path4"
         d="m 3697.4,632.77 c 0,-115.04 -314.29,-208.309 -701.99,-208.309 -387.7,0 -702,93.269 -702,208.309 0,115.05 314.3,208.312 702,208.312 387.7,0 701.99,-93.262 701.99,-208.312"
         style="fill:#17282f;fill-opacity:1;fill-rule:nonzero;stroke:none"
         transform="matrix(0.13333333,0,0,-0.13333333,0,516.21333)" />
      <path
         id="path5"
         d="m 3697.4,632.77 h -5.8 c -0.01,-13.032 -4.41,-25.86 -13.23,-38.692 -15.41,-22.418 -44.6,-44.348 -85.14,-64.109 -121.65,-59.489 -344.06,-99.758 -597.82,-99.707 -193.38,-0.012 -368.46,23.289 -494.74,60.777 -63.13,18.723 -114.05,41.031 -148.76,65.402 -17.36,12.168 -30.64,24.84 -39.46,37.637 -8.83,12.832 -13.23,25.66 -13.24,38.692 0.01,13.039 4.41,25.871 13.24,38.691 15.41,22.43 44.6,44.348 85.14,64.121 121.64,59.477 344.05,99.758 597.82,99.699 193.37,0.008 368.45,-23.293 494.73,-60.769 63.13,-18.723 114.05,-41.032 148.77,-65.403 17.36,-12.179 30.64,-24.847 39.46,-37.648 8.82,-12.82 13.22,-25.652 13.23,-38.691 h 5.8 5.8 c 0.01,15.73 -5.41,30.98 -15.28,45.281 -17.32,25.031 -48.06,47.629 -89.6,67.949 -124.6,60.77 -347.82,100.832 -602.91,100.879 -194.33,-0.008 -370.25,-23.34 -498.04,-61.25 -63.91,-18.981 -115.79,-41.551 -152.12,-67.027 -18.17,-12.75 -32.47,-26.243 -42.35,-40.551 -9.88,-14.301 -15.3,-29.551 -15.29,-45.281 -0.01,-15.719 5.41,-30.981 15.29,-45.27 17.32,-25.039 48.05,-47.629 89.6,-67.949 124.59,-60.77 347.82,-100.84 602.91,-100.891 194.33,0.012 370.24,23.352 498.03,61.262 63.91,18.969 115.79,41.547 152.13,67.019 18.16,12.75 32.46,26.239 42.35,40.559 9.87,14.289 15.29,29.551 15.28,45.27 h -5.8"
         style="fill:#17282f;fill-opacity:1;fill-rule:nonzero;stroke:none"
         transform="matrix(0.13333333,0,0,-0.13333333,0,516.21333)" />
      <path
         id="path6"
         d="m 2995.41,745.262 c 332.11,0 610.16,-68.461 683.13,-160.403 12.2,15.391 18.86,31.422 18.86,47.911 0,115.05 -314.29,208.312 -701.99,208.312 -387.7,0 -702,-93.262 -702,-208.312 0,-16.489 6.66,-32.52 18.87,-47.911 72.97,91.942 351.01,160.403 683.13,160.403"
         style="fill:#ffffff;fill-opacity:1;fill-rule:nonzero;stroke:none"
         transform="matrix(0.13333333,0,0,-0.13333333,0,516.21333)" />
      <path
         id="path7"
         d="m 2995.41,745.262 v -5.801 c 165.65,0.008 317.81,-17.082 437.4,-45.563 59.79,-14.238 111.43,-31.316 152.46,-50.449 41.04,-19.09 71.4,-40.32 88.72,-62.199 1.1,-1.371 2.79,-2.191 4.55,-2.191 1.76,0 3.45,0.82 4.54,2.203 12.78,16.078 20.13,33.41 20.12,51.508 0.01,15.73 -5.41,30.98 -15.28,45.281 -17.32,25.031 -48.06,47.629 -89.6,67.949 -124.6,60.77 -347.82,100.832 -602.91,100.879 -194.33,-0.008 -370.25,-23.34 -498.04,-61.25 -63.91,-18.981 -115.79,-41.551 -152.12,-67.027 -18.17,-12.75 -32.47,-26.243 -42.35,-40.551 -9.88,-14.301 -15.3,-29.551 -15.29,-45.281 -0.01,-18.098 7.35,-35.43 20.12,-51.508 1.1,-1.383 2.78,-2.203 4.55,-2.203 1.76,0 3.44,0.82 4.54,2.191 17.32,21.879 47.69,43.109 88.73,62.199 123.16,57.473 341.41,96.063 589.86,96.012 v 5.801 5.797 c -166.46,0 -319.38,-17.137 -440.09,-45.879 -60.36,-14.371 -112.67,-31.641 -154.67,-51.211 -42,-19.598 -73.75,-41.41 -92.92,-65.5 l 4.55,-3.61 4.54,3.602 c -11.64,14.699 -17.61,29.418 -17.61,44.309 0.01,13.039 4.41,25.871 13.24,38.691 15.41,22.43 44.6,44.348 85.14,64.121 121.64,59.477 344.05,99.758 597.82,99.699 193.37,0.008 368.45,-23.293 494.73,-60.769 63.13,-18.723 114.05,-41.032 148.77,-65.403 17.36,-12.179 30.64,-24.847 39.46,-37.648 8.82,-12.82 13.22,-25.652 13.23,-38.691 0,-14.891 -5.97,-29.61 -17.61,-44.309 l 4.55,-3.602 4.54,3.61 c -19.17,24.09 -50.92,45.902 -92.91,65.5 -125.94,58.621 -345.03,97.043 -594.76,97.09 v -5.797"
         style="fill:#17282f;fill-opacity:1;fill-rule:nonzero;stroke:none"
         transform="matrix(0.13333333,0,0,-0.13333333,0,516.21333)" />
      <path
         id="path8"
         d="m 2899.85,456.441 c -116.89,5.278 -219.44,19.93 -292.35,40.289 -36.45,10.168 -65.48,21.809 -84.95,34.102 -9.74,6.137 -17.06,12.43 -21.76,18.527 -4.73,6.133 -6.84,11.879 -6.85,17.563 0,4.769 1.5,9.558 4.75,14.617 1.74,2.691 0.97,6.281 -1.72,8.02 -2.69,1.73 -6.28,0.961 -8.02,-1.731 -4.23,-6.519 -6.62,-13.609 -6.61,-20.906 -0.01,-8.731 3.4,-17.09 9.27,-24.66 10.32,-13.262 28.07,-24.852 52.06,-35.543 71.91,-31.86 201.3,-54.84 355.66,-61.867 3.2,-0.153 5.91,2.328 6.05,5.527 0.15,3.203 -2.33,5.91 -5.53,6.062"
         style="fill:#ffffff;fill-opacity:1;fill-rule:nonzero;stroke:none"
         transform="matrix(0.13333333,0,0,-0.13333333,0,516.21333)" />
      <path
         id="path9"
         d="m 3441.56,618.711 c 19.71,-8.313 34.97,-17.211 44.96,-26.141 10.05,-8.988 14.52,-17.558 14.51,-25.648 -0.01,-6.43 -2.75,-13.024 -8.9,-20.043 -10.72,-12.27 -31.79,-24.789 -61.11,-35.969 -88.07,-33.769 -249.46,-56.699 -433.54,-56.66 -4.03,0 -8.06,0.012 -12.07,0.039 -3.2,0.031 -5.81,-2.547 -5.84,-5.75 -0.02,-3.211 2.56,-5.82 5.76,-5.848 4.04,-0.031 8.1,-0.043 12.15,-0.043 141.03,0.012 268.69,13.282 361.48,34.852 46.41,10.809 84.09,23.641 110.64,38.23 13.27,7.301 23.79,15.051 31.23,23.481 7.42,8.398 11.8,17.789 11.8,27.711 -0.02,12.617 -6.97,24.148 -18.39,34.308 -11.48,10.219 -27.72,19.52 -48.18,28.161 -2.95,1.25 -6.35,-0.129 -7.59,-3.09 -1.25,-2.949 0.13,-6.352 3.09,-7.59"
         style="fill:#ffffff;fill-opacity:1;fill-rule:nonzero;stroke:none"
         transform="matrix(0.13333333,0,0,-0.13333333,0,516.21333)" />
      <path
         id="path10"
         d="m 2558.84,620.93 c 86.82,34.851 250.95,58.699 438.64,58.66 120.57,0 231.33,-9.781 318.23,-26.059 3.15,-0.59 6.18,1.481 6.77,4.629 0.59,3.149 -1.49,6.18 -4.63,6.77 -87.81,16.449 -199.16,26.25 -320.37,26.261 -188.79,-0.05 -353.43,-23.691 -442.96,-59.492 -2.97,-1.187 -4.41,-4.57 -3.22,-7.539 1.19,-2.969 4.56,-4.422 7.54,-3.23"
         style="fill:#ffffff;fill-opacity:1;fill-rule:nonzero;stroke:none"
         transform="matrix(0.13333333,0,0,-0.13333333,0,516.21333)" />
      <path
         id="path11"
         d="m 2893.69,531.988 c -29.38,4.094 -53.84,9.903 -70.48,16.602 -8.32,3.332 -14.66,6.91 -18.56,10.262 -1.96,1.668 -3.29,3.25 -4.06,4.597 -0.78,1.371 -1.04,2.442 -1.05,3.473 0.01,1.527 0.61,3.316 2.7,5.719 3.58,4.168 11.61,9.101 23.07,13.441 34.47,13.238 98.86,22.457 172.17,22.418 55.89,0.012 106.5,-5.281 142.75,-13.719 18.11,-4.199 32.65,-9.242 42.19,-14.5 4.76,-2.609 8.25,-5.281 10.31,-7.64 2.08,-2.403 2.68,-4.192 2.69,-5.719 -0.01,-1.32 -0.44,-2.793 -1.89,-4.742 -2.49,-3.391 -8.23,-7.578 -16.72,-11.418 -25.51,-11.742 -74.45,-21.051 -133.1,-24.192 -3.2,-0.172 -5.65,-2.91 -5.48,-6.109 0.18,-3.191 2.91,-5.652 6.11,-5.473 45.38,2.473 85,8.41 113.68,16.711 14.36,4.172 25.98,8.883 34.47,14.371 4.24,2.75 7.72,5.719 10.31,9.141 2.57,3.391 4.23,7.418 4.22,11.711 0.01,5.019 -2.24,9.609 -5.58,13.379 -5.91,6.629 -15.28,11.828 -27.64,16.609 -37.01,14.11 -101.95,23.149 -176.32,23.192 -56.63,0 -107.89,-5.313 -145.38,-14.02 -18.76,-4.383 -34.06,-9.562 -45.14,-15.633 -5.54,-3.058 -10.06,-6.34 -13.43,-10.148 -3.35,-3.77 -5.6,-8.36 -5.59,-13.379 -0.01,-3.281 0.98,-6.473 2.6,-9.274 2.88,-4.918 7.51,-8.886 13.45,-12.539 17.82,-10.789 48.68,-19.058 88.1,-24.609 3.17,-0.441 6.1,1.77 6.55,4.949 0.44,3.172 -1.77,6.102 -4.95,6.539"
         style="fill:#ffffff;fill-opacity:1;fill-rule:nonzero;stroke:none"
         transform="matrix(0.13333333,0,0,-0.13333333,0,516.21333)" />
      <path
         id="path12"
         d="m 177.766,1464.42 c 153,43.45 390.507,108.09 634.117,163.47 243.577,55.39 493.377,101.48 670.387,107.9 11.54,0.42 23.29,0.63 35.23,0.63 239.37,0.04 554.68,-82.81 871.33,-173.24 316.73,-90.41 634.84,-188.35 881.4,-218.13 320.82,-38.71 574.75,-45.76 717.06,-45.76 81.31,0 126.18,2.3 126.27,2.31 3.2,0.16 5.66,2.89 5.49,6.09 -0.16,3.2 -2.89,5.66 -6.08,5.49 -0.01,0 -2.76,-0.14 -8.2,-0.35 -16.33,-0.65 -56.66,-1.94 -117.48,-1.94 -141.93,0 -395.41,7.03 -715.67,45.68 -244.84,29.52 -562.8,127.29 -879.61,217.76 -316.89,90.44 -632.59,173.64 -874.51,173.69 -12.07,0 -23.96,-0.21 -35.65,-0.63 -178.52,-6.51 -428.59,-52.74 -672.537,-108.19 -243.918,-55.45 -481.586,-120.13 -634.715,-163.62 -3.082,-0.88 -4.868,-4.09 -3.993,-7.17 0.875,-3.08 4.083,-4.87 7.161,-3.99 v 0"
         style="fill:#17282f;fill-opacity:1;fill-rule:nonzero;stroke:none"
         transform="matrix(0.13333333,0,0,-0.13333333,0,516.21333)" />
      <path
         id="path13"
         d="m 7.49219,1414.73 c 0.01953,0.01 6.59371,2.01 18.99611,5.72 12.4023,3.7 30.5976,9.1 53.7695,15.87 3.0742,0.9 4.836,4.12 3.9375,7.2 -0.8984,3.07 -4.1172,4.84 -7.1953,3.94 -46.3906,-13.56 -72.87109,-21.63 -72.88672,-21.63 -3.0664,-0.93 -4.792968,-4.18 -3.859374,-7.24 0.933594,-3.06 4.171874,-4.79 7.238284,-3.86"
         style="fill:#17282f;fill-opacity:1;fill-rule:nonzero;stroke:none"
         transform="matrix(0.13333333,0,0,-0.13333333,0,516.21333)" />
      <path
         id="path14"
         d="m 3978.47,1967.19 c -111.13,24.34 -280.15,52.1 -473.2,52.1 -21.67,0 -43.65,-0.35 -65.88,-1.09 -373.96,-12.53 -778,-62.02 -1278.19,-126.43 -41.87,-5.4 -85.28,-7.83 -129.97,-7.83 -200.68,-0.02 -426.99,49.12 -654.75,98.39 -227.79,49.25 -457.035,98.64 -664.285,98.66 -86.925,-0.01 -170.004,-8.7 -247.461,-29.84 -210.41,-57.43 -322.617,-97.44 -382.5817,-124.52 -29.9921,-13.56 -46.9296,-23.85 -56.7304,-31.77 -4.8985,-3.97 -8.0352,-7.36 -10.0742,-10.46 -2.0274,-3.07 -2.9571,-5.98 -2.9571,-8.6 -0.0234,-3.18 1.4532,-5.37 2.1563,-6.09 2.164,-2.36 5.832,-2.52 8.1914,-0.36 2.3633,2.17 2.5195,5.84 0.3555,8.2 l -1.9024,-1.75 h 2.8008 l -0.8984,1.75 -1.9024,-1.75 h 2.8008 l 0.1055,0.42 c 0.3632,1.35 3.3281,6.29 14.2578,13.83 16.3281,11.4 49.914,28.84 116.2425,53.36 66.343,24.54 165.472,56.24 313.191,96.55 76.199,20.8 158.25,29.43 244.406,29.43 205.422,0.01 434.075,-49.12 661.835,-98.4 227.78,-49.24 454.65,-98.63 657.2,-98.65 45.11,0 89.01,2.45 131.45,7.92 500.16,64.41 903.89,113.84 1277.1,126.34 22.09,0.74 43.94,1.09 65.49,1.09 191.94,0 360.19,-27.62 470.72,-51.83 3.12,-0.69 6.22,1.3 6.9,4.42 0.69,3.13 -1.29,6.22 -4.42,6.91"
         style="fill:#17282f;fill-opacity:1;fill-rule:nonzero;stroke:none"
         transform="matrix(0.13333333,0,0,-0.13333333,0,516.21333)" />
      <path
         id="path15"
         d="m 4116.75,1931.26 c -0.09,0.03 -19.05,6.26 -53.3,15.4 -3.1,0.82 -6.27,-1.02 -7.1,-4.11 -0.82,-3.1 1.02,-6.28 4.11,-7.1 17.01,-4.54 30.2,-8.35 39.12,-11.02 4.47,-1.34 7.87,-2.39 10.14,-3.1 2.28,-0.72 3.41,-1.09 3.41,-1.09 3.04,-1 6.32,0.65 7.32,3.7 1,3.04 -0.65,6.32 -3.7,7.32"
         style="fill:#17282f;fill-opacity:1;fill-rule:nonzero;stroke:none"
         transform="matrix(0.13333333,0,0,-0.13333333,0,516.21333)" />
      <path
         id="path16"
         d="m 3218.64,2844.04 5.64,1.38 c -11.39,46.56 -53.27,81.14 -103.34,81.15 -50.08,-0.01 -91.96,-34.59 -103.35,-81.15 -0.42,-1.73 -0.03,-3.56 1.07,-4.96 1.1,-1.4 2.78,-2.22 4.56,-2.22 h 195.42 c 1.79,0 3.47,0.82 4.57,2.22 1.1,1.4 1.49,3.23 1.07,4.96 l -5.64,-1.38 v 5.8 h -195.42 v -5.8 l 5.64,-1.38 c 10.15,41.48 47.47,72.32 92.08,72.31 44.6,0.01 81.92,-30.83 92.07,-72.31 l 5.63,1.38 v 5.8 -5.8"
         style="fill:#17282f;fill-opacity:1;fill-rule:nonzero;stroke:none"
         transform="matrix(0.13333333,0,0,-0.13333333,0,516.21333)" />
      <path
         id="path17"
         d="m 4206.04,2844.04 5.64,1.34 c -12.52,52.83 -56.99,93.22 -112,99.47 l -0.66,-5.76 5.71,-1.06 c 3.28,17.72 5.08,35.97 5.08,54.67 0,164.76 -133.57,298.32 -298.32,298.33 -146.86,-0.01 -268.83,-106.13 -293.63,-245.87 l 5.71,-1.01 3.56,4.57 c -32.68,25.52 -73.76,40.9 -118.47,40.9 -106.49,-0.01 -192.81,-86.33 -192.82,-192.83 0,-18.92 2.84,-37.14 7.9,-54.38 0.73,-2.47 2.99,-4.17 5.57,-4.17 h 976.73 c 1.78,0 3.44,0.81 4.55,2.2 1.1,1.4 1.5,3.2 1.09,4.94 l -5.64,-1.34 v 5.8 h -976.73 v -5.8 l 5.56,1.63 c -4.76,16.25 -7.43,33.37 -7.43,51.12 0,50.07 20.28,95.33 53.08,128.15 32.81,32.8 78.08,53.07 128.14,53.08 42.03,-0.01 80.56,-14.43 111.34,-38.44 1.6,-1.26 3.74,-1.58 5.64,-0.85 1.9,0.73 3.28,2.4 3.64,4.4 23.83,134.27 141.07,236.31 282.21,236.3 79.19,0 150.83,-32.09 202.74,-83.98 51.9,-51.91 83.98,-123.55 83.99,-202.75 0,-17.95 -1.74,-35.49 -4.9,-52.56 -0.29,-1.58 0.08,-3.2 1.04,-4.5 0.96,-1.3 2.41,-2.13 4.01,-2.31 50.07,-5.67 90.63,-42.52 102.02,-90.63 l 5.65,1.34 v 5.8 -5.8"
         style="fill:#17282f;fill-opacity:1;fill-rule:nonzero;stroke:none"
         transform="matrix(0.13333333,0,0,-0.13333333,0,516.21333)" />
      <path
         id="path18"
         d="m 1479.43,2609.42 5.64,1.37 c -6.09,24.9 -28.47,43.36 -55.24,43.38 -26.76,-0.02 -49.15,-18.48 -55.23,-43.38 -0.43,-1.73 -0.03,-3.55 1.07,-4.95 1.1,-1.41 2.78,-2.22 4.56,-2.22 h 99.2 c 1.79,0 3.47,0.81 4.57,2.22 1.1,1.4 1.49,3.22 1.07,4.95 l -5.64,-1.37 v 5.8 h -99.2 v -5.8 l 5.63,-1.38 c 4.86,19.8 22.68,34.54 43.97,34.53 21.3,0.01 39.12,-14.73 43.97,-34.53 l 5.63,1.38 v 5.8 -5.8"
         style="fill:#17282f;fill-opacity:1;fill-rule:nonzero;stroke:none"
         transform="matrix(0.13333333,0,0,-0.13333333,0,516.21333)" />
      <path
         id="path19"
         d="m 1980.67,2609.42 5.64,1.33 c -6.63,27.98 -30.18,49.36 -59.32,52.68 l -0.65,-5.76 5.7,-1.06 c 1.7,9.16 2.63,18.6 2.63,28.27 0,85.22 -69.08,154.3 -154.29,154.3 -75.96,-0.01 -139.04,-54.88 -151.87,-127.17 l 5.71,-1.01 3.57,4.57 c -17.06,13.33 -38.55,21.37 -61.9,21.36 -55.64,0 -100.73,-45.09 -100.74,-100.73 0,-9.89 1.49,-19.42 4.14,-28.42 0.72,-2.47 2.99,-4.16 5.56,-4.16 h 495.82 c 1.78,0 3.44,0.8 4.54,2.2 1.11,1.4 1.51,3.2 1.1,4.93 l -5.64,-1.33 v 5.8 h -495.82 v -5.8 l 5.56,1.63 c -2.35,8 -3.66,16.42 -3.66,25.15 0.01,24.63 9.97,46.88 26.11,63.03 16.15,16.14 38.4,26.1 63.03,26.1 20.68,0 39.61,-7.08 54.76,-18.9 1.6,-1.26 3.75,-1.58 5.65,-0.85 1.9,0.73 3.27,2.4 3.63,4.4 11.86,66.82 70.21,117.61 140.45,117.6 39.42,0 75.06,-15.96 100.9,-41.79 25.83,-25.85 41.79,-61.48 41.79,-100.91 0,-8.92 -0.86,-17.65 -2.43,-26.16 -0.3,-1.58 0.08,-3.21 1.04,-4.5 0.96,-1.3 2.4,-2.13 4,-2.31 24.2,-2.74 43.84,-20.57 49.34,-43.83 l 5.65,1.34 v 5.8 -5.8"
         style="fill:#17282f;fill-opacity:1;fill-rule:nonzero;stroke:none"
         transform="matrix(0.13333333,0,0,-0.13333333,0,516.21333)" />
      <path
         id="path20"
         d="m 1930.21,2452.47 5.63,1.38 c -4.07,16.65 -19.04,28.99 -36.94,29 -17.9,-0.01 -32.87,-12.35 -36.94,-29 -0.42,-1.73 -0.03,-3.56 1.07,-4.96 1.1,-1.4 2.78,-2.22 4.56,-2.22 h 62.62 c 1.78,0 3.46,0.82 4.56,2.22 1.1,1.4 1.5,3.23 1.07,4.96 l -5.63,-1.38 v 5.8 h -62.62 v -5.8 l 5.64,-1.38 c 2.83,11.56 13.24,20.17 25.67,20.16 12.43,0.01 22.84,-8.6 25.68,-20.16 l 5.63,1.38 v 5.8 -5.8"
         style="fill:#17282f;fill-opacity:1;fill-rule:nonzero;stroke:none"
         transform="matrix(0.13333333,0,0,-0.13333333,0,516.21333)" />
      <path
         id="path21"
         d="m 2246.56,2452.47 5.65,1.34 c -4.39,18.53 -19.97,32.67 -39.28,34.87 l -0.65,-5.76 5.7,-1.06 c 1.1,5.9 1.7,12 1.7,18.24 -0.01,54.97 -44.56,99.52 -99.53,99.52 -48.99,-0.01 -89.68,-35.39 -97.96,-82.02 l 5.71,-1.02 3.57,4.57 c -11.12,8.7 -25.15,13.95 -40.38,13.94 -36.3,0 -65.72,-29.42 -65.72,-65.72 0,-6.45 0.97,-12.67 2.69,-18.53 0.72,-2.47 2.99,-4.17 5.56,-4.17 h 312.94 c 1.79,0 3.45,0.81 4.55,2.2 1.11,1.4 1.51,3.21 1.1,4.94 l -5.65,-1.34 v 5.8 h -312.94 v -5.8 l 5.57,1.63 c -1.43,4.87 -2.22,9.98 -2.22,15.27 0,14.97 6.05,28.46 15.85,38.27 9.81,9.81 23.31,15.85 38.27,15.85 12.56,0 24.04,-4.29 33.24,-11.48 1.6,-1.25 3.75,-1.57 5.65,-0.84 1.9,0.73 3.28,2.4 3.63,4.4 7.31,41.16 43.27,72.47 86.54,72.46 24.3,-0.01 46.25,-9.84 62.18,-25.76 15.92,-15.93 25.75,-37.87 25.75,-62.17 0,-5.5 -0.53,-10.88 -1.51,-16.12 -0.29,-1.59 0.08,-3.21 1.04,-4.51 0.97,-1.3 2.41,-2.13 4.01,-2.31 14.37,-1.62 26.04,-12.22 29.3,-26.02 l 5.64,1.33 v 5.8 -5.8"
         style="fill:#17282f;fill-opacity:1;fill-rule:nonzero;stroke:none"
         transform="matrix(0.13333333,0,0,-0.13333333,0,516.21333)" />
      <path
         id="path22"
         d="m 1256.68,1332.41 c -3.19,0 -6.42,0.84 -9.37,2.57 -8.94,5.28 -11.99,16.92 -6.8,26.01 4.76,8.34 1206.89,1319.25 1756.93,1799.99 3.93,3.42 9.84,2.96 13.2,-1.02 3.36,-3.98 2.92,-9.99 -1,-13.41 -547.67,-478.66 -1732.03,-1796.37 -1736.76,-1804.66 -3.47,-6.08 -9.74,-9.48 -16.2,-9.48"
         style="fill:#17282f;fill-opacity:1;fill-rule:nonzero;stroke:none"
         transform="matrix(0.13333333,0,0,-0.13333333,0,516.21333)" />
      <path
         id="path23"
         d="m 1323.02,1593.42 c 0,0 59.61,63.6 95.38,63.6 35.78,0 103.34,-59.62 99.37,-91.42 -3.98,-31.79 -63.59,-3.97 -63.59,-3.97 0,0 -55.65,-75.52 -111.29,-63.6 -55.64,11.93 -19.87,95.39 -19.87,95.39"
         style="fill:#93d222;fill-opacity:1;fill-rule:nonzero;stroke:none"
         transform="matrix(0.13333333,0,0,-0.13333333,0,516.21333)" />
      <path
         id="path24"
         d="m 1323.02,1593.42 4.23,-3.96 c 0,0 0.88,0.94 2.55,2.64 5.83,5.97 21.06,21.04 38.49,34.46 8.71,6.7 17.97,12.99 26.75,17.5 8.76,4.55 17.05,7.2 23.36,7.16 7.14,0.04 17.07,-3.09 27.51,-8.63 15.71,-8.27 32.66,-21.72 45.4,-35.84 6.37,-7.05 11.69,-14.26 15.33,-20.95 3.65,-6.68 5.53,-12.82 5.5,-17.43 l -0.13,-2.05 c -0.64,-4.43 -2.08,-6.24 -4.35,-7.78 -2.31,-1.51 -6.09,-2.4 -10.76,-2.38 -8.15,-0.03 -18.45,2.6 -26.48,5.33 -4.02,1.36 -7.51,2.72 -9.96,3.74 -1.23,0.5 -2.21,0.93 -2.86,1.22 l -0.97,0.43 c -2.51,1.17 -5.48,0.42 -7.12,-1.81 l -0.49,-0.65 c -2.56,-3.36 -14.97,-19.12 -32.41,-33.83 -17.43,-14.78 -39.85,-28.13 -61.53,-28.03 -3.66,0 -7.32,0.36 -10.98,1.15 -10.87,2.39 -16.96,7.3 -20.98,13.81 -3.98,6.52 -5.63,15.1 -5.62,24.26 -0.01,11.76 2.69,24.24 5.43,33.67 1.37,4.72 2.74,8.68 3.76,11.44 0.51,1.38 0.93,2.47 1.22,3.19 l 0.44,1.06 -5.33,2.28 4.23,-3.96 -4.23,3.96 -5.33,2.29 c -0.1,-0.37 -11.72,-27.05 -11.79,-53.93 0.01,-10.46 1.78,-21.14 7.31,-30.28 5.48,-9.17 14.99,-16.32 28.46,-19.14 4.49,-0.96 8.97,-1.4 13.41,-1.4 28.17,0.12 53.75,17.31 72.62,33.89 18.86,16.66 30.99,33.14 31.15,33.34 l -4.67,3.44 -2.46,-5.26 c 0.14,-0.06 6.34,-2.95 15,-5.87 8.69,-2.91 19.75,-5.91 30.18,-5.94 5.96,0.02 11.88,0.97 16.99,4.2 5.15,3.18 8.83,8.99 9.63,16.12 0.15,1.16 0.22,2.32 0.22,3.49 -0.07,10.04 -4.72,20.36 -11.66,30.74 -10.47,15.53 -26.56,31.14 -43.57,43.13 -8.51,6 -17.25,11.07 -25.73,14.7 -8.48,3.62 -16.69,5.86 -24.38,5.88 -10.66,-0.06 -21.74,-4.5 -32.83,-10.68 -33.06,-18.63 -66.56,-54.57 -66.78,-54.75 l -1.1,-1.68 5.33,-2.29"
         style="fill:#17282f;fill-opacity:1;fill-rule:nonzero;stroke:none"
         transform="matrix(0.13333333,0,0,-0.13333333,0,516.21333)" />
      <path
         id="path25"
         d="m 1454.18,1561.63 c 0,0 36.48,-25.23 39.72,-43.03 3.24,-17.81 -40.47,-67.99 -89.04,-79.32 -48.56,-11.33 -74.45,16.19 -59.89,42.08 14.57,25.9 72.72,77.97 109.21,80.27"
         style="fill:#93d222;fill-opacity:1;fill-rule:nonzero;stroke:none"
         transform="matrix(0.13333333,0,0,-0.13333333,0,516.21333)" />
      <path
         id="path26"
         d="m 1454.18,1561.63 -3.3,-4.77 c 0,0 0.51,-0.36 1.48,-1.05 3.38,-2.44 12.05,-8.92 20.04,-16.52 3.99,-3.79 7.81,-7.87 10.67,-11.74 2.89,-3.85 4.71,-7.53 5.12,-9.99 l 0.08,-0.95 c 0.1,-2.75 -2,-8.79 -6.43,-15.54 -6.57,-10.23 -17.87,-22.49 -31.67,-32.99 -13.8,-10.52 -30.11,-19.31 -46.62,-23.15 -7.34,-1.71 -14.05,-2.47 -20.07,-2.47 -12.37,0 -21.75,3.22 -27.8,7.79 -6.06,4.63 -8.92,10.35 -8.95,16.63 0,3.62 1,7.54 3.3,11.64 6.51,11.72 24.48,31.18 44.92,47.28 10.23,8.09 21.11,15.43 31.49,20.81 10.36,5.4 20.25,8.76 28.1,9.23 l -0.36,5.79 -3.3,-4.77 3.3,4.77 -0.37,5.79 c -10.39,-0.68 -21.45,-4.69 -32.71,-10.51 -16.86,-8.76 -34.12,-21.75 -48.71,-35.1 -14.59,-13.39 -26.42,-26.92 -32.47,-37.6 -3.17,-5.63 -4.79,-11.55 -4.79,-17.33 -0.04,-10.11 5.02,-19.5 13.56,-25.89 8.55,-6.43 20.45,-10.13 34.79,-10.13 7,0 14.59,0.88 22.7,2.78 24.85,5.83 47.8,20.87 64.85,36.96 8.51,8.06 15.54,16.4 20.57,24.19 4.97,7.85 8.16,14.93 8.27,21.82 0,1.01 -0.08,2.02 -0.27,3.03 -1.16,6.08 -4.58,11.53 -8.74,16.81 -12.51,15.62 -33.18,29.76 -33.39,29.95 -1.06,0.73 -2.37,1.1 -3.66,1.02 l 0.37,-5.79"
         style="fill:#17282f;fill-opacity:1;fill-rule:nonzero;stroke:none"
         transform="matrix(0.13333333,0,0,-0.13333333,0,516.21333)" />
      <path
         id="path27"
         d="m 2957.67,1791.98 v 1315.41 c 0,2.9 -2.14,5.35 -5.02,5.74 -2.88,0.39 -5.59,-1.39 -6.37,-4.19 0,-0.01 -6.64,-23.83 -13.28,-48.52 -3.32,-12.35 -6.64,-24.92 -9.14,-34.87 -1.25,-4.97 -2.29,-9.29 -3.04,-12.64 -0.37,-1.68 -0.67,-3.11 -0.89,-4.3 -0.21,-1.25 -0.37,-2.05 -0.39,-3.31 0,-3.21 2.6,-5.8 5.8,-5.8 3.21,0 5.8,2.59 5.8,5.8 h -1.25 l 1.25,-0.11 v 0.11 h -1.25 l 1.25,-0.11 c 0.02,0.43 0.49,2.99 1.25,6.28 2.67,11.77 8.96,35.46 14.55,56.08 5.6,20.63 10.5,38.24 10.51,38.28 l -5.58,1.56 h -5.8 V 1791.98 c 0,-3.2 2.59,-5.8 5.8,-5.8 3.2,0 5.8,2.6 5.8,5.8"
         style="fill:#17282f;fill-opacity:1;fill-rule:nonzero;stroke:none"
         transform="matrix(0.13333333,0,0,-0.13333333,0,516.21333)" />
      <path
         id="path28"
         d="M 3500.41,914.43 H 2491.73 v 808.2 h 1008.68 v -808.2"
         style="fill:#93d222;fill-opacity:1;fill-rule:nonzero;stroke:none"
         transform="matrix(0.13333333,0,0,-0.13333333,0,516.21333)" />
      <path
         id="path29"
         d="m 3500.41,914.43 v 5.8 H 2497.53 v 796.6 h 997.08 v -802.4 h 5.8 v 5.8 -5.8 h 5.8 v 808.2 c 0,1.53 -0.62,3.02 -1.7,4.1 -1.08,1.08 -2.57,1.7 -4.1,1.7 H 2491.73 c -1.53,0 -3.02,-0.62 -4.1,-1.7 -1.08,-1.08 -1.7,-2.57 -1.7,-4.1 v -808.2 c 0,-1.532 0.62,-3.02 1.7,-4.102 1.08,-1.078 2.57,-1.699 4.1,-1.699 h 1008.68 c 1.53,0 3.02,0.621 4.1,1.699 1.08,1.082 1.7,2.57 1.7,4.102 h -5.8"
         style="fill:#17282f;fill-opacity:1;fill-rule:nonzero;stroke:none"
         transform="matrix(0.13333333,0,0,-0.13333333,0,516.21333)" />
      <path
         id="path30"
         d="m 2966.21,1726.08 v 46.24 c 0,6.41 -5.18,11.6 -11.6,11.6 -6.41,0 -11.6,-5.19 -11.6,-11.6 v -46.24 h 23.2"
         style="fill:#17282f;fill-opacity:1;fill-rule:nonzero;stroke:none"
         transform="matrix(0.13333333,0,0,-0.13333333,0,516.21333)" />
      <path
         id="path31"
         d="m 3059.15,1838.66 -0.18,-2.32 c -2.02,3.45 -5.6,5.87 -9.88,5.87 -6.4,0 -11.6,-5.19 -11.6,-11.6 v -123.62 c 0,-19.66 -15.98,-35.65 -35.63,-35.65 -5.05,0 -9.85,1.09 -14.21,2.99 -3.1,-4.49 -6.14,-13.14 2.99,-25.06 3.64,-0.7 7.38,-1.13 11.22,-1.13 32.44,0 58.83,26.4 58.83,58.85 v 57.28 h 26.61 l -28.15,74.39"
         style="fill:#17282f;fill-opacity:1;fill-rule:nonzero;stroke:none"
         transform="matrix(0.13333333,0,0,-0.13333333,0,516.21333)" />
      <path
         id="path32"
         d="m 2952.81,3119.73 5.59,-1.57 c 0.02,0.07 2.51,8.93 5.01,20.29 2.5,11.39 5.05,25.12 5.07,35.7 -0.02,4.06 -0.31,7.66 -1.59,11.05 -0.66,1.69 -1.63,3.41 -3.29,4.85 -1.63,1.45 -4.04,2.34 -6.27,2.31 -1.52,-0.01 -2.94,-0.33 -4.27,-0.83 v 0 c -2.71,-1.01 -4.99,-2.79 -6.66,-4.89 -2.52,-3.16 -3.88,-6.89 -4.73,-10.85 -0.84,-3.98 -1.14,-8.25 -1.15,-12.66 0.05,-20.48 6.66,-44.66 6.69,-44.91 0.68,-2.52 2.96,-4.28 5.57,-4.29 2.61,-0.02 4.91,1.71 5.62,4.23 l -5.59,1.57 5.6,1.51 c 0,0 -0.38,1.4 -0.97,3.9 -1.79,7.45 -5.34,24.44 -5.32,37.99 -0.01,5.13 0.54,9.75 1.59,12.83 0.52,1.55 1.14,2.69 1.73,3.41 l 1.7,1.3 v 0 l 0.28,0.09 -0.09,0.45 v -0.46 l 0.09,0.01 -0.09,0.45 v -0.46 2 l -1.29,-1.5 1.29,-0.5 v 2 l -1.29,-1.5 0.7,0.81 -0.86,-0.64 0.16,-0.17 0.7,0.81 -0.86,-0.64 0.21,-0.46 c 0.42,-1.01 0.82,-3.58 0.79,-6.81 0.03,-8.75 -2.36,-22.23 -4.8,-33.21 -1.21,-5.51 -2.43,-10.44 -3.34,-13.98 -0.91,-3.54 -1.51,-5.66 -1.51,-5.66 l 5.58,-1.57 5.6,1.51 -5.6,-1.51"
         style="fill:#17282f;fill-opacity:1;fill-rule:nonzero;stroke:none"
         transform="matrix(0.13333333,0,0,-0.13333333,0,516.21333)" />
      <path
         id="path33"
         d="m 2952.81,3119.73 1.93,5.47 c -0.08,0.03 -9.33,3.29 -21.28,6.58 -12.01,3.27 -26.51,6.63 -38.03,6.66 -4.6,-0.03 -8.8,-0.47 -12.66,-2.32 -1.91,-0.94 -3.77,-2.34 -5.12,-4.34 -1.36,-1.98 -2.04,-4.46 -2.02,-6.85 0,-1.49 0.23,-2.97 0.63,-4.44 v 0 c 1.65,-6.29 6.36,-10.79 11.63,-13.03 5.31,-2.33 11.28,-3.04 17.48,-3.06 11.25,0.02 23.42,2.51 32.95,4.95 9.52,2.45 16.33,4.88 16.44,4.92 2.31,0.82 3.86,3.02 3.85,5.47 0,2.45 -1.55,4.64 -3.87,5.46 l -1.93,-5.47 -1.95,5.46 -1.09,-0.38 c -5.09,-1.76 -27.66,-8.87 -44.4,-8.81 -5.23,-0.02 -9.8,0.71 -12.78,2.06 -3.01,1.43 -4.34,2.84 -5.14,5.49 v 0 l -0.22,1.38 0.03,0.35 v 0.01 l 0.26,0.21 c 0.67,0.56 3.72,1.41 7.91,1.34 9.28,0.04 23.46,-3.06 34.95,-6.25 5.77,-1.58 10.92,-3.17 14.61,-4.36 3.69,-1.19 5.89,-1.97 5.89,-1.97 l 1.93,5.47 -1.95,5.46 1.95,-5.46"
         style="fill:#17282f;fill-opacity:1;fill-rule:nonzero;stroke:none"
         transform="matrix(0.13333333,0,0,-0.13333333,0,516.21333)" />
      <path
         id="path34"
         d="m 1275.51,2481.59 c 0,0 -96.01,53.77 -284.197,26.89 -188.18,-26.89 -224.094,-182.15 -193.372,-343.45 30.723,-161.3 208.739,-297.91 235.619,-286.39 26.89,11.52 -7.68,372.52 53.77,441.65 61.45,69.13 261.15,57.61 272.67,111.38 11.52,53.77 -84.49,49.92 -84.49,49.92"
         style="fill:#17282f;fill-opacity:1;fill-rule:nonzero;stroke:none"
         transform="matrix(0.13333333,0,0,-0.13333333,0,516.21333)" />
      <path
         id="path35"
         d="m 1275.51,2481.59 2.83,5.06 c -0.69,0.4 -63.17,35.16 -185.21,35.15 -30.51,0 -64.73,-2.17 -102.638,-7.58 -76.074,-10.82 -128.601,-42.69 -161.601,-87.73 -33.024,-45.01 -46.504,-102.6 -46.504,-164.61 0,-31.77 3.539,-64.75 9.855,-97.93 15.121,-79.13 64.485,-151.58 114.602,-204.54 25.086,-26.47 50.379,-48.05 71.902,-63.13 10.77,-7.54 20.59,-13.46 29.084,-17.56 8.55,-4.08 15.57,-6.49 21.85,-6.56 2.08,0 4.15,0.29 6.16,1.15 2.18,0.94 3.67,2.48 4.8,4.06 2.15,3.11 3.39,6.8 4.53,11.42 2.07,8.63 3.37,20.53 4.33,35.22 3.31,51.29 2,136.41 5.97,215.58 1.98,39.56 5.29,77.6 11.07,108.92 5.71,31.3 14.26,55.89 25.12,67.93 14.23,16.07 37.37,28.08 64.46,37.37 40.64,14.01 89.76,22.02 130.08,31.57 20.19,4.8 38.19,9.96 52.16,16.75 6.99,3.42 13.01,7.25 17.75,11.86 4.74,4.6 8.21,10.12 9.56,16.46 0.73,3.41 1.09,6.68 1.09,9.8 0.06,11.36 -4.95,20.66 -12.22,27.15 -10.92,9.79 -26.34,14.45 -40.66,17.1 -14.33,2.59 -27.65,2.95 -34.26,2.95 -2.7,0 -4.28,-0.06 -4.34,-0.06 l 0.23,-5.8 2.83,5.06 -2.83,-5.06 0.23,-5.79 0.97,0.03 c 0.66,0.01 1.65,0.02 2.91,0.02 8.21,0.02 28.18,-0.67 45.38,-5.89 8.61,-2.58 16.43,-6.31 21.75,-11.16 5.32,-4.91 8.35,-10.49 8.41,-18.55 0,-2.24 -0.26,-4.69 -0.83,-7.37 -1.06,-4.94 -4.31,-9.47 -10.29,-13.94 -10.41,-7.81 -28.69,-14.28 -50.81,-19.88 -33.2,-8.49 -75.03,-15.45 -113.82,-26.02 -38.76,-10.64 -74.73,-24.65 -96.41,-48.89 -8.58,-9.7 -14.93,-23.58 -20.07,-40.53 -8.95,-29.66 -14.02,-68.96 -17.11,-111.61 -4.63,-63.95 -4.73,-135.39 -5.88,-191.69 -0.57,-28.13 -1.42,-52.5 -3.18,-70.04 -0.88,-8.75 -2.01,-15.82 -3.33,-20.56 -0.64,-2.35 -1.35,-4.12 -1.91,-5.09 l -0.58,-0.84 0.07,-0.07 -0.05,0.08 -0.02,-0.01 0.07,-0.07 -0.05,0.08 0.95,-1.31 -0.63,1.48 -0.32,-0.17 0.95,-1.31 -0.63,1.48 c -0.12,-0.06 -0.65,-0.21 -1.6,-0.21 -2.93,-0.07 -9.14,1.65 -16.81,5.4 -27.175,13.07 -73.659,49.19 -115.921,98.55 -42.355,49.37 -80.711,112.09 -93.312,178.41 -6.203,32.57 -9.653,64.85 -9.653,95.76 -0.004,60.4 13.168,115.41 44.258,157.75 31.106,42.31 80.145,72.52 153.895,83.11 37.363,5.33 71.033,7.46 100.993,7.46 59.91,0 104.97,-8.52 134.96,-16.98 15,-4.24 26.23,-8.46 33.67,-11.59 3.72,-1.57 6.5,-2.87 8.32,-3.76 0.91,-0.45 1.58,-0.8 2.01,-1.02 l 0.47,-0.25 0.12,-0.07 c 0.93,-0.52 1.99,-0.77 3.06,-0.73 l -0.23,5.79"
         style="fill:#17282f;fill-opacity:1;fill-rule:nonzero;stroke:none"
         transform="matrix(0.13333333,0,0,-0.13333333,0,516.21333)" />
      <path
         id="path36"
         d="m 940.977,2385.8 19.55,-127.08 c 0,0 -120.558,-329.1 -101.007,-374.72 19.55,-45.61 202.02,-61.9 202.02,-61.9 0,0 296.51,-35.85 384.49,0 87.98,35.84 42.36,140.1 32.58,169.43 -9.77,29.33 -65.16,263.93 -65.16,263.93 0,0 19.55,55.4 19.55,84.72 0,29.33 -3.26,110.79 -16.3,130.34 -13.03,19.54 -241.12,42.36 -342.13,26.06 -101.004,-16.29 -146.625,-42.35 -133.593,-110.78"
         style="fill:#65696b;fill-opacity:1;fill-rule:nonzero;stroke:none"
         transform="matrix(0.13333333,0,0,-0.13333333,0,516.21333)" />
      <path
         id="path37"
         d="m 940.977,2385.8 -5.731,-0.88 19.551,-127.08 5.73,0.88 -5.445,2 c -0.016,-0.05 -25.82,-70.49 -51.652,-150.81 -12.914,-40.16 -25.836,-82.79 -35.555,-120.38 -9.703,-37.65 -16.262,-70 -16.301,-90.74 0.028,-6.77 0.637,-12.36 2.614,-17.07 3.097,-7.17 8.921,-13.03 16.292,-18.22 12.946,-9.05 31.098,-16.21 51.27,-22.23 60.41,-17.95 139.08,-24.92 139.27,-24.95 l 0.52,5.78 -0.7,-5.76 c 0.12,-0.01 131.98,-15.97 246.41,-15.98 28.61,0.01 56.15,1 80.35,3.52 24.22,2.54 45.06,6.53 60.62,12.85 21.61,8.77 36.08,21.86 44.84,37.06 8.78,15.2 11.88,32.23 11.88,48.97 -0.01,19.02 -3.98,37.79 -8.54,53.79 -4.56,15.97 -9.78,29.28 -12.28,36.81 -2.3,6.87 -7.65,27.16 -14.19,53.2 -9.84,39.13 -22.55,91.7 -32.8,134.48 -5.12,21.38 -9.63,40.32 -12.86,53.92 -3.23,13.59 -5.17,21.81 -5.18,21.83 l -5.64,-1.33 5.47,-1.93 c 0.02,0.08 4.95,14.02 9.89,31.74 4.93,17.77 9.95,39.06 9.99,54.91 0,14.86 -0.82,42.64 -3.28,69.37 -1.24,13.37 -2.88,26.45 -5.08,37.6 -2.26,11.19 -4.8,20.29 -8.91,26.59 -1.41,2.06 -3.15,3.34 -5.11,4.55 -3.68,2.2 -8.48,4.03 -14.57,5.87 -21.18,6.34 -58.05,12.19 -101.07,16.58 -42.97,4.37 -91.9,7.2 -136.52,7.2 -34.25,0 -65.92,-1.65 -90.61,-5.63 -45.18,-7.32 -79.681,-16.47 -103.654,-31.14 -11.969,-7.35 -21.316,-16.19 -27.601,-26.89 -6.297,-10.69 -9.407,-23.11 -9.391,-37.14 0,-7.04 0.766,-14.5 2.277,-22.43 l 5.696,1.09 -5.731,-0.88 5.731,0.88 5.699,1.08 c -1.395,7.33 -2.074,14.07 -2.074,20.26 0.011,12.37 2.656,22.5 7.793,31.27 7.691,13.1 21.418,23.53 42,32.07 20.535,8.52 47.675,14.99 81.095,20.38 23.67,3.82 54.92,5.49 88.77,5.48 53.8,0.01 114.27,-4.17 162.36,-10.19 24.04,-3 45,-6.48 60.35,-10.07 7.67,-1.78 13.96,-3.61 18.38,-5.34 2.2,-0.85 3.94,-1.69 5.08,-2.38 l 1.22,-0.85 0.24,-0.22 0.08,0.07 -0.09,-0.06 0.01,-0.01 0.08,0.07 -0.09,-0.06 c 2.41,-3.47 5.16,-11.89 7.18,-22.39 6.28,-31.7 8.16,-83.05 8.14,-104.73 0.04,-13.47 -4.72,-34.54 -9.56,-51.8 -2.42,-8.65 -4.84,-16.42 -6.65,-22.02 -1.82,-5.59 -3.01,-8.96 -3.01,-8.97 -0.37,-1.04 -0.43,-2.19 -0.18,-3.26 0.01,-0.01 13.85,-58.67 28.93,-121 7.54,-31.17 15.38,-63.26 21.95,-89.4 6.6,-26.2 11.84,-46.24 14.43,-54.03 2.69,-8.06 7.74,-20.92 12.14,-36.34 4.4,-15.38 8.1,-33.21 8.09,-50.6 0,-15.34 -2.85,-30.24 -10.32,-43.16 -7.5,-12.92 -19.58,-24.12 -39.18,-32.13 -13.76,-5.63 -33.83,-9.61 -57.44,-12.05 -23.62,-2.46 -50.81,-3.46 -79.15,-3.46 -56.7,0 -118.01,3.97 -165.09,7.95 -23.54,1.99 -43.54,3.97 -57.64,5.46 -14.1,1.49 -22.26,2.48 -22.28,2.48 l -0.19,0.02 c 0,0 -2.79,0.25 -7.78,0.78 -17.46,1.86 -61.559,7.15 -103.141,16.88 -20.781,4.85 -40.938,10.84 -56.629,17.9 -7.844,3.52 -14.559,7.32 -19.633,11.23 -5.09,3.91 -8.445,7.91 -10.019,11.63 -0.957,2.13 -1.703,6.57 -1.676,12.5 -0.039,18.43 6.297,50.66 15.933,87.84 14.438,55.87 36.168,123.45 54.278,177.01 9.055,26.78 17.207,50.06 23.09,66.64 5.886,16.58 9.492,26.42 9.5,26.45 0.34,0.92 0.437,1.9 0.289,2.87 l -19.551,127.08 -0.035,0.2 -5.699,-1.08"
         style="fill:#17282f;fill-opacity:1;fill-rule:nonzero;stroke:none"
         transform="matrix(0.13333333,0,0,-0.13333333,0,516.21333)" />
      <path
         id="path38"
         d="m 993.109,2239.17 c 0,0 -3.254,-283.48 13.041,-338.87 16.29,-55.4 81.46,-120.57 218.31,-104.28 136.85,16.3 149.89,146.63 149.89,146.63 l -9.78,303.03 -371.461,-6.51"
         style="fill:#ffffff;fill-opacity:1;fill-rule:nonzero;stroke:none"
         transform="matrix(0.13333333,0,0,-0.13333333,0,516.21333)" />
      <path
         id="path39"
         d="m 993.109,2239.17 -5.796,0.07 c 0,-0.02 -0.266,-23.16 -0.266,-57.52 0,-42.97 0.414,-103.48 2.289,-158.27 0.937,-27.4 2.238,-53.36 4.043,-75.04 1.824,-21.72 4.062,-38.98 7.211,-49.75 7.64,-26 25.45,-53.78 55.35,-75.06 29.89,-21.29 71.81,-35.93 127.27,-35.92 13.2,0 27.17,0.83 41.93,2.58 70.31,8.29 109.67,46.49 130.58,82.25 21.02,35.77 24.33,69.08 24.4,69.57 l 0.02,0.76 -9.77,303.03 c -0.1,3.17 -2.73,5.67 -5.9,5.61 l -371.458,-6.51 c -3.133,-0.05 -5.664,-2.6 -5.699,-5.73 l 5.796,-0.07 0.106,-5.8 365.745,6.42 9.59,-297.32 5.8,0.18 -5.77,0.58 -0.04,-0.28 c -0.37,-3.33 -4.61,-35.21 -24.71,-67.7 -20.19,-32.51 -55.57,-65.71 -120.06,-73.47 -14.33,-1.7 -27.84,-2.5 -40.56,-2.5 -53.44,0.01 -92.78,14.02 -120.55,33.77 -27.76,19.75 -44.04,45.38 -50.95,68.89 -2.68,9.02 -5.01,26.1 -6.77,47.43 -5.35,64.19 -6.299,168.03 -6.295,232.35 0,17.15 0.066,31.5 0.132,41.56 0.067,10.06 0.133,15.81 0.133,15.83 l -5.801,0.06 0.106,-5.8 -0.106,5.8"
         style="fill:#17282f;fill-opacity:1;fill-rule:nonzero;stroke:none"
         transform="matrix(0.13333333,0,0,-0.13333333,0,516.21333)" />
      <path
         id="path40"
         d="m 1227.72,2035.52 h -5.8 c -0.02,-10.29 -8.35,-18.62 -18.64,-18.64 -10.29,0.02 -18.62,8.35 -18.64,18.64 0.02,10.29 8.35,18.62 18.64,18.64 10.29,-0.02 18.62,-8.35 18.64,-18.64 h 5.8 5.8 c 0,16.7 -13.54,30.23 -30.24,30.24 -16.7,-0.01 -30.23,-13.54 -30.24,-30.24 0.01,-16.7 13.54,-30.23 30.24,-30.24 16.7,0.01 30.24,13.54 30.24,30.24 h -5.8"
         style="fill:#17282f;fill-opacity:1;fill-rule:nonzero;stroke:none"
         transform="matrix(0.13333333,0,0,-0.13333333,0,516.21333)" />
      <path
         id="path41"
         d="m 1224.46,1932.88 c 0,-9 -7.3,-16.29 -16.29,-16.29 -9,0 -16.29,7.29 -16.29,16.29 0,9 7.29,16.29 16.29,16.29 8.99,0 16.29,-7.29 16.29,-16.29"
         style="fill:#17282f;fill-opacity:1;fill-rule:nonzero;stroke:none"
         transform="matrix(0.13333333,0,0,-0.13333333,0,516.21333)" />
      <path
         id="path42"
         d="m 1126.03,2140.01 c 10.43,-11.19 14.07,-24.74 8.15,-30.26 -5.93,-5.52 -19.18,-0.93 -29.61,10.27 -10.42,11.19 -14.07,24.74 -8.14,30.26 5.92,5.52 19.18,0.92 29.6,-10.27"
         style="fill:#17282f;fill-opacity:1;fill-rule:nonzero;stroke:none"
         transform="matrix(0.13333333,0,0,-0.13333333,0,516.21333)" />
      <path
         id="path43"
         d="m 1258.39,2140.01 c -10.42,-11.19 -14.07,-24.74 -8.14,-30.26 5.92,-5.52 19.18,-0.93 29.6,10.27 10.43,11.19 14.08,24.74 8.15,30.26 -5.92,5.52 -19.18,0.92 -29.61,-10.27"
         style="fill:#17282f;fill-opacity:1;fill-rule:nonzero;stroke:none"
         transform="matrix(0.13333333,0,0,-0.13333333,0,516.21333)" />
      <path
         id="path44"
         d="m 1061.4,2175.48 v 0 c 0.25,0.4 4.21,6.62 11.86,12.56 7.68,5.96 18.84,11.66 34.21,11.67 4.78,0 9.98,-0.55 15.64,-1.86 3.12,-0.72 6.23,1.23 6.95,4.35 0.72,3.12 -1.22,6.23 -4.34,6.95 -6.48,1.5 -12.57,2.16 -18.25,2.16 -18.95,0.02 -33.08,-7.43 -42.21,-14.8 -9.17,-7.39 -13.57,-14.68 -13.81,-15.07 -1.64,-2.74 -0.75,-6.31 1.99,-7.95 2.75,-1.65 6.31,-0.76 7.96,1.99"
         style="fill:#17282f;fill-opacity:1;fill-rule:nonzero;stroke:none"
         transform="matrix(0.13333333,0,0,-0.13333333,0,516.21333)" />
      <path
         id="path45"
         d="m 1254.93,2194.38 0.25,0.07 c 1.39,0.4 8.43,2.22 16.92,2.21 6.68,0.01 14.16,-1.12 20.63,-4.57 6.46,-3.48 12.14,-9.04 15.88,-19.19 1.09,-3.01 4.42,-4.57 7.43,-3.47 3.01,1.09 4.56,4.42 3.47,7.43 -4.55,12.63 -12.55,20.86 -21.35,25.48 -8.79,4.65 -18.14,5.91 -26.06,5.92 -11.54,-0.01 -20.24,-2.7 -20.58,-2.79 -3.06,-0.95 -4.78,-4.19 -3.83,-7.25 0.94,-3.06 4.18,-4.78 7.24,-3.84"
         style="fill:#17282f;fill-opacity:1;fill-rule:nonzero;stroke:none"
         transform="matrix(0.13333333,0,0,-0.13333333,0,516.21333)" />
      <path
         id="path46"
         d="m 1410.15,381.59 c 0,0 51.23,30.742 79.6,42.82 3.01,1.281 5.77,2.352 8.18,3.16 25.07,8.352 96.13,4.172 163.01,45.969 66.88,41.813 33.44,91.973 -16.71,104.5 -50.17,12.543 -104.51,29.262 -104.51,29.262 l -12.54,196.461 c 0,0 -150.47,-41.801 -200.63,-62.703 -50.16,-20.899 -20.9,-317.668 -16.72,-342.75 4.18,-25.079 4.18,-41.797 100.32,-16.719"
         style="fill:#17282f;fill-opacity:1;fill-rule:nonzero;stroke:none"
         transform="matrix(0.13333333,0,0,-0.13333333,0,516.21333)" />
      <path
         id="path47"
         d="m 1410.15,381.59 2.98,-4.969 c 0.01,0 3.17,1.899 8.4,4.957 15.62,9.152 49.81,28.711 70.49,37.5 v -0.008 c 2.91,1.239 5.54,2.262 7.74,2.989 5.38,1.82 14.38,3.171 25.55,4.589 33.61,4.321 87.26,9.832 138.71,41.973 13.87,8.68 23.85,17.848 30.44,27.328 6.6,9.473 9.75,19.332 9.74,28.832 -0.01,14.289 -6.99,27.207 -17.61,37.27 -10.65,10.097 -25.03,17.629 -40.96,21.621 -24.97,6.238 -51.04,13.539 -70.85,19.277 -9.91,2.86 -18.25,5.34 -24.12,7.102 -5.86,1.758 -9.22,2.789 -9.23,2.801 l -1.71,-5.551 5.79,0.371 -12.54,196.457 c -0.11,1.73 -1.01,3.34 -2.43,4.351 -1.41,1.008 -3.23,1.329 -4.91,0.872 -0.02,-0.012 -37.66,-10.473 -81.61,-23.551 -43.99,-13.09 -94.09,-28.731 -119.7,-39.391 -7.78,-3.32 -12.99,-10.5 -17.07,-19.601 -6.09,-13.77 -9.82,-32.918 -12.21,-55.457 -2.36,-22.52 -3.28,-48.372 -3.28,-75.051 0,-43.903 2.5,-90.051 5.28,-127 2.8,-37.012 5.84,-64.531 7.07,-71.949 0.67,-4.012 1.25,-8 2.24,-11.922 1.45,-5.789 4.11,-11.84 9.85,-16.02 5.73,-4.16 13.48,-6.019 24.2,-6.031 15.36,0.031 37.47,3.812 71.21,12.601 l 1.52,0.641 -2.98,4.969 -1.47,5.609 c -33.28,-8.699 -54.84,-12.238 -68.28,-12.219 -6.27,0 -10.71,0.77 -13.72,1.891 -4.47,1.777 -6.1,3.758 -7.74,7.32 -1.56,3.571 -2.38,8.84 -3.39,15.071 -1.08,6.437 -4.18,34.238 -6.94,70.91 -2.77,36.738 -5.25,82.656 -5.25,126.129 -0.01,35.211 1.64,68.84 5.99,94.449 2.16,12.789 5.03,23.57 8.5,31.34 3.45,7.859 7.48,12.269 10.93,13.621 24.55,10.238 74.76,25.949 118.55,38.98 21.92,6.52 42.27,12.391 57.15,16.629 14.87,4.239 24.23,6.84 24.26,6.852 l -1.56,5.59 -5.78,-0.371 12.53,-196.461 c 0.16,-2.41 1.78,-4.461 4.09,-5.168 0.05,-0.02 54.43,-16.75 104.8,-29.34 14.17,-3.531 26.87,-10.301 35.78,-18.781 8.95,-8.52 14,-18.481 14,-28.86 -0.02,-6.961 -2.22,-14.351 -7.66,-22.211 -5.44,-7.84 -14.19,-16.058 -27.07,-24.109 -32.58,-20.359 -66.28,-29.582 -95.13,-34.742 -14.43,-2.571 -27.63,-4.129 -38.9,-5.571 -11.3,-1.457 -20.59,-2.718 -27.75,-5.078 -2.62,-0.871 -5.5,-2 -8.6,-3.32 h -0.01 c -14.62,-6.23 -34.56,-16.98 -51.01,-26.219 -16.43,-9.242 -29.28,-16.953 -29.31,-16.972 l 2.99,-4.969 -1.47,5.609 1.47,-5.609"
         style="fill:#17282f;fill-opacity:1;fill-rule:nonzero;stroke:none"
         transform="matrix(0.13333333,0,0,-0.13333333,0,516.21333)" />
      <path
         id="path48"
         d="m 1577.34,473.539 c -87.77,-16.719 -87.77,-33.437 -183.92,-50.148 -40.8,-7.102 -67.95,-8.153 -85.81,-7.039 0.96,-8.852 1.75,-15.231 2.22,-18.043 4.18,-25.079 4.18,-41.797 100.32,-16.719 0,0 51.23,30.742 79.6,42.82 3.01,1.281 5.77,2.352 8.18,3.16 25.07,8.352 96.13,4.172 163.01,45.969 21.43,13.402 32.47,27.641 36.05,41.242 -31.11,-14.98 -74.2,-32.582 -119.65,-41.242"
         style="fill:#ffffff;fill-opacity:1;fill-rule:nonzero;stroke:none"
         transform="matrix(0.13333333,0,0,-0.13333333,0,516.21333)" />
      <path
         id="path49"
         d="m 1577.34,473.539 -1.08,5.703 c -44.21,-8.41 -66.79,-16.98 -89.72,-25.332 -22.92,-8.32 -46.33,-16.488 -94.11,-24.808 -31.74,-5.52 -55.02,-7.332 -71.91,-7.332 -4.65,0 -8.82,0.14 -12.55,0.371 -1.69,0.109 -3.37,-0.551 -4.55,-1.782 -1.17,-1.23 -1.75,-2.937 -1.57,-4.629 0.96,-8.921 1.75,-15.281 2.25,-18.371 l 0.01,-0.007 c 0.67,-4.02 1.25,-8.012 2.24,-11.922 1.45,-5.789 4.11,-11.84 9.85,-16.02 5.73,-4.16 13.48,-6.019 24.2,-6.031 15.36,0.031 37.47,3.812 71.21,12.601 l 1.52,0.641 c 0.01,0 3.17,1.899 8.4,4.957 15.62,9.152 49.81,28.711 70.49,37.5 v -0.008 c 2.91,1.239 5.54,2.262 7.74,2.989 5.38,1.82 14.38,3.171 25.55,4.589 33.61,4.321 87.26,9.832 138.71,41.973 22.18,13.879 34.47,29.141 38.58,44.688 0.57,2.183 -0.18,4.511 -1.92,5.953 -1.74,1.429 -4.18,1.726 -6.21,0.75 -30.81,-14.852 -73.52,-32.262 -118.21,-40.77 l 1.08,-5.703 1.09,-5.699 c 46.2,8.82 89.68,26.601 121.07,41.719 l -2.51,5.222 -5.61,1.481 c -3.05,-11.672 -12.85,-24.871 -33.51,-37.801 -32.58,-20.359 -66.28,-29.582 -95.13,-34.742 -14.43,-2.571 -27.63,-4.129 -38.9,-5.571 -11.3,-1.457 -20.59,-2.718 -27.75,-5.078 -2.62,-0.871 -5.5,-2 -8.6,-3.32 h -0.01 c -14.62,-6.23 -34.56,-16.98 -51.01,-26.219 -16.43,-9.242 -29.28,-16.953 -29.31,-16.972 l 2.99,-4.969 -1.47,5.609 c -33.28,-8.699 -54.84,-12.238 -68.28,-12.219 -6.27,0 -10.71,0.77 -13.72,1.891 -4.47,1.777 -6.1,3.758 -7.74,7.32 -1.56,3.571 -2.38,8.84 -3.39,15.071 v -0.012 c -0.42,2.539 -1.23,8.941 -2.17,17.719 l -5.77,-0.617 -0.36,-5.782 c 3.98,-0.25 8.39,-0.398 13.27,-0.398 17.72,0.008 41.64,1.887 73.9,7.5 48.36,8.398 73.03,16.949 96.08,25.34 23.05,8.379 44.36,16.519 87.93,24.828 l -1.09,5.699"
         style="fill:#17282f;fill-opacity:1;fill-rule:nonzero;stroke:none"
         transform="matrix(0.13333333,0,0,-0.13333333,0,516.21333)" />
      <path
         id="path50"
         d="m 1612.21,580.641 c 0,0 -3.26,-228.09 -9.77,-276.961 -6.52,-48.879 3.25,-110.789 78.2,-110.789 74.94,0 221.57,48.871 273.71,58.648 52.13,9.781 136.85,32.59 172.69,114.043 35.84,81.469 -182.47,71.688 -182.47,71.688 l 13.03,166.171 c 0,0 -224.83,-45.613 -345.39,-22.8"
         style="fill:#17282f;fill-opacity:1;fill-rule:nonzero;stroke:none"
         transform="matrix(0.13333333,0,0,-0.13333333,0,516.21333)" />
      <path
         id="path51"
         d="m 1612.21,580.641 -5.8,0.078 c 0,-0.028 -0.2,-14.239 -0.61,-36.379 -0.61,-33.199 -1.68,-84.16 -3.2,-131.371 -1.52,-47.137 -3.54,-90.797 -5.91,-108.528 -1.08,-8.089 -1.73,-16.55 -1.73,-25.089 0.02,-22.172 4.32,-45.012 17.51,-62.782 13.18,-17.832 35.45,-29.59 68.17,-29.48 38.63,0.039 94.11,12.379 146.84,25.84 52.62,13.468 102.48,28.152 127.94,32.91 26.31,4.941 61.1,13.18 94.11,30.719 32.98,17.511 64.3,44.55 82.82,86.691 2.98,6.762 4.47,13.219 4.47,19.34 0.01,7.371 -2.22,14.152 -6.08,19.898 -6.8,10.082 -18.02,17.172 -31.36,22.641 -20.04,8.16 -45.3,12.641 -69.69,15.199 -24.38,2.551 -47.86,3.113 -64.02,3.113 -13.04,0 -21.29,-0.371 -21.36,-0.371 l 0.26,-5.8 5.78,-0.45 13.04,166.172 c 0.14,1.817 -0.58,3.586 -1.94,4.797 -1.37,1.199 -3.21,1.699 -5,1.34 -0.01,0 -2.21,-0.449 -6.35,-1.238 -28.99,-5.571 -152.06,-27.852 -255.66,-27.84 -29.58,0 -57.56,1.82 -81.15,6.289 -1.69,0.32 -3.41,-0.121 -4.75,-1.211 -1.33,-1.078 -2.1,-2.688 -2.13,-4.41 l 5.8,-0.078 -1.08,-5.7 c 24.65,-4.66 53.25,-6.48 83.31,-6.492 120.15,0.031 264.12,29.289 264.32,29.313 l -1.16,5.679 -5.78,0.457 -13.04,-166.168 c -0.13,-1.66 0.47,-3.3 1.62,-4.492 1.15,-1.187 2.77,-1.84 4.43,-1.758 0,0 1.97,0.09 5.59,0.18 3.61,0.09 8.84,0.18 15.25,0.18 24.19,0.012 65.28,-1.32 99.77,-8.711 17.23,-3.66 32.78,-8.91 43.47,-15.797 5.36,-3.434 9.48,-7.23 12.18,-11.293 2.7,-4.078 4.11,-8.359 4.13,-13.449 0,-4.231 -1.03,-9.078 -3.49,-14.668 -17.32,-39.32 -46.29,-64.422 -77.65,-81.121 -31.34,-16.672 -64.99,-24.731 -90.8,-29.563 -26.68,-5.019 -76.2,-19.656 -128.67,-33.066 -52.36,-13.422 -107.66,-25.524 -143.97,-25.481 -30.15,0.098 -47.82,10.129 -58.87,24.809 -11.03,14.738 -15.23,35.141 -15.21,55.852 0,7.949 0.61,15.91 1.63,23.558 1.68,12.672 3.09,36.07 4.32,64.41 3.67,84.91 5.5,213.211 5.5,213.239 l -5.8,0.082 -1.08,-5.7 1.08,5.7"
         style="fill:#17282f;fill-opacity:1;fill-rule:nonzero;stroke:none"
         transform="matrix(0.13333333,0,0,-0.13333333,0,516.21333)" />
      <path
         id="path52"
         d="m 2127.04,365.582 c 4.31,9.789 4.87,18.227 2.66,25.547 -16.26,-22.309 -43.66,-49.688 -87.38,-67.899 -78.2,-32.589 -224.83,-68.429 -335.61,-84.73 -50.64,-7.441 -82.75,0.801 -102.86,11.91 7.16,-31.551 28.28,-57.519 76.79,-57.519 74.94,0 221.57,48.871 273.71,58.648 52.13,9.781 136.85,32.59 172.69,114.043"
         style="fill:#ffffff;fill-opacity:1;fill-rule:nonzero;stroke:none"
         transform="matrix(0.13333333,0,0,-0.13333333,0,516.21333)" />
      <path
         id="path53"
         d="m 2127.04,365.582 5.31,-2.332 c 2.96,6.711 4.41,13.121 4.41,19.18 0,3.621 -0.52,7.09 -1.51,10.371 -0.63,2.109 -2.41,3.679 -4.58,4.051 -2.17,0.367 -4.36,-0.532 -5.66,-2.313 -15.77,-21.641 -42.33,-48.207 -84.92,-65.957 -77.33,-32.262 -223.95,-68.141 -334.23,-84.34 -13.22,-1.941 -25.11,-2.793 -35.78,-2.793 -29.42,0.012 -49.57,6.403 -63.42,14.031 -2.01,1.11 -4.46,0.942 -6.29,-0.441 -1.83,-1.367 -2.68,-3.68 -2.17,-5.918 3.76,-16.601 11.34,-32.262 24.78,-43.711 13.42,-11.48 32.4,-18.351 57.66,-18.32 38.63,0.039 94.11,12.379 146.84,25.84 52.62,13.468 102.48,28.152 127.94,32.91 26.31,4.941 61.1,13.18 94.11,30.719 32.98,17.511 64.3,44.55 82.82,86.691 l -5.31,2.332 -5.31,2.34 c -17.32,-39.32 -46.29,-64.422 -77.65,-81.121 -31.34,-16.672 -64.99,-24.731 -90.8,-29.563 -26.68,-5.019 -76.2,-19.656 -128.67,-33.066 -52.36,-13.422 -107.66,-25.524 -143.97,-25.481 -23.26,0.028 -39.08,6.141 -50.14,15.539 -11.04,9.418 -17.59,22.52 -20.99,37.461 l -5.66,-1.281 -2.8,-5.082 c 15.65,-8.656 37.94,-15.488 69.03,-15.476 11.29,0 23.73,0.898 37.47,2.91 111.29,16.398 257.93,52.199 337,85.117 44.85,18.672 73.1,46.851 89.84,69.84 l -4.69,3.41 -5.55,-1.668 c 0.66,-2.211 1.01,-4.52 1.01,-7.031 0,-4.2 -0.99,-8.981 -3.43,-14.508 l 5.31,-2.34"
         style="fill:#17282f;fill-opacity:1;fill-rule:nonzero;stroke:none"
         transform="matrix(0.13333333,0,0,-0.13333333,0,516.21333)" />
      <path
         id="path54"
         d="m 1939,435.641 0.08,-0.301 c 0.46,-1.692 2.52,-10.11 2.52,-21.5 0,-9.121 -1.32,-20.121 -5.7,-31.192 -4.39,-11.07 -11.77,-22.238 -24.24,-32.058 -2.52,-1.981 -2.95,-5.621 -0.98,-8.141 1.98,-2.519 5.63,-2.961 8.15,-0.98 14.13,11.09 22.83,24.152 27.86,36.922 5.05,12.769 6.5,25.23 6.51,35.449 -0.01,14.601 -2.97,24.711 -3.07,25.07 -0.9,3.07 -4.13,4.828 -7.2,3.93 -3.07,-0.91 -4.83,-4.129 -3.93,-7.199"
         style="fill:#ffffff;fill-opacity:1;fill-rule:nonzero;stroke:none"
         transform="matrix(0.13333333,0,0,-0.13333333,0,516.21333)" />
      <path
         id="path55"
         d="m 1589.4,701.199 c 0,0 -5.03,-99.117 0.48,-118.98 20.9,-75.231 27.52,-57.59 183.92,-54.328 156.41,3.25 219.65,65.781 235.94,104.879 16.29,39.101 0,123.82 -6.52,153.14 -6.51,29.328 -58.65,39.11 -78.2,35.852 -19.55,-3.262 -325.84,-87.973 -335.62,-120.563"
         style="fill:#65696b;fill-opacity:1;fill-rule:nonzero;stroke:none"
         transform="matrix(0.13333333,0,0,-0.13333333,0,516.21333)" />
      <path
         id="path56"
         d="m 1589.4,701.199 -5.79,0.289 c 0,-0.047 -2.11,-41.437 -2.11,-76.289 0,-9.558 0.16,-18.629 0.57,-26.277 0.43,-7.703 1.02,-13.813 2.23,-18.25 3.4,-12.242 6.44,-22.16 9.95,-30.371 2.64,-6.153 5.55,-11.36 9.17,-15.731 5.4,-6.59 12.5,-10.988 21.19,-13.398 8.7,-2.434 19.01,-3.18 32.13,-3.192 25.53,0.012 61.95,2.961 117.18,4.11 157.87,3.25 223.68,66.558 241.17,108.449 5.6,13.539 7.44,30.883 7.47,49.449 -0.02,40.481 -9.17,86.844 -13.68,107.184 -1.73,7.816 -6.15,14.367 -11.8,19.57 -8.51,7.828 -19.83,13.02 -31.28,16.438 -11.46,3.398 -23.06,4.968 -32.38,4.98 -3.43,0 -6.56,-0.211 -9.35,-0.672 -3.01,-0.519 -9.78,-2.179 -20.15,-4.898 -36.07,-9.461 -112.97,-31.289 -182.1,-54.371 -34.57,-11.547 -67.17,-23.399 -91.87,-34.239 -12.36,-5.429 -22.74,-10.589 -30.54,-15.48 -3.91,-2.449 -7.18,-4.82 -9.8,-7.281 -2.6,-2.469 -4.7,-4.969 -5.76,-8.36 l -0.24,-1.371 5.79,-0.289 5.56,-1.668 c -0.01,0.219 1,1.957 3.4,3.969 4.45,3.879 12.97,8.941 24.17,14.309 39.31,18.98 111.55,43.031 175.65,62.5 32.07,9.75 62.16,18.382 85.21,24.73 11.52,3.18 21.28,5.793 28.64,7.68 7.31,1.883 12.44,3.082 13.95,3.32 1.94,0.332 4.5,0.52 7.44,0.52 10.69,0.031 26.22,-2.559 39.15,-8.09 6.47,-2.75 12.3,-6.219 16.64,-10.25 4.36,-4.039 7.22,-8.5 8.35,-13.559 4.43,-19.879 13.42,-65.871 13.4,-104.672 0.03,-17.738 -1.94,-33.957 -6.58,-44.988 -15.09,-36.309 -75.75,-98.059 -230.7,-101.309 -55.5,-1.16 -92.27,-4.121 -116.94,-4.109 -11.25,-0.012 -19.94,0.617 -26.59,2.148 -9.98,2.411 -15.26,6.071 -20.39,13.79 -5.07,7.781 -9.28,20.152 -14.29,38.261 -0.75,2.578 -1.45,8.469 -1.82,15.758 -0.39,7.332 -0.55,16.231 -0.55,25.66 0,17.199 0.52,36.153 1.05,50.781 0.52,14.629 1.04,24.899 1.04,24.918 l -5.79,0.301 5.56,-1.668 -5.56,1.668"
         style="fill:#17282f;fill-opacity:1;fill-rule:nonzero;stroke:none"
         transform="matrix(0.13333333,0,0,-0.13333333,0,516.21333)" />
      <path
         id="path57"
         d="M 514.129,453.559 V 234.551 c 0,-17.582 9.812,-33.692 25.437,-41.762 L 891.527,11.0313 C 904.242,4.46875 919.258,4.05078 932.32,9.91016 L 1450.84,207.551 c 16.9,7.57 27.77,24.371 27.77,42.89 V 515.48 L 885.59,336.262 514.129,453.559"
         style="fill:#93d222;fill-opacity:1;fill-rule:nonzero;stroke:none"
         transform="matrix(0.13333333,0,0,-0.13333333,0,516.21333)" />
      <path
         id="path58"
         d="m 911.652,11.6211 c -6.015,0.2109 -11.98,1.7383 -17.461,4.5703 L 542.227,197.941 v 0 c -13.696,7.071 -22.301,21.2 -22.301,36.61 V 414.41 L 877.895,243.809 v 0.011 c 3.785,-1.808 7.882,-2.718 11.988,-2.718 3.301,0 6.605,0.589 9.754,1.757 l 0.008,0.012 12.007,4.481 V 11.6211"
         style="fill:#78ca2a;fill-opacity:1;fill-rule:nonzero;stroke:none"
         transform="matrix(0.13333333,0,0,-0.13333333,0,516.21333)"
         clip-path="url(#clipPath59)" />
      <path
         id="path60"
         d="m 514.129,453.559 h -5.801 V 234.551 c 0,-19.75 11.024,-37.852 28.578,-46.91 v 0 L 888.867,5.87891 C 896.453,1.96094 904.77,-0.0117188 913.094,0 c 7.351,-0.0117188 14.719,1.53125 21.597,4.62109 l -2.371,5.28907 2.067,-5.42188 518.523,197.64072 0.3,0.121 c 18.99,8.52 31.2,27.391 31.2,48.191 V 515.48 c 0,1.84 -0.86,3.551 -2.34,4.649 -1.48,1.101 -3.37,1.43 -5.13,0.902 L 885.625,342.332 515.875,459.09 c -1.758,0.558 -3.691,0.242 -5.176,-0.852 -1.484,-1.09 -2.371,-2.84 -2.371,-4.679 h 5.801 L 512.383,448.031 883.84,330.73 c 1.105,-0.351 2.316,-0.359 3.426,-0.019 L 1472.81,507.672 V 250.441 c 0.01,-16.23 -9.53,-30.961 -24.34,-37.601 l 2.37,-5.289 -2.06,5.418 -518.526,-197.6409 -0.309,-0.1289 c -5.367,-2.4101 -11.113,-3.5976 -16.851,-3.6094 -6.5,0.0118 -12.985,1.5391 -18.903,4.6016 L 542.227,197.941 v 0 c -13.696,7.071 -22.301,21.2 -22.301,36.61 v 219.008 h -5.797 l -1.746,-5.528 1.746,5.528"
         style="fill:#17282f;fill-opacity:1;fill-rule:nonzero;stroke:none"
         transform="matrix(0.13333333,0,0,-0.13333333,0,516.21333)" />
      <path
         id="path61"
         d="M 1055.88,823.211 487.102,640.941 C 477.965,638.012 471.77,629.531 471.77,619.93 V 457.711 c 0,-8.5 4.89,-16.262 12.574,-19.922 L 880.391,249.051 c 5.406,-2.582 11.617,-2.84 17.222,-0.75 L 1493.6,471.012 c 8.62,3.218 14.34,11.468 14.34,20.668 l 1.05,152.129 c 0,10.363 -7.21,19.332 -17.34,21.55 L 1067.34,823.75 c -3.8,0.832 -7.75,0.641 -11.46,-0.539"
         style="fill:#ffffff;fill-opacity:1;fill-rule:nonzero;stroke:none"
         transform="matrix(0.13333333,0,0,-0.13333333,0,516.21333)" />
      <path
         id="path62"
         d="m 880.195,249.148 0.196,-0.097 c 5.406,-2.571 11.617,-2.84 17.222,-0.75 L 1493.6,471.012 c 8.62,3.218 14.34,11.468 14.34,20.668 l 1.05,152.129 c 0,5.339 -1.93,10.281 -5.18,14.152 L 888.844,430.75 880.195,249.148"
         style="fill:#93d222;fill-opacity:1;fill-rule:nonzero;stroke:none"
         transform="matrix(0.13333333,0,0,-0.13333333,0,516.21333)"
         clip-path="url(#clipPath63)" />
      <path
         id="path64"
         d="m 889.883,252.699 c -2.399,0 -4.785,0.531 -6.996,1.582 v 0.008 l -2.391,1.141 8.348,175.32 609.086,225.031 c 3.26,-2.992 5.26,-7.281 5.27,-11.949 l -1.06,-152.113 v -0.039 c 0,-6.782 -4.21,-12.86 -10.57,-15.239 L 895.586,253.73 h 0.004 c -1.848,-0.679 -3.777,-1.031 -5.707,-1.031"
         style="fill:#c4e45e;fill-opacity:1;fill-rule:nonzero;stroke:none"
         transform="matrix(0.13333333,0,0,-0.13333333,0,516.21333)"
         clip-path="url(#clipPath65)" />
      <path
         id="path66"
         d="M 471.77,619.93 V 457.711 c 0,-8.5 4.89,-16.262 12.574,-19.922 L 880.391,249.051 c 2.675,-1.27 5.554,-1.969 8.453,-2.11 V 430.75 L 472.367,623.68 c -0.219,-1.25 -0.597,-2.45 -0.597,-3.75"
         style="fill:#93d222;fill-opacity:1;fill-rule:nonzero;stroke:none"
         transform="matrix(0.13333333,0,0,-0.13333333,0,516.21333)"
         clip-path="url(#clipPath67)" />
      <path
         id="path68"
         d="m 1055.88,823.211 -1.76,5.519 -568.788,-182.261 h -0.004 C 473.797,642.77 465.969,632.051 465.969,619.93 V 457.711 c 0,-10.742 6.176,-20.531 15.879,-25.152 v 0 l 396.047,-188.75 v 0.011 c 3.785,-1.808 7.882,-2.718 11.988,-2.718 3.301,0 6.605,0.589 9.754,1.757 l 0.008,0.012 595.985,222.711 c 10.89,4.066 18.11,14.477 18.11,26.098 v -0.039 l 1.06,152.129 v 0.039 c -0.01,13.082 -9.12,24.41 -21.91,27.211 l -1.24,-5.661 2.03,5.43 -424.31,158.391 -0.79,0.23 c -1.97,0.43 -3.97,0.649 -5.96,0.649 -2.87,0 -5.74,-0.45 -8.5,-1.321 v -0.008 l 1.76,-5.519 1.77,-5.531 c 1.61,0.519 3.29,0.781 4.97,0.781 1.16,0 2.33,-0.129 3.48,-0.379 l 1.24,5.668 -2.03,-5.441 424.31,-158.387 0.79,-0.231 c 7.46,-1.632 12.79,-8.25 12.79,-15.882 v 0.043 l -1.06,-152.133 v -0.039 c 0,-6.782 -4.21,-12.86 -10.57,-15.239 L 895.586,253.73 h 0.004 c -1.848,-0.679 -3.777,-1.031 -5.707,-1.031 -2.399,0 -4.785,0.531 -6.996,1.582 v 0.008 L 486.836,443.02 h 0.004 c -5.664,2.699 -9.274,8.421 -9.274,14.691 V 619.93 c 0.004,7.082 4.567,13.332 11.305,15.492 v 0 l 568.789,182.269 -0.01,-0.011 -1.77,5.531"
         style="fill:#17282f;fill-opacity:1;fill-rule:nonzero;stroke:none"
         transform="matrix(0.13333333,0,0,-0.13333333,0,516.21333)" />
      <path
         id="path69"
         d="m 1837.04,1121.54 c 0,0 74.94,-35.85 114.04,-107.53 39.11,-71.69 9.78,-208.541 -13.03,-250.901 -22.81,-42.359 -175.95,-61.91 -228.09,-61.91 -52.13,0 -61.91,6.512 -61.91,6.512 0,0 -166.17,-32.582 -270.45,-52.129 -104.26,-19.551 -78.19,224.84 -45.61,335.617 32.58,110.791 215.05,166.181 290,166.181 74.94,0 215.05,-35.84 215.05,-35.84"
         style="fill:#17282f;fill-opacity:1;fill-rule:nonzero;stroke:none"
         transform="matrix(0.13333333,0,0,-0.13333333,0,516.21333)" />
      <path
         id="path70"
         d="m 1837.04,1121.54 -2.5,-5.23 0.75,-0.37 c 7.92,-3.9 75.17,-39.36 110.7,-104.71 13.16,-24.05 18.45,-56.832 18.42,-90.929 0,-31.039 -4.3,-63.153 -10.42,-90.77 -6.09,-27.59 -14.11,-50.84 -21.04,-63.672 -2.24,-4.179 -6.45,-8.589 -12.46,-12.839 -10.5,-7.461 -26.24,-14.309 -44.52,-20.11 -54.87,-17.5 -132.59,-25.949 -166.01,-25.91 -25.82,0 -40.99,1.621 -49.47,3.16 -4.23,0.77 -6.79,1.52 -8.17,2 l -1.23,0.5 -0.06,0.031 -1.89,-3.351 2.13,3.199 -0.24,0.152 -1.89,-3.351 2.13,3.199 c -1.27,0.84 -2.83,1.16 -4.33,0.859 -0.03,0 -10.39,-2.027 -27.59,-5.386 -51.62,-10.082 -164.64,-32.071 -242.81,-46.731 -3.66,-0.679 -7.09,-1.011 -10.3,-1.011 -10.51,0.039 -18.77,3.32 -25.96,9.441 -10.76,9.16 -18.83,25.461 -23.92,46.621 -5.13,21.129 -7.36,46.887 -7.35,74.5 -0.02,68.359 13.62,148.059 28.54,198.727 7.76,26.401 24.55,49.781 46.86,70.051 33.42,30.4 79.13,53.54 123.38,68.92 44.21,15.41 87.1,23.07 114.2,23.05 36.62,0.02 90.28,-8.87 134.48,-17.8 22.12,-4.47 41.92,-8.94 56.18,-12.29 7.13,-1.67 12.88,-3.07 16.84,-4.04 3.96,-0.98 6.11,-1.53 6.12,-1.53 l 1.43,5.62 -2.5,-5.23 2.5,5.23 1.44,5.62 c -0.06,0.01 -35.17,8.99 -79.71,17.98 -44.59,8.99 -98.46,18.02 -136.78,18.04 -38.76,-0.05 -103.44,-14.05 -163.35,-42.09 -29.92,-14.04 -58.6,-31.61 -82.03,-52.89 -23.42,-21.28 -41.65,-46.37 -50.19,-75.372 -15.25,-51.918 -28.99,-132.117 -29.01,-201.996 0.02,-37.652 3.94,-72.273 14.25,-98.242 5.17,-12.981 11.99,-23.879 21.07,-31.68 9.04,-7.808 20.45,-12.269 33.51,-12.23 3.99,0 8.13,0.398 12.43,1.199 104.32,19.562 270.49,52.141 270.5,52.141 l -1.12,5.691 -3.21,-4.82 c 2.02,-1.18 12.49,-7.399 65.12,-7.493 26.7,0.012 78.11,4.922 126.26,15.204 24.06,5.136 47.25,11.617 66.17,19.628 9.46,4.012 17.86,8.399 24.81,13.329 6.93,4.929 12.49,10.39 15.96,16.8 7.79,14.512 15.85,38.289 22.15,66.661 6.28,28.351 10.7,61.171 10.7,93.281 -0.03,35.258 -5.27,69.699 -19.83,96.489 -40.32,73.65 -116.18,109.68 -116.64,109.98 l -1.06,0.39 -1.44,-5.62"
         style="fill:#17282f;fill-opacity:1;fill-rule:nonzero;stroke:none"
         transform="matrix(0.13333333,0,0,-0.13333333,0,516.21333)" />
      <path
         id="path71"
         d="m 1649.96,702.238 c 0.3,0.102 35.72,12.473 78.65,40.532 42.91,28.07 93.45,71.878 123.45,135.16 1.37,2.902 0.13,6.359 -2.76,7.73 -2.89,1.371 -6.35,0.129 -7.72,-2.762 -28.66,-60.546 -77.5,-103.089 -119.31,-130.418 -20.9,-13.66 -40,-23.511 -53.85,-29.941 -6.92,-3.207 -12.53,-5.559 -16.39,-7.098 -1.93,-0.769 -3.42,-1.339 -4.42,-1.722 -1,-0.367 -1.47,-0.528 -1.47,-0.528 -3.02,-1.062 -4.62,-4.359 -3.56,-7.39 1.05,-3.02 4.36,-4.621 7.38,-3.563"
         style="fill:#ffffff;fill-opacity:1;fill-rule:nonzero;stroke:none"
         transform="matrix(0.13333333,0,0,-0.13333333,0,516.21333)" />
      <path
         id="path72"
         d="m 1783.65,773.961 c 0.47,0.187 63.08,23.25 122.66,82.809 2.26,2.261 2.26,5.929 0,8.199 -2.27,2.261 -5.94,2.261 -8.2,0 -28.87,-28.867 -58.59,-48.957 -81.05,-61.797 -11.23,-6.41 -20.65,-11.024 -27.22,-14.012 -3.29,-1.488 -5.87,-2.582 -7.61,-3.301 l -1.97,-0.777 -0.62,-0.242 c -3,-1.102 -4.54,-4.442 -3.44,-7.442 1.11,-3.007 4.45,-4.546 7.45,-3.437"
         style="fill:#ffffff;fill-opacity:1;fill-rule:nonzero;stroke:none"
         transform="matrix(0.13333333,0,0,-0.13333333,0,516.21333)" />
      <path
         id="path73"
         d="m 1452.55,1014.01 c 0,0 39.1,-205.28 19.55,-289.998 -19.55,-84.723 -133.59,-97.75 -159.66,-87.981 -26.07,9.778 -13.03,211.797 -13.03,312.801 0,101.018 101.01,94.508 153.14,65.178"
         style="fill:#65696b;fill-opacity:1;fill-rule:nonzero;stroke:none"
         transform="matrix(0.13333333,0,0,-0.13333333,0,516.21333)" />
      <path
         id="path74"
         d="m 1452.55,1014.01 -5.7,-1.08 c 0.01,-0.03 1.55,-8.15 3.89,-21.918 7.02,-41.282 21.05,-133.063 21.03,-204.313 0.01,-23.719 -1.57,-45.16 -5.32,-61.39 -7.57,-32.707 -29.92,-54.028 -56.16,-67.579 -26.16,-13.488 -56.02,-18.699 -76.34,-18.671 -8.85,-0.028 -15.97,1.05 -19.48,2.402 -0.02,-0.012 -0.7,0.328 -1.62,1.758 -1.65,2.441 -3.53,7.613 -4.98,14.59 -4.47,21.089 -5.94,58.351 -5.92,100.39 -0.01,64.192 3.25,139.91 3.25,190.633 0.06,30.289 9.25,49.297 22.84,61.248 13.62,11.94 32.45,17.03 52.58,17.03 24.38,0.03 50.32,-7.57 69.09,-18.15 l 2.84,5.05 -5.7,-1.08 5.7,1.08 2.84,5.06 c -20.62,11.57 -48.02,19.61 -74.77,19.64 -21.98,0 -43.75,-5.52 -60.22,-19.9 -16.49,-14.38 -26.85,-37.4 -26.79,-69.978 0,-50.293 -3.26,-126.102 -3.26,-190.633 0,-32.277 0.8,-61.719 3.29,-84.019 1.25,-11.168 2.9,-20.532 5.23,-27.821 1.18,-3.648 2.52,-6.8 4.27,-9.488 1.75,-2.652 4.02,-5.031 7.26,-6.269 5.86,-2.161 13.79,-3.122 23.55,-3.141 22.17,0.019 53.36,5.437 81.65,19.949 28.2,14.461 53.68,38.512 62.15,75.301 4.07,17.66 5.62,39.75 5.62,63.988 -0.02,96.821 -25.11,228.221 -25.12,228.401 -0.32,1.67 -1.38,3.13 -2.86,3.97 l -2.84,-5.06"
         style="fill:#17282f;fill-opacity:1;fill-rule:nonzero;stroke:none"
         transform="matrix(0.13333333,0,0,-0.13333333,0,516.21333)" />
      <path
         id="path75"
         d="m 621.656,1561.42 c 0,0 -22.812,-133.59 -6.519,-198.77 16.289,-65.16 45.621,-101 45.621,-101 0,0 -81.465,-120.56 -65.168,-221.57 16.293,-101.01 58.648,-114.049 58.648,-114.049 0,0 -35.843,-185.73 29.328,-250.902 65.164,-65.16 208.536,-136.848 368.194,-107.527 159.67,29.328 267.2,35.839 299.78,91.238 32.58,55.402 13.03,299.769 13.03,299.769 0,0 -6.52,270.451 -13.03,436.631 -6.52,166.18 -29.33,299.78 -107.53,364.94 -78.2,65.17 -423.592,-35.84 -527.862,-104.27 -104.265,-68.42 -94.492,-94.49 -94.492,-94.49"
         style="fill:#93d222;fill-opacity:1;fill-rule:nonzero;stroke:none"
         transform="matrix(0.13333333,0,0,-0.13333333,0,516.21333)" />
      <path
         id="path76"
         d="m 977.031,566.648 c -33.355,-0.007 -65.488,4.082 -95.707,11.071 -75.75,21.57 -137.679,60.531 -174.558,97.41 -65.172,65.172 -29.328,250.902 -29.328,250.902 0,0 -42.36,13.039 -58.653,114.049 -16.293,101.01 65.172,221.57 65.172,221.57 0,0 -29.328,35.84 -45.621,101 -7.824,31.31 -6.633,78.39 -3.273,118.88 19.683,-8.22 41.558,-12.82 63.945,-12.82 26.543,0 53.801,6.46 79.051,21.02 84.722,48.88 319.321,237.86 400.781,247.65 6.09,0.73 11.92,1.06 17.51,1.06 15.97,0 29.91,-2.7 41.98,-6.43 -3.28,0.19 -6.59,0.29 -9.89,0.29 -21.27,0 -42.71,-3.97 -62.63,-11.22 l -93.66,-56.13 c -24.84,-16.56 -41.41,-91.11 -41.41,-91.11 0,0 -18.06,-253.23 27.46,-419.42 v 0 0 0 c 0.03,-0.1 0.05,-0.2 0.08,-0.3 v 0 0 0 0 c 44.48,-162.061 135.44,-224.948 260.79,-224.96 v 0 c 0.02,0 0.03,0 0.04,0 v 0 0 0 0 c 2.98,0 6,0.039 9.02,0.11 v 0 c 0.2,0 0.4,0.011 0.6,0.011 v 0 0 c 10.75,0.27 21.39,1.098 31.87,2.41 1.7,-27.793 3.99,-73.91 3.99,-120.882 0,-31.149 -1.01,-62.688 -3.84,-89.387 -2.76,-26.652 -7.64,-48.66 -14.21,-59.641 -7.45,-12.652 -19.27,-22.75 -35.8,-31.289 -24.74,-12.801 -59.81,-21.73 -103.64,-30.043 -43.82,-8.328 -96.4,-16.117 -156.38,-27.14 -24.96,-4.579 -49.51,-6.661 -73.415,-6.661 -0.086,0 -0.188,0 -0.274,0"
         style="fill:#65c030;fill-opacity:1;fill-rule:nonzero;stroke:none"
         transform="matrix(0.13333333,0,0,-0.13333333,0,516.21333)"
         clip-path="url(#clipPath77)" />
      <path
         id="path78"
         d="m 621.656,1561.42 -5.715,0.98 c -0.019,-0.17 -12.457,-72.82 -12.468,-137.76 0.007,-23.22 1.566,-45.45 6.039,-63.39 16.578,-66.28 46.39,-102.82 46.758,-103.28 l 4.488,3.68 -4.805,3.24 c -0.117,-0.17 -17.101,-25.31 -34.129,-62.39 -17.008,-37.1 -34.156,-86.11 -34.191,-134.49 0,-9.68 0.691,-19.34 2.23,-28.86 8.262,-51.228 23.239,-80.752 36.621,-97.58 13.364,-16.84 25.098,-20.808 26.047,-21.078 l 1.707,5.539 -5.695,1.098 c -0.031,-0.207 -9.93,-51.418 -9.938,-109.957 0.004,-26.621 2.04,-54.762 8.098,-80.453 6.074,-25.668 16.137,-49.02 32.762,-65.688 56.051,-55.961 167.301,-115.902 297.84,-115.98 24.585,0 49.835,2.14 75.505,6.847 79.69,14.641 146.46,23.582 197.85,35.911 25.7,6.171 47.59,13.179 65.41,22.382 17.79,9.18 31.63,20.668 40.47,35.707 8.24,14.204 12.78,36.903 15.75,64.301 2.89,27.34 3.9,59.199 3.9,90.61 0,75.382 -5.83,148.179 -5.84,148.261 l -5.78,-0.461 5.8,0.141 c 0,0.02 -6.52,270.46 -13.04,436.72 -3.27,83.3 -10.6,158.59 -27.06,221.59 -16.47,62.96 -42.13,113.87 -82.55,147.58 -9.88,8.21 -23.03,13.7 -38.61,17.25 -15.59,3.53 -33.68,5.1 -53.64,5.11 -67.98,-0.03 -157.935,-18.25 -241.322,-43.05 -83.402,-24.85 -159.91,-56.15 -201.183,-83.19 -44.195,-29.01 -68.277,-50.57 -81.535,-66.22 -13.219,-15.61 -15.797,-25.55 -15.817,-31.1 -0.004,-2.06 0.375,-3.43 0.614,-4.05 l 5.429,2.03 -5.715,0.98 5.715,-0.98 5.43,2.04 -2.731,-1.03 2.883,0.53 -0.152,0.5 -2.731,-1.03 2.883,0.53 -0.023,0.48 c -0.024,1.72 0.867,9.2 13.066,23.61 12.157,14.37 35.442,35.41 79.051,64.02 39.34,25.86 115.512,57.21 198.125,81.77 82.633,24.61 172.023,42.58 238.013,42.56 19.35,0 36.66,-1.55 51.07,-4.82 14.43,-3.27 25.9,-8.28 33.76,-14.85 37.78,-31.46 62.63,-79.93 78.75,-141.6 16.12,-61.63 23.45,-136.23 26.69,-219.12 3.26,-83.04 6.52,-192.19 8.96,-280.56 1.22,-44.19 2.24,-83.19 2.95,-111.13 0.72,-27.949 1.12,-44.8 1.12,-44.851 l 0.02,-0.321 c 0,-0.007 0.36,-4.5 0.9,-12.468 1.64,-23.891 4.9,-78.77 4.9,-134.871 0,-31.149 -1.01,-62.688 -3.84,-89.387 -2.76,-26.652 -7.64,-48.66 -14.21,-59.641 -7.45,-12.652 -19.27,-22.75 -35.8,-31.289 -24.74,-12.801 -59.81,-21.73 -103.64,-30.043 -43.82,-8.328 -96.4,-16.117 -156.38,-27.14 -24.96,-4.579 -49.51,-6.661 -73.415,-6.661 -126.856,-0.089 -236.02,58.872 -289.637,112.582 -14.41,14.372 -23.926,35.719 -29.676,60.149 -5.765,24.41 -7.793,51.769 -7.789,77.793 0,28.617 2.438,55.629 4.875,75.437 1.219,9.903 2.438,18.012 3.352,23.629 0.453,2.813 0.832,4.992 1.097,6.473 0.262,1.48 0.407,2.219 0.407,2.219 0.562,2.91 -1.161,5.781 -3.989,6.648 l -0.554,-1.797 0.613,1.778 -0.059,0.019 -0.554,-1.797 0.613,1.778 c -0.305,0.121 -9.902,3.429 -21.563,18.66 -11.64,15.242 -25.347,42.562 -33.128,90.781 -1.426,8.84 -2.083,17.88 -2.083,27.01 -0.031,45.62 16.481,93.43 33.137,129.65 8.317,18.12 16.645,33.35 22.879,44.03 3.117,5.34 5.711,9.54 7.52,12.39 0.902,1.43 1.609,2.52 2.089,3.25 l 0.708,1.07 c 1.433,2.12 1.304,4.94 -0.317,6.92 l -0.262,0.33 c -2.929,3.72 -29.214,38.36 -44.218,98.41 -4.106,16.36 -5.707,37.91 -5.696,60.58 -0.004,31.76 3.071,65.78 6.153,91.8 1.539,13.02 3.082,24.04 4.234,31.79 1.156,7.76 1.914,12.2 1.914,12.22 0.172,1 0.07,2.06 -0.285,3.01 l -5.43,-2.04"
         style="fill:#17282f;fill-opacity:1;fill-rule:nonzero;stroke:none"
         transform="matrix(0.13333333,0,0,-0.13333333,0,516.21333)" />
      <path
         id="path79"
         d="m 657.195,1257.07 c 0.547,-0.38 90.219,-70.15 226.739,-70.21 38.988,0 81.765,5.72 127.256,20.39 3.04,0.98 4.72,4.25 3.74,7.3 -0.99,3.05 -4.26,4.72 -7.3,3.74 -44.306,-14.29 -85.841,-19.83 -123.696,-19.83 -66.239,-0.01 -121.243,16.99 -159.668,34 -19.211,8.49 -34.27,16.99 -44.489,23.33 -5.109,3.18 -9.007,5.81 -11.613,7.64 -1.305,0.91 -2.281,1.63 -2.926,2.1 l -0.918,0.7 c -2.531,1.96 -6.175,1.51 -8.14,-1.02 -1.965,-2.53 -1.512,-6.17 1.015,-8.14"
         style="fill:#17282f;fill-opacity:1;fill-rule:nonzero;stroke:none"
         transform="matrix(0.13333333,0,0,-0.13333333,0,516.21333)" />
      <path
         id="path80"
         d="m 650.18,921.891 c 0.554,-0.532 77.66,-75.993 213.562,-76.039 65.192,-0.012 143.728,17.457 233.258,68.628 2.78,1.59 3.75,5.129 2.16,7.918 -1.59,2.782 -5.13,3.743 -7.92,2.153 -88,-50.27 -164.388,-67.09 -227.498,-67.102 -65.73,0.012 -117.16,18.281 -152.183,36.539 -17.508,9.121 -30.899,18.242 -39.875,25.043 -4.489,3.399 -7.871,6.231 -10.114,8.18 -1.125,0.98 -1.961,1.738 -2.504,2.238 l -0.601,0.571 -0.164,0.152 c -2.289,2.25 -5.961,2.207 -8.203,-0.082 -2.243,-2.289 -2.207,-5.961 0.082,-8.199"
         style="fill:#17282f;fill-opacity:1;fill-rule:nonzero;stroke:none"
         transform="matrix(0.13333333,0,0,-0.13333333,0,516.21333)" />
      <path
         id="path81"
         d="m 1302.66,1721.08 c 0,0 -61.91,94.49 -146.62,146.63 -84.73,52.14 -303.04,91.24 -391.013,107.53 -87.98,16.29 -182.472,9.78 -208.543,-87.98 -26.062,-97.75 -22.804,-260.67 3.258,-332.36 26.071,-71.68 133.598,-114.04 218.317,-65.17 84.722,48.88 319.321,237.86 400.781,247.65 34.46,4.13 60.76,-4.56 80.13,-13.26 26.41,-11.86 39.93,-23.72 43.69,-3.04"
         style="fill:#65696b;fill-opacity:1;fill-rule:nonzero;stroke:none"
         transform="matrix(0.13333333,0,0,-0.13333333,0,516.21333)" />
      <path
         id="path82"
         d="m 698.969,1468.77 c -62.5,0 -120.926,35.82 -139.227,86.13 v 0 c -1.293,3.55 -2.527,7.33 -3.707,11.31 -1.055,3.57 -2.07,7.31 -3.035,11.2 -9.496,38.24 -14.516,91.11 -14.512,145.54 0.004,58.35 5.782,118.49 17.996,164.31 0.024,0.08 0.043,0.16 0.063,0.23 v 0 c 0.019,0.08 0.039,0.15 0.062,0.23 l 0.004,0.02 c 0.02,0.07 0.039,0.14 0.055,0.21 0.004,0.01 0.004,0.01 0.008,0.02 10.574,38.97 32.203,63.16 59.859,77.31 2.684,-2.12 6.719,-4.24 12.516,-6.31 57.976,-20.7 356.137,-74.54 447.239,-95.24 91.1,-20.71 -41.41,-24.85 -45.55,-45.56 -1.14,-5.67 8.61,-7.61 22.94,-7.61 15.55,0 36.49,2.28 54.76,4.57 18.27,2.29 33.88,4.57 38.75,4.57 2.15,0 2.22,-0.44 -0.5,-1.53 -20.71,-8.28 -115.95,-70.4 -107.67,-82.82 1.23,-1.85 5.04,-2.6 10.47,-2.6 11.38,0 29.86,3.29 46.59,6.57 16.74,3.29 31.74,6.57 36.15,6.57 3.19,0 0.84,-1.72 -10.39,-6.4 -49.69,-20.7 -140.793,-91.1 -252.606,-161.5 -56.062,-35.3 -89.226,-73.72 -125.062,-102.74 -14.973,-4.42 -30.203,-6.48 -45.203,-6.48"
         style="fill:#434547;fill-opacity:1;fill-rule:nonzero;stroke:none"
         transform="matrix(0.13333333,0,0,-0.13333333,0,516.21333)"
         clip-path="url(#clipPath83)" />
      <path
         id="path84"
         d="m 1302.66,1721.08 4.85,3.18 c -0.26,0.3 -62.24,95.24 -148.43,148.39 -43.62,26.77 -119.54,49.47 -195.975,67.91 -76.367,18.37 -153.046,32.24 -197.023,40.38 -22.926,4.24 -46.355,6.98 -69.07,6.98 -32.707,-0.01 -64.039,-5.65 -90.004,-21.03 -25.981,-15.34 -46.18,-40.62 -56.125,-78.13 -12.41,-46.6 -18.184,-107.1 -18.192,-165.86 0.036,-66.59 7.356,-130.66 21.602,-169.98 9.695,-26.63 29.82,-49.09 55.453,-64.92 25.652,-15.83 56.891,-25.09 89.262,-25.09 27.472,-0.01 55.777,6.7 81.949,21.8 42.984,24.82 122.637,84.2 202.004,138.73 39.639,27.24 79.159,53.24 113.689,72.95 34.44,19.74 64.25,33.08 82.89,35.23 5.85,0.7 11.45,1.02 16.81,1.02 24.95,-0.01 44.68,-6.83 60.24,-13.81 7.79,-3.49 14.5,-7.03 20.39,-9.8 5.94,-2.73 10.9,-4.93 16.42,-5.03 3.59,-0.1 7.72,1.49 10.26,4.6 2.57,3.06 3.84,6.82 4.71,11.44 0.26,1.46 -0.04,2.98 -0.86,4.22 l -4.85,-3.18 -5.7,1.04 c -0.63,-3.57 -1.61,-5.45 -2.11,-5.98 -0.54,-0.48 -0.29,-0.44 -1.45,-0.54 -1.73,-0.09 -6,1.28 -11.48,3.93 -16.68,7.81 -44.94,24.74 -85.57,24.71 -5.81,0 -11.88,-0.34 -18.2,-1.1 -22.09,-2.75 -52.15,-16.7 -87.26,-36.67 -52.51,-30 -115.628,-73.82 -173.613,-114.74 -57.933,-40.9 -110.855,-78.95 -142.117,-96.97 -24.316,-14.03 -50.551,-20.25 -76.152,-20.25 -30.145,-0.01 -59.387,8.67 -83.168,23.36 -23.793,14.68 -42.039,35.31 -50.649,59.01 -13.441,36.83 -20.937,100.39 -20.902,166.02 -0.012,57.97 5.77,117.8 17.801,162.87 9.406,35.05 27.414,57.2 50.832,71.15 23.433,13.91 52.683,19.41 84.09,19.4 21.785,0 44.551,-2.64 66.957,-6.79 44,-8.14 120.461,-21.97 196.426,-40.25 75.895,-18.22 151.495,-41.14 192.605,-66.51 41.57,-25.57 77.91,-61.85 103.73,-91.72 12.92,-14.93 23.21,-28.26 30.27,-37.83 3.52,-4.79 6.24,-8.63 8.07,-11.28 0.91,-1.32 1.6,-2.34 2.06,-3.02 l 0.68,-1.02 4.85,3.18 -5.7,1.04 5.7,-1.04"
         style="fill:#17282f;fill-opacity:1;fill-rule:nonzero;stroke:none"
         transform="matrix(0.13333333,0,0,-0.13333333,0,516.21333)" />
      <path
         id="path85"
         d="m 1654.57,1277.94 c 0,0 74.94,-9.78 123.82,-29.33 48.88,-19.55 81.46,-140.11 61.91,-156.4 -19.55,-16.3 -58.65,3.26 -58.65,3.26 0,0 -55.39,-19.56 -94.5,-22.81 -39.1,-3.26 -81.46,182.47 -32.58,205.28"
         style="fill:#93d222;fill-opacity:1;fill-rule:nonzero;stroke:none"
         transform="matrix(0.13333333,0,0,-0.13333333,0,516.21333)" />
      <path
         id="path86"
         d="m 1654.57,1277.94 -0.75,-5.75 c 0.01,-0.01 4.6,-0.6 12.33,-1.82 23.15,-3.61 74.33,-12.81 110.09,-27.14 8.39,-3.33 16.88,-10.54 24.64,-20.37 11.68,-14.72 21.66,-35.1 28.57,-55.36 6.94,-20.23 10.83,-40.46 10.81,-54.43 0.01,-4.68 -0.44,-8.63 -1.21,-11.47 -0.75,-2.88 -1.84,-4.45 -2.46,-4.93 -4.32,-3.62 -10.29,-5.14 -17.13,-5.14 -8.15,-0.02 -17.12,2.23 -23.92,4.56 -3.4,1.15 -6.27,2.31 -8.26,3.18 -1,0.43 -1.78,0.79 -2.3,1.03 l -0.74,0.35 c -1.41,0.71 -3.04,0.81 -4.52,0.28 -0.01,0 -3.38,-1.19 -9.13,-3.05 -17.19,-5.61 -55.59,-17.11 -83.92,-19.44 l -0.54,-0.02 c -1.7,0 -3.8,0.67 -6.39,2.57 -4.52,3.28 -9.85,10.23 -14.76,19.62 -14.92,28.19 -26.67,77.6 -26.6,116.55 -0.01,14.23 1.56,27.07 4.81,36.8 3.27,9.8 8.02,16.04 13.83,18.72 l -2.45,5.26 -0.75,-5.75 0.75,5.75 -2.45,5.25 c -9.89,-4.65 -16.14,-14.14 -19.94,-25.57 -3.81,-11.51 -5.39,-25.39 -5.4,-40.46 0.02,-31.39 6.94,-67.93 17.27,-97.11 5.19,-14.6 11.2,-27.33 17.93,-36.8 3.37,-4.73 6.93,-8.67 10.88,-11.59 3.92,-2.9 8.41,-4.84 13.27,-4.84 l 1.5,0.06 c 40.38,3.41 95.71,23.07 95.95,23.12 l -1.93,5.47 -2.6,-5.19 c 0.4,-0.12 20.13,-10.25 40.41,-10.35 8.45,0 17.36,1.85 24.55,7.83 3.31,2.8 5.1,6.62 6.25,10.84 1.13,4.25 1.59,9.09 1.6,14.47 -0.05,21.25 -7.39,51.58 -19.7,79.25 -6.18,13.81 -13.61,26.91 -22.18,37.74 -8.59,10.81 -18.31,19.46 -29.44,23.94 -50.02,19.95 -124.99,29.63 -125.22,29.69 -1.09,0.14 -2.2,-0.03 -3.2,-0.5 l 2.45,-5.25"
         style="fill:#17282f;fill-opacity:1;fill-rule:nonzero;stroke:none"
         transform="matrix(0.13333333,0,0,-0.13333333,0,516.21333)" />
      <path
         id="path87"
         d="m 1406.93,1287.71 c 0,0 13.04,0 84.72,32.59 71.69,32.58 130.34,32.58 175.95,-39.1 45.62,-71.69 65.17,-159.66 39.1,-211.8 -26.06,-52.14 -123.81,-87.978 -175.95,-87.978 -52.14,0 -58.65,68.428 -58.65,68.428 0,0 -6.52,107.53 -39.1,146.63 -32.58,39.1 -39.1,81.46 -26.07,91.23"
         style="fill:#65696b;fill-opacity:1;fill-rule:nonzero;stroke:none"
         transform="matrix(0.13333333,0,0,-0.13333333,0,516.21333)" />
      <path
         id="path88"
         d="m 1406.93,1287.71 v -5.8 c 1.17,0.03 4.77,0.22 17.31,4.37 12.51,4.18 33.85,12.39 69.81,28.74 28.44,12.94 54.47,20.45 77.86,20.43 17.37,-0.01 33.3,-4.04 48.33,-13.13 15.02,-9.1 29.2,-23.39 42.47,-44.24 31.18,-48.93 49.92,-105.78 49.87,-152.29 0.01,-20.49 -3.6,-38.9 -11.06,-53.8 -11.86,-24 -41.83,-45.74 -75.41,-60.85 -33.49,-15.191 -70.55,-23.96 -95.36,-23.921 -11.75,0.031 -20.45,3.742 -27.51,9.41 -10.56,8.471 -17.13,21.901 -20.81,33.361 -1.85,5.71 -3,10.88 -3.68,14.59 -0.34,1.86 -0.56,3.34 -0.7,4.35 l -0.14,1.14 -0.04,0.33 -5.77,-0.55 5.79,0.35 c -0.01,0.14 -1.65,27.19 -7.41,59.33 -2.89,16.07 -6.8,33.41 -12.12,49.38 -5.35,15.97 -12.01,30.57 -20.91,41.28 -21.56,25.77 -31.1,53.26 -31.01,69.58 -0.01,3.75 0.49,6.85 1.27,9.09 0.79,2.25 1.79,3.54 2.7,4.21 l -3.48,4.64 v -5.8 5.8 l -3.48,4.64 c -3.22,-2.42 -5.36,-5.86 -6.69,-9.68 -1.33,-3.85 -1.92,-8.16 -1.92,-12.9 0.09,-20.33 10.74,-49.32 33.7,-77 7.4,-8.84 13.77,-22.34 18.81,-37.53 7.61,-22.8 12.39,-49.34 15.22,-70.09 1.42,-10.38 2.36,-19.32 2.94,-25.65 0.29,-3.16 0.49,-5.68 0.62,-7.39 0.13,-1.72 0.18,-2.61 0.18,-2.61 l 0.02,-0.2 c 0.05,-0.37 1.68,-17.97 10.31,-36.16 4.33,-9.08 10.46,-18.378 19.31,-25.538 8.82,-7.161 20.49,-12.012 34.8,-11.981 27.33,0.039 65.21,9.188 100.14,24.959 34.85,15.85 66.79,38.09 81,66.23 8.49,16.98 12.29,37.16 12.29,58.98 -0.04,49.54 -19.52,107.91 -51.68,158.52 -13.98,21.97 -29.37,37.71 -46.25,47.93 -16.87,10.24 -35.16,14.83 -54.34,14.81 -25.88,-0.01 -53.36,-8.17 -82.66,-21.47 -35.72,-16.24 -56.75,-24.32 -68.68,-28.29 -5.96,-1.99 -9.64,-2.95 -11.72,-3.4 -1.03,-0.23 -1.66,-0.32 -1.96,-0.36 l -0.2,-0.02 0.24,-3.46 v 3.46 h -0.24 l 0.24,-3.46 v 3.46 c -1.27,0 -2.47,-0.4 -3.48,-1.16 l 3.48,-4.64"
         style="fill:#17282f;fill-opacity:1;fill-rule:nonzero;stroke:none"
         transform="matrix(0.13333333,0,0,-0.13333333,0,516.21333)" />
      <path
         id="path89"
         d="m 1165.81,1721.08 c 71.69,26.06 162.92,9.78 195.5,-81.45 32.59,-91.24 61.91,-358.43 61.91,-358.43 0,0 81.46,-9.78 114.05,-45.62 32.58,-35.85 48.87,-127.08 42.36,-172.69 -6.52,-45.63 -120.57,-130.339 -250.9,-133.609 -130.33,-3.25 -224.83,58.66 -270.45,224.839 -45.62,166.18 -27.54,419.72 -27.54,419.72 0,0 16.57,74.55 41.41,91.11 l 93.66,56.13"
         style="fill:#93d222;fill-opacity:1;fill-rule:nonzero;stroke:none"
         transform="matrix(0.13333333,0,0,-0.13333333,0,516.21333)" />
      <path
         id="path90"
         d="m 1319.11,929.16 c -0.01,0 -0.02,0 -0.04,0 -125.34,0.02 -216.31,62.91 -260.79,224.96 v 0 0 c -0.03,0.1 -0.05,0.2 -0.08,0.3 v 0 c -28.43,103.83 -31.48,248.21 -29.77,341.95 4.71,30.71 17.88,63.93 52.97,63.93 5.93,0 12.49,-0.95 19.74,-3.02 86.96,-24.84 95.24,-351.99 124.24,-426.54 27.41,-70.47 109.99,-113.37 183.7,-113.37 71.23,0.01 134.18,40.08 131.02,134.08 -1.39,41.15 -4.39,69.73 -7.1,88.24 1.44,-1.33 2.91,-2.63 4.2,-4.04 0.02,-0.02 0.04,-0.04 0.07,-0.07 v 0 c 27.84,-30.63 43.79,-101.7 43.77,-150.19 0,-8.26 -0.47,-15.87 -1.41,-22.5 -2.89,-20.22 -26.89,-48.11 -64.07,-73.191 -3.74,-2.527 -7.61,-5.019 -11.61,-7.48 -11.34,-6.957 -23.68,-13.61 -36.86,-19.699 -3.61,-1.668 -7.27,-3.29 -10.99,-4.872 -25.65,-10.867 -54.07,-19.519 -83.98,-24.316 -3.82,-0.613 -7.65,-1.16 -11.52,-1.641 -10.48,-1.312 -21.12,-2.14 -31.87,-2.41 v 0 c -0.2,0 -0.4,-0.011 -0.6,-0.011 -3.02,-0.071 -6.04,-0.11 -9.02,-0.11 v 0"
         style="fill:#65c030;fill-opacity:1;fill-rule:nonzero;stroke:none"
         transform="matrix(0.13333333,0,0,-0.13333333,0,516.21333)"
         clip-path="url(#clipPath91)" />
      <path
         id="path92"
         d="m 1167.79,1715.63 c 19.31,7.02 40.11,10.87 60.65,10.87 26.7,0 52.92,-6.48 75.21,-20.72 22.29,-14.27 40.81,-36.27 52.2,-68.1 7.96,-22.26 15.89,-55.92 23.19,-93.65 10.96,-56.63 20.57,-122.53 27.44,-174.24 3.43,-25.86 6.18,-48.17 8.06,-64.02 1.89,-15.84 2.92,-25.18 2.92,-25.2 0.29,-2.69 2.4,-4.81 5.07,-5.13 0.01,0 1.18,-0.14 3.41,-0.47 7.82,-1.15 28.06,-4.55 49.64,-11.47 21.59,-6.87 44.45,-17.47 57.4,-31.82 12.85,-14.05 23.73,-38.85 31.01,-65.97 7.33,-27.12 11.26,-56.63 11.25,-80.25 0,-8.07 -0.45,-15.45 -1.36,-21.75 -1.24,-9.34 -8.86,-22.62 -22.09,-36.5 -19.77,-20.91 -51.63,-43.48 -90.5,-60.96 -38.87,-17.512 -84.74,-29.969 -132.7,-31.168 -3.18,-0.082 -6.34,-0.121 -9.48,-0.121 -61.75,0.027 -114.28,15.41 -157.07,50.391 -42.78,34.998 -76.12,90.028 -98.16,170.298 -25.21,91.73 -30.89,211.35 -30.88,298.98 0,34.73 0.89,64.46 1.77,85.49 0.44,10.51 0.88,18.85 1.21,24.56 0.33,5.7 0.54,8.74 0.54,8.75 l -5.78,0.41 5.66,-1.25 c 0,0 0.24,1.09 0.74,3.12 1.71,7.11 6.4,25.28 13.27,43.24 3.42,8.97 7.4,17.89 11.72,25.26 4.28,7.39 9.02,13.15 13.24,15.91 2.66,1.78 3.38,5.38 1.61,8.05 -1.78,2.66 -5.38,3.38 -8.05,1.6 -7.59,-5.13 -13.52,-13.56 -18.83,-23.28 -15.71,-29.11 -24.93,-71.14 -25.02,-71.39 l -0.13,-0.84 c 0,-0.1 -3.54,-49.78 -3.54,-119.63 0.01,-88.17 5.58,-208.35 31.28,-302.05 22.44,-81.79 56.83,-139.24 102,-176.201 45.17,-36.981 100.81,-53.039 164.42,-53.02 3.24,0 6.49,0.039 9.77,0.129 66.39,1.672 128.32,24 174.71,51.731 23.2,13.89 42.52,29.121 56.62,44.011 14.07,14.94 23.14,29.37 25.16,42.84 1,7 1.47,14.88 1.47,23.39 -0.01,24.87 -4.05,55.11 -11.65,83.27 -7.65,28.16 -18.66,54.19 -33.63,70.75 -17.8,19.42 -47.06,30.8 -71.95,37.93 -24.9,7.05 -45.51,9.52 -45.7,9.55 l -0.69,-5.76 5.77,0.63 c -0.01,0.04 -7.34,66.89 -18.76,145.2 -5.71,39.16 -12.45,81.19 -19.8,119.2 -7.37,38.03 -15.32,71.98 -23.65,95.35 -12.14,34.03 -32.43,58.37 -56.88,73.97 -24.46,15.62 -52.91,22.55 -81.46,22.55 -21.99,0 -44.07,-4.1 -64.61,-11.57 -3.02,-1.09 -4.57,-4.42 -3.47,-7.43 1.09,-3.01 4.42,-4.56 7.43,-3.47"
         style="fill:#17282f;fill-opacity:1;fill-rule:nonzero;stroke:none"
         transform="matrix(0.13333333,0,0,-0.13333333,0,516.21333)" />
      <path
         id="path93"
         d="m 1417.55,1279.98 0.06,-0.3 c 0.33,-1.7 1.8,-10.08 1.8,-22.59 0,-18.41 -3.19,-45.7 -17.72,-73.99 -14.56,-28.3 -40.37,-57.76 -86.46,-80.84 -2.87,-1.43 -4.03,-4.91 -2.59,-7.78 1.43,-2.86 4.91,-4.02 7.78,-2.59 48.11,24.03 76,55.5 91.59,85.91 15.6,30.4 19,59.57 19,79.29 0,15.34 -2.05,25.01 -2.11,25.32 -0.68,3.13 -3.76,5.13 -6.89,4.46 -3.13,-0.67 -5.13,-3.75 -4.46,-6.89"
         style="fill:#17282f;fill-opacity:1;fill-rule:nonzero;stroke:none"
         transform="matrix(0.13333333,0,0,-0.13333333,0,516.21333)" />
      <path
         id="path94"
         d="m 787.035,3254.92 c 0,-20.15 7.957,-35 28.367,-35 20.684,0 28.895,14.85 28.895,35 v 96.51 c 0,20.15 -8.211,35 -28.895,35 -20.41,0 -28.367,-14.85 -28.367,-35 z m -12.195,95.71 c 0,27.05 12.461,46.93 40.562,46.93 28.637,0 41.098,-19.88 41.098,-46.93 v -94.92 c 0,-27.04 -12.461,-46.92 -41.098,-46.92 -28.101,0 -40.562,19.88 -40.562,46.92 v 94.92"
         style="fill:#17282f;fill-opacity:1;fill-rule:nonzero;stroke:none"
         transform="matrix(0.13333333,0,0,-0.13333333,0,516.21333)" />
      <path
         id="path95"
         d="m 888.078,3254.92 c 0,-20.15 7.953,-35 28.363,-35 20.684,0 28.899,14.85 28.899,35 v 96.51 c 0,20.15 -8.215,35 -28.899,35 -20.41,0 -28.363,-14.85 -28.363,-35 z m -12.199,95.71 c 0,27.05 12.461,46.93 40.562,46.93 28.637,0 41.098,-19.88 41.098,-46.93 v -94.92 c 0,-27.04 -12.461,-46.92 -41.098,-46.92 -28.101,0 -40.562,19.88 -40.562,46.92 v 94.92"
         style="fill:#17282f;fill-opacity:1;fill-rule:nonzero;stroke:none"
         transform="matrix(0.13333333,0,0,-0.13333333,0,516.21333)" />
      <path
         id="path96"
         d="m 1012.97,3297.87 c 21.47,0 30.75,9.54 30.75,32.08 v 21.74 c 0,20.15 -6.89,33.15 -27.57,33.15 h -26.248 v -86.97 z m 3.18,98.1 c 28.63,0 39.77,-18.03 39.77,-45.07 v -20.15 c 0,-29.43 -13.53,-44.02 -42.95,-44.02 h -23.068 v -76.35 h -12.203 v 185.59 h 38.451"
         style="fill:#17282f;fill-opacity:1;fill-rule:nonzero;stroke:none"
         transform="matrix(0.13333333,0,0,-0.13333333,0,516.21333)" />
      <path
         id="path97"
         d="m 1152.45,3351.16 v -3.98 h -11.67 v 4.78 c 0,19.62 -7.41,34.47 -27.57,34.47 -20.15,0 -27.57,-14.59 -27.57,-34.21 0,-45.06 67.08,-45.86 67.08,-97.04 0,-26.77 -11.66,-46.39 -40.04,-46.39 -28.36,0 -40.03,19.62 -40.03,46.39 v 9.55 h 11.67 v -10.34 c 0,-19.89 7.67,-34.2 28.1,-34.2 20.41,0 28.1,14.31 28.1,34.2 0,44.54 -67.08,45.34 -67.08,97.04 0,27.84 12.2,45.87 39.51,46.13 28.11,0 39.5,-19.62 39.5,-46.4"
         style="fill:#17282f;fill-opacity:1;fill-rule:nonzero;stroke:none"
         transform="matrix(0.13333333,0,0,-0.13333333,0,516.21333)" />
      <path
         id="path98"
         d="m 1182.97,3233.71 v -23.33 h -11.94 v 23.33 h 11.94"
         style="fill:#17282f;fill-opacity:1;fill-rule:nonzero;stroke:none"
         transform="matrix(0.13333333,0,0,-0.13333333,0,516.21333)" />
      <path
         id="path99"
         d="m 1216.12,3233.71 v -23.33 h -11.94 v 23.33 h 11.94"
         style="fill:#17282f;fill-opacity:1;fill-rule:nonzero;stroke:none"
         transform="matrix(0.13333333,0,0,-0.13333333,0,516.21333)" />
      <path
         id="path100"
         d="m 1249.26,3233.71 v -23.33 h -11.93 v 23.33 h 11.93"
         style="fill:#17282f;fill-opacity:1;fill-rule:nonzero;stroke:none"
         transform="matrix(0.13333333,0,0,-0.13333333,0,516.21333)" />
      <path
         id="path101"
         d="m 810.895,3027.84 c 21.472,0 30.753,9.54 30.753,32.07 v 21.75 c 0,20.15 -6.886,33.14 -27.57,33.14 h -26.246 v -86.96 z m 3.183,98.09 c 28.633,0 39.77,-18.02 39.77,-45.06 v -20.16 c 0,-29.42 -13.524,-44.01 -42.953,-44.01 h -23.063 v -76.36 h -12.199 v 185.59 h 38.445"
         style="fill:#17282f;fill-opacity:1;fill-rule:nonzero;stroke:none"
         transform="matrix(0.13333333,0,0,-0.13333333,0,516.21333)" />
      <path
         id="path102"
         d="m 888.34,2992.04 h 54.09 l -27.313,120.1 z m -1.86,-10.6 -9.277,-41.1 H 866.07 l 40.563,185.86 h 17.773 l 41.356,-185.86 h -12.199 l -9.282,41.1 H 886.48"
         style="fill:#17282f;fill-opacity:1;fill-rule:nonzero;stroke:none"
         transform="matrix(0.13333333,0,0,-0.13333333,0,516.21333)" />
      <path
         id="path103"
         d="m 1063.36,3080.6 v -13.79 h -11.67 v 14.58 c 0,19.89 -7.69,35 -28.1,35 -20.41,0 -28.106,-15.11 -28.106,-35 v -96.51 c 0,-19.88 7.696,-34.73 28.106,-34.73 20.41,0 28.1,14.85 28.1,34.73 v 40.04 h -24.66 v 11.13 h 36.33 v -50.37 c 0,-26.78 -11.67,-46.93 -40.04,-46.93 -28.367,0 -40.035,20.15 -40.035,46.93 v 94.92 c 0,26.78 11.668,46.93 40.035,46.93 28.37,0 40.04,-20.15 40.04,-46.93"
         style="fill:#17282f;fill-opacity:1;fill-rule:nonzero;stroke:none"
         transform="matrix(0.13333333,0,0,-0.13333333,0,516.21333)" />
      <path
         id="path104"
         d="m 1146.63,3040.04 v -11.15 h -50.65 v -77.41 h 60.98 v -11.14 h -73.17 v 185.59 h 73.17 v -11.13 h -60.98 v -74.76 h 50.65"
         style="fill:#17282f;fill-opacity:1;fill-rule:nonzero;stroke:none"
         transform="matrix(0.13333333,0,0,-0.13333333,0,516.21333)" />
      <path
         id="path105"
         d="m 1229.1,2940.34 h -11.13 v 185.59 h 15.91 l 55.68,-156.68 v 156.68 h 11.13 v -185.59 h -13.52 l -58.07,165.45 v -165.45"
         style="fill:#17282f;fill-opacity:1;fill-rule:nonzero;stroke:none"
         transform="matrix(0.13333333,0,0,-0.13333333,0,516.21333)" />
      <path
         id="path106"
         d="m 1333.07,2984.88 c 0,-20.14 7.95,-34.99 28.36,-34.99 20.69,0 28.89,14.85 28.89,34.99 v 96.51 c 0,20.16 -8.2,35 -28.89,35 -20.41,0 -28.36,-14.84 -28.36,-35 z m -12.2,95.72 c 0,27.04 12.46,46.93 40.56,46.93 28.63,0 41.1,-19.89 41.1,-46.93 v -94.92 c 0,-27.04 -12.47,-46.93 -41.1,-46.93 -28.1,0 -40.56,19.89 -40.56,46.93 v 94.92"
         style="fill:#17282f;fill-opacity:1;fill-rule:nonzero;stroke:none"
         transform="matrix(0.13333333,0,0,-0.13333333,0,516.21333)" />
      <path
         id="path107"
         d="m 1453.98,2940.34 v 174.46 h -37.65 v 11.13 h 87.76 v -11.13 h -37.92 v -174.46 h -12.19"
         style="fill:#17282f;fill-opacity:1;fill-rule:nonzero;stroke:none"
         transform="matrix(0.13333333,0,0,-0.13333333,0,516.21333)" />
      <path
         id="path108"
         d="m 1620.51,3035.52 v -11.13 h -47.98 v -84.05 h -12.2 v 185.59 h 70.53 v -11.13 h -58.33 v -79.28 h 47.98"
         style="fill:#17282f;fill-opacity:1;fill-rule:nonzero;stroke:none"
         transform="matrix(0.13333333,0,0,-0.13333333,0,516.21333)" />
      <path
         id="path109"
         d="m 1660.84,2984.88 c 0,-20.14 7.95,-34.99 28.36,-34.99 20.68,0 28.9,14.85 28.9,34.99 v 96.51 c 0,20.16 -8.22,35 -28.9,35 -20.41,0 -28.36,-14.84 -28.36,-35 z m -12.2,95.72 c 0,27.04 12.45,46.93 40.56,46.93 28.64,0 41.09,-19.89 41.09,-46.93 v -94.92 c 0,-27.04 -12.45,-46.93 -41.09,-46.93 -28.11,0 -40.56,19.89 -40.56,46.93 v 94.92"
         style="fill:#17282f;fill-opacity:1;fill-rule:nonzero;stroke:none"
         transform="matrix(0.13333333,0,0,-0.13333333,0,516.21333)" />
      <path
         id="path110"
         d="m 1762.14,2985.15 c 0,-19.89 7.43,-35.26 27.85,-35.26 20.41,0 27.83,15.37 27.83,35.26 v 140.78 h 11.4 v -140.25 c 0,-26.51 -11.13,-46.93 -39.51,-46.93 -28.37,0 -39.77,20.42 -39.77,46.93 v 140.25 h 12.2 v -140.78"
         style="fill:#17282f;fill-opacity:1;fill-rule:nonzero;stroke:none"
         transform="matrix(0.13333333,0,0,-0.13333333,0,516.21333)" />
      <path
         id="path111"
         d="m 1861.31,2940.34 h -11.13 v 185.59 h 15.91 l 55.68,-156.68 v 156.68 h 11.14 v -185.59 h -13.53 l -58.07,165.45 v -165.45"
         style="fill:#17282f;fill-opacity:1;fill-rule:nonzero;stroke:none"
         transform="matrix(0.13333333,0,0,-0.13333333,0,516.21333)" />
      <path
         id="path112"
         d="m 1994.43,2951.48 c 20.69,0 29.17,14.05 29.17,34.47 v 94.39 c 0,20.41 -8.74,34.46 -29.17,34.46 h -28.36 v -163.32 z m 0.28,174.45 c 28.63,0 41.09,-18.82 41.09,-46.13 v -93.33 c 0,-27.3 -12.46,-46.13 -41.09,-46.13 h -40.84 v 185.59 h 40.84"
         style="fill:#17282f;fill-opacity:1;fill-rule:nonzero;stroke:none"
         transform="matrix(0.13333333,0,0,-0.13333333,0,516.21333)" />
      <path
         id="path113"
         d="m 2751.74,1222.54 v 173.67 l -73.3,-173.67 z m -140,0 132.08,312.35 h 79.24 v -312.35 h 34.34 v -66.03 h -34.34 v -83.88 h -71.32 v 83.88 h -140 v 66.03"
         style="fill:#17282f;fill-opacity:1;fill-rule:nonzero;stroke:none"
         transform="matrix(0.13333333,0,0,-0.13333333,0,516.21333)" />
      <path
         id="path114"
         d="m 2957.11,1178.95 c 0,-33.02 14.53,-45.56 37.65,-45.56 23.1,0 37.63,12.54 37.63,45.56 v 249.62 c 0,33.02 -14.53,45.57 -37.63,45.57 -23.12,0 -37.65,-12.55 -37.65,-45.57 z m -72.64,244.99 c 0,73.97 38.97,116.22 110.29,116.22 71.32,0 110.27,-42.25 110.27,-116.22 v -240.36 c 0,-73.95 -38.95,-116.22 -110.27,-116.22 -71.32,0 -110.29,42.27 -110.29,116.22 v 240.36"
         style="fill:#17282f;fill-opacity:1;fill-rule:nonzero;stroke:none"
         transform="matrix(0.13333333,0,0,-0.13333333,0,516.21333)" />
      <path
         id="path115"
         d="m 3274.74,1222.54 v 173.67 l -73.3,-173.67 z m -140,0 132.08,312.35 h 79.24 v -312.35 h 34.34 v -66.03 h -34.34 v -83.88 h -71.32 v 83.88 h -140 v 66.03"
         style="fill:#17282f;fill-opacity:1;fill-rule:nonzero;stroke:none"
         transform="matrix(0.13333333,0,0,-0.13333333,0,516.21333)" />
    </g>
  </g>
</svg>
